<?xml version="1.0" standalone="no"?>
<!DOCTYPE svg PUBLIC "-//W3C//DTD SVG 20010904//EN"
 "http://www.w3.org/TR/2001/REC-SVG-20010904/DTD/svg10.dtd">
<svg version="1.0" xmlns="http://www.w3.org/2000/svg"
 width="700.000000pt" height="700.000000pt" viewBox="0 0 700.000000 700.000000"
 preserveAspectRatio="xMidYMid meet">
<metadata>
Created by potrace 1.14, written by Peter Selinger 2001-2017
</metadata>
<g transform="translate(0.000000,700.000000) scale(0.100000,-0.100000)"
fill="#000000" stroke="none">
<path d="M389 6995 c-3 -2 -18 -6 -35 -9 -113 -20 -245 -124 -300 -235 -57
-118 -54 98 -54 -3236 0 -2187 3 -3098 11 -3140 31 -168 160 -308 327 -356 65
-18 154 -19 3160 -19 2136 0 3107 3 3140 11 149 33 279 149 336 297 l21 57 3
3115 c2 3045 2 3117 -17 3182 -30 103 -76 172 -161 238 -63 49 -84 60 -159 81
-64 18 -165 19 -3167 19 -1705 0 -3103 -2 -3105 -5z"/>
</g>
</svg>
