<?xml version="1.0" standalone="no"?>
<!DOCTYPE svg PUBLIC "-//W3C//DTD SVG 20010904//EN"
 "http://www.w3.org/TR/2001/REC-SVG-20010904/DTD/svg10.dtd">
<svg version="1.0" xmlns="http://www.w3.org/2000/svg"
 width="700.000000pt" height="700.000000pt" viewBox="0 0 700.000000 700.000000"
 preserveAspectRatio="xMidYMid meet">
<metadata>
Created by potrace 1.14, written by Peter Selinger 2001-2017
</metadata>
<g transform="translate(0.000000,700.000000) scale(0.100000,-0.100000)"
fill="#000000" stroke="none">
<path d="M1560 6990 c-25 -4 -63 -10 -85 -13 -343 -49 -688 -224 -944 -477
-115 -113 -134 -136 -211 -243 -162 -227 -274 -520 -308 -802 -9 -81 -9 -3844
1 -3920 4 -33 9 -71 12 -85 3 -14 10 -48 16 -77 32 -169 142 -424 253 -590
287 -431 734 -705 1256 -771 76 -10 3842 -9 3911 1 31 4 65 9 75 11 11 2 37 6
59 10 183 31 442 139 624 261 171 115 316 253 449 430 130 172 264 480 298
685 2 14 7 35 9 48 18 76 20 313 20 2032 0 1695 -3 1973 -20 2061 -3 13 -7 35
-10 49 -2 14 -12 52 -21 85 -8 33 -17 67 -19 75 -16 70 -108 275 -186 410 -32
56 -128 182 -202 263 -237 263 -599 468 -940 532 -45 8 -98 19 -117 22 -48 10
-3864 12 -3920 3z"/>
</g>
</svg>
