<?xml version="1.0" standalone="no"?>
<!DOCTYPE svg PUBLIC "-//W3C//DTD SVG 20010904//EN"
 "http://www.w3.org/TR/2001/REC-SVG-20010904/DTD/svg10.dtd">
<svg version="1.0" xmlns="http://www.w3.org/2000/svg"
 width="700.000000pt" height="700.000000pt" viewBox="0 0 700.000000 700.000000"
 preserveAspectRatio="xMidYMid meet">
<metadata>
Created by potrace 1.14, written by Peter Selinger 2001-2017
</metadata>
<g transform="translate(0.000000,700.000000) scale(0.100000,-0.100000)"
fill="#000000" stroke="none">
<path d="M2745 6580 c-83 -11 -257 -56 -335 -87 -36 -14 -105 -46 -155 -72
-77 -39 -107 -62 -210 -166 -287 -288 -344 -380 -361 -588 -6 -63 -12 -89 -30
-113 -34 -44 -54 -98 -54 -145 0 -33 -7 -49 -35 -80 -37 -42 -37 -41 -35 -164
2 -95 17 -127 94 -187 63 -50 80 -84 95 -186 7 -45 21 -112 31 -151 11 -39 20
-97 20 -130 0 -70 22 -105 79 -122 30 -9 44 -8 74 4 36 15 37 15 57 -10 22
-28 50 -112 50 -149 0 -13 11 -58 25 -101 28 -89 74 -155 212 -305 92 -100
104 -122 148 -280 11 -37 36 -84 74 -135 75 -102 78 -108 55 -95 -11 6 -28 20
-38 31 -36 39 -111 80 -188 101 -43 12 -82 19 -87 16 -5 -3 -68 -13 -140 -21
l-132 -14 -147 -77 c-294 -154 -360 -184 -408 -184 -29 0 -44 -4 -44 -13 0
-29 33 -56 85 -71 48 -14 61 -25 114 -90 70 -86 80 -93 195 -140 104 -43 231
-57 338 -37 114 22 282 72 312 93 l30 21 15 -24 c57 -86 105 -110 139 -69 10
11 35 23 57 27 22 3 54 17 71 30 l31 23 37 -45 c50 -60 106 -91 190 -104 55
-8 76 -16 100 -40 17 -16 63 -46 102 -65 79 -39 94 -61 94 -142 0 -41 -2 -45
-37 -59 -52 -22 -143 -103 -159 -142 -20 -47 -17 -62 16 -81 16 -9 30 -20 30
-24 0 -4 -16 -15 -35 -24 -20 -9 -44 -28 -55 -41 -38 -49 -38 -140 0 -150 18
-5 19 -11 14 -57 -5 -43 -3 -55 16 -79 38 -48 95 -70 163 -64 l59 5 -7 -26
c-3 -14 -16 -33 -27 -40 -19 -14 -19 -16 -3 -24 11 -7 27 -6 46 3 30 12 67 6
142 -23 47 -18 29 -48 -28 -48 -13 0 -26 4 -29 9 -4 5 -43 7 -89 4 -160 -10
-172 -9 -172 7 0 12 12 14 58 12 35 -2 57 1 57 7 0 6 -7 11 -15 11 -8 0 -15 5
-15 10 0 11 -110 14 -147 4 -47 -13 -37 -72 16 -94 31 -12 366 -8 461 6 41 6
43 5 31 -10 -10 -11 -23 -15 -40 -11 -35 7 -119 -9 -181 -36 -73 -31 -56 -33
31 -4 43 15 90 25 113 23 l39 -3 0 -79 c-1 -98 -10 -109 -98 -114 -87 -6 -105
9 -105 85 0 65 -12 66 -52 6 -24 -35 -34 -42 -84 -51 -51 -11 -59 -10 -86 9
-16 12 -27 26 -25 32 2 7 36 17 76 24 41 7 76 15 80 19 7 8 -96 -1 -186 -17
-71 -12 -79 -24 -69 -93 6 -38 11 -43 59 -66 62 -29 166 -31 262 -6 32 9 75
16 95 16 19 0 64 7 100 16 36 9 100 15 143 14 44 0 84 3 91 9 7 6 60 5 148 -4
153 -14 168 -19 338 -121 90 -54 159 -86 225 -104 86 -24 116 -30 154 -30 36
0 52 -8 104 -50 34 -28 67 -50 74 -50 16 0 213 271 213 293 0 10 -120 77 -137
77 -8 0 -52 16 -96 36 -110 50 -254 90 -376 105 -121 15 -149 4 -73 -29 26
-12 82 -36 123 -55 41 -19 105 -49 143 -66 38 -17 67 -34 63 -37 -9 -10 -79
-23 -177 -34 -87 -10 -97 -9 -147 12 -48 20 -52 23 -32 30 20 8 13 14 -64 61
-47 28 -108 71 -134 94 -48 40 -49 41 -82 27 -26 -11 -32 -19 -28 -34 3 -13 0
-20 -9 -20 -8 0 -19 -9 -26 -20 -17 -27 -58 -27 -58 -1 0 11 -4 22 -9 26 -5 3
-12 18 -16 34 -3 16 -13 35 -21 42 -12 10 -14 4 -14 -38 0 -78 -47 -123 -129
-123 -32 0 -47 7 -85 43 -45 40 -46 43 -37 76 17 56 37 77 87 91 42 12 51 12
76 -3 50 -29 73 -21 42 15 -14 15 -15 20 -3 34 8 10 29 23 48 31 33 14 34 14
71 -22 34 -33 40 -36 60 -25 14 7 38 10 63 6 22 -4 43 -3 46 1 12 17 71 53 85
53 17 0 26 13 42 57 14 40 17 39 -142 58 -66 8 -133 17 -150 20 -20 5 -34 3
-39 -4 -5 -8 -36 -10 -108 -5 -81 6 -114 13 -161 35 -33 16 -80 31 -105 34
-118 15 -111 11 -111 59 0 23 -6 50 -13 60 -12 17 -16 15 -54 -28 -42 -48 -61
-54 -110 -35 -62 23 -46 59 28 59 26 0 72 10 101 21 83 34 172 31 288 -10 52
-18 111 -44 131 -57 35 -24 69 -32 69 -15 0 14 51 20 82 9 21 -8 33 -7 45 3
11 10 51 14 132 16 145 1 141 1 141 13 0 12 -103 79 -153 98 -34 14 -39 14
-50 -1 -16 -21 -37 -24 -64 -9 -18 10 -23 10 -23 1 0 -7 -3 -9 -7 -5 -4 4 -8
15 -8 24 0 12 -7 16 -25 15 -14 -2 -79 -4 -145 -7 -66 -2 -202 -7 -302 -11
l-183 -8 -14 34 c-27 67 -28 97 -3 113 55 36 168 56 312 56 128 0 250 -11 287
-25 9 -4 22 4 33 21 15 24 15 28 2 42 -14 13 -26 13 -84 4 -37 -6 -95 -8 -128
-5 -39 3 -89 -1 -145 -12 -94 -20 -253 -26 -269 -10 -26 27 -22 60 13 102 29
33 49 45 105 62 37 11 93 25 122 30 l54 9 -52 1 -53 1 0 39 c0 22 -6 44 -15
51 -18 15 -20 13 -35 -20 -12 -28 -7 2 5 33 6 14 2 17 -29 17 -36 0 -48 -13
-21 -23 19 -8 17 -127 -2 -127 -8 0 -13 13 -13 37 0 20 -10 56 -21 80 -18 37
-31 49 -87 75 -70 33 -139 94 -169 149 -15 28 -18 63 -21 194 -2 88 -8 164
-13 170 -17 17 -9 20 44 17 40 -3 57 0 67 13 26 32 -24 44 -104 26 -68 -16
-95 15 -51 58 l25 26 279 3 278 3 17 -26 c16 -24 16 -29 3 -43 -20 -19 -47 -9
-47 19 0 15 -4 19 -16 15 -9 -3 -19 -6 -24 -6 -6 0 -30 -52 -30 -66 0 -1 15
-4 33 -6 31 -3 32 -4 35 -58 3 -56 3 -56 -33 -68 -19 -7 -40 -10 -46 -6 -19
12 -213 4 -221 -9 -5 -7 -6 -50 -2 -97 5 -75 9 -88 34 -114 25 -26 35 -29 81
-27 56 2 145 37 170 67 9 11 14 44 15 93 1 75 2 76 28 79 l27 3 -4 -103 c-5
-141 -33 -197 -112 -224 -29 -9 -35 -8 -49 8 -14 16 -28 18 -79 16 -56 -3 -62
-5 -65 -27 -7 -44 6 -69 43 -81 57 -19 136 10 214 78 73 64 98 111 107 201 6
53 5 61 -10 61 -28 0 -32 31 -6 50 25 19 20 40 -11 40 -16 0 -19 7 -19 53 0
30 2 56 5 59 3 3 22 0 43 -7 l37 -13 -1 -129 c-1 -172 -22 -225 -136 -347 -44
-47 -77 -86 -74 -86 3 0 30 20 60 44 30 25 89 59 132 77 110 45 175 92 279
200 50 52 107 106 127 122 22 16 35 33 32 41 -6 15 -112 66 -136 66 -9 0 -32
11 -52 25 -20 14 -51 32 -69 41 -17 9 -46 31 -62 49 -29 31 -35 33 -130 40
-55 4 -111 13 -125 20 -14 7 -86 22 -160 33 -150 23 -177 21 -314 -24 -74 -25
-139 -58 -233 -117 l-41 -26 -29 37 c-15 20 -27 39 -26 42 1 3 25 57 53 120
57 130 113 218 200 313 71 77 132 118 219 146 35 11 100 41 145 65 44 24 127
63 184 85 56 23 147 63 202 91 134 67 143 85 118 229 -10 61 -9 82 10 178 12
60 22 118 22 130 0 13 16 30 45 49 54 34 130 145 172 252 27 67 34 76 80 102
108 62 150 150 155 325 1 68 -1 77 -35 134 -56 95 -145 211 -171 222 -19 9
-32 40 -74 172 -28 89 -58 187 -66 218 -29 106 -107 189 -214 230 -73 27 -198
59 -232 59 -14 0 -82 20 -151 45 -145 53 -238 78 -369 100 -102 16 -150 17
-245 5z m346 -44 c52 -13 168 -53 259 -89 130 -51 166 -69 168 -84 2 -11 14
-25 28 -31 23 -11 34 -42 14 -42 -11 0 6 -45 26 -70 7 -8 14 -24 16 -35 2 -16
-2 -19 -19 -17 -31 4 -29 -3 12 -51 40 -46 44 -62 15 -54 -29 7 -25 -7 21 -74
30 -45 36 -58 21 -50 -55 29 -56 -4 -2 -53 41 -37 52 -66 25 -66 -18 0 -19
-14 -2 -40 8 -15 9 -23 1 -28 -6 -4 -12 -14 -12 -22 -7 -65 -10 -96 -12 -100
-9 -22 31 -163 55 -190 16 -19 50 -113 59 -162 4 -23 16 -42 31 -52 27 -18 32
-45 13 -64 -8 -8 -8 -15 2 -27 9 -10 11 -31 7 -66 l-6 -50 33 6 c44 9 52 -13
21 -55 -22 -30 -23 -35 -11 -64 11 -27 17 -31 51 -30 40 2 58 18 49 46 -3 10
3 21 14 27 37 20 53 109 32 168 -6 15 -22 37 -36 49 -16 13 -23 26 -18 37 11
29 21 20 63 -58 23 -41 46 -75 52 -75 6 0 5 -9 -2 -22 -7 -13 -25 -58 -40
-102 -16 -43 -36 -87 -46 -98 -14 -16 -133 -78 -149 -78 -2 0 -13 19 -25 41
-15 30 -19 51 -14 75 8 43 -11 45 -47 7 -42 -45 -51 -73 -58 -168 -5 -78 -12
-102 -48 -179 -34 -71 -57 -104 -124 -172 -45 -46 -86 -84 -91 -84 -5 0 -5 18
-1 43 11 59 6 118 -13 146 l-16 25 -22 -27 c-13 -14 -33 -56 -45 -93 -31 -91
-101 -165 -180 -189 -80 -24 -160 -31 -170 -15 -6 9 -30 -5 -88 -53 -100 -81
-167 -108 -276 -110 -96 -1 -146 14 -180 54 -77 91 -42 187 95 265 43 24 73
34 104 34 62 0 102 35 102 90 l0 40 -41 -6 c-48 -7 -102 -18 -168 -34 -35 -8
-52 -8 -68 0 -37 20 -16 35 64 47 42 6 91 16 109 22 46 15 168 38 269 51 48 6
100 15 117 21 23 8 35 7 55 -6 34 -23 34 -66 1 -124 -32 -55 -21 -72 27 -44
62 36 101 128 79 186 -16 42 -156 141 -169 120 -4 -5 -17 -15 -29 -22 -16 -8
-23 -21 -23 -41 0 -25 -4 -30 -36 -36 -19 -3 -83 -1 -142 5 -59 7 -115 9 -124
6 -11 -4 -20 0 -27 14 -28 51 2 117 78 171 23 17 46 42 51 55 5 13 24 32 42
41 18 9 47 29 63 44 20 18 50 32 87 40 51 10 60 9 99 -11 23 -11 66 -45 95
-74 60 -60 88 -131 78 -196 -6 -35 -4 -39 15 -39 25 0 36 -20 27 -54 -4 -15
-13 -23 -23 -22 -14 1 -18 -7 -18 -44 -1 -30 -10 -62 -28 -95 -38 -67 -44 -75
-104 -119 -29 -21 -53 -42 -53 -47 0 -5 17 -9 38 -9 84 0 205 107 219 193 5
34 17 52 69 100 70 65 94 116 94 201 0 66 -30 126 -88 174 -70 58 -98 69 -223
88 -126 18 -138 24 -214 105 -48 52 -49 52 -104 50 -83 -3 -90 -12 -42 -50 23
-19 41 -41 41 -52 0 -18 -5 -20 -44 -14 -51 8 -105 -7 -131 -35 -22 -25 -39
-26 -26 -2 5 9 11 31 12 47 4 28 2 30 -25 27 -41 -5 -78 -26 -117 -67 -37 -38
-54 -43 -86 -20 -25 17 -34 65 -22 120 4 22 13 72 19 110 17 112 41 199 57
212 20 16 10 29 -28 37 -19 3 -47 23 -70 48 -24 26 -68 57 -111 78 -56 27 -82
47 -113 87 -61 78 -82 66 -38 -20 8 -16 12 -31 10 -33 -11 -11 -99 20 -113 40
-14 20 -13 23 28 60 24 21 71 52 106 69 58 27 77 30 210 38 154 8 167 11 452
99 178 55 186 58 130 59 -27 1 -75 -11 -121 -29 -178 -69 -242 -82 -429 -90
-193 -7 -230 -17 -327 -86 -55 -39 -64 -41 -80 -15 -11 17 -6 25 36 64 26 24
57 50 70 56 35 19 19 23 -22 6 -50 -20 -52 -20 -64 18 -23 77 47 208 179 332
99 93 139 117 281 167 256 90 464 111 648 64z m519 -176 c8 -5 11 -10 5 -10
-5 0 -17 5 -25 10 -8 5 -10 10 -5 10 6 0 17 -5 25 -10z m-1561 -805 c27 -31
29 -38 18 -56 -22 -36 -80 -64 -124 -60 -19 2 -45 59 -41 89 2 19 13 32 38 44
51 26 74 22 109 -17z m2002 -203 c47 -87 66 -158 51 -198 -10 -27 -10 -26 -10
21 0 51 -21 122 -48 163 -15 22 -20 24 -70 17 -49 -6 -54 -5 -54 13 0 17 51
48 85 51 6 0 26 -29 46 -67z m-1941 0 c0 -7 -63 -42 -75 -42 -26 0 35 42 73
49 1 1 2 -3 2 -7z m-66 -118 c6 -16 14 -15 94 3 19 5 22 1 22 -26 0 -25 -7
-36 -32 -51 -61 -37 -94 -44 -122 -23 -33 24 -39 70 -13 94 25 23 43 24 51 3z
m134 -181 c16 -15 21 -35 26 -109 l6 -92 -40 -45 c-91 -103 -182 -75 -198 60
-13 120 131 251 206 186z m318 -408 c1 0 5 -10 8 -22 7 -22 4 -23 -38 -23 -25
0 -46 2 -46 5 0 3 7 22 15 42 15 36 15 36 38 17 12 -10 23 -19 23 -19z m1269
-157 l-7 -153 -46 -84 c-41 -74 -54 -89 -109 -123 -34 -22 -78 -42 -98 -45
l-37 -6 16 31 c9 17 39 61 66 97 67 88 95 146 121 247 20 78 74 187 92 188 5
0 6 -69 2 -152z m-60 -1196 c6 -18 -18 -47 -32 -39 -15 10 -3 66 12 61 8 -3
16 -13 20 -22z m55 -36 c0 -27 -18 -46 -42 -46 -24 0 -23 14 4 50 23 32 38 31
38 -4z m-393 -738 c-3 -8 -6 -5 -6 6 -1 11 2 17 5 13 3 -3 4 -12 1 -19z m89
-714 c72 -10 218 -77 222 -100 2 -17 1 -17 -10 -3 -24 29 -56 39 -128 39 -70
0 -137 19 -152 43 -12 20 -9 40 6 34 7 -3 35 -9 62 -13z m-126 -29 c0 -8 -4
-15 -10 -15 -5 0 -10 7 -10 15 0 8 5 15 10 15 6 0 10 -7 10 -15z m250 -95 c0
-21 -33 -29 -45 -10 -9 15 4 30 26 30 12 0 19 -7 19 -20z m-500 -20 c0 -5 -4
-10 -10 -10 -5 0 -10 5 -10 10 0 6 5 10 10 10 6 0 10 -4 10 -10z m1751 -408
c22 -19 22 -19 3 -45 -20 -28 -55 -44 -73 -32 -26 15 2 95 33 95 8 0 24 -8 37
-18z"/>
<path d="M2845 6248 c-22 -5 -61 -13 -88 -18 -26 -5 -82 -28 -124 -51 -42 -23
-97 -50 -122 -60 l-46 -18 65 4 c89 5 204 48 278 102 18 14 52 30 75 38 48 15
22 17 -38 3z"/>
<path d="M2755 6111 c-49 -22 -91 -36 -93 -32 -1 4 -35 -1 -75 -11 -39 -10
-138 -25 -218 -32 -148 -15 -203 -29 -228 -60 -22 -26 -10 -27 59 -5 41 13
118 24 205 30 156 12 198 23 362 99 127 59 118 67 -12 11z m-140 -61 c-11 -5
-27 -9 -35 -9 -9 0 -8 4 5 9 11 5 27 9 35 9 9 0 8 -4 -5 -9z"/>
<path d="M3052 6004 c-33 -23 -248 -94 -285 -94 -29 0 -37 -8 -85 -77 -53 -80
-63 -109 -38 -119 14 -5 26 0 193 87 86 45 91 46 206 53 l118 6 57 -57 c31
-32 71 -75 89 -95 17 -22 40 -38 52 -38 20 0 20 1 -6 73 -42 116 -93 178 -210
251 -49 30 -61 32 -91 10z"/>
<path d="M2825 5684 c-29 -22 -152 -84 -168 -84 -39 0 -96 -105 -83 -153 8
-34 29 -34 55 -1 29 37 57 28 54 -18 -3 -46 25 -75 56 -59 34 18 36 12 7 -18
-18 -19 -27 -37 -24 -52 3 -22 8 -24 58 -25 30 -1 78 -7 105 -13 60 -15 181
-7 237 16 21 8 41 13 44 10 3 -3 26 3 51 14 24 10 75 22 112 25 66 6 68 6 122
-31 30 -21 70 -53 89 -70 40 -36 110 -78 118 -71 6 7 -70 97 -109 131 -17 14
-43 28 -57 31 -15 4 -52 19 -83 34 -33 17 -76 29 -105 31 -49 2 -52 0 -38 -34
6 -17 5 -18 -14 -6 -16 10 -32 10 -74 1 -110 -23 -147 -25 -172 -8 -17 11 -23
22 -19 36 6 23 48 26 173 10 50 -7 76 -7 78 0 2 6 12 15 23 20 24 13 251 -40
300 -69 40 -24 50 -26 43 -7 -3 7 -46 33 -96 56 -84 40 -98 44 -178 45 -72 2
-100 7 -161 33 -41 16 -100 33 -132 37 -57 7 -77 19 -61 35 10 9 148 -20 182
-39 86 -46 94 -27 23 51 -70 76 -119 108 -212 135 -95 27 -117 28 -144 7z
m125 -250 c7 -19 10 -37 8 -38 -1 -2 -31 -6 -65 -8 l-61 -4 25 33 c48 63 77
68 93 17z m70 6 c0 -5 -4 -10 -10 -10 -5 0 -10 5 -10 10 0 6 5 10 10 10 6 0
10 -4 10 -10z"/>
<path d="M3043 2993 c7 -128 18 -171 54 -214 23 -26 76 -59 98 -59 13 0 2 25
-29 63 -50 63 -55 77 -67 194 -11 105 -18 123 -48 123 -12 0 -13 -19 -8 -107z"/>
<path d="M4086 2539 c4 -7 48 -31 99 -55 65 -30 99 -53 119 -79 29 -38 109
-80 299 -156 135 -54 208 -92 302 -156 44 -31 72 -46 61 -35 -23 27 -149 113
-201 139 -22 11 -92 40 -155 63 -168 63 -238 101 -300 164 -30 31 -59 56 -65
56 -6 0 -43 16 -84 35 -80 39 -85 40 -75 24z"/>
<path d="M3763 2530 c-89 -3 -165 -9 -170 -14 -5 -5 56 -6 146 -2 85 3 194 6
243 6 57 0 87 4 83 10 -3 6 -36 9 -73 8 -37 -1 -140 -4 -229 -8z"/>
<path d="M4055 2403 c21 -52 20 -54 -26 -47 -24 3 -60 10 -79 14 -31 6 -47 2
-79 -18 -10 -5 76 -85 110 -102 42 -22 51 -18 42 18 -6 25 -6 25 51 19 l56 -6
0 36 c0 45 -35 103 -62 103 -15 0 -18 -4 -13 -17z"/>
<path d="M5000 2013 c0 -17 72 -219 86 -240 15 -24 34 -31 34 -12 0 10 -35 97
-82 202 -21 46 -38 68 -38 50z"/>
<path d="M4722 1637 c-18 -29 -32 -60 -32 -69 0 -9 36 -39 83 -68 45 -29 114
-74 154 -101 l72 -49 30 63 c16 34 34 75 40 90 10 26 9 28 -8 22 -13 -4 -21 0
-25 12 -7 22 -66 60 -66 43 0 -7 -6 -5 -15 4 -12 11 -189 106 -199 106 -1 0
-16 -24 -34 -53z m18 -57 c0 -5 -4 -10 -10 -10 -5 0 -10 5 -10 10 0 6 5 10 10
10 6 0 10 -4 10 -10z"/>
<path d="M4590 1629 l0 -31 -91 4 c-64 2 -93 -1 -96 -9 -2 -6 10 -14 29 -18
18 -4 40 -13 49 -21 20 -18 94 -17 142 3 32 14 37 21 37 48 0 37 -15 55 -47
55 -19 0 -23 -5 -23 -31z"/>
<path d="M3743 1511 c-5 -20 -42 -41 -73 -41 -10 0 -32 11 -48 25 -36 30 -42
31 -35 6 15 -58 87 -80 152 -47 24 13 31 23 31 46 0 33 -19 41 -27 11z"/>
<path d="M4952 909 c-51 -26 -78 -58 -93 -112 -21 -79 31 -170 116 -202 40
-16 47 -16 99 -1 98 29 156 102 143 182 -7 43 -72 123 -114 141 -47 19 -102
16 -151 -8z m183 -60 c14 -22 -3 -18 -26 7 -23 25 -23 26 -2 15 12 -6 25 -16
28 -22z m-85 -33 c0 -16 -27 -29 -41 -20 -13 8 9 34 27 34 8 0 14 -6 14 -14z
m127 -73 c-3 -10 -5 -2 -5 17 0 19 2 27 5 18 2 -10 2 -26 0 -35z"/>
</g>
</svg>
