<svg clip-rule="evenodd" fill-rule="evenodd" stroke-linejoin="round" stroke-miterlimit="2" viewBox="0 0 1464 408"
    xmlns="http://www.w3.org/2000/svg">
    <path d="m916.529 2062.07c-35.2 0-67.6-5.74-97.2-17.2-29.6-11.47-54-28-73.2-49.6-30.133 20-63.466 30-100 30-26.133 0-49.866-4.74-71.2-14.2-21.333-9.47-38-23-50-40.6-19.733 8-37.866 12-54.4 12-12 0-23.8-1.67-35.4-5-11.6-3.34-22.133-9.67-31.6-19-9.466-9.34-14.2-20.8-14.2-34.4 0-13.34 4.734-24 14.2-32 9.467-8 20.2-12 32.2-12 10.667 0 19.534 3.26 26.6 9.8 7.067 6.53 10.6 14.86 10.6 25h-4c0-9.34-3.4-16.94-10.2-22.8-6.8-5.87-14.6-8.8-23.4-8.8-9.866 0-19.333 3.66-28.4 11-9.066 7.33-13.6 17.26-13.6 29.8 0 17.06 7.667 30.2 23 39.4 15.334 9.2 33.667 13.8 55 13.8 14.934 0 31.867-3.6 50.8-10.8-11.2-17.87-16.8-38.54-16.8-62 0-32.8 10.2-60.87 30.6-84.2 20.4-23.34 45.134-35 74.2-35 21.067 0 38.4 5.86 52 17.6 13.6 11.73 20.4 28.13 20.4 49.2 0 18.93-7 35-21 48.2s-29.8 19.8-47.4 19.8c-8 0-14.666-1.87-20-5.6-9.066 19.73-28.666 36.8-58.8 51.2 12.534 17.06 29.334 30.33 50.4 39.8 21.067 9.46 43.334 14.2 66.8 14.2 31.734 0 61.734-9.6 90-28.8-25.6-30.94-38.4-69.47-38.4-115.6 0-32 7.467-57.4 22.4-76.2 14.934-18.8 31.6-28.2 50-28.2h2c15.467-31.2 39.4-56.74 71.8-76.6 32.4-19.87 67.8-29.8 106.2-29.8 29.334 0 56.801 6.06 82.401 18.2 25.6 12.13 46.8 29 63.6 50.6 20-20.54 43.67-36.6 71-48.2s56.73-17.4 88.2-17.4c14.67 0 30.67 2.06 48 6.2 17.33 4.13 35.13 10.4 53.4 18.8s35.07 20.2 50.4 35.4 26.6 32.53 33.8 52c9.87-4.27 20.27-6.4 31.2-6.4 24.8 0 43.73 10.06 56.8 30.2 13.07 20.13 19.6 43.8 19.6 71 0 56.53-27.07 103.86-81.2 142 30.93 17.86 63.33 26.8 97.2 26.8 21.33 0 43.2-3.54 65.6-10.6 22.4-7.07 42.4-17 60-29.8-18.13-12.27-28.53-27.2-31.2-44.8-7.2 3.46-14.93 5.2-23.2 5.2-16.53 0-30.67-5.4-42.4-16.2s-17.6-24.07-17.6-39.8c0-26.14 9-47.2 27-63.2s40.47-24 67.4-24c20.53 0 38.6 8.06 54.2 24.2 15.6 16.13 23.4 36.33 23.4 60.6 0 38.4-16.13 71.06-48.4 98 17.87 10.66 37.2 16 58 16 19.73 0 38.93-6.14 57.6-18.4 18.67-12.27 28-27.07 28-44.4 0-9.07-2.47-16.4-7.4-22s-11.27-8.4-19-8.4c-7.47 0-13.33 1.6-17.6 4.8l-1.6-2.4c4.8-3.74 11.2-5.6 19.2-5.6 9.33 0 16.73 3.46 22.2 10.4 5.47 6.93 8.2 14.66 8.2 23.2 0 18.66-9.93 34.46-29.8 47.4-19.87 12.93-40.33 19.4-61.4 19.4s-41.2-5.6-60.4-16.8c-17.87 13.86-38.6 24.66-62.2 32.4-23.6 7.73-47.13 11.6-70.6 11.6-38.67 0-73.73-9.07-105.2-27.2-24.27 15.46-51.07 27.4-80.4 35.8s-57.47 12.6-84.4 12.6c-40.53 0-79.87-6.87-118-20.6-38.13-13.74-68.93-35-92.4-63.8-21.07 23.73-46.53 42.13-76.4 55.2-29.867 13.06-61.734 19.6-95.601 19.6zm224.001-215.2c0 32.53-6.67 62.93-20 91.2 17.6 17.06 40 30.53 67.2 40.4 27.2 9.86 55.2 14.8 84 14.8 48.53 0 90.13-14.4 124.8-43.2-7.47-17.87-11.2-37.34-11.2-58.4 0-22.14 5-43.6 15-64.4s24.07-35.87 42.2-45.2c-9.07-23.2-24.07-43.34-45-60.4-20.93-17.07-43.13-29.4-66.6-37s-46.53-11.4-69.2-11.4c-64.8 0-116.67 21.46-155.6 64.4 22.93 30.93 34.4 67.33 34.4 109.2zm-92.4 17.6c0-48.27 17.2-90.94 51.6-128-16.53-21.34-37.53-37.94-63-49.8-25.47-11.87-53.534-17.8-84.201-17.8-20.533 0-41.533 4-63 12-21.466 8-41.733 19.93-60.8 35.8-19.066 15.86-33.8 34.2-44.2 55 9.067 1.33 16.8 5 23.2 11s11.2 13.26 14.4 21.8c3.2 8.53 5.467 16.86 6.8 25 1.334 8.13 2 16.33 2 24.6 0 25.33-8.4 51.86-25.2 79.6 15.734 16.26 35.267 28.8 58.6 37.6 23.334 8.8 48.734 13.2 76.2 13.2 19.734 0 40.2-4.67 61.401-14 21.2-9.34 40.2-21.47 57-36.4-7.2-21.6-10.8-44.8-10.8-69.6zm68.8 81.2c-6.4 12-13.2 22.53-20.4 31.6 24 28.26 55.4 49.73 94.2 64.4 38.8 14.66 77.53 22 116.2 22 24.8 0 50.67-3.74 77.6-11.2 26.93-7.47 51.87-18.14 74.8-32-27.73-16.27-48-38.14-60.8-65.6-35.47 29.33-77.73 44-126.8 44-29.6 0-58.33-4.47-86.2-13.4-27.87-8.94-50.73-22.2-68.6-39.8zm339.6-112.4c0 45.86-17.07 84.4-51.2 115.6 14.13 26.13 35.47 48 64 65.6 54.4-36.8 81.6-83.2 81.6-139.2 0-16-2.13-30.94-6.4-44.8-4.27-13.87-12.27-26.07-24-36.6-11.73-10.54-26.53-15.8-44.4-15.8-10.13 0-19.33 2-27.6 6 5.33 15.2 8 31.6 8 49.2zm237.6 87.2c0 15.2-8.27 27.2-24.8 36 2.93 17.06 13.33 31.6 31.2 43.6 33.07-25.87 49.6-57.47 49.6-94.8 0-22.4-7.33-41.34-22-56.8-14.67-15.47-32.53-23.2-53.6-23.2-24 0-44.6 7.53-61.8 22.6-17.2 15.06-25.8 33.93-25.8 56.6 0 15.46 5.33 28.4 16 38.8s23.73 15.6 39.2 15.6c8.27 0 15.73-1.6 22.4-4.8v-4.8c0-9.6 1.87-18.74 5.6-27.4 3.73-8.67 9.07-13 16-13 5.33 0 8 3.86 8 11.6zm-762.001 72c-57.066 0-100.933-16.94-131.6-50.8-12.266 17.33-25.333 31.46-39.2 42.4 21.067 21.33 46.534 38.2 76.4 50.6 29.867 12.4 60.934 18.6 93.2 18.6 27.2 0 54.334-6.47 81.401-19.4 27.07-12.94 50.73-30.6 71-53-9.33-13.07-16.8-26.8-22.4-41.2-17.87 15.73-38.4 28.46-61.601 38.2-23.2 9.73-45.6 14.6-67.2 14.6zm-417.6-89.6c0 21.86 6 41.6 18 59.2 30.134-13.6 49.734-30.27 58.8-50-6.4-5.6-9.6-12.14-9.6-19.6 0-8 2.934-12 8.8-12 5.6 0 8.4 4.53 8.4 13.6 0 5.6-1.066 11.2-3.2 16.8 5.067 3.73 11.334 5.6 18.8 5.6 16 0 30.667-6.47 44-19.4 13.334-12.94 20-27.94 20-45 0-19.74-6.8-34.94-20.4-45.6-13.6-10.67-29.6-16-48-16-29.333 0-52.6 10.86-69.8 32.6-17.2 21.73-25.8 48.33-25.8 79.8zm247.6-63.2c0-21.34 4.534-42.27 13.6-62.8-18.666.26-33.933 9.8-45.8 28.6-11.866 18.8-17.8 40.86-17.8 66.2 0 39.73 15.067 75.73 45.2 108 14.934-12.27 27.867-26.54 38.8-42.8-22.666-26.94-34-59.34-34-97.2zm345.601 12.8c0 15.73-4.67 31.6-14 47.6 4.8 11.2 12.13 22.13 22 32.8 13.33-27.47 20-56.14 20-86 0-40-10.93-75.34-32.8-106-31.2 36-46.8 77.06-46.8 123.2 0 23.2 3.6 44 10.8 62.4 7.73-7.74 14.67-16.4 20.8-26-4.27-12.8-6.4-25.87-6.4-39.2 0-8.27 1.27-16.74 3.8-25.4 2.53-8.67 6.33-13 11.4-13 3.2 0 5.73 2.46 7.6 7.4 1.87 4.93 2.93 9.2 3.2 12.8s.4 6.73.4 9.4zm282.4 37.6c0 18.66 4.27 36.8 12.8 54.4 32.8-30.14 49.2-67.2 49.2-111.2 0-16.8-2.67-32.54-8-47.2-16.53 8.8-29.67 23.2-39.4 43.2s-14.6 40.26-14.6 60.8zm-621.601-49.6c0 34.66 10.934 64.13 32.8 88.4 16-26.14 24-51.2 24-75.2 0-6.4-.6-13.2-1.8-20.4s-3.2-15.07-6-23.6c-2.8-8.54-7.333-15.8-13.6-21.8-6.266-6-13.666-9.54-22.2-10.6-8.8 20-13.2 41.06-13.2 63.2zm321.601 66c-5.6 8.53-12.67 17.06-21.2 25.6 5.07 12.8 12.67 25.86 22.8 39.2 7.73-9.87 14.4-20.14 20-30.8-9.33-10.14-16.53-21.47-21.6-34zm-4.4-45.6c0 11.2 1.87 22.13 5.6 32.8 7.73-14.14 11.6-27.6 11.6-40.4 0-16.54-2.4-24.8-7.2-24.8-3.47 0-6 3.6-7.6 10.8s-2.4 14.4-2.4 21.6zm599.6 52c-5.6 0-9.8 4.06-12.6 12.2-2.8 8.13-4.2 15.4-4.2 21.8v5.2c14.4-7.47 21.6-18 21.6-31.6 0-5.07-1.6-7.6-4.8-7.6zm-1099.601-21.2c0 6.66 2.267 12.26 6.8 16.8 1.867-5.07 2.8-9.87 2.8-14.4 0-6.4-1.866-9.6-5.6-9.6-2.666 0-4 2.4-4 7.2z" fill="#ddd6c8" fill-opacity=".73" fill-rule="nonzero" transform="translate(-389.329 -1664.467)"/>
</svg>