<svg clip-rule="evenodd" fill-rule="evenodd" stroke-linejoin="round" stroke-miterlimit="2" viewBox="0 0 561 277" xmlns="http://www.w3.org/2000/svg"><g fill-rule="nonzero"><g transform="translate(-28.542 -507.773)"><path d="m304.837 509.773c-5.125 0-11.75.5-14.625.5-1.375 0-3.375-.125-6-.25-2.625-.25-4.25-.375-5-.375h-1.375c2.5 1.875 3.75 4.125 3.75 6.625 0 2.25-1.375 5.5-4.125 9.625l-28 44.375c-3.125 5.125-6.25 9.75-9.125 14-3.375 4.875-6.625 9.25-9.75 13.375h1.5c2.375 0 6-.375 7.875-.375s6.875.375 9.25.375h1.375c-2.125-2.125-3.25-4.375-3.25-6.75 0-3.125 3.25-10.125 9.875-20.875l1.375-2.25h26.5v2.5c0 5.125-.125 9.875-.375 14-.375 6.125-2 10.625-4.625 13.375h1.5c1.375 0 6-.625 8.625-.625s7.125.625 8.5.625h1.5c-3.125-3.25-4.75-7.75-4.875-13.375-.125-5.5-.25-10.125-.25-14v-14.375c1.375.375 3.75.5 7.375.5 2.875 0 5.25-.125 6.875-.5 6.125 13.125 12.5 24.25 19.125 33.25 4.875 6.875 10.125 10.375 15.75 10.375 2.875 0 5-.625 6.375-1.75-3.375-2.125-7.25-5.75-11.5-10.875-6.625-8.375-13.625-19.375-21.125-33.25 9.375-4.125 14.125-11.25 14.125-21.625 0-6.25-2.375-11.5-7.25-15.75-4.875-4.375-11.5-6.5-20-6.5zm-2.375 4.875c12.375 0 19 7 19 18.625 0 11.375-7.125 18.125-20.625 18.125-3.125 0-5.125 0-5.75-.125v-17.5c0-6 .125-10.25.375-12.875.375-5.125 1.375-6.25 7-6.25zm-17.375 47.75h-23l23-37.125z"/><path d="m357.462 570.398c0 5.25-.125 9.875-.375 14-.375 6.125-2 10.625-4.625 13.375h1c1.5 0 5.75-.625 7.375-.625s5.875.625 7.375.625h1c-3.125-3.25-4.75-7.75-4.875-13.375-.125-5.5-.25-10.125-.25-14v-45.25l64.625 75.5c-.375-5.75-.5-12.875-.5-21.375v-42.25c0-3.875.125-8.5.25-14 .125-5.625 1.75-10.125 4.875-13.375h-1c-1.5 0-5.75.625-7.375.625s-5.875-.625-7.375-.625h-1c2.625 2.75 4.25 7.25 4.625 13.375.25 4.125.375 8.875.375 14v39.25l-56.75-66.25c-4.375 0-9.875-.375-11.875-.375h-1.5c3.125 3.125 5 7.875 5.625 14.125.25 2.75.375 7.125.375 13.25z"/><path d="m450.087 570.273c-2.375 6.125-4.25 10.875-5.625 14-2.25 5.375-4.625 9.75-7 13.375h1.375c1.375 0 5.25-.375 7.25-.375 1.375 0 5.125.375 7.25.375h1.375c-2.25-2.625-3.375-5.375-3.375-8.125 0-3.375 1.75-9.875 5.375-19.25l.875-2.5h30.5l1 2.5c.625 1.875 2 5.375 2.375 6.75l1 2.75c.875 2.375 1 3 1.5 4.625.875 2.75 1.25 4.625 1.25 6.5 0 2.375-.875 4.625-2.5 6.75h1.25c2.5 0 6.375-.375 8.25-.375s6.125.375 8.25.375h1.875c-1.75-2.125-4.125-6.625-7-13.375-1.375-3.125-3.25-7.875-5.625-14l-24.25-62.5zm36-7.875h-26.25l13.5-32.625z"/><path d="m584.337 537.023c0-3.875.125-8.5.25-14 .125-5.625 1.75-10.125 4.875-13.375h-1c-1.5 0-5.75.625-7.375.625s-5.875-.625-7.375-.625h-1c2.625 2.75 4.25 7.25 4.625 13.375.25 4.125.375 8.875.375 14v27.125c0 18.125-9.75 28.5-25.125 28.5-14.125 0-22.625-9.25-22.625-25.25v-30.375c0-3.875.125-8.5.25-14 .125-5.625 1.75-10.125 4.875-13.375h-1.5c-1.375 0-5.875.625-8.5.625s-7.25-.625-8.625-.625h-1.5c2.625 2.75 4.25 7.25 4.625 13.375.25 4.125.375 8.875.375 14v30.625c0 20.125 11.875 31.875 31.875 31.875 9.625 0 17.5-3.125 23.5-9.5s9-14.375 9-24.25z"/></g><g transform="translate(-161.095 -618.8646)"><path d="m186.845 712.846c-6 0-13 .5-15.625.5s-7.25-.625-8.625-.625h-1.5c2.625 2.75 4.25 7.25 4.625 13.375.25 4.125.375 8.875.375 14v33.25c0 5.25-.125 9.875-.375 14-.375 6.125-2 10.625-4.625 13.375h1.5c1.375 0 6-.625 8.625-.625s7.125.625 8.5.625h1.5c-3.125-3.25-4.75-7.75-4.875-13.375-.125-5.5-.25-10.125-.25-14v-36.5c0-6 .125-10.25.375-12.875.375-5.125 1.375-6.25 7-6.25 13.375 0 21.625 6.375 21.625 18.875 0 13.625-7.5 20.5-22.625 20.5-1.125 0-2.375-.125-3.875-.25 3.125 2.375 7 3.625 11.625 3.625 7.25 0 13.25-2.125 18.125-6.375 4.875-4.375 7.25-10.125 7.25-17.5 0-14.5-11.25-23.75-28.75-23.75z"/><path d="m353.72 803.721c-.375-5.75-.5-12.875-.5-21.375v-42.25c0-3.875.125-8.5.25-14 .125-5.625 1.75-10.125 4.875-13.375h-1c-1.5 0-5.75.625-7.375.625s-5.875-.625-7.375-.625h-1c2.625 2.75 4.25 7.25 4.625 13.375.25 4.125.375 8.875.375 14v39.25l-56.75-66.25c-4.375 0-9.875-.375-11.875-.375h-1.5c3.125 3.125 5 7.875 5.625 14.125.25 2.75.375 7.125.375 13.25v27.125c0 18.125-9.75 28.5-25.125 28.5-14.125 0-22.625-9.25-22.625-25.25v-30.375c0-3.875.125-8.5.25-14 .125-5.625 1.75-10.125 4.875-13.375h-1.5c-1.375 0-5.875.625-8.5.625s-7.25-.625-8.625-.625h-1.5c2.625 2.75 4.25 7.25 4.625 13.375.25 4.125.375 8.875.375 14v30.625c0 20.125 11.875 31.875 31.875 31.875 9.625 0 17.5-3.125 23.5-9.5s9-14.375 9-24.25v-40.625z"/><path d="m403.845 736.846c0-6 .125-10.25.375-12.875.375-5.125 1.125-6 7-6 3.125 0 6 .25 8.625.625 7 1.125 10.875 5.75 14.5 13.625.375-2.875.625-6.875.625-11.75 0-3.625-.125-6.125-.25-7.75-3.25.25-8 .375-14.125.375h-43.5c-6.125 0-10.875-.125-14.125-.375-.125 1.625-.25 4.125-.25 7.75 0 4.875.25 8.875.625 11.75 3.625-7.875 7.5-12.5 14.5-13.625 2.625-.375 5.5-.625 8.625-.625 5.875 0 6.625.875 7 6 .25 2.625.375 6.875.375 12.875v36.5c0 5.125-.125 9.875-.375 14-.375 5.875-2.375 10.25-5.875 13.375h1.5c.625 0 2.125-.125 4.375-.25 2.375-.25 4.125-.375 5.5-.375s3.125.125 5.375.375c2.25.125 3.75.25 4.375.25h1.5c-4.125-3.625-6-6.75-6.125-13.375-.125-5.5-.25-10.125-.25-14z"/></g><g transform="translate(-222.8522 -698.13)"><path d="m415.546 928.729c0 13.5 4.375 24.5 13 33s19.75 12.75 33.375 12.75c12.375 0 22.875-4.375 31.5-13 8.625-8.75 13-19.625 13-32.75s-4.375-24-13-32.625c-8.625-8.75-19.5-13.125-32.625-13.125-12.625 0-23.375 4.375-32.125 13s-13.125 19.625-13.125 32.75zm43.375-39.5c10 0 18.5 3.875 25.375 11.625 6.875 7.625 10.375 17.5 10.375 29.375 0 11.25-2.875 20.375-8.75 27.5s-13.25 10.625-22.375 10.625c-10.125 0-18.625-3.75-25.75-11.375-7-7.625-10.5-17.5-10.5-29.875 0-11.75 3-21 9-27.75s13.5-10.125 22.625-10.125z"/><path d="m537.171 889.604c12.375 0 19 7 19 18.625 0 11.375-7.125 18.125-20.625 18.125-3.125 0-5.125 0-5.75-.125v-17.5c0-6 .125-10.25.375-12.875.375-5.125 1.375-6.25 7-6.25zm-12.25-4.375c-2.625 0-7.25-.625-8.625-.625h-1.5c2.625 2.75 4.25 7.25 4.625 13.375.25 4.125.375 8.875.375 14v33.25c0 5.25-.125 9.875-.375 14-.375 6.125-2 10.625-4.625 13.375h1.5c1.375 0 6-.625 8.625-.625s7.125.625 8.5.625h1.5c-3.125-3.25-4.75-7.75-4.875-13.375-.125-5.5-.25-10.125-.25-14v-14.375c1.375.375 3.75.5 7.375.5 2.875 0 5.25-.125 6.875-.5 6.125 13.125 12.5 24.25 19.125 33.25 4.875 6.875 10.125 10.375 15.75 10.375 2.875 0 5-.625 6.375-1.75-3.375-2.125-7.25-5.75-11.5-10.875-6.625-8.375-13.625-19.375-21.125-33.25 9.375-4.125 14.125-11.25 14.125-21.625 0-6.25-2.375-11.5-7.25-15.75-4.875-4.375-11.5-6.5-20-6.5-5.125 0-11.75.5-14.625.5z"/><path d="m648.921 957.604c0 7.875-4.625 11.125-15.625 11.125-10.75 0-20-3.625-27.75-11-7.625-7.375-11.5-17.25-11.5-29.375 0-11.75 3.375-21.25 10.125-28.625s15.625-11 26.625-11c7.25 0 12.625 1.5 16.25 4.5 3.625 2.875 7.125 8.25 10.5 16 .875-4.5 1.25-9.125 1.25-13.875 0-2.25-.125-4.75-.5-7.375-9.125-3.375-18.375-5-27.625-5-13.5 0-25 4.25-34.375 12.75-9.375 8.375-14 19.375-14 32.75 0 15.125 6 27.625 15.375 35 9.375 7.125 21.125 11 33.75 11 10.375 0 19.5-2.125 27.5-6.5-.375-3.25-.625-6.625-.625-10 0-2.5.125-6.5.25-12 .125-6.625 1.5-9.625 4.875-13.125h-1.5c-1.375 0-5.875.625-8.5.625-1.375 0-3-.125-5.125-.25-2.125-.25-3.5-.375-4.125-.375h-1.5c3.625 3.125 5.625 7.625 6 13.375.125 2.75.25 6.5.25 11.375z"/></g></g></svg>