<svg clip-rule="evenodd" fill-rule="evenodd" stroke-linejoin="round" stroke-miterlimit="2" viewBox="0 0 407 399" xmlns="http://www.w3.org/2000/svg"><g fill="#a48111" fill-rule="nonzero" transform="matrix(.101551 0 0 -.101551 -98.50431 515.75439)"><path d="m1395 5073c-19-4-55-49-84-105-7-16-17-28-22-28s-9-7-9-15-13-23-29-33-50-41-75-69c-40-45-46-56-46-96 0-63-42-145-81-159-16-5-29-13-30-16 0-4-1-60-2-125l-2-117 33-16c25-12 37-13 45-5 13 13 67 15 67 3 0-5-12-22-26-38-59-65-164-352-164-446 0-47 36-161 69-219 40-71 75-95 155-107 82-13 104-28 81-57-9-13-17-16-22-9-8 11-78 12-89 2-3-4 4-11 15-18 36-19 23-29-31-25-61 5-76-2-51-22 17-13 16-14-9-8-33 6-36-7-9-37 17-17 26-19 58-13 23 5 31 10 20 12-28 7-9 23 26 23 24 0 28-3 17-10-13-8-12-10 3-10 9 0 17 5 17 10 0 6 9 10 20 10 27 0 25-29-2-34-70-15-152-25-160-20-5 3-22 9-38 14-24 7-30 5-30-6 0-8 4-13 9-9 6 3 14-2 18-10 5-8 24-23 43-33 32-18 34-18 99 6 48 17 70 21 82 13 34-21 144 26 200 86 42 45 64 97 74 176 4 31 11 60 16 63 16 9 10 64-12 107-31 62-113 168-153 200-51 40-44 52 12 21 70-39 137-117 172-201 36-86 39-154 10-233-11-30-20-69-20-87s-4-33-10-33c-5 0-10 12-10 27 0 40-10 22-26-48-17-71-47-111-111-144-21-10-49-27-62-37-40-30-55-22-28 15 36 49 40 57 24 57-9 0-28-20-44-45-15-25-34-45-40-45-18 0-17 2 17 45 53 67 36 72-63 19-68-36-93-33-35 5 39 25 20 28-28 5-19-9-34-23-34-30 0-19-16-18-24 1-3 8 0 15 7 15 19 0-15 20-35 20-14 0-18-8-18-35 0-33 2-35 35-35 28 0 37-5 45-24 5-13 17-29 26-34 16-9 16-14 6-37-15-33-15-35 1-35 7 0 21 17 32 38 10 20 20 31 22 24 3-7-2-24-11-37-18-27-20-35-8-35 5 0 14 11 20 25s16 25 22 25 8-10 4-25c-9-37 3-30 26 14 34 67 52 65 24-3-5-14-4-17 5-11 7 4 19 23 27 41 16 38 34 46 28 12-5-21-4-22 8-5 35 51 40 54 33 24-9-42 11-25 35 30 22 49 38 55 20 7-11-28-11-28 9-9 12 10 21 24 21 32 0 7 11 18 24 23 14 5 26 19 28 31 4 27 28 38 28 13 0-16 2-15 16 4 11 16 22 21 35 17 23-8 25 11 4 39-8 11-15 29-15 40 1 20 1 20 15 3 13-18 14-17 17 5 2 13 9 22 17 20 9-2 11 5 6 28-6 25-4 29 10 23 14-5 16-2 10 16-4 12-2 28 4 35 7 9 3 19-14 39-28 29-33 52-10 43 8-3 15 0 15 6 0 7 5 6 15-2 27-23 28-2 1 21-14 12-26 29-26 38 0 11 6 9 23-7 25-23 37-28 37-13 0 4-19 21-42 36-24 16-37 30-30 33 8 2 7 8-4 20-26 25 1 27 36 2 33-24 44-23 34 3-5 15-63 57-78 57-3 0-6-7-6-16s-6-14-12-11c-7 2-13 9-13 15 0 5-3 14-7 18-12 11-10 26 2 19 6-3 10 1 10 9 0 9-4 16-10 16-5 0-10 7-10 16 0 14 3 15 23 2 37-24 57-29 50-12-3 8-27 26-54 40-27 13-49 29-49 34 0 14 7 13 35-6 17-11 25-12 25-5 0 13-57 40-105 50-17 4-30 13-30 21s-11 25-25 38c-17 16-21 25-12 29 7 2 26 25 43 49s34 42 39 39c11-7 41 50 64 121 9 29 26 60 37 70 12 11 27 31 35 46 14 27 47 38 58 20 3-5 30-9 60-10 44-1 56 2 60 16 3 9 15 23 27 30 21 13 21 13 14-15-11-42-9-53 23-123 16-36 40-93 52-128 27-74 50-92 80-62 11 11 20 25 20 30 0 6 8 10 18 10 11 0 26-16 40-45 12-25 22-49 22-53s-38-7-84-7h-84l-47-48c-27-27-47-57-48-70-1-76 14-181 32-222 11-26 18-52 14-59-10-16-4-48 14-67 12-15 12-24 0-70-21-82-48-122-84-130-45-9-118-55-142-88-42-59-91-178-112-271-25-115-22-190 9-223 26-27 31-57 7-37-9 8-15 8-15 2s13-20 30-32c16-12 45-45 65-73 51-75 92-118 160-164 99-66 152-88 325-132 243-62 241-61 235-70-2-5 18-12 46-15 28-4 68-14 89-22 32-13 39-21 44-52 7-44-10-73-62-105-37-23-135-57-164-57-9 0-20-12-25-28-6-15-16-43-23-62-21-60-22-76-6-89 9-8 16-19 16-26 0-17 103-85 128-85 30 0 45-23 31-51-10-22-135-109-156-109-5 0-30 11-54 25s-51 27-59 31c-8 3-39 16-68 30-29 13-68 24-87 24-39 0-159-31-196-50-55-29-111-85-145-146-36-65-37-67-30-147 9-111 18-122 103-132 86-9 951-6 1180 5 94 4 349 6 565 3 346-4 608 4 624 20 3 3 6 15 6 28 1 13 10 36 20 51 10 14 18 29 18 32s18 29 40 58c51 68 51 71-2 185-20 44-69 93-94 93-8 0-37 12-64 26-36 19-58 24-78 20-15-4-49-12-77-17-27-6-99-26-159-46-96-31-118-35-182-31-75 5-119 24-131 56-4 9-13 22-21 27-21 16 4 64 37 71 14 3 35 10 46 15 26 13 70 80 57 88-5 3-15 26-22 50-9 35-9 45 1 52 25 15-6 57-53 69-24 7-53 16-66 21s-34 9-47 9c-14 0-25 6-25 13 0 24 43 55 165 116 66 33 157 85 203 116 46 30 104 67 130 80 72 39 177 106 180 116 2 5 8 9 14 9 5 0 36 20 68 45 62 48 108 110 164 223 20 38 41 72 48 74 16 6 22 107 13 255-7 125-8 128-39 159-21 21-46 34-74 39-85 14-152 89-173 197-17 83-6 119 55 185 29 32 67 84 85 116 29 53 31 62 21 93-6 19-21 41-32 49-18 12-19 17-8 30 7 8 18 15 25 15s33 11 56 25c24 14 47 25 50 25 4 0 10-15 13-32 4-18 13-41 21-52 14-18 15-18 49 10 19 17 42 50 52 78 20 52 44 72 44 37 0-12 6-21 13-21 8 0 9-3 1-8-6-4-18-22-27-41-20-40-14-47 46-57 22-4 37-12 37-20 0-18-30-17-53 0-10 8-27 12-38 9-28-8-22-54 9-69 13-6 29-17 35-23 23-23 54-11 92 35l37 45-16 43c-10 26-26 47-41 54-19 9-25 20-27 44 0 18-2 47-3 63-1 17 2 39 6 50 6 18 8 18 18-7 6-16 17-28 25-28 16 0 26-15 86-137 22-46 40-92 40-105 0-12 8-31 18-42 32-36 82-181 82-235 0-17 7-50 15-75 25-75 55-228 55-287 0-53 12-79 36-79 23 0 37 96 39 270 4 218-14 354-67 500-11 30-26 75-33 100-17 59-95 252-106 264-12 13-12 46 0 46 4 0 31 23 60 51 44 44 51 55 51 90 0 62-24 105-100 181-38 38-70 75-70 82s-11 23-25 36c-31 29-24 43 12 25 29-15 44-12 25 7-6 6-9 23-6 38 7 30-7 45-53 54-25 6-34 3-47-16-22-31-20-70 4-98 11-13 20-27 20-31s26-34 57-67c84-85 144-222 98-222-10 0-15 10-15 29 0 16-6 34-14 41-8 6-16 23-18 38-2 16-13 31-28 39-14 7-27 22-30 35-4 14-17 25-38 30-27 7-31 12-27 36 3 16-1 35-10 47-15 19-16 19-40-11-31-40-109-78-142-69-15 3-34 0-48-9-26-17-35-12-35 18 0 18-6 21-47 21-40 0-49-4-60-25-15-30-17-79-3-115 9-23 15-27 40-23 34 5 37-2 14-37-10-15-12-25-5-25 38 0-40-84-88-95-17-3-53-17-81-31-27-13-57-24-65-24-14 0-54-54-67-90-3-8-27-21-53-28s-59-21-73-32c-13-11-32-20-41-20-10 0-33-12-52-26-39-29-103-64-119-64-5 0-10 6-10 14 0 9 12 16 33 18l32 3 9 116c7 99 6 124-8 165-9 27-12 50-8 52 5 1 7 13 5 26-4 21 0 24 37 29 31 4 53 16 81 43 22 21 39 44 39 50 0 19 109 226 131 250 10 11 19 24 19 28s18 34 40 67c23 33 38 64 35 69-11 17-45 11-83-15-20-14-42-25-48-25s-32-16-57-35-53-35-61-35-20-9-26-20-20-20-31-20-31-12-45-27c-24-26-27-27-39-10-7 10-35 27-62 37l-48 19 94-2c114-2 131 14 30 30-58 9-75 8-100-4-16-8-35-13-41-11-7 3-22-4-33-14-13-13-21-15-24-7-4 14 25 33 57 36 12 1 30 9 39 19 16 16 47 16 147 2 10-2 21 2 23 7 2 6-11 12-29 13-18 2-49 7-68 12-32 9-30 9 17 6 37-2 57 1 65 11 21 25-11 35-97 28-44-3-106-13-139-21-59-15-113-15-71 0 11 4 33 15 49 23 16 9 53 16 83 16 67 0 67 21-1 25-85 6-258-64-298-121-20-28-20-28-39-9-10 11-53 32-97 46-76 26-83 26-253 20-123-4-181-10-196-20-27-17-29-36-8-54 12-10 22-9 50 4 20 10 68 19 108 22l72 5-35-19c-19-11-57-22-84-26-27-3-61-13-74-22s-25-14-26-12c-2 2-18 23-35 48-31 43-105 110-122 110-4 0-15-16-24-35-18-36-17-81 4-335 10-123 21-170 47-197 11-11 27-30 36-41 15-19 24-21 65-16 30 4 53 13 62 25 16 22 31 25 31 5 0-7 7-19 15-26s15-22 15-35 15-34 40-54c44-35 50-51 20-51-11 0-20-4-20-8 0-12-70-41-76-31-3 5-33 7-67 3-46-4-74-2-107 11-25 9-67 23-95 30-27 8-59 19-70 24s-40 15-64 23c-25 7-46 19-49 25-2 9 4 8 25-2 15-8 34-15 41-15 22 0 3 19-39 41-31 15-39 25-37 41 3 24-42 57-84 62-45 6-95 34-158 90-73 66-110 131-85 150 20 14 38 132 33 208-2 32-6 60-9 62-3 3-51 20-107 37-102 32-102 33-121 13-10-11-24-30-30-42s-17-22-24-22-25-14-41-30c-16-17-35-30-41-30-18 0-84 53-91 74-3 10-22 36-41 57-35 39-52 44-108 32zm89-76c27-18 89-138 84-163-2-13-14 2-36 46l-32 65 6-55c5-51 4-53-9-31-14 23-15 23-19 5-6-30 2-53 18-47 17 6 19-29 4-58-17-31-25-23-36 36-5 30-6 55-2 55s8 12 8 26c0 22-2 25-15 14s-15-8-15 13c0 14-5 29-11 32-6 4-10 1-8-6 4-36-5-39-11-4-7 39-7 39-9-15-2-64-20-52-22 15l-1 40-17-54c-12-35-20-48-24-38-11 29 5 92 32 120 21 24 32 28 60 23 18-3 43-12 55-19zm411-20c43-15 66-46 60-80-2-15 0-38 4-50 12-31-14-54-68-63-37-6-40-4-47 20-6 27 5 52 13 29s23-13 23 15c0 35-28 78-42 64-6-6-17-8-24-5-8 3-14 0-14-6s-9-11-20-11c-21 0-29 33-10 45 6 3 10 15 10 26 0 12 7 19 19 19 11 0 23 5 26 11 4 6 14 7 24 4 9-4 29-12 46-18zm1160-31c88-16 115-24 115-36 0-4-32-2-72 6-76 14-103 12-47-5l34-9h-45c-25 0-67 3-95 7-49 7-50 8-22 19 16 7 25 16 22 22-8 13 15 13 110-4zm495 5c0-5-21-17-47-26-96-34-93-32-87-64 7-33-21-125-43-143-28-23-25 5 5 66 33 66 38 86 23 86-5 0-11-13-14-28-6-28-62-114-105-160-25-26-17-42 21-42 26 0 15-25-12-26-12-1-30-9-40-18-20-18-41-22-23-4 28 28 9 27-23-1-20-17-42-31-49-31-8 0-19-7-26-15-11-14-83-19-103-7-5 2 15 17 45 32 29 15 67 35 83 44 17 9 38 16 47 16 33 0 128 146 128 198 0 26 36 66 51 56 6-4 14-2 18 4 6 10 126 70 144 71 4 1 7-3 7-8zm418-40c-23-26-56-73-71-104-16-31-33-59-38-62-5-4-9-12-9-19 0-24-64-112-94-130-35-20-49-11-20 12 12 9 38 42 57 72 20 30 46 67 57 83l22 27h-22c-12 0-37-12-55-27-18-16-49-39-69-53-27-19-36-32-36-55 0-32-15-63-25-54-3 4-6 22-7 42-1 25 7 45 27 69 15 18 30 31 32 29 3-2 24 14 47 36 46 43 143 126 190 161 52 38 60 24 14-27zm-1350-16c23-28 65-115 59-122-3-3-27 27-52 66s-48 71-51 71-2-5 2-12c4-6 11-70 15-143 9-169 21-215 54-215 16 0 25 6 25 16 0 11 5 14 16 10 14-6 15 1 9 50-9 71-13 84-31 84-10 0-14-15-15-52-1-42-3-48-9-28-19 59-6 156 14 105 3-8 11-14 18-13 7 2 23-17 35-42 30-59 31-160 1-160-6 0-8 7-4 15 3 8 1 15-4 15-6 0-10-8-10-18 0-24-19-42-45-42s-60 69-70 140c-19 136-24 256-13 293 11 36 13 38 25 21 8-11 21-28 31-39zm797 46c-6-5-21-12-35-15-24-7-24-6-6 8 21 17 57 23 41 7zm-528-72c-22-13-117-20-117-9 0 12 27 18 85 19 39 0 46-2 32-10zm362-33c14-14 22-29 18-32-8-8-77 48-77 64 0 17 27 2 59-32zm-214 14c-3-5-24-10-45-10-48 0-141-19-157-32-15-12-43-4-43 12 0 15 52 33 59 21 4-5 25-4 56 4 60 16 139 19 130 5zm130-1c11-11-55-19-80-9-14 5-25 12-25 14 0 7 98 2 105-5zm-1517-37c3-27 0-32-17-32-22 0-25 10-15 48 9 32 28 22 32-16zm1982 16c25-13 47-31 49-42 2-14-1-17-13-13-11 5-16 1-16-13 0-16-67-140-75-140-2 0-11 3-19 6-13 5-14 9-5 20 6 8 18 14 25 14 8 0 14 10 14 24s5 28 10 31c18 11 11 81-9 100-20 17-75 18-129 0-18-6-21-4-16 8 12 33 123 35 184 5zm-2340-19c70-16 104-57 114-138 4-34 1-45-17-62-22-20-22-20-25 0-2 11 2 30 8 42 9 17 9 23 0 29-7 5-10 15-7 24 9 22-6 20-20-3-6-10-28-22-47-25-35-7-48-28-26-41 6-3 10-11 10-17s-12-1-26 13l-26 24 6-22c12-38-11-26-27 15-9 20-16 29-16 19-1-10 4-27 9-38 6-10 7-19 2-19-28 0-43 112-21 153 11 20 49 56 59 56 3 0 25-4 50-10zm1900-44c9-28 9-39-1-51-24-29-98-74-121-74-18 0-20 2-8 10s11 10-7 10c-12 0-29 7-37 15-14 14-12 21 17 65 30 46 35 49 82 53 28 2 53 4 57 5 3 1 12-14 18-33zm352 1c4-6 8-20 8-31 0-24-36-85-50-85s-13 11 4 29c20 22 9 71-15 71-18 0-28-8-54-45-20-29-29-12-14 29 7 20 15 34 17 32s15 2 30 10c28 14 61 10 74-10zm-677 4c3-6-1-13-10-16-19-8-30 0-20 15 8 14 22 14 30 1zm115-10c8-5 10-10 4-10-19 0-23-24-12-74 8-38 14-47 36-52 46-10 53-14 47-24-3-5-26-10-51-10-41 0-45 2-42 22 2 16-5 24-32 34-29 10-31 13-12 13 29 1 24 25-6 29-25 4-31 32-7 32 8 0 15 4 15 9 0 11 28 41 38 41 4 0 14-5 22-10zm-1229-16c10-13 25-15 65-11 44 5 54 2 78-19 21-20 26-34 26-70 0-35 6-51 25-70 31-31 31-34 3-34-21-1-22-2-5-14 23-18 22-29-3-16-16 9-20 8-20-5 0-17-2-18-25-9-19 8-44 54-38 72 3 6 12 12 20 12 11 0 14 6 9 23-4 12-9 35-13 51-6 27-8 28-51 22-40-5-49-3-74 21-15 15-28 35-28 45 0 22 13 23 31 2zm-113-21c-3-32-41-45-52-18-7 20 13 44 37 45 14 0 18-6 15-27zm1218-39c-3-9-6-18-6-20s-7-4-15-4c-18 0-19 6-2 25 16 19 31 19 23-1zm1680-22c-8-9-30-21-48-27-36-11-36-13-22-108 6-41 5-47-10-41-10 4-16 1-16-9 0-19-24-29-39-14-6 6-11 23-11 38s-6 29-12 32c-9 3-4 14 15 34 15 16 27 38 27 49 0 15 13 25 49 38 28 10 56 24 63 33 9 11 13 12 16 3 3-7-3-19-12-28zm-1176 13c0-8-4-15-10-15-5 0-10 7-10 15s5 15 10 15c6 0 10-7 10-15zm-1795-15c10-33-4-60-31-60-29 0-31 21-6 55 21 30 29 31 37 5zm2172-31c-29-23-34-16-12 17 13 20 19 23 25 14 5-9 0-20-13-31zm603-1c0-31-20-37-40-13-17 20-7 41 19 41 16 0 21-6 21-28zm-1570-4c0-8-4-12-10-9-5 3-10 13-10 21s5 12 10 9c6-3 10-13 10-21zm-1020 1c23-27 6-56-86-150l-49-50-3 28c-2 16 1 42 7 58 9 26 8 29-10 29-13 0-20-7-21-22-2-32-1-39 7-80 6-31 4-38-9-38-15 0-20 22-19 93 0 9-5 17-10 17-6 0-7-25-3-66 8-77-8-80-18-4-4 27-11 50-16 50-14 0-12-31 5-80 17-48 20-84 6-75-5 3-15 30-22 61-8 36-16 51-22 45-13-13 6-80 34-130 12-20 16-38 11-43-8-8-24 19-58 101-8 20-12 21-16 9-4-8 4-39 18-68 28-61 30-78 7-59-15 13-15 12-5-8 7-12 17-25 22-28 6-3 10-16 10-28-1-21-2-21-25 6-14 15-25 36-25 45 0 11-3 13-11 5s-6-19 5-41c18-34 21-62 7-62-21 0-43 93-39 164 9 137 77 233 196 276 34 12 69 31 78 41 20 23 37 24 54 4zm2870-4c0-41-86-103-103-73-8 13 40 77 64 83 37 11 39 10 39-10zm-1205-11c3-5 17-10 31-10 29 0 60-14 90-42 12-11 37-27 55-37 19-10 36-27 38-37 1-11 10-27 18-36s17-36 20-60 10-51 15-61c13-26-1-107-20-115-9-3-18 0-20 6-12 36-146 139-249 191-80 39-94 53-74 66 6 3 24 26 40 50 32 47 26 55-21 31-29-15-88-19-88-5 0 4 19 16 43 27 101 46 112 49 122 32zm-543-32c-17-8-26-8-34 0-9 9-4 12 23 11 32 0 33-1 11-11zm778 2c0-5-4-10-10-10-5 0-10 5-10 10 0 6 5 10 10 10 6 0 10-4 10-10zm-2414-31c6-5 13-7 16-4 9 9 30-24 23-35-4-6-32-10-67-9-71 3-88-11-88-73 0-39 6-44 53-40 9 1 17-3 17-8 0-6-4-10-10-10-5 0-9-6-7-12 1-7-5-11-13-9s-24 4-35 5c-30 2-35 16-29 71 5 40 4 48-6 38-7-6-13-30-13-52 0-23-3-41-8-41-12 0-15 30-9 87 5 40 13 60 35 83 28 29 33 31 80 24 27-3 55-10 61-15zm248 5c3-9 6-22 6-30 0-15-54-47-64-37-14 14-5 53 16 67 28 20 34 20 42 0zm3206 11c0-12-74-85-86-85-22 0-17 11 23 52 32 33 63 49 63 33zm-1795-15c4-6-5-10-19-10s-26 5-26 10c0 6 9 10 19 10 11 0 23-4 26-10zm133-49c66-14 179-14 187-1 3 5 16 15 28 20 21 11 21 11 3-4-23-18-18-20 18-6 20 7 26 6 26-4 0-16-24-23-121-34-74-9-185 8-225 35-33 21-30 37 4 19 15-7 51-19 80-25zm-965 7c12-7 42-30 66-50 24-21 54-38 67-38s28-9 34-20c17-32-15-41-91-25-94 20-120 31-112 50 6 17 9 17 82-10 67-24 65-14-5 32l-64 43-33-30-32-30 48-43c26-23 47-47 47-52 1-22 50-65 75-65 31 0 32-14 3-34s-35-20-40 2c-5 17-98 58-98 43 0-3 5-23 11-44 7-27 7-48-1-73-14-40-30-45-30-8 0 15-19 62-42 105-33 62-44 76-55 68-32-27 42 110 80 148 46 45 57 49 90 31zm809-10c-9-9-15-9-24 0s-7 12 12 12 21-3 12-12zm-1042-13c8-10 9-15 2-15-6 0-9-7-6-15 4-8 3-15-2-15-11 0-54 41-54 52 0 14 47 9 60-7zm2871-26c-32-26-48-13-20 17 16 17 26 21 33 13 8-7 4-16-13-30zm-2901-40c0-5-8-9-19-9-18 0-35 42-22 55 6 7 41-32 41-46zm-557 32c4-1 7-5 7-10 0-16-39-23-78-16l-37 7 25 13c13 7 36 12 50 10s28-4 33-4zm1793-8c63-4 108-2 139 7 40 11 48 11 56-1 12-21 3-26-105-54-82-22-110-26-167-20-38 4-67 10-64 15 2 4 28 5 56 2 49-4 186 15 193 27 2 3-37 6-88 6-98 0-146 9-146 26 0 6 7 8 17 5 9-4 58-10 109-13zm1534 1c0-8-4-12-10-9-5 3-10 10-10 16 0 5 5 9 10 9 6 0 10-7 10-16zm-30-8c0-8 11-24 25-34 14-11 22-23 17-26-13-8-52 5-51 18 4 30-1 37-20 27-25-14-35-1-13 15 23 18 42 17 42 0zm220-36c-41-51-47-55-67-35-14 14-14 18-2 26 8 5 21 9 30 9s24 9 34 20c33 37 37 21 5-20zm-3372 17c8-9 8-20-1-37-19-37-32-33-34 10-3 42 13 54 35 27zm1912-13c0-2-7-4-15-4s-15 4-15 10c0 5 7 7 15 4 8-4 15-8 15-10zm1081 6c6 0 8-4 5-9-12-19 17-68 67-113 40-37 48-48 32-48-29 0-145 126-145 157 0 19 4 24 16 19 9-3 20-6 25-6zm83-6c3-8 2-12-4-9s-10 10-10 16c0 14 7 11 14-7zm-1316-26c-5-17-99-48-163-55-68-8-51 5 28 22 36 8 78 21 94 29 35 19 46 20 41 4zm109-38c-15-41-47-41-47-1 0 23 5 30 23 33 33 6 36 1 24-32zm1037 26c-3-8-19-19-35-25-42-14-36-24 10-16 32 5 41 3 49-12 11-20 0-50-27-70-9-6-13-15-9-19 5-4 16 0 25 8 22 18 82 42 89 36 3-3-7-20-21-37-21-24-32-30-50-25-17 4-26 0-34-14-8-15-20-20-46-19-49 1-46 24 12 81l48 46-61-1c-34-1-71 2-83 6-26 8-28 35-3 35 10 0 22 4 28 9 10 10 69 29 96 30 11 1 15-4 12-13zm-961-10c22-17 22-22-5-29-28-8-37-1-31 23 6 23 12 24 36 6zm-1068-5c5-10-32-51-46-51-4 0-2 14 4 30 11 30 30 39 42 21zm-948-48c-4-50-16-57-45-29-12 11-11 19 2 45 26 49 47 41 43-16zm3293 38c0-18-17-20-36-6-18 14-18 14 9 15 15 0 27-4 27-9zm-1440-18c0-23-17-49-26-41-9 10 4 58 16 58 6 0 10-8 10-17zm314-32c15-17 16-21 4-21-14 0-37 20-53 48-11 20 25 0 49-27zm603-4c13-28 1-52-21-44-17 7-20 24-10 51 9 22 19 20 31-7zm-1001-24c-11-11-19 6-11 24 8 17 8 17 12 0 3-10 2-21-1-24zm1701-106c14-34 30-78 34-97s28-107 53-195c36-126 48-186 55-285 16-208 20-300 12-300-9 0-31 91-31 131 0 54-48 254-95 394-43 131-107 266-178 378-21 33-27 51-19 59 7 7 17 3 33-13l22-22-6 31c-7 33 9 54 24 31 6-11 9-10 14 4 6 14 11 11 31-19 13-19 36-63 51-97zm-607 92c0-6-4-7-10-4-5 3-10 11-10 16 0 6 5 7 10 4 6-3 10-11 10-16zm-1880 3c0-14-39-46-47-39-3 4 2 16 12 27 19 21 35 26 35 12zm-1138-34c-7-7-12-19-12-27 0-10 10-4 26 17 14 17 32 32 40 32 19 0 18-4-14-37-15-17-40-54-55-84l-27-55 18-57c18-54 11-83-8-33-10 28-26 40-35 26-3-5 12-37 34-70s36-62 31-65-23 17-41 45c-47 72-60 54-38-51 17-77 88-149 197-200 45-21 82-43 82-49 0-8-7-9-17-5s-31 10-48 13c-27 4-28 3-16-11 7-9 20-16 29-15 36 3 63-2 58-11-3-5-16-7-29-3-20 5-21 4-8-12 8-10 22-15 32-13 12 3 15 0 12-14-5-17-8-17-33-4-26 14-28 13-23-5 5-19-11-29-19-12-1 4-29 21-61 37-33 16-65 38-73 49-7 11-17 16-21 12s0-13 10-20c9-7 17-16 17-20 0-12-16-6-40 17-14 13-31 22-37 20-16-6-41 45-49 98-4 24-9 38-12 31-9-28-20-8-26 49-4 46-2 66 9 82 8 12 16 17 16 12 1-6 5 15 9 45s17 75 29 100c11 25 25 59 31 75 27 87 56 141 69 129 3-2-1-10-7-16zm1208 8c0-15-78-82-86-74-2 3 7 16 21 29 24 24 35 46 15 34-5-3-10-4-10 0 0 5 38 23 53 24 4 1 7-5 7-13zm872-2c81-16 122-15 196 6 61 18 76 0 25-30-78-46-195-56-237-21-12 10-29 11-73 3-32-6-66-14-77-18-14-5-18-3-14 7 2 8 26 21 53 30 42 15 46 18 29 27-19 11-19 11 0 12 10 0 55-7 98-16zm328 0c0-8-4-12-10-9-5 3-10 10-10 16 0 5 5 9 10 9 6 0 10-7 10-16zm840-49c0-19 2-35 5-35s21 17 40 38l35 37-6-30c-10-41-41-79-87-104-47-25-50-26-43-3 2 9 12 43 20 75 18 64 36 75 36 22zm-1935 10 30-14-30 6c-16 3-37 9-45 14-27 15 11 10 45-6zm-1055-9c0-7 7-19 15-26 17-14 20-30 5-30-5 0-16 13-25 30-18 34-18 40-5 40 6 0 10-6 10-14zm1005 2c3-2-8-22-22-44-15-21-28-45-28-53 0-17-59-55-77-49-6 2 6 14 27 26 20 13 35 26 31 29-3 3 5 21 19 39 39 51 30 50-32-5-31-28-61-51-65-51-16 0-8 20 13 30 11 7 18 14 15 18-4 3 8 20 25 38 25 25 39 32 61 30 16-2 31-5 33-8zm459-12c26-23 34-50 17-60-15-10-35-125-24-148 8-18 11-13 22 35 11 50 15 57 37 57 13 0 27 1 30 3 4 1 12-7 18-18s17-24 24-28c26-17 4-87-28-87-20 0-20-35 0-54l21-21 20 24c12 15 19 38 19 66 0 35 4 45 20 50 22 7 47-4 74-33 17-20 17-21-2-37-16-15-18-22-9-45 12-32 45-46 54-23 3 8-1 21-9 29-22 22-11 80 19 99 37 24 71 12 89-32 13-29 13-41 4-59-16-29-4-50 17-32 23 18 31 49 22 80-17 59 8 80 66 58 23-9 25-13 15-26-9-10-10-18-3-25 8-8 16-4 28 15 10 14 26 26 36 26 13 0 19 7 20 23 1 21 1 20 8-4 5-14 13-34 19-45 7-14 7-34 0-67-11-55-29-65-30-17-1 3 2 20 5 38 6 27 4 32-13 32-21 0-23-7-20-52 1-27-15-68-33-80-30-19-66 47-46 84 7 12 7 23 2 27-5 3-12 14-16 24-13 34-24 8-19-45 3-47 1-56-21-76-20-19-32-23-56-17-31 7-41 28-20 40 6 5 8 23 4 49-10 56-12 58-41 39l-25-16 25-26c22-23 24-29 13-50-7-13-29-30-50-38-35-14-39-14-58 3s-20 26-15 81c4 40 3 64-4 68-16 10-19 5-30-54-13-67-28-97-43-82-6 6-19 11-28 11s-27 8-39 18l-21 17 25 55c31 67 33 90 6 90-24 0-40-28-40-72 0-33-14-58-33-58-5 0-6 11-3 25 5 21 3 25-18 25-16 0-26 7-29 22-8 27 11 116 30 146 16 25 9 62-12 62-8 0-11-7-8-20 6-24-9-26-27-5-10 13-10 19 5 35 23 25 28 25 59-4zm-654-6c8-5 11-10 5-10-5 0-17 5-25 10s-10 10-5 10c6 0 17-5 25-10zm355-5c39-17 11-18-35 0-23 9-28 14-15 14 11 0 34-6 50-14zm362-1c4-12 8-13 14-3s14 7 33-14c14-15 31-27 38-27 8 0 9-3 1-11-18-18-72 3-94 39-12 18-16 32-10 32 7 0 14-7 18-16zm-1539-39c11-33 10-41-2-54-21-20-24-14-30 48-6 63 12 66 32 6zm1135 19c31-10 57-21 57-26 0-4-4-8-10-8-5 0-16-13-25-30-18-36-14-37 24-9 16 12 35 19 43 16s3-9-14-16c-37-14-35-17 7-16l35 2-20-22c-28-30-25-41 6-20 40 26 43 7 5-26l-35-29 21-28c20-28 39-72 29-72-2 0-19 20-37 45-17 24-36 42-40 39-17-10-9 19 8 32 31 22 9 24-36 3-57-25-64-18-12 12 22 12 42 28 45 36 7 18 5 17-59-18-30-17-63-29-73-26-12 2-7 8 20 22 31 15 48 36 67 80 2 6-6-2-18-17-13-16-29-28-36-28-8 0-31-11-51-25-36-25-64-32-64-17 0 8 97 57 114 57 6 0 12 10 14 22s12 25 23 28c22 7 26 25 5 25-7 0-26-16-40-35-33-43-56-47-26-5 12 17 17 30 11 30-12 0-41-28-41-40 0-13-84-60-106-60-12 1-2 10 27 25 54 28 81 55 55 55-15 0-15 2-1 31 13 23 20 29 37 23 15-4 18-3 13 7-6 8-4 11 6 7 8-3 40-14 72-24zm203-1c17-18 21-30 14-37-5-5-10-18-10-28 0-45-37 6-41 57-3 44 3 45 37 8zm1324 17c11 18 43-46 35-70-4-11-10-20-14-20-11 0-51 87-43 95 4 3 8 1 11-6 2-8 5-8 11 1zm113-4c18-14 23-36 8-36-23 0-41 14-41 31 0 22 8 23 33 5zm-142-37c12-24 17-44 11-48-5-3-11-13-14-21-3-9-12 5-23 33-14 38-22 47-41 47-24 0-35-20-11-20 13-1 50-70 37-70-5 0-17 11-27 24-17 24-55 33-108 26-17-2-17-3 5-10 20-6 15-8-25-9-27-1-62-7-76-14-14-8-45-17-70-21-40-6-43-6-28 9 9 9 58 27 109 41 51 13 101 31 111 40s42 20 71 24 54 8 55 9c2 0 12-18 24-40zm-2752-5c11-14 23-35 27-46 5-16 8-18 15-7 11 19 34-4 26-25-7-17-37-22-37-7 0 5-16 18-35 30-28 16-35 27-35 51 0 37 12 38 39 4zm747 1c-3-9-11-13-16-10-8 5-7 11 1 21 14 18 24 11 15-11zm-816-100c5-7 25-41 43-76 18-36 42-69 56-75 12-7 57-45 100-86 56-54 81-87 94-123 22-61 17-67-13-12-30 54-69 97-90 97-23 0-141 104-167 148-13 20-23 32-23 25 0-15 34-76 66-118 24-32 31-55 16-55-16 0-71 87-91 141-19 55-36 211-23 224 4 3 10-12 14-35s12-48 18-55zm2206 64c6-5 29-2 53 8 49 19 70 9 52-26-13-23-31-27-48-10-8 8-17 8-33-1-22-12-73-7-99 9-12 8-12 12-2 25 13 16 53 13 77-5zm-316-3c0-17-5-21-43-30-24-6-28-4-25 11 2 9 14 20 28 24 38 11 40 10 40-5zm78-15c11-32 6-46-24-55-13-4-26-1-34 8-10 13-8 21 12 45 29 37 34 38 46 2zm110 16c23-15 13-45-20-56-39-14-50-4-42 37 5 26 11 32 28 29 11-1 27-6 34-10zm-2071-29c-3-7-5-2-5 12s2 19 5 13c2-7 2-19 0-25zm2731-8c13-16 18-30 11-30-11 0-48 39-49 53 0 16 17 5 38-23zm442-16c-12-35-14-36-26-19-12 16-11 22 8 42 28 30 33 23 18-23zm-780-40c0-6-7-17-15-24-12-10-16-8-25 15-5 14-10 40-10 58v31l25-34c14-19 25-39 25-46zm280 66c0-6-27-10-61-10-46 0-68-5-90-21-16-11-29-17-29-12 0 11 40 37 70 44 41 11 110 10 110-1zm-340-65c5-5 11-26 14-45 5-28 2-41-18-65-29-36-45-28-20 10 14 21 15 31 5 51-13 29-14 74-3 101 6 15 8 12 10-12 2-16 7-34 12-40zm370-14c-1-11-8-8-25 12-33 37-32 57 0 27 14-13 25-31 25-39zm-79 22c23-47 23-49-8-20s-40 32-61 19c-10-7-9-17 3-51 18-51 18-51 6-51-4 0-14 20-21 45s-19 45-26 45c-17 0-17 0 1-43 16-38 20-65 8-53-4 4-15 27-24 51-15 41-15 45 0 59 14 13 40 20 92 25 9 0 22-11 30-26zm-132-72c11-36 19-67 16-69-6-6-4-9-43 50-35 51-43 79-16 57 13-11 14-9 8 17-12 51 12 13 35-55zm-1569 14c10-12 10-15-3-15-8 0-28-7-43-15-16-8-44-15-63-15-28 0-32-2-21-15 6-8 9-18 7-22-10-17 22-43 89-75 52-24 89-34 154-39 47-4 108-14 135-22 28-7 86-19 130-25 89-13 514-35 536-28 8 2 107 7 222 11 114 3 213 8 220 10 6 3 60 9 119 15 85 7 137 20 252 59 135 46 210 87 179 98-13 5-18 45-7 56 7 7 40-8 65-30 15-13 15-17-2-52-17-36-28-43-130-86-154-65-446-120-597-114-45 2-82 1-82-2 0-7-344-13-495-9-44 1-84 5-90 9-5 5-43 9-84 10-40 1-99 7-130 12s-78 9-104 9c-27 0-69 6-95 14-161 47-200 61-221 77-13 11-28 19-34 19s-2-7 9-15c17-13 17-14 2-15-9 0-19 4-22 9s-18 12-32 15c-15 4-42 19-61 33-46 35-42 71 13 111 51 38 59 40 120 41 34 1 56-4 64-14zm574-35c20-51 20-80 1-80-8 0-15 5-15 10 0 6-9 30-20 52-24 50-25 54-5 38 13-11 14-10 9 4-3 9-2 16 4 16 5 0 17-18 26-40zm-94-34c0-5-13 3-30 19-16 16-30 33-30 39 0 5 14-3 30-19 17-16 30-33 30-39zm-1497 15c15-22 27-45 27-53 0-7 23-35 51-61s45-47 39-47c-17 0-130 70-130 80 0 5-3 16-7 26-4 12-3 15 5 10 19-11 14 9-8 37-20 26-26 47-12 47 4 0 19-18 35-39zm1464-11c6-8 9-17 7-19-6-6-54 40-54 52 0 10 28-10 47-33zm183-10c0-10-3-26-7-36-6-16-7-16-13 1-8 24 0 66 11 59 5-3 9-14 9-24zm-810-140c0-5-4-10-9-10-6 0-13 5-16 10-3 6 1 10 9 10 9 0 16-4 16-10zm-590-18c52-36 90-80 90-105 0-34-27-96-33-77-3 8-11 33-17 55-14 47-48 106-67 118-14 9-18 27-5 27 4 0 18-8 32-18zm735-35c136-66 496-107 935-106 201 0 243 3 440 37 115 20 274 41 360 46 25 2 68 15 98 31 61 33 77 27 35-12-33-30-187-91-243-96-20-2-42-7-50-13-8-5-60-9-115-10-73-1-113-6-149-20-37-14-50-16-53-6-3 6-10 9-16 5-16-10-160-4-171 7-6 6-33 9-61 9-42-1-45-2-20-8 26-6 27-8 10-13-51-16-75-18-75-7 0 7-25 10-72 9-91-3-96-2-78 10 12 8 10 10-9 10-13 0-21-3-18-7 14-13-53-34-74-23-10 6-47 8-83 5-39-3-67-1-71 5s6 10 24 10c17 0 31 5 31 10 0 21-74 4-91-22-7-10-39 0-39 13 0 5 9 9 21 9 11 0 18 4 14 9-3 6-20 4-41-5-20-8-41-13-47-11-7 3-1 9 13 15s19 11 12 11c-7 1-25-5-40-13-49-25-72-29-72-12 0 8 8 20 18 25 15 9 14 10-8 11-15 0-31-5-37-11-7-7-20-8-30-4-17 7-17 8 2 16 21 10 12 9-62-7-27-5-27-5-9 10 28 23 14 29-27 11-51-21-67-18-37 6l25 21-25-7c-57-16-83-18-76-6 4 6 17 11 29 11 13 0 18 3 11 10-6 6-25 4-53-6-45-15-98-15-56 0 55 21 59 26 15 21-40-4-43-3-27 9 10 8 14 17 9 20-13 8-42-3-42-15 0-5-7-9-15-9-20 0-19 10 2 25 15 11 15 13-6 20-12 4-28 2-36-5s-15-7-19-1c-4 5 3 16 15 24 23 17 29 15 134-36zm-37-97c109-53 322-97 519-106 34-1 76-7 95-12 41-11 463 4 498 18 14 6 43 9 65 9 91-3 355 10 372 19 10 5 54 17 98 27 44 9 102 28 129 42 26 13 45 20 41 14-3-6 1-11 10-11s13-4 10-10c-3-5-15-10-25-10-28 0-70-21-70-36 0-22 17-25 64-13 48 12 86 7 51-7-11-4-22-11-25-15s-50-19-104-33c-101-27-170-34-531-56-320-20-365-20-730-4-338 14-445 25-445 45 0 4-18 13-40 19-49 13-44 35 6 25 51-9 41 11-11 24-25 6-45 16-45 22 0 7 7 8 18 4 9-4 26-9 37-12 19-4 19-3 1 9-38 26-86 70-86 80 0 12 27 3 98-32zm1477-39c-20-17-77-31-93-22-13 7-7 11 23 16 22 4 45 8 50 10 20 7 29 5 20-4zm-2055-21c5 0 7-15 5-32-4-30-45-78-67-78-4 0-5-7-2-15 7-18-1-18-80-1-68 14-56 26 25 26 46 0 50 2 44 20-3 11-2 20 4 20 5 0 15 16 21 36 8 25 16 34 27 30 8-3 19-6 23-6zm-130-49c-10-20-30-29-30-13 0 4 8 18 17 32 19 27 30 12 13-19zm224-49c-4-12-10-22-15-22-11 0-12 44-2 54 12 11 23-9 17-32zm2350-37c-37-16-142-35-196-35-28 0-38-4-38-16s7-14 33-9c31 6 31 5 12-11l-20-17 20 8c11 4 38 11 60 16 47 10 112 32 121 42 4 4 17 7 28 7 19-1 18-3-9-25-16-14-40-25-53-25s-32-4-42-10c-10-5-55-12-100-14-44-3-97-10-116-16-53-18-53-3 0 19 53 23 64 46 14 29-18-6-45-19-60-30-35-24-60-23-28 2 31 24 14 27-20 3-13-9-44-18-69-19-39-1-42 0-26 12 10 8 14 14 8 14s-21-9-35-19c-16-13-39-20-68-19h-43l23 18c24 18 23 18-50 16-64-1-81-6-114-29-35-24-66-35-66-22 0 2 17 13 38 24 31 17 33 20 14 21-13 0-39-12-58-26-39-30-60-25-23 5 36 30 2 26-42-5-21-14-44-24-51-22-8 3 2 13 22 24 33 17 33 19 12 22-13 2-32-4-41-12-10-9-35-16-57-16-39 1-39 1-14 15 38 22 4 18-40-5-47-24-78-26-35-3 47 25 11 27-40 2-25-12-48-20-51-16-4 4 5 11 20 16 14 6 26 12 26 14 0 9-157 3-175-6-26-15-119-46-123-43-7 8 75 49 96 48 12-1 22 2 22 7 0 4-22 9-50 10-27 1-50-3-50-8 0-11-89-55-97-48-6 6 55 46 72 48 6 1-1 4-15 9-17 5-35 1-57-12-33-19-44-13-21 10 21 21-7 13-31-9-25-23-41-19-21 6 18 22-3 19-33-5-14-11-29-20-33-20s1 9 11 20c25 28-2 27-32-2-13-12-26-18-30-15-3 4 2 14 13 22 12 9 14 14 5 15-7 0-27-11-43-25-17-14-33-23-37-19-3 3 4 13 17 21 12 9 22 19 22 24 0 17-32 9-51-13l-20-23 6 23c9 32-18 29-41-5-11-17-19-23-22-15-2 7 2 19 8 27 8 10 9 15 2 15-6 0-14-4-17-10-11-18-23-11-18 10 7 26-5 25-34-2-31-29-30-4 2 27 20 21 33 25 77 23l53-1-50-6c-35-5 8-9 137-15 126-5 186-12 181-19-4-6-1-7 8-2 19 12 140 7 156-7 14-11 922-6 941 6 6 3 101 17 213 32 112 14 206 27 208 30 2 2 11 4 20 3 9 0 2-7-15-14zm-2574-15c18-12-50-12-125 0-48 7-46 7 30 9 44 0 87-4 95-9zm602-42c-7-7-12-8-12-2 0 14 12 26 19 19 2-3-1-11-7-17zm-747-43c-38-16-113-30-102-18 14 14 70 31 102 31h30zm2075-2c-23-16-114-27-105-13 7 12 45 19 45 9 0-5 12-3 28 5 38 21 62 20 32-1zm-620 1c0-7-66-34-82-33-7 0 5 9 27 19 43 20 55 23 55 14zm38-10c-9-9-22-14-30-11s-4 8 12 15c35 15 37 14 18-4zm1298-19c-11-8-23-15-28-15-4 0-7-5-5-12 1-7-26-19-68-30-88-22-129-20-65 4l45 17-50-4-50-5 35 16c19 9 55 17 80 18s54 7 65 14c11 6 29 11 40 11 20 0 20 0 1-14zm-1953-26c40-7 77-16 82-21 6-6-5-7-30-2-22 3-37 4-34 0 11-11 103-27 159-26h55l-28-25c-31-28-52-33-43-10 6 17-29 22-39 5-3-5 1-10 10-10 11 0 14-6 9-24-3-14-1-40 5-58 5-18 13-58 16-88 5-49 4-52-7-29-7 14-18 24-24 22s-19 8-29 23c-29 45-117 123-164 146-40 19-68 27-152 45-15 3-37-1-50-8-36-19-59-21-59-4 0 8 9 15 21 15 11 0 35 11 52 24 18 13 41 26 52 29 37 9 126 7 198-4zm-785-10c-6-19-85-72-99-67-8 3 7 19 36 41 52 38 69 45 63 26zm2267-31c3-3-19-8-49-11-85-9-142-38-161-83-9-21-21-42-28-46s-17-27-23-50l-11-43-8 48c-4 29-22 70-41 99-19 27-34 52-34 54 0 12 24 0 45-22 20-22 25-24 25-9 0 11 5 15 15 12 8-4 17-2 20 3 4 6 16 10 28 10 18 0 19 2 7 10-8 5-29 7-47 4-33-6-143 14-143 27 0 8 397 6 405-3zm-685-18c0-5-21-11-47-12l-48-1 84-8-29-42c-33-49-49-94-29-82 7 5 5-2-4-16-9-13-17-35-17-49 0-36-14-55-27-38s-25 65-26 106c0 17-4 32-9 32-4 0-8 7-8 15s-6 15-14 15c-7 0-33 17-57 38-24 22-51 41-59 45-8 3 54 6 138 6 95 1 152-3 152-9zm1300 0c0-5 12-21 26-35 50-50 56-124 21-250-50-180-88-221-367-405-77-50-256-136-316-151-27-6-61-18-75-25-51-26-159-63-159-55 0 10 179 95 186 88s57 11 148 52c75 34 85 50 16 26-24-8-45-13-47-11-3 2 79 47 180 100 170 89 190 102 254 170 43 45 81 96 97 132 15 32 33 73 41 89 19 42 39 168 31 198-3 14-12 27-19 30-17 6-127-25-127-36 0-4 12-13 28-19l-26-26c56-3 58-22 1-22-26 0-59-3-73-7l-25-6 27 28c15 15 25 31 22 36s0 9 5 9c6 0 11 5 11 11s-6 9-12 6c-7-2-12-11-12-20 1-8-4-13-11-11-13 6-95-83-95-103 0-6-9-27-20-46s-27-57-35-85c-9-28-36-81-60-118-25-37-45-70-45-74 0-20-33-67-82-115-29-29-63-66-76-84-13-17-28-31-32-31-5 0-30-14-55-32-61-43-66-31-7 18 76 62 188 188 249 281 52 80 112 202 113 231 0 21 88 148 124 180 18 15 35 35 38 44 12 30 158 65 158 38zm-260-4c0-2-20-11-45-19-25-9-45-12-45-7 0 4 17 12 38 18 45 12 52 13 52 8zm-2740-26c0-5-2-10-4-10-3 0-8 5-11 10-3 6-1 10 4 10 6 0 11-4 11-10zm1965-11c37-25 72-108 52-121-9-6-9-10 1-17 8-4 16-27 19-49 3-23 9-39 14-36 14 8 10-162-6-258-8-48-26-120-40-159s-22-75-19-80c3-6-14-36-37-67-32-42-45-52-47-39-2 9 7 30 21 46 20 25 80 191 102 286 4 17 6 85 6 153-1 113-7 146-36 216-6 14-5 17 3 12 18-11 14 3-10 36l-21 31-80-6c-93-8-97 3-5 13l63 7-66 2c-54 1-69-3-84-19-21-23-19-23 64-20 45 2 47-3 13-42-14-16-13-18 1-18 10 0 17 5 17 10 0 11 39 13 64 4 30-11 16-23-21-18l-38 4 32-12c35-14 64-38 46-38-6 0-27 7-46 15-45 19-90 20-85 3 3-7 28-18 58-25 29-6 57-16 63-22 14-14 3-14-63 4s-70 18-70 5c0-5 8-10 18-10 16-1 16-1 0-11-22-12-23-29-2-29 8 0 12 5 9 10-10 15 66 11 95-5 22-13 23-14 5-15-11 0-35 4-52 9-20 6-35 6-38 0-4-5-15-9-26-9-15 0-20-6-17-21 3-22 9-26 58-48 21-9 17-10-22-5-32 4-48 3-48-5 0-6 11-11 24-11 49 0 87-12 82-26-3-8-1-14 4-14 6 0 10-4 10-10s-30-7-79-3c-53 4-80 2-85-6s11-11 56-11c35 0 70-5 78-11 11-8-17-9-98-5-87 4-113 3-109-7 4-14 61-26 129-26 26-1 50-6 54-12 8-13-126-8-158 6-13 5-18 3-18-8s22-18 83-28c56-10 72-15 50-17-17-2-55 1-83 6-37 7-50 6-47-2 2-6 34-16 71-22 36-6 70-15 74-19 8-8-80-1-115 10-17 6-23 3-23-8 0-10 16-19 48-26 26-5 58-15 72-21 23-10 22-10-10-6-19 3-50 8-67 12-22 4-33 3-33-5 0-6 12-13 28-16 15-3 41-10 57-15 25-8 20-9-23-5-70 6-65-13 9-38l54-18-47 6c-38 4-48 2-48-10 0-10 11-15 36-15 21 0 33-4 29-10-3-5-18-10-32-10-24 0-25-2-19-37 3-21 8-58 11-83 4-35 1-29-15 30-11 41-24 84-29 95-14 34-50 198-46 206 3 4-2 36-10 71s-14 86-13 113c1 43 2 45 5 13 2-21 8-38 12-38 12 0 11 62 0 76-7 8-6 14 1 19 5 3 10 26 10 51 0 43 25 112 37 100 3-3-2-23-10-45-10-25-13-42-7-46 6-3 10 2 10 13 0 10 11 29 25 42 24 22 24 25 8 31-14 5-11 8 14 13 18 4 36 12 39 18 7 11-22 7-63-9-17-7-17-6 1 22 11 17 26 42 34 58 15 29 28 37 18 11-5-14-4-15 9-4 19 15 84 39 109 40 11 0 34-10 51-21zm-610-5c17-2 48-16 70-32 57-39 94-120 129-283 15-74 39-173 51-221 13-49 19-86 15-83-13 8-37 89-60 200-33 156-71 282-91 304-11 11-19 25-19 31s-30 25-66 42c-71 33-164 49-164 29 0-7-14-17-31-23l-31-11 7-71c14-152 102-375 187-471 16-19 34-32 40-29 5 3 29-8 52-24 31-22 56-32 92-34 27-2 47-6 44-10s4-14 15-23c19-15 18-16-19-10-57 9-42-18 17-29 26-5 47-13 47-18 0-4-5-8-11-8-5 0-7-5-3-11 4-8 0-9-15-4-28 9-26-5 4-34 14-13 25-27 25-32 0-21-21-6-62 42-24 28-59 59-79 69-41 22-75 55-43 44 22-8 22-8-35 36-58 45-42 14 37-71 31-34 48-57 36-51-26 14-69 55-112 107-19 23-31 31-27 20 17-54-29 22-99 160-82 165-112 254-122 362-8 87-1 118 28 128 13 5 32 12 43 16 18 7 52 5 150-7zm1134 5c75-24 89-31 119-59 35-31 41-50 17-50-18 0-19-5-4-32 12-22 3-47-82-223-61-126-200-298-289-358-25-16-58-43-75-58-29-27-152-89-177-89-17 0 23 27 91 62 108 54 247 178 343 304 55 71 131 210 157 286 18 53 18 55-1 93-11 22-27 46-36 53-14 11-14 12 4 12 18 1 18 2 2 14-20 15-143 14-203-3-44-12-129-87-121-107 5-13-38-169-75-269-12-33-25-80-29-105s-10-52-14-61c-5-10-2-16 8-16s23 22 35 59c11 32 15 58 10 58s0 9 11 20c23 23 25 36 8 43-8 3-6 6 4 6 12 1 22 17 33 53 8 28 15 58 15 65 0 21 58 131 81 154 20 20 20 21 2 34-16 13-15 14 19 15 20 0 40 5 43 10 3 6 1 10-5 10s-8 5-5 10c3 6 25 9 48 9 30-2 34-3 15-6-49-8-30-20 44-29 45-6 73-14 76-23 3-10-3-12-29-6-19 4-37 10-41 14-11 9-88 1-88-10 0-5 14-9 31-9 16 0 28-4 25-8-2-4 16-9 42-10 25-1 51-7 56-13 8-8-4-10-47-7-47 4-60 2-67-12-8-15-4-16 40-12 35 3 50 1 50-7 0-9-17-12-53-10-29 1-59-1-67-6-10-6-12-4-6 11 19 45 19 54-2 54-27 0-37-17-15-23 15-4 14-6-5-12-13-4-21-13-19-19s-3-17-12-24c-13-11-9-12 29-8 60 8 121 7 134-2 6-4-11-9-38-12-52-5-73-25-34-33 18-3 16-5-9-6-38-1-56-21-19-21 28 0 47-20 19-20-10-1-36-23-58-51-22-27-49-51-60-54-11-2-32-6-47-10-42-8-34-24 10-19 35 5 36 5 18-10-11-9-29-16-41-16-21 0-45-17-45-32 0-5 13-2 30 7 33 17 50 19 50 6 0-4-22-18-50-29-27-12-50-26-50-32 0-7 6-8 19 0 11 5 30 10 43 9 17 0 10-7-27-24-28-12-57-30-64-39-16-19-12-20 23-6 41 15 31-8-11-28-38-17-53-30-53-46 0-5 7-3 15 4 8 6 20 10 27 8 7-3-7-15-30-27l-44-22 7 23c7 21 5 20-15-5-18-22-20-31-10-37 9-6 6-10-10-15s-19-9-10-15 7-11-8-19c-11-6-24-11-27-11-11 0 6 40 41 99 19 31 32 63 29 71-5 15 5 52 59 229 14 46 28 105 30 130 9 87 75 231 116 252 92 47 142 56 199 38zm-1815-13c-3-8-17-22-31-31-13-9-22-19-19-22 2-3-11-28-30-55-25-37-34-61-34-90 0-47 19-118 32-118 5 0 4 9-2 19-11 22-13 64-3 99 5 23 9 23 78 19 40-3 83-12 96-20s36-17 52-21c15-4 27-11 27-16s-7-7-15-4c-8 4-15 2-15-4 0-5 19-13 43-16 23-4 53-14 67-22 24-15 24-15-17-10-23 3-48 9-57 12s-16 1-16-5 5-11 11-11 9-7 6-14c-6-15 16-20 107-28 16-2 32-9 34-17 5-14-8-14-98 5-31 6-33 6-22-8 7-9 38-19 70-23 31-3 66-10 77-15 31-13-51-12-98 1-42 11-50 9-42-12 3-9 22-14 53-15 65-1 122-13 122-25 0-6-8-8-17-5-10 2-47 8-82 11-46 5-62 4-57-4 4-6 22-11 39-12 30 0 31-1 10-11-31-15-29-28 5-28 22 0 24 2 12 11-21 15 93 4 117-11 14-9 7-10-34-6-29 3-55 1-58-5-4-5-45-9-93-9-57 0-83-3-76-10 9-9 105-14 214-11 19 0 38-3 43-8 9-9-49-14-168-13-108 1-55-15 70-21 61-2 118-8 128-12 36-15 9-30-64-35l-74-5 49-7c27-5 68-8 92-8 26 0 44-5 44-11 0-11-89-8-184 7-24 3-27 3-11-5 28-12 156-31 216-31 35 0 48-3 43-11s-29-10-73-6c-45 4-61 3-49-3 9-6 45-13 80-16 70-7 172-51 209-90 32-34 9-30-52 11-54 35-76 44-64 25 8-13 0-13-65 5-30 8-108 22-173 31-64 8-130 21-145 27-38 17-110 69-212 154-69 57-94 86-119 133-17 34-26 58-21 55 14-9 12 7-4 28-10 12-15 14-18 6-9-28 4 129 14 171 14 57 68 149 88 150 8 0 26 7 40 15 31 18 30 18 24 1zm120-44c12-10 35-26 51-36 44-27 85-68 85-85 0-8 15-31 34-51 52-54 176-223 176-240 0-8 14-35 31-60 39-58 63-104 51-96-17 10-173 246-184 277-5 16-16 29-23 29-8 0-24 15-36 33-12 17-38 49-58 70-38 41-100 89-87 68 5-7-14-1-40 12-35 18-59 23-84 19-29-4-32-6-15-13 15-6 10-8-20-8-22 0-49 4-60 9-16 7-12 9 20 10 36 2 37 3 15 11-18 6-11 7 28 4 28-2 52 1 52 5 0 5 25 0 55-10s55-17 55-15-17 14-37 26c-25 15-60 25-107 29-62 6-67 8-39 15 19 4 30 12 26 18-11 17 89-1 111-21zm496-4c0-5 12-8 28-8 15 0 36-7 46-15 11-8 28-15 37-15 20 0 35-18 24-28-3-3-26 4-50 17-45 24-75 25-83 4-2-8 6-13 22-13 33 0 117-28 135-46 24-23 6-26-30-5-19 11-53 23-76 27-35 5-43 4-43-9 0-22 16-29 63-29 39 1 109-27 122-48 10-16-12-12-55 10-42 21-100 27-100 10 0-13 48-32 61-24 5 3 26-5 46-17 20-13 31-25 25-27s-22 4-34 12c-29 21-86 22-69 2 6-7 24-16 39-20 29-6 90-52 81-61-3-3-21 5-40 18-51 35-71 40-67 19 2-9 13-18 26-20 12-2 22-8 22-14 0-5-7-7-16-4-25 9-37-4-21-22 8-10 17-30 21-46s15-30 26-33c23-6 27-23 5-23-8 0-15-4-15-10 0-5 5-10 10-10 6 0 10-8 10-19 0-23 25-45 40-36 12 7 85-43 76-52-3-3-18 2-33 12s-37 19-48 20-29 6-39 10c-38 17-6-14 54-50 33-20 60-37 60-39 0-1-17-3-37-3-37-1-93 22-143 61-26 20-18 20 35 1 11-4-5 9-35 29-39 25-49 36-35 36 12 0 26-5 33-12s12-8 12-2-19 20-42 32l-43 23 35-5c30-4 32-3 16 7-39 25-67 49-62 54 2 3 14 0 25-7 35-18 23-4-20 24-22 15-38 30-35 33s17-2 32-11c14-10 28-15 31-13 5 5-11 21-57 58l-25 20 25-6c23-6 22-4-10 25l-35 32 28-7c28-6 28-6 11 20-9 14-21 25-28 25-6 0-4 5 4 10 13 8 12 11-4 23-15 11-17 21-12 49 5 30 3 37-16 46-21 11-21 12 8 7 23-5 33-2 37 9 5 11 0 16-13 16-11 0-20 4-20 9s18 8 40 7c22 0 40-4 40-8zm-256-193c49-69 70-105 63-111-2-3-22 24-44 58-22 35-63 88-91 119-29 31-52 60-52 65 0 15 81-70 124-131zm1831 104c-46-10-75-10-75 0 0 11 67 19 90 11 9-3 3-7-15-11zm-2135-9c0-12-94-12-130 0-17 6-2 8 53 9 45 1 77-3 77-9zm2170-19c-20-11-130-20-130-10 0 11 28 17 90 18 35 0 50-3 40-8zm-2035-21c4-6-8-10-29-10-20 0-36 5-36 10 0 6 13 10 29 10 17 0 33-4 36-10zm2015-20c0-5-15-10-34-10-18 0-48-3-65-6-19-4-31-2-31 4 0 12 27 19 88 21 23 0 42-3 42-9zm-60-39c0-9-34-21-62-21-10 0-18 4-18 9s8 12 18 14c31 8 62 7 62-2zm-881-33c42-15 15-20-43-7-30 6-53 16-50 21 6 9 49 3 93-14zm871-23c-29-15-100-30-100-21 0 12 64 35 95 35h30zm-1325-83c-7-7-45 29-45 41 0 6 11 0 25-13s23-26 20-28zm1310 38c-6-10-70-30-99-30-25 0-13 12 27 27 40 14 80 16 72 3zm-35-40c0-6-11-15-25-20-14-6-37-15-52-21l-28-11 28-12c15-7 24-16 20-20-13-12-96-46-101-41-7 6-5 8 38 34 32 20 33 21 8 15-57-13-13 39 57 67 49 21 55 22 55 9zm-1276-25c11-8 16-18 12-22-3-4-16 3-28 15-25 25-13 29 16 7zm36-85c19-16 29-30 22-30-15 0-72 40-72 52 0 14 14 8 50-22zm1130-24c0-8-102-67-107-62-10 10 10 29 51 47 41 19 56 23 56 15zm-30-60c-26-24-110-68-110-58 0 6 24 24 53 41 55 32 81 40 57 17zm-680-261c0-16-44-46-63-42-21 3-21 4 5 15 14 6 29 16 33 21 6 11 25 15 25 6zm-396-126c-4-7 1-7 16 1 34 18 34 6 0-26-16-16-30-36-30-44 0-13-1-13-10 0-5 8-9 30-8 48 2 24 7 32 21 32 11 0 15-5 11-11zm464 2c10-1 10-6 2-21-6-11-7-20-2-20s17 9 27 20c21 23 35 26 35 6 0-8 11-13 25-13 37 0 42-11 17-35-18-18-22-19-22-6 0 18-27 32-32 17-5-14-58-19-58-6 0 7-4 7-12-1-20-20-28-14-18 13 13 33-1 32-22-2-10-16-18-23-18-16 0 6 5 15 10 18 15 9 12 25-5 25-9 0-21-11-27-25s-15-25-20-25c-12 0-10 14 4 28 18 18 5 24-68 30-54 4-66 2-62-9 2-8 15-16 29-17 40-6 47-22 9-22-19-1-66-7-103-14-69-13-121-11-111 5 3 5-2 9-10 9-22 0-20 19 2 27 9 4 22 12 27 19 6 7 26 15 45 17 27 3 264 2 358-2zm-284-181c41-46 51-75 37-112-9-24-68-64-79-53-3 3 4 15 16 28s22 28 22 33c0 20-57 74-78 74-30 0-73-49-70-80 1-14-2-26-7-28-13-4-28 56-19 77 8 17 11 26 13 39 3 21 64 44 99 38 36-6 37-6 12 8-24 15-24 15-4 16 13 0 37-16 58-40zm531 20c3-5 15-10 25-10 22 0 50-55 50-96 0-38-55-86-100-88-50-1-57 18-8 22 63 5 92 78 48 122-41 41-71 22-84-52-9-51-36-59-36-10 0 28-3 33-10 22-8-12-10-12-10 5 1 27 19 49 60 73 40 23 56 26 65 12zm-287-16c34-5 52-11 52-20 0-17 12-18 28-2 9 9 12 8 12-7 0-10 10-29 22-42 21-22 21-23 3-65-21-49-32-64-41-56-3 3 2 20 10 37 18 35 19 41 7 41-5 0-12-14-16-30-9-40-54-64-102-55-19 3-37 13-40 21-3 7-13 14-22 14-14 0-16 7-13 35 2 19 8 38 14 41 6 4 7-9 2-32l-7-37 47 6c30 4 45 3 41-3-3-6-16-10-27-10-12 0-19-3-15-6 3-3 23-3 44 1 31 5 43 13 58 41 16 30 17 36 3 51-8 10-18 26-21 36-7 19-24 22-46 8-12-8-12-12-2-25 8-9 20-16 27-16 27 0 13-41-17-52-21-8-39 29-32 65 3 16 1 27-5 27-25 0-62-21-62-35 0-8-4-15-10-15-5 0-10-9-10-21 0-11-4-17-10-14-11 7-2 64 14 84 9 12 7 12-13 2-19-11-23-11-19 1 6 16 46 38 73 38 11 0 44-3 73-6zm-643-13c-8-15 14-24 29-12 9 7 17 5 29-9 18-21 67-28 67-9 0 5 5 7 10 4 6-3 10-15 10-26 0-10 5-28 12-38 17-28 4-48-47-71-50-23-75-19-52 8 25 31 59 92 50 92-5 0-17-16-26-35-22-47-36-44-30 5 6 43-2 48-56 33-21-5-23-10-19-54 6-54 3-56-30-33-17 12-22 12-22 2-1-7-7 4-15 26-15 44-3 86 25 86 9 0 25 9 35 20 18 20 41 28 30 11zm934-40c7-5 11-13 7-19-3-6-2-12 4-14 11-3-16-48-29-48-11 0-22 56-15 75 7 17 13 18 33 6zm-609-32c0-32-19-59-40-59-24 0-26 27-4 58 19 28 44 29 44 1zm63-168c6-25 0-31-34-31-35 0-47-35-15-46 19-6 19-7-6-11-35-5-37-23-2-23 16 0 23-4 18-11-4-6-19-9-36-5-21 4-28 2-25-7 2-6 17-15 33-18 29-7 29-7-6-8l-35-2 30-14 30-13-36-1c-28-1-41-7-53-26-14-21-14-25-2-25 7 0 16 7 20 15 6 17 42 20 51 5 3-5 0-10-7-11-10 0-10-2 0-6 6-2 12-9 12-15s-18-8-48-5c-27 3-55 1-63-4-9-6 4-9 38-9 28 0 55-4 58-10 4-6-21-10-69-10-41 0-78-4-81-10-3-5-11-10-17-10-5 0 4 16 21 35s54 84 83 145c42 89 57 111 80 119 15 6 28 15 28 20 0 19 27 12 33-8zm-209-49c-19-5-18-22 1-22 25 0 17-19-11-26-24-6-25-8-8-17 16-9 15-12-16-23-19-7-27-13-17-13 30-1 8-21-22-21-16 0-34-7-41-15-11-13-8-14 18-9 16 3 32 2 36-4 8-13-39-25-65-17-20 7-74-27-62-39 3-3 24-6 45-6s38-4 38-10c0-10-28-13-87-10-17 1-52-10-80-25l-48-25 40 4c22 2 54 7 70 11 29 6 29 6 11-9-19-15-19-16 7-16 15 0 27-4 27-10s-43-10-107-11c-102-1-105-2-49-10 32-5 61-11 64-14 9-8-52-6-245 10-100 8-188 12-197 9-8-3-28 2-45 11-17 8-31 11-31 6 0-14-69-6-83 9-10 10-8 12 7 6 18-6 18-5 2 18-23 36-20 51 14 79 28 24 42 45 20 32-5-3-10 0-10 8s29 21 78 35c127 35 141 35 197 6 61-32 80-49 45-40l-25 7 25-15c14-9 21-16 15-17-35-5-76 7-118 32l-49 30-41-21c-44-23-87-58-87-72 0-13 81-50 96-44 8 3 26-1 40-10 16-11 51-17 102-19 62-2 86 2 127 20 28 13 65 29 83 35 17 7 32 16 32 20s15 10 33 13c57 9 132 63 193 140 68 85 77 92 85 69 4-10 1-18-7-20zm351 6c7-7-1-9-22-6-18 3-33 1-33-4 0-4 11-8 24-8 32 0 45-20 14-21-13 0-17-3-10-6 17-7 15-23-3-23-12 0-35-28-35-44 0-3 20-6 44-6 25 0 48-5 52-11 5-9-6-10-40-7-25 3-46 2-46-3s9-9 19-9c24 0 36-16 19-23-8-3-6-6 5-6 10-1 16-5 12-10-3-5-1-12 5-16s8-10 5-15 2-13 11-18c15-9 14-11-6-17-24-7-24-8 6-20 27-12 23-13-51-13-53-1-73 2-60 8 18 8 17 9-6 9l-26 1 13 68c7 37 18 102 25 144l13 77 30-6c17-3 36-10 41-15zm284-8c10 25 10 25 16 3 4-13 12-20 21-16 9 3 14-1 14-12 0-9-4-13-10-10-5 3-10 1-10-5 0-16 29-70 38-70 4 0 12-10 17-22 14-33 105-90 177-112 35-10 76-23 91-29 57-20 34 0-26 23s-174 83-220 115c-25 18-19 19 20 4 27-10 27-9-7 20-47 40-27 39 35-2 74-49 156-82 289-116 131-34 152-37 159-18 3 6 6 0 6-15 1-25 5-28 33-28 30 0 31 1 12 15-18 14-17 14 16 15 49 0 110 11 110 20 0 3-15 5-32 3-25-3-30-2-18 6 8 6 23 11 33 11 16 0 17 5 12 31-8 36-42 79-62 79-8 0-11-5-7-11 5-9-4-10-32-6-21 4-33 4-26 1 25-11 11-21-45-33-31-6-63-11-72-11-22 0-1 19 26 23 13 2 26 7 30 11 5 5-7 5-24 1-41-8-44 9-5 23 15 6 40 22 56 36s34 26 40 26c47 0 143-25 166-42 29-21 60-82 60-117 0-20-48-74-71-79-48-12-134-22-192-22-38 0-77-5-87-10-14-8-46-5-116 9-54 11-101 18-106 15-4-3-8-1-8 4 0 4-24 16-54 25-30 10-79 31-110 47-37 20-71 30-103 31-27 1-61 5-78 9-22 7-13 8 38 7 37-1 67 1 67 5 0 3-32 12-71 18-80 14-84 22-8 22l51-1-23 25c-16 17-33 24-60 24-21 0-41 5-45 12-5 8 5 9 37 5 40-5 42-4 25 9-11 8-30 14-43 14s-23 5-23 10c0 6 9 10 19 10 11 0 23 9 27 22l6 21 19-24 18-24zm-439 0c0-5-9-10-21-10-11 0-17 5-14 10 3 6 13 10 21 10s14-4 14-10zm268-52c-3-30 0-72 8-98 11-38 12-57 4-90 0-3-8 7-16 23-8 15-20 63-26 107-11 75-11 81 7 95 11 8 22 15 24 15s1-24-1-52zm-104-27c8-12-20-22-40-14-13 5-13 7-2 14 17 11 35 11 42 0zm241-21c8-13-45-13-65 0-11 7-6 10 22 10 20 0 40-4 43-10zm-670-90c-3-5-26-10-51-10-24 0-44 5-44 10 0 6 23 10 51 10 31 0 48-4 44-10zm777-16c25-5 35-11 31-20-3-9 2-14 16-14 11 0 25-9 31-20 10-19 8-20-42-19-39 1-46 3-28 8 23 7 21 8-15 14-22 4-55 7-72 7-18 0-33 4-33 9s19 7 43 4c31-3 38-2 27 6-8 6-26 11-40 11s-32 5-40 10c-17 11 61 14 122 4zm-622-54c11-7 2-10-33-10-30 0-46 4-42 10 8 13 55 13 75 0zm780-114c187-6 419-8 524-4 31 1 51-3 54-10 2-7-7-12-22-12s-29-7-33-16c-5-14-29-15-217-8-228 9-274 10-556 6-102-1-207-1-235 0-27 1-83-3-123-9-55-9-131-8-305 2-145 9-247 10-272 5-22-5-134-11-250-14-223-6-299 3-293 34 4 17-39 15 533 19 198 2 396 6 440 10 93 7 473 6 755-3z"/><path d="m1444 4982c3-5 0-12-6-15-7-2-10-7-7-11s12 0 18 8c9 11 9 16 0 22-7 4-9 3-5-4z"/><path d="m1316 4724c-9-22-8-24 9-24 8 0 15 9 15 20 0 24-15 27-24 4z"/><path d="m3080 4720c-11-11-20-24-20-29 0-9 23-21 40-21 14 0 50 42 50 57 0 20-48 15-70-7z"/><path d="m1834 4709c-3-5 6-9 20-9 31 0 34 6 6 13-11 3-23 1-26-4z"/><path d="m1696 4582c-10-16-26-72-21-72 9 0 36 62 32 73-2 8-6 7-11-1z"/><path d="m1641 4533c-15-52-12-75 4-38 22 51 27 75 16 75-5 0-15-17-20-37z"/><path d="m1451 4300c14-31 19-36 19-24 0 6-7 19-16 30-14 18-14 18-3-6z"/><path d="m3455 4484c4-11 10-29 12-41 3-13 9-23 13-23s29-20 56-45c51-48 55-50 85-35 29 16 23 37-23 81-41 39-73 58-127 74-21 6-23 5-16-11z"/><path d="m3405 4477c-4-10-3-23 4-30 16-16 23-3 12 24-8 22-10 22-16 6z"/><path d="m1178 4523c7-3 16-2 19 1 4 3-2 6-13 5-11 0-14-3-6-6z"/><path d="m1933 4374-22-24 52-52-8 39-7 38 22-22c31-33 45-28 23 9-23 40-33 42-60 12z"/><path d="m1023 3805c0-27 2-38 4-22 2 15 2 37 0 50-2 12-4 0-4-28z"/><path d="m1110 3742c0-18 57-78 66-69 4 4-9 24-29 45-20 20-37 31-37 24z"/><path d="m1070 3723c0-18 32-83 42-83 12 0 11 3-17 51-14 24-25 39-25 32z"/><path d="m1234 3651c3-5 16-11 28-14 22-6 22-5 4 8-22 17-40 20-32 6z"/><path d="m1199 3619c39-38 81-69 96-69 12 0-57 58-99 84l-31 19z"/><path d="m3313 4183c9-2 25-2 35 0 9 3 1 5-18 5s-27-2-17-5z"/><path d="m3407 3894c-4-4-7-14-7-23 0-11 3-12 11-4 6 6 10 16 7 23-2 6-7 8-11 4z"/><path d="m4086 4097c3-10 9-15 12-12s0 11-7 18c-10 9-11 8-5-6z"/><path d="m3775 3610-20-9h20c11 0 29 4 40 9l20 9h-20c-11 0-29-4-40-9z"/><path d="m2465 3550c3-5 12-7 20-3 21 7 19 13-6 13-11 0-18-4-14-10z"/><path d="m2813 3523c9-2 23-2 30 0 6 3-1 5-18 5-16 0-22-2-12-5z"/><path d="m3318 3523c7-3 16-2 19 1 4 3-2 6-13 5-11 0-14-3-6-6z"/><path d="m3388 3523c7-3 16-2 19 1 4 3-2 6-13 5-11 0-14-3-6-6z"/><path d="m3315 3431c-44-4-93-13-109-22-22-12-37-14-57-7-18 6-41 5-71-3-94-27 29-24 216 5 54 8 112 12 127 9 22-4 29-2 29 11 0 17 5 17-135 7z"/><path d="m3683 3433c9-2 25-2 35 0 9 3 1 5-18 5s-27-2-17-5z"/><path d="m2248 3313c7-3 16-2 19 1 4 3-2 6-13 5-11 0-14-3-6-6z"/><path d="m3385 3280c-8-13 5-13 25 0 13 8 13 10-2 10-9 0-20-4-23-10z"/><path d="m1916 3191c-3-5 0-13 7-18 20-16 117-44 128-38 5 4 23 3 40 0 24-6 28-9 18-21-9-11-8-14 4-14s27 19 27 35c0 2-17 7-37 10-92 14-143 29-143 42 0 14-36 18-44 4z"/><path d="m2125 3050c10-11 20-20 22-20s-1 9-7 20-16 20-22 20-3-9 7-20z"/><path d="m2181 3025c0-11 4-29 9-40l9-20v20c0 11-4 29-9 40l-9 20z"/><path d="m3301 3054c0-11 3-14 6-6 3 7 2 16-1 19-3 4-6-2-5-13z"/><path d="m2661 3106c47-27 139-30 139-5 0 5-26 9-57 8-32-2-69 1-83 5l-25 7z"/><path d="m2750 3033c0-28 3-34 10-23 13 20 13 47 0 55-6 4-10-9-10-32z"/><path d="m4138 3133c7-3 16-2 19 1 4 3-2 6-13 5-11 0-14-3-6-6z"/><path d="m4034 3105c-25-19-6-19 37 0 32 13 32 14 8 15-14 0-34-7-45-15z"/><path d="m4208 2985c-6-30-3-43 8-33 3 4 4 19 2 35l-3 28z"/><path d="m4160 2836c-15-39-12-46 6-13 9 16 13 31 10 34s-10-6-16-21z"/><path d="m4072 2676c-46-48-58-74-16-35 26 24 69 79 62 79-2 0-23-20-46-44z"/><path d="m3828 2491c-31-20-61-41-65-45-11-12 86 39 122 63 54 37 2 21-57-18z"/><path d="m3070 3100c0-5 9-10 20-10s20 5 20 10c0 6-9 10-20 10s-20-4-20-10z"/><path d="m3010 3020c-8-5-10-10-5-10 6 0 17 5 25 10s11 10 5 10c-5 0-17-5-25-10z"/><path d="m2965 2980c-3-5 1-10 9-10 9 0 16 5 16 10 0 6-4 10-9 10-6 0-13-4-16-10z"/><path d="m2860 2795c0-8 5-15 10-15 6 0 10 7 10 15s-4 15-10 15c-5 0-10-7-10-15z"/><path d="m2860 2750c0-13 28-25 38-16 3 4 0 11-8 16-20 13-30 12-30 0z"/><path d="m2954 2738c-9-13 14-17 57-9l44 8-48 4c-27 2-51 1-53-3z"/><path d="m2850 2712c0-10 51-24 59-16 7 6-2 12-32 19-16 4-27 3-27-3z"/><path d="m2680 2410c19-13 30-13 30 0 0 6-10 10-22 10-19 0-20-2-8-10z"/><path d="m3505 2840c-17-7-15-9 12-9 17-1 35 4 38 9 7 12-22 12-50 0z"/><path d="m3473 2808c-63-14-52-26 12-15 30 6 55 14 55 19 0 10-11 9-67-4z"/><path d="m3500 2773c-40-5-66-23-33-23 12 0 25-5 28-10 6-10-1-14-47-24-16-4-28-11-28-16 0-12 50-13 65-2 29 22 77 82 64 80-7 0-30-3-49-5z"/><path d="m1701 2849c-1-36 4-62 15-75 14-18 15-18 8 6-4 13-10 47-14 75l-8 50z"/><path d="m1780 2889c0-5 5-7 10-4 6 3 10 8 10 11 0 2-4 4-10 4-5 0-10-5-10-11z"/><path d="m1810 2890c0-5 14-10 31-10s28 4 24 10c-3 6-17 10-31 10-13 0-24-4-24-10z"/><path d="m1752 2855c-1-11 5-33 13-50 11-24 14-26 14-9 1 11-3 24-8 30-5 5-11 18-14 29l-5 20z"/><path d="m1786 2861c-4-5-2-12 3-15 5-4 12-2 15 3 4 5 2 12-3 15-5 4-12 2-15-3z"/><path d="m1790 2820c0-5 5-10 10-10 6 0 10 5 10 10 0 6-4 10-10 10-5 0-10-4-10-10z"/><path d="m1750 2757c0-7 7-22 15-33 22-29 18-39-6-13l-21 24 19-34c14-26 26-35 51-37l33-4-30 37c-17 21-31 43-31 49 0 7-7 14-15 18-9 3-15 0-15-7z"/><path d="m1810 2745c0-2 9-9 20-15 16-9 18-8 14 5-5 13-34 22-34 10z"/><path d="m1870 2735c0-17 2-18 24-9 23 9 20 24-4 24-11 0-20-7-20-15z"/><path d="m1840 2700c0-5 5-10 10-10 6 0 10 5 10 10 0 6-4 10-10 10-5 0-10-4-10-10z"/><path d="m1790 2653c0-11 53-63 64-63 6 0 4 5-4 10-13 8-12 10 3 10 30 0 14 22-26 36-20 7-37 10-37 7z"/><path d="m1880 2559c44-35 58-41 56-23-3 18-42 43-66 43-10 1-7-6 10-20z"/><path d="m2005 2490c22-11 58-19 80-19 39 1 39 1-15 13-30 7-66 16-80 19-14 4-7-2 15-13z"/><path d="m2133 2493c20-2 54-2 75 0 20 2 3 4-38 4s-58-2-37-4z"/><path d="m2030 2450c8-5 22-9 30-9 10 0 8 3-5 9-27 12-43 12-25 0z"/><path d="m2034 2961c7-11 46-35 46-28 0 3-12 12-26 22-15 9-23 12-20 6z"/><path d="m2427 3023c-4-3-7-11-7-17s5-5 12 2c6 6 9 14 7 17-3 3-9 2-12-2z"/><path d="m2425 2970c-3-6 1-7 9-4 18 7 21 14 7 14-6 0-13-4-16-10z"/><path d="m2540 2640c0-5 5-10 10-10 6 0 10 5 10 10 0 6-4 10-10 10-5 0-10-4-10-10z"/><path d="m2555 2600c3-5 11-10 16-10 6 0 7 5 4 10-3 6-11 10-16 10-6 0-7-4-4-10z"/><path d="m2637 2489c7-7 15-10 18-7s-2 9-12 12c-14 6-15 5-6-5z"/><path d="m2808 2103c18-2 45-2 60 0s0 4-33 4-45-2-27-4z"/><path d="m2778 1933c7-3 16-2 19 1 4 3-2 6-13 5-11 0-14-3-6-6z"/><path d="m2587 1813c-4-3-7-11-7-17s5-5 12 2c6 6 9 14 7 17-3 3-9 2-12-2z"/><path d="m1876 1399c10-11 28-26 39-31 14-8 12-2-9 21-33 34-61 44-30 10z"/><path d="m2947 1483c-10-9-8-33 2-33 5 0 11 9 14 20 5 20-3 26-16 13z"/><path d="m2924 1438c-10-15 1-19 26-10l24 9-22 5c-12 4-25 2-28-4z"/><path d="m3943 1573c9-2 23-2 30 0 6 3-1 5-18 5-16 0-22-2-12-5z"/><path d="m4060 1556c0-8 3-16 8-18 4-1 16-20 26-41 27-53 32-39 5 17-23 49-39 67-39 42z"/><path d="m4125 1513c18-39 20-79 3-86-8-3-7-6 4-6 9-1 19 3 22 7 8 13-11 75-29 97-15 18-15 17 0-12z"/><path d="m3908 1523c7-3 16-2 19 1 4 3-2 6-13 5-11 0-14-3-6-6z"/><path d="m3660 1410c8-5 22-9 30-9 10 0 8 3-5 9-27 12-43 12-25 0z"/><path d="m3725 1389c19-12 19-12 0-20-11-4 22-6 74-3 101 4 136 13 55 15-57 1-89 4-124 14-23 6-23 5-5-6z"/><path d="m4080 1379c0-5 5-7 10-4 6 3 10 8 10 11 0 2-4 4-10 4-5 0-10-5-10-11z"/><path d="m1075 4260c-3-5 1-10 9-10 9 0 16 5 16 10 0 6-4 10-9 10-6 0-13-4-16-10z"/><path d="m1470 3289c0-5 5-7 10-4 6 3 10 8 10 11 0 2-4 4-10 4-5 0-10-5-10-11z"/><path d="m1040 3230c0-6 7-10 15-10s15 2 15 4-7 6-15 10c-8 3-15 1-15-4z"/><path d="m3560 1914c0-10 5-26 10-34 8-11 9-7 4 15-8 37-14 45-14 19z"/></g></svg>