<?xml version="1.0" encoding="UTF-8" standalone="no"?>
<!DOCTYPE svg PUBLIC "-//W3C//DTD SVG 1.1//EN" "http://www.w3.org/Graphics/SVG/1.1/DTD/svg11.dtd">
<svg width="100%" height="100%" viewBox="0 0 100 100" version="1.1" xmlns="http://www.w3.org/2000/svg" xmlns:xlink="http://www.w3.org/1999/xlink" xml:space="preserve" xmlns:serif="http://www.serif.com/" style="fill-rule:evenodd;clip-rule:evenodd;stroke-linejoin:round;stroke-miterlimit:2;">
    <g transform="matrix(0.0224193,0,0,-0.0224193,4.78164,97.8782)">
        <path d="M1939,4167C1709,3890 1522,3588 1441,3364C1391,3228 1377,3141 1383,3025C1391,2864 1425,2786 1640,2435C1875,2052 1973,1664 1957,1185C1946,864 1904,705 1775,501C1688,364 1712,204 1835,91C1931,4 2035,-11 2141,46C2198,78 2249,130 2282,192C2301,228 2305,250 2305,330C2305,430 2293,467 2235,545C2170,631 2120,782 2094,967C2071,1135 2079,1515 2109,1685C2164,1994 2244,2192 2441,2511C2595,2759 2643,2871 2655,3010C2676,3236 2548,3550 2289,3915C2209,4027 2109,4155 2049,4222L2015,4259L1939,4167Z" style="fill:rgb(181,158,114);fill-rule:nonzero;"/>
        <path d="M490,2640C253,2577 78,2404 26,2180C-7,2041 11,1876 73,1755C128,1645 260,1490 373,1399L422,1360L508,1441C612,1538 772,1647 876,1690C1097,1782 1301,1741 1470,1571C1623,1418 1661,1256 1589,1065C1564,997 1494,919 1433,889C1366,857 1275,857 1226,890C1186,918 1155,968 1145,1023C1138,1061 1137,1062 1101,1055C1051,1046 971,1009 933,976C837,895 835,736 929,640C992,575 1062,550 1178,550C1336,550 1450,599 1554,712C1646,811 1704,937 1746,1132C1772,1247 1772,1564 1746,1699C1708,1906 1628,2095 1517,2242C1379,2426 1164,2566 919,2630C796,2662 592,2667 490,2640Z" style="fill:rgb(181,158,114);fill-rule:nonzero;"/>
        <path d="M3220,2654C2784,2569 2475,2305 2340,1901C2271,1695 2246,1370 2284,1160C2343,832 2494,623 2715,565C2791,546 2922,546 2988,565C3122,605 3196,728 3168,865C3153,938 3077,1011 2985,1039C2897,1066 2890,1066 2890,1033C2889,993 2857,927 2825,902C2760,850 2665,851 2578,904C2485,960 2422,1078 2412,1217C2399,1418 2559,1636 2776,1710C2996,1786 3233,1702 3527,1442L3619,1361L3697,1428C3840,1552 3946,1697 3998,1842C4021,1906 4025,1930 4024,2030C4023,2127 4019,2158 3997,2226C3932,2422 3784,2565 3575,2632C3531,2647 3479,2653 3380,2655C3306,2657 3234,2656 3220,2654Z" style="fill:rgb(181,158,114);fill-rule:nonzero;"/>
    </g>
</svg>
