<svg viewBox="552.404 321 512 512" xmlns="http://www.w3.org/2000/svg"><path d="m761.78179 830.02326c.98919-1.63767 3.73513-6.42153 6.10187-10.6311l4.30391-7.65527-.3279-20.73829-.3279-20.73921-3.45211-9.15921c-1.89778-5.03757-8.97511-20.28766-15.72728-33.88909-6.75126-13.60143-13.12149-26.72109-14.15465-29.15561-1.03316-2.43451-2.71296-7.69557-3.73329-11.69173-1.02034-3.99525-2.23577-11.27774-2.70197-16.18158-.51841-5.4534-.52024-12.37685-.004-17.822.46437-4.89835 1.70819-12.288 2.76425-16.42247 1.05514-4.13447 2.52061-8.67927 3.25518-10.09986l1.33541-2.58381h15.08981c9.77196 0 15.08888.33339 15.08888.94614 0 .52116-.98186 2.89065-2.18172 5.26655-1.20077 2.3759-2.87966 6.38122-3.73146 8.90001-.85089 2.51878-1.94359 6.64043-2.42811 9.15921-.48361 2.51878-.87929 9.03007-.8802 14.46881-.00092 5.99653.58344 12.3054 1.48471 16.02862.81791 3.377 4.1995 11.80714 7.51605 18.73334 3.31563 6.9262 6.3052 12.59392 6.64317 12.59392.33798 0 1.10827-1.64683 1.71186-3.66094.60268-2.0132 3.35227-8.16636 6.11011-13.67471 2.75693-5.50835 7.44644-13.29551 10.41952-17.30633 2.974-4.01082 8.12056-10.16947 11.43803-13.68478l6.03042-6.39313-.005-19.58148c-.003-11.16966-.42865-21.10741-.99194-23.13617-.55872-2.01137-2.82471-5.51934-5.21709-8.07751-2.32644-2.48673-10.84543-8.9742-18.9321-14.41569-8.08666-5.44149-16.36385-11.69814-18.39444-13.9046-2.0306-2.20554-5.03849-5.97089-6.68531-8.36694-1.64591-2.39605-4.40742-7.34202-6.13576-10.99105-1.72926-3.64904-3.98609-9.93226-5.0165-13.96231-1.0295-4.03005-2.11761-10.21252-2.4162-13.73882l-.54406-6.41145 9.04198-2.11852c4.97345-1.16506 13.98886-3.75803 20.03394-5.76298s14.28838-5.23907 18.31843-7.18632c4.03005-1.94633 12.06726-6.70454 17.86046-10.57248 5.79321-3.86885 14.27739-10.0733 18.85333-13.78919 4.57594-3.71498 12.73222-11.16692 18.12425-16.55894 5.39203-5.39203 12.84396-13.54831 16.55894-18.12425 3.71589-4.57595 9.90386-13.0354 13.75073-18.79746 3.84778-5.76206 10.39753-17.32648 14.5549-25.69892 4.1766-8.4109 9.1757-20.21713 11.17333-26.38677l3.61422-11.16508 62.59223-.002 62.59598-.002-.5954 3.89267c-.3205 2.14051-1.4105 8.19566-2.4272 13.4558-1.0075 5.25922-2.0333 9.89561-2.2898 10.30411-.2473.40759-22.8339.74098-50.19252.74098h-49.73727l-2.98499 7.09839c-1.64225 3.90366-3.18649 7.61314-3.43104 8.24329-.35263.90768 10.11452 1.14491 50.4865 1.14491 28.01532 0 50.93162.23081 50.93162.51291 0 .28211-1.8501 5.02658-4.1033 10.54226-2.2623 5.51567-4.9551 11.67341-5.9718 13.68294l-1.8685 3.65545h-52.96788-52.96773l-5.17495 7.77617c-2.84577 4.27735-5.17496 7.98317-5.17496 8.23596 0 .2528 23.90005.56604 53.11061.6961l53.10881.23631-5.60546 7.32737c-3.08666 4.03005-8.27444 10.31511-11.52321 13.9678l-5.90678 6.64043h-54.2436-54.24361l-2.69006 2.84302c-1.47921 1.56439-6.81171 6.41145-11.84927 10.77307-5.03757 4.3607-13.48694 11.07165-18.77639 14.91303-5.28945 3.84137-13.53274 9.36346-18.31843 12.27151-4.78568 2.90805-15.0898 8.3761-22.89803 12.15244-7.80823 3.77635-14.38454 7.0242-14.61444 7.21838-.22989.19326.32699 1.73384 1.2365 3.42371.91042 1.68988 2.91995 4.608 4.46694 6.48472 1.54699 1.87673 8.82216 7.34844 16.16601 12.15978 9.24348 6.05424 15.77766 11.16599 21.23106 16.60565 5.79412 5.78129 8.63897 9.46605 10.7575 13.93483 1.60469 3.38524 3.35227 9.11341 3.94762 12.94105l1.06704 6.86666 4.4294.52482c2.43635.28852 7.21288 1.20169 10.61553 2.02877 3.40173.82799 9.58053 3.12329 13.72966 5.10168 4.9478 2.35941 9.55947 5.48179 13.39535 9.07037 3.84595 3.59774 7.00405 7.66809 9.21783 11.8795 1.85108 3.52446 3.95678 9.19218 4.67761 12.59666.72174 3.40357 1.32992 9.89836 1.35098 14.43217.022 4.53381.43964 12.3567.92875 17.38419.48818 5.02749 1.52226 11.04784 2.29621 13.37795.77395 2.33102 2.39697 5.16762 3.6069 6.30428s3.5666 2.34568 5.23724 2.68732l3.03628.62007.25554 13.20209c.14013 7.26143.076 13.66738-.14197 14.23617-.27936.72907-2.20554.81608-6.53143.29493-3.37426-.40576-8.36053-1.75766-11.08082-3.00331-2.72029-1.24474-7.16067-4.35795-9.86722-6.91795-2.70563-2.55909-6.18522-7.02695-7.73129-9.92768-1.54608-2.90072-3.6472-8.35045-4.67028-12.11122-1.02217-3.76078-2.28156-11.37117-2.79814-16.91249s-.94157-13.57853-.94523-17.86046c-.003-4.28194-.45705-9.43399-1.00752-11.44902-.64939-2.37132-2.56458-5.17862-5.4305-7.95844-3.32113-3.22221-5.87288-4.73623-10.21252-6.05974-3.18191-.96996-7.33103-2.04433-9.21966-2.38689l-3.43471-.62282-.0733 13.09401-.0724 13.09309-7.48399 5.5514c-4.11524 3.05277-10.06231 8.61699-13.214 12.36494-3.33212 3.96227-7.64428 10.64667-10.3032 15.97275-2.5142 5.03757-5.58986 12.76703-6.83368 17.17719-1.24474 4.41016-2.73128 12.495-3.30465 17.96763-.8115 7.75602-.78311 11.94636.13006 19.0017.67778 5.23174 1.32076 22.67913 1.52501 41.33827l.3527 32.28656h-20.2785-20.27849zm-57.0619-211.81321c-3.02254-3.14528-7.93096-9.10151-10.9077-13.23598-2.97675-4.13447-7.94928-11.96377-11.05059-17.39884-3.10131-5.43508-7.75236-15.18964-10.33709-21.67803-2.58382-6.48747-5.75657-15.46624-7.05076-19.95334-1.29328-4.48619-3.18924-12.26511-4.21233-17.28527-1.02308-5.02108-1.69903-9.28927-1.50302-9.48528.19692-.19692 5.46988.47719 11.71829 1.49753 6.24842 1.02034 12.25228 2.05441 13.34131 2.29896 1.51677.33981 2.11945 1.35373 2.57649 4.33872.32882 2.14234 2.05533 9.24531 3.83771 15.78316 1.78238 6.53876 4.46329 14.98813 5.95807 18.77638 1.49478 3.78917 4.94597 11.11654 7.66992 16.28417 2.72304 5.16763 6.98574 12.40982 9.47063 16.09274 2.48581 3.68383 6.99489 9.75914 10.02018 13.50251 3.0262 3.74245 7.39148 8.81208 9.70052 11.264 2.30995 2.45283 4.1995 4.60983 4.1995 4.79576 0 .18502-6.28505.2876-13.9678.22898l-13.9678-.10716zm-89.81524-56.03515c-.3398-1.9216-1.32534-7.02787-2.19088-11.34827l-1.57355-7.85402-15.28032-17.31733c-8.40358-9.52466-15.09621-17.79543-14.87181-18.37979s3.99433-15.01744 8.37793-32.07373c4.3836-17.05537 8.22589-31.47838 8.53822-32.04992.36453-.66587 4.19217 1.27863 10.64392 5.40669 5.54132 3.54553 14.19678 8.61149 19.23435 11.2585 5.03756 2.6461 13.15995 6.2933 18.04914 8.10316 4.8901 1.80986 9.47246 3.2909 10.18413 3.2909.80051 0 1.88863-2.12494 2.85859-5.58162.86188-3.06926 2.99781-8.92474 4.7463-13.01158 1.74941-4.08684 5.06322-10.53035 7.36309-14.31951 2.29988-3.78825 6.07439-9.3708 8.38801-12.40433 2.3127-3.03444 7.59116-8.85604 11.72929-12.9383 4.13722-4.08135 11.08448-10.05773 15.43602-13.28086l7.91356-5.85915-22.61776-.45796-22.61868-.45796-1.77139-3.20572c-.97362-1.76315-9.05388-17.63149-17.95572-35.26297-8.90184-17.63149-16.32813-32.36866-16.50398-32.74877-.17494-.38011 39.79952-.58619 88.83245-.45796l89.1512.23356-.32057 3.1929c-.17677 1.75582-1.06888 4.64098-1.98297 6.41145-.915 1.77048-3.24328 4.72158-5.17495 6.55891-1.93168 1.83643-5.77947 4.46237-8.55013 5.83442s-5.12733 2.56916-5.23815 2.66075c-.10991.0916 1.40868 4.26636 3.37425 9.27829 1.96557 5.011 4.50725 13.43931 5.64849 18.72875 1.7604 8.15812 2.07273 12.32739 2.06174 27.47764-.011 15.77492-.29035 19.14459-2.39331 28.85152-1.30976 6.04508-3.63071 14.68863-5.15755 19.20687-1.52776 4.51916-2.67632 8.31657-2.55359 8.44022.12365.12273 3.85054-2.49864 8.28176-5.82435 4.43215-3.32662 11.42429-9.41383 15.53769-13.52724 4.1134-4.1134 10.12368-10.75383 13.35597-14.7564 3.2332-4.00258 8.71773-11.60564 12.18908-16.89509 3.47042-5.28944 9.96156-17.03613 14.42301-26.10376 4.46237-9.06762 10.16031-22.0508 12.66261-28.85152 2.50321-6.80071 5.88571-16.59008 7.51788-21.75313l2.9685-9.38819h79.10446 79.10442v14.19128 14.19037l-68.7426.23539-68.74356.23448-4.8553 12.8229c-2.67082 7.05259-7.00313 17.56279-9.62725 23.35599-2.62411 5.7932-8.05461 16.3034-12.06817 23.35599-4.01266 7.0526-9.94966 16.53238-13.19293 21.06619-3.24328 4.53381-9.28287 12.2532-13.42191 17.15338-4.13814 4.90018-11.48566 12.44462-16.32813 16.76502-4.84156 4.31949-12.23305 10.30686-16.42614 13.30376-4.19217 2.99689-11.25026 7.49315-15.68332 9.9927-4.43397 2.49955-12.00131 6.1843-16.81814 8.18834-4.81683 2.00495-13.16179 4.9075-18.54466 6.45083-5.38379 1.54333-15.79873 3.67925-23.14533 4.74722-11.33636 1.64866-15.99107 1.86573-30.7603 1.43525-11.42063-.33248-21.13855-1.16231-28.27083-2.41345-5.97822-1.04873-14.1519-2.74502-18.16547-3.76994-4.01265-1.024-10.66224-2.91721-14.77655-4.20682-4.11524-1.2887-12.56095-4.40009-18.76906-6.91521-6.20903-2.5142-11.41696-4.43031-11.5745-4.2572-.15754.17219-1.11559 3.3596-2.1286 7.08282l-1.841 6.76866 17.44921 19.652c9.59703 10.80787 17.04347 19.92038 16.54612 20.25011-.49734.32973-7.18815 5.95715-14.86815 12.50599-7.68 6.54883-14.31951 12.03612-14.75458 12.19457-.43506.15846-1.06979-1.28412-1.4096-3.20572zm124.62025-83.94236c4.03006-.76021 8.07018-1.67338 8.97878-2.02876.90768-.35538 3.26801-3.86153 5.24365-7.79174 1.97656-3.93022 5.0916-10.76666 6.92436-15.19239 1.83185-4.42573 4.32224-11.15317 5.534-14.94875 1.21268-3.7965 3.00422-10.81795 3.98243-15.60364.9782-4.78569 2.04983-13.02898 2.38231-18.31842.37186-5.92693.18776-12.42905-.47995-16.94455-.59534-4.03005-1.74941-9.80035-2.56458-12.82289s-2.58656-8.19475-3.93571-11.49298c-1.34915-3.29915-3.54645-7.72946-4.88278-9.84616l-2.42902-3.8487h-39.82426-39.82425l3.85419 7.77159 3.8542 7.77159 26.59377.24272 26.59286.24272 3.61789 7.12495c3.34495 6.58639 3.61789 7.69466 3.61789 14.67673 0 6.52319-.3856 8.37518-2.82836 13.59593-1.55615 3.3248-4.38177 7.76427-6.28048 9.86631-1.8987 2.10112-7.68641 7.08923-12.86228 11.08448-5.17587 3.99524-11.61663 9.43856-14.31493 12.09474-2.69739 2.65708-6.84743 7.37591-9.22333 10.4873-2.3759 3.11138-5.97272 8.72231-7.99325 12.46843-2.02143 3.74612-4.69959 9.82601-5.95257 13.50892-1.25298 3.68384-2.27789 6.98848-2.27789 7.34386s3.19381 1.07529 7.09839 1.60012c3.90457.52482 14.51735.81608 23.58497.64755 9.48803-.17677 19.59705-.89302 23.81395-1.68896z" fill="#b59e72" stroke-width=".915921"/></svg>