<svg clip-rule="evenodd" fill-rule="evenodd" stroke-linejoin="round" stroke-miterlimit="2" viewBox="0 0 100 100" xmlns="http://www.w3.org/2000/svg"><g fill="#b59e72" fill-rule="nonzero" transform="matrix(.0224193 0 0 -.0224193 4.78164 97.8782)"><path d="m1939 4167c-230-277-417-579-498-803-50-136-64-223-58-339 8-161 42-239 257-590 235-383 333-771 317-1250-11-321-53-480-182-684-87-137-63-297 60-410 96-87 200-102 306-45 57 32 108 84 141 146 19 36 23 58 23 138 0 100-12 137-70 215-65 86-115 237-141 422-23 168-15 548 15 718 55 309 135 507 332 826 154 248 202 360 214 499 21 226-107 540-366 905-80 112-180 240-240 307l-34 37z"/><path d="m490 2640c-237-63-412-236-464-460-33-139-15-304 47-425 55-110 187-265 300-356l49-39 86 81c104 97 264 206 368 249 221 92 425 51 594-119 153-153 191-315 119-506-25-68-95-146-156-176-67-32-158-32-207 1-40 28-71 78-81 133-7 38-8 39-44 32-50-9-130-46-168-79-96-81-98-240-4-336 63-65 133-90 249-90 158 0 272 49 376 162 92 99 150 225 192 420 26 115 26 432 0 567-38 207-118 396-229 543-138 184-353 324-598 388-123 32-327 37-429 10z"/><path d="m3220 2654c-436-85-745-349-880-753-69-206-94-531-56-741 59-328 210-537 431-595 76-19 207-19 273 0 134 40 208 163 180 300-15 73-91 146-183 174-88 27-95 27-95-6-1-40-33-106-65-131-65-52-160-51-247 2-93 56-156 174-166 313-13 201 147 419 364 493 220 76 457-8 751-268l92-81 78 67c143 124 249 269 301 414 23 64 27 88 26 188-1 97-5 128-27 196-65 196-213 339-422 406-44 15-96 21-195 23-74 2-146 1-160-1z"/></g></svg>