<svg clip-rule="evenodd" fill-rule="evenodd" stroke-linejoin="round" stroke-miterlimit="2" viewBox="0 0 646 250" xmlns="http://www.w3.org/2000/svg"><g fill="#a48111" fill-rule="nonzero" transform="matrix(.1 0 0 -.1 -21.0951 258.8076)"><path d="m4045 2580c-33-3-72-11-86-17-27-12-79-67-79-84 0-19-41 12-66 51-34 51-60 52-122 4-68-51-71-74-19-131 11-13 19-25 16-27-2-2-30-18-62-36-31-17-66-43-77-57-18-24-19-27-4-61 9-21 21-51 26-68 10-31 12-32 42-19 22 9 38 10 56 3l25-10-32-16c-24-11-36-27-48-62-14-41-14-51 0-98 21-70 58-109 112-117 39-6 43-4 56 22 7 15 15 48 16 73 2 50 7 58 22 43 6-6 11-40 10-75-1-78-39-171-106-256-42-53-58-102-35-102 6 0 10-9 10-19 0-11-4-23-10-26-5-3-10-15-10-26 0-10-6-19-14-19-21 0-54 59-62 110-5 37-17 56-67 107l-60 61-53-23c-29-13-68-40-88-61s-39-35-42-31c-4 4 3 33 15 64 38 99 72 253 72 328 0 84-25 279-40 317-14 37-57 62-168 98-158 51-239 58-378 35-53-9-137-75-181-141-19-29-41-58-49-64-8-7-15-19-15-26 0-8-4-14-9-14-17 0-121-160-121-185 0-7 112 60 182 108 38 26 105 66 150 89 98 50 186 60 269 33 46-16 76-44 62-59-3-3 3-6 15-6 18 0 22-6 22-34 0-19 4-37 9-40 22-14 27-188 9-304-6-40-8-75-5-79 4-3 25 1 47 10 57 22 50 2-10-28-27-14-51-25-53-25-3 0-30 38-61 85l-57 85h-45c-40 0-53-7-122-62-83-68-181-163-251-246-54-63-57-63-221-21l-121 32-54-58c-47-51-56-57-70-45-20 17-38 59-54 128-7 28-17 54-21 57-18 11-138 17-144 6-8-13-107-395-113-438-3-21-1-33 6-33 6 0 11 11 11 25s4 33 9 43c11 19 44 92 91 202 31 72 55 110 70 110 8 0 29-137 34-224l4-59-81-101c-104-130-195-270-208-321-6-22-19-59-30-83-10-23-19-51-19-62 0-19-27-94-55-157-8-17-15-38-15-46 0-9-4-18-9-22-5-3-12-19-16-36s-27-68-52-115c-24-46-41-84-36-84 17 0 281 278 303 317 11 21 28 49 38 63 43 64 152 253 182 317 23 49 66 84 103 83 13-1 119-161 127-194 5-18 31 4 172 147 121 121 173 167 190 167 13-1 55-16 93-34 57-28 66-35 50-41-11-4-39-16-62-26-24-10-49-19-57-19-72 0-296-220-296-290 0-6-10-35-23-63-13-29-34-78-48-109-13-32-28-58-34-58-9 0-315-309-315-318 0-2 5 0 11 4 7 4 67 15 135 25 146 21 185 37 296 119 46 34 99 70 118 80s50 31 69 47l34 29 9 134c6 74 12 141 14 148 2 6 20 19 41 28s45 20 55 25c9 4 55 19 104 33 97 28 108 26 118-27 6-34 42-73 63-69 6 1 14-2 18-8 7-11 0-18-120-113-44-35-92-79-106-98-15-19-51-46-82-62-30-15-61-35-68-44-14-16-56-143-66-198-3-16-9-34-13-40-5-5-11-27-15-47l-7-38 78 33c64 26 93 46 154 105 54 52 86 75 115 83 22 5 50 14 63 19 13 6 30 10 39 10 14 0 15-2 1-17-8-10-20-43-26-73s-14-63-17-72c-7-17-4-17 33-4 22 8 62 30 89 50 54 38 68 44 60 23-3-8 4-40 15-72 10-32 17-64 14-72-11-28 18-7 38 29 12 19 31 48 42 64l22 28 27-55c15-29 32-56 37-57 5-2 4-10-2-18-24-28 1-34 141-34 117 0 139 2 139 15 0 19 14 19 30 0 10-12 38-15 131-15 66 0 119 3 119 6s-11 20-25 38-25 37-25 42-11 25-24 45c-19 28-44 44-110 73l-86 36-67-35c-38-19-76-41-85-47-15-11-24-5-68 42-27 30-50 58-50 63 0 32 47 109 80 132 49 34 67 29 142-43 37-35 76-62 108-73 49-17 50-17 115 8 70 28 89 26 60-7-18-20-18-21 1-40s23-19 70-5c42 12 51 19 59 47 6 17 16 34 23 36 11 3 13-10 10-63-3-60-1-69 17-76 32-12 34-11 50 27 17 42 35 37 35-12 0-33 1-34 36-31 30 2 41 9 59 37 12 19 30 41 39 49 14 12 16 10 16-14 0-21-4-26-16-21-11 4-14 1-12-11 4-23 34-29 55-11 9 7 24 31 34 53l18 40-36 65c-67 120-62 116-169 123-85 5-98 3-145-19-54-26-136-49-207-57-41-5-46-3-83 35-22 23-38 46-36 52 7 21 141 67 214 75 77 7 118 28 139 70 6 12 19 27 28 34 22 17 116 204 116 233 0 26 19 42 29 25 12-18 59 25 69 62 5 18 7 55 5 82-2 28-1 65 2 83 5 27 10 32 26 27 30-10 41 32 27 102-6 32-17 67-25 78-21 31-16 55 10 55 17 0 28 10 40 35 33 68 13 125-63 182-28 21-53 48-57 61-6 27 21 62 49 62 11 0 33 14 50 30 27 28 30 35 27 88-2 31 0 67 4 79 18 50-34 121-141 193-42 28-52 40-52 63 0 36 63 161 92 181 44 31-7 15-103-32l-97-47v38c-1 46 30 109 66 137 15 10 23 19 17 18-5-1-37-4-70-8zm-265-79c0-5-11-8-25-8-29 0-34 14-7 20 20 4 32 0 32-12zm-69-8c-11-4-11-7 0-14 7-4 10-11 6-16-9-9-28 17-21 29 3 4 11 8 17 7 8 0 7-3-2-6zm94-24c-4-5-18-9-32-9-18 0-24-4-20-15 7-18-5-26-22-16-10 7-11 13-2 30 7 12 16 19 21 16 6-3 18-2 27 4 20 10 36 5 28-10zm30-19c-3-5-10-10-16-10-5 0-9 5-9 10 0 6 7 10 16 10 8 0 12-4 9-10zm0-30c25 0 38-14 40-42 2-24-12-23-20 2-8 24-18 25-35 5-7-8-17-15-22-15-6 0 0 8 13 19l23 19-32 7c-31 6-39 15-26 28 4 3 13 0 21-8s25-15 38-15zm-848-5c24-2 57-8 75-14 18-5 73-21 122-35 87-26 119-47 109-73-3-7-1-13 4-13 23 0 36-79 35-220-1-156-11-219-61-377-16-54-38-124-47-156-12-42-20-55-28-47s-3 39 17 113c83 310 88 337 86 476-2 174-8 191-76 225-73 35-130 55-226 76-69 16-84 17-138 4-113-26-175-72-353-263-21-22-43-41-50-41-6 0-4 6 4 13 9 7 43 46 75 87 33 41 97 112 143 157 73 73 87 83 120 84 20 0 46 4 57 9s36 7 55 4 54-7 77-9zm803-15c0-5-9-10-20-10s-20 5-20 10c0 6 9 10 20 10s20-4 20-10zm47-42c-3-8-6-5-6 6-1 11 2 17 5 13 3-3 4-12 1-19zm-970-35c-14-15-30-23-34-19s5 19 21 32c37 32 48 21 13-13zm-58-13c-11-23-24-38-29-35-10 6 27 75 40 75 5 0-1-18-11-40zm98 5c-21-33-37-44-37-26 0 12 40 61 50 61 5 0-1-16-13-35zm73 30c0-15-34-55-46-55-20 0-17 10 8 37 20 22 38 30 38 18zm765-34c1-11 10-29 20-41 10-11 15-23 12-27-4-4-13 2-21 12-8 11-20 16-29 12-21-8-34 13-15 24 10 6 14 18 10 36-4 23-2 26 8 16 7-7 14-21 15-32zm-732-3c-36-36-54-32-29 7 9 14 26 25 39 25 20 0 20-2-10-32zm-248-8c-9-16-22-30-29-30s-19-7-26-15c-20-24-23-10-5 19 10 14 21 23 26 21 4-3 14 3 21 15 20 31 30 24 13-10zm295 0c-29-23-43-25-38-7 5 14 50 38 58 31 2-3-6-14-20-24zm637 12c-14-3-17-10-13-27 7-28-10-43-27-25-9 10-9 11 1 6 14-8 17 10 2 19-5 3-10 11-10 16 0 13 42 28 55 21 6-4 2-8-8-10zm86 12c9-3 13-13 10-25-7-27-20-24-25 6-6 28-6 27 15 19zm-653-14c0-9-70-50-85-50s9 22 43 40c44 23 42 22 42 10zm903-21c60-32 66-44 46-96-14-37-40-296-30-303 4-3 11-29 15-59s14-67 22-83c9-17 14-47 12-71-4-41-4-41-16-17-11 23-12 21-6-17 7-51-8-57-32-12-12 25-15 52-10 143 4 105 3 108-10 28-3-18-9-30-13-27-19 11-30-51-22-130 5-44 9-70 10-57 2 45 36 17 39-33 1-21-1-26-7-16-10 16-31 6-31-14 0-8-4-17-10-20-6-4-8 7-6 27l4 33-18-23c-24-29-32-28-24 4 5 19 4 25-5 20-6-4-11-18-11-32s-16-73-35-132c-41-125-51-172-38-172 20 0 31 23 23 46-6 15-6 34 1 52 23 55 74 152 81 152 13 0-4-62-29-114-17-33-21-52-14-59 10-10 30 28 52 104 13 43 29 43 29-1 0-33-32-126-54-155-11-15-17-17-27-8-12 9-13 3-11-37 2-27-1-55-7-62s-22-30-36-50c-19-29-21-38-10-38 8 0 24 9 36 21 28 28 35 17 20-33-12-38-14-41-26-24-13 16-14 16-20-3-3-12-13-21-21-21s-14-4-14-10c0-11-51-60-62-60-5 0-8 13-8 30 0 25 5 31 40 41 22 7 40 16 40 20 0 5-7 6-15 3-26-10-18 42 10 64s34 67 10 76c-17 6-25-9-44-80-11-43-61-101-61-72 0 9-3 23-6 31-3 10 7 26 26 43 27 24 30 33 25 61-4 22 1 43 15 70 21 40 26 73 11 73-5 0-12-12-15-27-12-49-38-113-47-113-4 0-11 21-15 47-6 44-5 48 25 72 36 30 40 46 11 38-13-3-20 0-20 10 0 20 45 96 71 119 36 33 50 69 39 100-10 24-7 30 21 54 28 23 30 29 20 47-15 30-14 32 14 43 23 9 24 12 13 30-12 19-9 24 19 48 38 32 58 109 29 109-9 0-16-4-16-9 0-4-4-8-10-8-17 0-11 35 9 47 10 6 21 26 24 43 4 17 11 29 16 26 8-6 23 45 15 53-2 2-13-8-24-22s-30-27-43-29c-20-3-22-7-19-64 3-40 0-64-8-69-7-4-19-21-26-39-14-29-15-26-9 54 4 64 2 92-9 115-56 115-61 131-60 200 0 90 24 137 75 146 65 12 86 9 142-22zm-398 1c8-13-5-13-25 0-13 8-13 10 2 10 9 0 20-4 23-10zm-480-10c-3-6-19-17-36-25-24-13-29-13-29-2 0 8 10 19 23 25 28 14 50 15 42 2zm35-7c0-12-71-66-78-59-3 4 10 20 29 36 34 29 49 36 49 23zm30-9c0-9-64-84-72-84-15 0-8 16 23 53 27 33 49 47 49 31zm390-4c0-5-4-10-10-10-5 0-10 5-10 10 0 6 5 10 10 10 6 0 10-4 10-10zm36-27c-4-4-11-1-16 7-16 25-11 35 7 17 9-9 13-20 9-24zm107-3c10-10 9-12-6-6-10 3-25 6-33 6s-14 4-14 10c0 14 37 7 53-10zm-503 2c0-12-90-85-97-78-3 3 14 24 38 45 44 40 59 48 59 33zm465-16c13-6 16-10 7-13-15-6-42 14-42 31 0 8 3 8 8 0 4-6 16-14 27-18zm-1089-21c-21-19-40-35-42-35-12 0 33 53 50 60 33 13 32 12-8-25zm988 20c-4-8-8-15-10-15s-4 7-4 15 4 15 10 15c5 0 7-7 4-15zm526-7c0-4 6-8 14-8s17-8 20-17c6-14 9-15 15-4 12 19 32 4 24-17-6-15-5-15 11-3 16 13 17 12 10-15-12-50-25-60-46-34-15 19-16 25-6 39 11 14 11 14-3 3-18-13-30-5-42 31-4 9-13 17-22 17-8 0-15 4-15 9 0 6 9 9 20 8s20-5 20-9zm-470-8c0-5-2-10-4-10-3 0-8 5-11 10-3 6-1 10 4 10 6 0 11-4 11-10zm-410-8c0-12-81-63-94-59-6 2 9 18 33 35 45 32 61 39 61 24zm-35-74c-32-15-61-26-63-23-7 7-4 9 53 38 28 14 54 22 59 19s-17-18-49-34zm545 32c0-5-4-10-10-10-5 0-10 5-10 10 0 6 5 10 10 10 6 0 10-4 10-10zm363-51c-4-15-3-20 5-15s12 0 12-13c0-12-3-21-7-21-14 1-58 40-45 40 8 0 11 9 8 25-4 22-2 24 14 15 12-7 16-17 13-31zm146 19c0-13-3-17-6-10-2 6-9 10-14 6-16-10-10-24 11-24 14 0 20-6 19-22 0-13-3-17-6-10-2 6-9 10-13 7-5-3-7-12-4-19 5-12-12-14-47-7-15 3-17 42-2 48 8 3 19 16 24 29 11 31 39 32 38 2zm-1009-7c0-8-81-61-94-61-3 0-6 6-6 13 0 6 21 22 48 34 55 26 52 26 52 14zm495-11c-4-11-2-20 4-20s11-5 11-11-8-8-19-4c-11 3-22 1-26-5-3-5-17-10-31-10-15 0-23 4-19 10s16 8 27 4c17-5 20-3 15 10-4 10-1 16 8 16 7 0 17 5 21 12 5 8 2 9-9 5-10-3-17-2-17 3 0 6 9 10 21 10 16 0 19-4 14-20zm-519-55c-32-26-66-38-66-25 0 12 83 61 90 54 3-3-8-16-24-29zm25-18c-16-20-90-51-99-42-4 4-2 10 4 12s31 14 55 26c47 24 58 25 40 4zm489 8c0-8-9-19-19-25-26-13-34-13-25 1 5 8-1 10-19 5-14-3-29-2-32 4-4 6 6 10 22 10 15 0 35 5 43 10 21 14 30 12 30-5zm370-3c0-10-33-42-43-42-6 0-2 9 8 20 11 12 13 20 6 20s-10 4-6 10c6 9 35 3 35-8zm-340 4c0-3-4-8-10-11-5-3-10-1-10 4 0 6 5 11 10 11 6 0 10-2 10-4zm358-36c-12-16-25-30-30-30-4 0-8-9-8-20s-4-20-10-20c-19 0-10 32 18 65 35 43 61 47 30 5zm-868-4c0-7-92-66-103-66-5 0-7 5-5 12 7 20 108 71 108 54zm395-6c3-5 1-10-4-10-6 0-11 5-11 10 0 6 2 10 4 10 3 0 8-4 11-10zm95 6c0-3-4-8-10-11-5-3-10-1-10 4 0 6 5 11 10 11 6 0 10-2 10-4zm408-45c1-29-2-52-9-56-8-6-7-10 2-16 7-4 10-11 6-16-5-4-12-1-17 6-4 8-15 11-24 8-9-4-16-2-16 3 0 6 6 10 14 10 20 0 40 26 26 35-8 5-8 11 1 21 7 9 8 14 1 14-6 0-14-4-17-10-3-5-12-10-18-10-7 1-6 5 4 13 8 7 18 20 22 30 12 31 22 18 25-32zm118 14c2-21-2-24-21-19-13 3-32 1-43-5-14-7-23-8-27-1-3 5-1 10 4 10 6 0 11 7 11 16 0 11 6 15 20 11 11-3 23-1 26 4 11 18 29 8 30-16zm-535 5c6 0 8-4 5-9-8-12-46-2-46 11 0 6 7 7 16 4s20-6 25-6zm-491-15c0-15-66-65-87-65-23 0-14 17 16 30 16 6 37 20 47 31 21 23 24 23 24 4zm445 4c10-15 4-18-28-12-21 4-25 8-15 14 18 12 36 11 43-2zm245-23c0-8-4-18-10-21-5-3-10 3-10 14 0 12 5 21 10 21 6 0 10-6 10-14zm190-16c0-5-4-10-10-10-5 0-10 5-10 10 0 6 5 10 10 10 6 0 10-4 10-10zm140 0c0-11-40-34-47-26-3 3-3 12 0 21 7 16 47 21 47 5zm-1026-24c-3-9-25-28-49-41-44-27-59-31-53-16 3 10 101 80 106 76 1-1 0-10-4-19zm856 14c0-5-4-10-10-10-5 0-10 5-10 10 0 6 5 10 10 10 6 0 10-4 10-10zm110 0c0-5-5-10-11-10-5 0-7 5-4 10 3 6 8 10 11 10 2 0 4-4 4-10zm-520-10c0-5-4-10-10-10-5 0-10 5-10 10 0 6 5 10 10 10 6 0 10-4 10-10zm-466-61c-24-27-74-53-82-43-4 4-2 8 4 11 5 2 26 14 45 28 42 30 58 32 33 4zm886-31c13-24 54-74 91-111 62-62 92-117 75-135-10-9-86 69-108 111-22 44-34 45-18 1 6-15 32-47 58-71 50-46 39-59-19-24-34 21-64 74-75 131-3 19-14 59-24 88-22 63-12 68 20 10zm-1170 5c0-5 20-28 43-53 69-71 131-198 162-330 17-77 18-93 5-85-5 3-10 14-10 24 0 48-98 256-157 333-24 31-43 60-43 65 0 4-9 14-20 21s-20 17-20 22c0 6 9 10 20 10s20-3 20-7zm1000-6c0-12-34-47-45-47s-4 49 8 53c22 10 37 7 37-6zm-720-11c0-15-86-53-96-43-3 3 16 17 43 31 58 30 53 29 53 12zm-365-40c19-8 35-17 35-20 0-2-19-15-42-29-24-14-52-36-64-49-11-12-45-46-75-74-50-47-159-176-159-189 0-30-252-317-266-303-9 10 4 37 39 79 15 19 49 67 75 106 75 112 269 350 347 425 39 37 71 68 73 68 1 0 18-7 37-14zm957-56c-27-44-53-103-39-90 3 3 22 32 41 65 20 32 36 51 36 42 0-21-35-92-61-126-17-21-19-22-19-5-1 15-4 12-16-10-13-22-18-26-25-15-16 26-9 52 30 103 21 28 47 64 57 80s20 23 22 17c2-7-9-34-26-61zm-622 7c0-15-59-52-68-42-4 3 0 10 8 15s24 16 35 24c25 19 25 19 25 3zm-280-66c-6-23-15-41-20-41-13 0-13 3 6 50 21 51 29 46 14-9zm20-41c-6-12-9-24-7-27 3-3 15 12 26 34 13 25 20 32 21 19 0-10-10-34-22-54-20-33-22-34-35-16-7 10-11 24-9 30 3 7 11 32 18 55l13 44 3-32c2-18-2-42-8-53zm250 62c0-9-44-32-60-32-20 0-9 17 18 27 35 14 42 15 42 5zm-321-9c0-5-6-24-13-42-8-24-15-31-20-22-9 14 12 71 25 71 5 0 9-3 8-7zm633-20c25-28 48-92 48-133 0-38-26-124-54-178-15-29-15-34 0-72 21-53 11-63-14-13-29 58-33 96-16 155 18 59 14 132-8 155-13 13-24 7-92-47-42-34-87-76-100-94-21-29-50-106-42-114 2-2 20 21 39 50 54 80 145 153 166 132 3-3 4-31 2-62-9-125-7-150 16-179 48-60 71-109 77-166 4-41 3-56-5-52-19 12-129 188-129 206 0 10-3 20-7 22-9 6-8 80 2 117 7 24 6 24-22-6-17-17-38-34-48-38-10-3-15-9-12-12s15-1 26 6c20 10 21 8 21-35 0-30 7-55 20-73 10-15 30-61 43-102 14-41 36-100 50-130s27-81 30-112c5-51 3-59-20-82-42-43-65-33-29 13 25 32 15 113-25 206-21 50-43 116-49 148-6 31-16 57-21 57-6 0-8-4-5-8 3-5-1-30-9-57-8-26-14-80-13-119 0-39 3-55 5-36s6 55 10 80l7 45 6-55c9-74 2-315-11-365-5-22-21-78-34-125s-29-106-35-131c-7-25-30-78-51-118-34-61-43-71-67-71h-27l25 21c24 20 24 21 3 16-13-3-23-1-23 4 0 11 41 29 51 23 4-2 9 3 13 11 4 11-2 13-27 9-30-5-31-5-13 10 11 9 26 16 33 16s13 5 13 11-9 8-20 4c-29-9-25 13 5 27 14 6 25 15 25 20s-4 6-10 3c-5-3-10-2-10 4 0 5 14 18 30 28 17 9 30 22 30 27 0 6-5 5-12-2s-19-12-27-12c-11 0-6 9 14 26 17 14 24 23 18 19-7-3-13-2-13 4 0 5 9 13 20 16s20 10 20 15-8 7-17 4c-15-5-15-3 2 11 11 9 21 20 21 25 1 6 3 13 4 18 1 4 3 12 4 17 1 6 8 24 15 40 16 35 27 303 12 270-5-11-10-45-10-76-1-87-87-318-160-434-53-84-152-178-165-157-10 17 2 47 20 50 26 5 43 22 21 22-9 0-17 5-17 10 0 6 11 10 24 10 14 0 28 5 32 11 4 8 0 9-15 4-12-4-21-2-21 4s7 11 15 11c22 0 65 22 60 31-3 4-14 5-25 2s-20 0-20 6c0 11 12 15 42 12 9-1 19 3 23 9 3 6-3 10-14 10-12 0-21 4-21 9 0 11 25 21 51 21 10 0 19 4 19 10 0 5-7 7-15 4-8-4-15-2-15 4s12 15 28 20c17 7 21 11 10 11-10 1-18 6-18 11 0 6 8 10 18 10 14 0 15 2 2 10-12 7-11 10 5 16 30 11 45 25 39 36-4 7-9 6-13 0-4-7-12-7-20-2-11 6-6 12 18 24 38 20 40 28 4 20-26-6-25-4 10 21 21 15 36 29 33 32s-12 0-20-7c-9-6-21-10-28-8-7 3 6 17 30 32 49 31 51 46 3 21-17-8-31-11-31-6 0 13 22 29 53 36 15 4 27 13 27 21 0 10-6 11-26 4-32-13-37-12-29 1 4 5 18 14 31 19s24 14 24 20-12 4-30-5c-16-9-30-11-30-6 0 6 14 18 31 26 17 9 28 19 25 23-4 3-12 0-18-6-15-15-28-16-28-2 0 5 14 16 30 25 17 9 30 20 30 26s-8 6-21-1c-11-7-23-9-26-6-8 8 7 26 21 26 16 0 41 28 33 36-3 3-17-2-31-11-16-11-26-13-26-6s16 21 35 32c19 12 35 26 35 31 0 6-12 3-26-7-37-24-44-9-9 21 23 19 24 22 8 14-31-15-29 4 2 24 14 9 25 22 25 28 0 9-3 9-12 0-22-22-32-12-10 11 28 29 29 46 2 22-15-14-20-15-20-4 0 8 9 20 20 27s20 20 20 29c0 13-3 14-12 5-20-20-27-14-15 12 7 13 14 23 18 21 3-2 6 3 6 11 0 9-8 14-21 12-27-4-45-54-45-128-1-84-30-228-56-285-14-28-39-64-56-80l-32-30 6 45c3 25 13 74 21 110 46 195 57 255 67 360 11 122 25 180 45 180 7 0 16 14 19 32 5 20 31 57 69 96 65 68 106 95 129 86 8-3 18-1 22 5 9 16 20 14 37-6zm-1515-19c4-11-75-30-84-20-7 7 50 36 66 33 8-1 16-7 18-13zm823-34c0-27-4-50-10-50-11 0-14 83-3 93 12 12 13 8 13-43zm360 25c-7-8-20-15-29-15-12 1-11 5 8 21 26 22 41 18 21-6zm714 10c-4-8-10-12-15-9-11 6-2 24 11 24 5 0 7-7 4-15zm-894-60c-6-19-16-35-21-35-13 0-11 9 9 58 19 48 29 30 12-23zm-945-141c58-198 98-306 135-364 32-50 39-90 16-90-18 0-119 206-144 295-26 94-39 148-52 220-6 33-13 71-16 85-4 19-2 22 6 14 6-6 31-78 55-160zm715 100c0-30-4-54-10-54s-10 27-10 61c0 37 4 58 10 54 6-3 10-31 10-61zm1450-60c38-79 50-144 26-144-22 0-75 58-82 90-3 14-11 49-19 78-8 30-10 52-4 52s6 7-1 19c-19 36-10 36 20 1 17-19 43-62 60-96zm-1205 49c-27-49-38-29-12 24 16 32 23 40 26 27 2-10-5-33-14-51zm155 57c0-5-4-10-10-10-5 0-10 5-10 10 0 6 5 10 10 10 6 0 10-4 10-10zm947-82c-6-38-14-68-19-68-4 0-9 6-9 13-1 6-4-1-8-18-7-29-7-29-19-9-19 35-22 96-7 124l14 25 1-27c0-16 5-28 10-28 6 0 10 9 10 21 0 11 5 30 11 41 20 36 27-1 16-74zm-1394-50c-19-34-33 46-16 89 6 13 10 3 14-32 3-27 4-53 2-57zm337 94c0-17-32-72-41-72-12 0-12 4 8 45 15 32 33 47 33 27zm780-12c0-12-10-24-24-29-12-5-33-26-45-46-22-38-41-39-41-1 0 40 51 87 103 95 4 0 7-8 7-19zm-1446-24c89-25 104-31 94-42-12-11-238 39-238 53 0 19 44 16 144-11zm534 2c22-42 63-161 58-166-6-5-16 2-92 65-28 24-56 43-63 43-15 0-14 6 5 35 9 14 23 25 30 25 8 0 14 5 14 10 0 19 37 10 48-12zm1102 15c0-5-4-15-10-23-11-18-25-7-17 15 6 15 27 21 27 8zm-956-40c-12-50-23-73-35-73-6 0-9 6-6 13 2 6 10 29 18 50 15 43 33 50 23 10zm-382-75c5-26-16-22-24 4-4 16-6 9-7-24-1-54-20-76-23-26-2 53 1 68 17 84 8 9 16 23 16 32 1 15 12-21 21-70zm1338 47c0-8-4-15-10-15-5 0-10 7-10 15s5 15 10 15c6 0 10-7 10-15zm-1792-25c-12-16-28-30-35-30-18 0-16 6 12 35 35 35 50 32 23-5zm56 6c-7-19-54-50-62-41-4 4 1 11 11 16 9 6 23 16 30 24 16 19 28 19 21 1zm800-8c-12-40-33-88-38-88-10 0 0 54 14 83 16 33 34 36 24 5zm-757-13c-25-22-67-34-67-20 0 5 78 43 90 44 3 0-8-11-23-24zm1794-48c-2-67-19-185-27-199-12-19-33 29-34 75 0 47 47 203 58 192 3-3 4-33 3-68zm-2021-11c0-34-18-4-24 39l-6 40 15-30c8-16 14-39 15-49zm280 53c-36-29-60-41-60-31 0 11 30 37 50 45 31 11 34 6 10-14zm1292-1c-20-20-14-30 10-17 20 11 20 9-5-20-45-54-32-65 21-18 28 26 29 8 1-27-18-23-86-66-104-66-10 0 6 44 24 64 15 18 15 18-6 12-16-5-23-3-23 6 0 19 30 59 40 53 4-3 13 2 20 10s17 15 23 15c7 0 7-4-1-12zm-1252-18c-27-21-50-26-50-11 0 5 12 14 28 19 42 16 49 13 22-8zm434-27c111-74 216-153 216-163 0-15-14-12-52 13-18 12-49 31-68 41s-61 36-94 57c-32 22-64 39-70 39-7 0-21 6-31 14-16 11-17 15-4 29 8 9 18 16 23 17 4 0 40-21 80-47zm252 15c-3-17-16-45-27-62l-21-31 6 40c3 22 10 41 16 43 5 2 10 12 10 23 0 10 5 19 11 19 8 0 9-11 5-32zm932 5c-4-22-22-20-26 1-2 10 3 16 13 16s15-7 13-17zm-1896-53c11 0 10-108-2-115-5-3-12 7-15 22-4 15-10 36-16 46-5 9-6 36-2 60 7 41 7 42 17 15 5-16 13-28 18-28zm461-13c-4-30-9-45-15-39-5 5-7 30-3 57 10 61 25 45 18-18zm-383 32c0-5-9-9-20-9s-20 6-20 14c0 9 7 12 20 9 11-3 20-9 20-14zm1949-47c1-18 8-49 16-69 16-38 20-118 7-127-39-24-65 108-45 229 5 31 8 35 14 20 4-11 8-35 8-53zm-1039 5c0-33-6-60-16-73-15-18-15-18-11 6 2 14 8 33 12 43 4 9 3 17-2 17s-14-12-20-27l-11-28-1 26c-1 14 8 36 19 49s20 27 20 32c0 4 2 8 5 8s5-24 5-53zm923 47c9-10-4-34-18-34-8 0-14-9-14-20-1-11-1-30-2-42 0-24-16-58-27-58-14 0-32 54-22 64 8 8 14 6 21-4 7-11 8-8 3 11-3 15-1 30 5 34 6 3 8 11 5 17-4 6 1 17 11 25 21 14 29 16 38 7zm-1759-28c-4-10 2-12 22-8 17 3 25 1 20-6-3-6 0-12 6-15 24-8 1-18-51-22-40-4-51-2-51 10 0 8-7 15-15 15-12 0-12 3 2 20 20 23 76 28 67 6zm261-84c-4-21-10-31-16-25-5 5-4 32 4 68 11 54 12 56 15 26 2-19 1-50-3-69zm173 67c-9-5-24-17-33-25-20-21-32-10-14 12 14 18 51 34 59 27 3-2-3-9-12-14zm42-13c-20-18-60-30-60-18 0 6 12 15 28 20 39 15 48 14 32-2zm-590-98c-16-55-34-49-25 9 4 25 12 58 18 72l11 26 4-35c2-19-1-52-8-72zm650 93c0-11-69-35-77-27-3 3 9 12 28 20 40 18 49 19 49 7zm882-13c-7-7-12-22-12-35 0-33-20-71-47-89-14-8-27-13-30-11-5 5 15 47 26 57 3 3 12 14 20 25 7 11-5 1-27-22-45-49-52-52-45-20 8 30 21 45 73 83 42 31 68 38 42 12zm-1197-85c-3-18-10-31-16-28-9 6-3 75 9 105 9 23 15-37 7-77zm350 68c-15-13-65-23-65-12 0 5 10 12 23 14 40 8 51 7 42-2zm26-21c-25-21-41-26-41-12 0 9 38 30 55 31 6 0-1-9-14-19zm-421-60c0-33-4-60-10-60-11 0-13 42-4 89 10 47 14 38 14-29zm1096 8c-13-19-16-19-16-5 0 9 6 26 13 37 9 16 13 17 15 6 2-9-4-26-12-38zm-1346 33c0-25-24-111-32-111-11 0-10 36 4 81 10 35 28 54 28 30zm588-32c135-31 192-56 192-85 0-13-7-11-35 6-20 12-70 31-113 41-140 35-222 62-216 71 3 5 12 7 20 4s76-20 152-37zm142 31c-8-5-26-10-40-10-20 0-22 2-10 10 8 5 26 10 40 10 20 0 22-2 10-10zm-930-10c0-21-30-69-80-129-84-101-161-229-181-300-37-136-73-219-136-314-64-95-83-118-83-98 0 5 4 12 8 15 5 3 30 42 57 88 50 87 82 169 119 311 13 48 34 104 48 125 14 20 42 64 64 97 62 95 160 215 176 215 4 0 8-5 8-10zm975-10c-3-5-17-10-31-10s-22 4-19 10 17 10 31 10 22-4 19-10zm-739-43c-3-13-13-41-23-63-23-54-31-17-8 42 17 46 42 62 31 21zm187-19c6-42 3-57-9-45-11 11-17 87-7 87 6 0 13-19 16-42zm652 32c3-5-1-10-9-10-9 0-16 5-16 10 0 6 4 10 9 10 6 0 13-4 16-10zm860-13c13 17 14 16 15-8 0-14-7-34-15-45-12-16-14-17-15-2 0 9-4 18-9 20s-6 17-3 33c6 27 7 28 10 7 3-22 4-23 17-5zm-894-7c13-10 18-19 12-20-7 0-13 5-13 10 0 6-9 10-20 10s-20 5-20 10c0 16 16 12 41-10zm995-23c26 9 25-74-1-139-10-24-25-23-25 1 0 11-3 22-7 24-5 3-7 19-7 36 6 134 5 128 17 100 7-14 17-24 23-22zm-2016 8c0-27-29-73-50-80-11-4-18-11-15-16 4-5-4-13-17-18-17-7-19-10-5-10 15-1 14-5-8-41-14-22-25-44-25-50 0-5-4-10-10-10-5 0-10-6-10-13s-12-26-27-43c-16-16-34-42-40-57-13-29-33-36-33-12 0 21 56 106 88 132l27 22-25-5c-24-5-24-5-6 10 11 9 25 16 32 16s16 5 20 11c4 8-1 9-17 4l-24-8 20 23c11 12 19 24 17 26-8 10 24 65 40 70 10 3 18 10 18 15 0 11 32 47 43 48 4 1 7-6 7-14zm370-36c0-24-4-38-10-34-5 3-10 24-10 46 0 24 4 38 10 34 6-3 10-24 10-46zm1303 21c-7-25-86-95-91-80-3 8-8 7-18-1-23-19-27-4-6 30 10 17 22 28 25 25 3-4 22 8 42 25 39 34 56 34 48 1zm-113-3c0-18-27-53-35-45-4 3 1 18 10 32 19 29 25 32 25 13zm-1221-61c1-16-2-27-5-23-9 9-22 75-16 82 9 8 20-24 21-59zm-99 45c0-15-38-56-45-49-9 9 21 58 35 58 6 0 10-4 10-9zm62-35c4-40 0-58-13-50-12 7-12 84 0 84 5 0 11-15 13-34zm687-18c35-22 25-38-23-38-58 0-246-34-321-59-154-50-169-58-187-92-10-19-29-44-43-56s-25-29-25-37-5-18-10-21c-6-4-8-10-5-14 8-14-19-41-52-50-45-13-43 6 2 25 42 17 46 27 8 18-25-7-27-6-14 9 7 10 19 17 26 17s19 8 26 17c12 15 12 16-3 10-22-8-22-8-3 30 8 16 27 36 42 43 16 7 23 14 17 17-15 5 54 77 96 98 31 16 137 51 270 89 55 15 171 12 199-6zm924 15c7-12-36-96-50-101-7-2-13 4-13 12 0 12-11 6-35-18-46-46-48-69-4-46 42 23 7-36-42-71-26-18-33-19-40-8-21 33-8 64 47 119l87 87c33 34 43 39 50 26zm-1643-49c0-27-4-43-10-39-17 11-11 85 7 85 2 0 3-21 3-46zm1076-17c-3-14-2-16 9-7 10 9 15 5 20-19 7-32-3-59-31-82-16-13-17-12-9 6 4 11 8 27 7 35-1 35-10 91-15 96-3 3-3 13 0 22 5 12 8 10 15-9 5-13 7-32 4-42zm614 48c0-20-32-85-42-85-15 0-8 51 10 75 19 28 32 32 32 10zm-1717-67c6-41-5-62-14-28-10 37-10 60 0 60 5 0 11-15 14-32zm1285-26c-22-51-38-67-38-36 0 8-4 12-10 9-5-3-10 3-10 14s8 22 19 26c10 3 26 14 36 25 27 30 27 20 3-38zm106 46c-4-7-16-23-27-35-28-31-6-29 23 2 31 33 37 24 11-18-13-22-33-37-57-45l-36-11 6 32c3 18 19 44 38 60 34 28 54 36 42 15zm-649-7c3-6-16-13-42-16-94-13-249-61-385-119-62-26-67-17-8 14 30 16 111 47 180 69 193 60 243 71 255 52zm45-1c0-5-4-10-10-10-5 0-10 5-10 10 0 6 5 10 10 10 6 0 10-4 10-10zm-816-32c7-34 3-44-13-33-13 7-15 65-2 65 5 0 11-14 15-32zm1749-30c-10-11-19-15-21-8-5 15 18 41 30 34 5-3 1-15-9-26zm-43 12c0-15-30-60-40-60-19 0-17 41 3 55 25 18 37 19 37 5zm-940-25c0-8-5-15-11-15s-24-14-40-31c-37-40-40-13-3 30 27 33 54 41 54 16zm718-20c-11-24-72-65-98-65-17 0 0 43 24 60 20 14 78 38 84 34 1-1-3-14-10-29zm281-10c-27-40-44-46-34-12 7 22 46 59 54 52 2-3-7-20-20-40zm-598-8c-16-16-14-27 4-21 21 9 19-13-6-47-22-32-46-31-29 1 14 26 13 30-6 23-14-5-15-3-4 18 20 38 44 62 48 49 3-7-1-17-7-23zm157-74c-23-26-22-27 27-7 24 10 17-13-11-35-16-12-41-21-62-21h-35l24 26c16 18 20 28 12 31-19 7 14 51 40 55 31 4 33-19 5-49zm308 42c-4-12 0-14 22-9l27 5-30-25c-33-28-45-32-45-15 0 8-5 7-15-1-9-7-18-11-20-8-11 10 8 39 34 53 33 18 34 18 27 0zm-156-35c0-6-7-13-15-16-26-10-16-24 15-20 42 5 39-21-4-32-45-13-88-4-84 16 3 16 62 62 79 62 5 0 9-5 9-10zm185-47c-38-33-45-20-9 16 16 17 31 25 33 19 2-7-9-22-24-35zm-1429-55c-30-80-81-179-118-232-16-21-28-44-28-51 0-26-99-82-205-114-38-12-78-24-87-27-10-3-18-1-18 5 0 10 85 52 155 77 91 32 120 53 141 104 8 19 23 44 34 55 21 23 44 63 101 177 22 44 42 78 45 76 2-3-7-34-20-70zm-673 33c-3-11-14-27-24-37-10-9-19-23-19-31 0-7-4-13-9-13-11 0 10 62 28 84s30 20 24-3zm2007 9c0-5-12-10-27-10-22 0-25 2-13 10 20 13 40 13 40 0zm-670-29c0-24-70-94-140-140-30-19-57-37-59-38-2-2-2-5 0-8 3-2 37 18 77 45 79 54 96 52 31-4-49-42-100-67-194-95-114-34-156-66-199-155-39-80-63-100-51-43 10 49 83 167 103 167 30 0 188 85 232 124 14 13 41 32 60 44 19 11 58 43 85 71 28 28 51 51 53 51 1 0 2-8 2-19zm370-11c0-13-34-30-59-30-28 0-27 28 2 33 41 8 57 7 57-3zm120 0c-8-5-26-10-40-10s-34-7-44-15c-26-19-47-19-40 0 4 8 14 15 24 15 11 0 22 5 25 10 3 6 25 10 48 10 31 0 38-3 27-10zm-220-19c0-5-7-11-15-15-9-3-15 0-15 9 0 8 7 15 15 15s15-4 15-9zm-1016-26c-4-8-7-15-9-15-1 0-19-7-39-15-48-20-47-1 2 24 47 24 53 25 46 6zm111-81c-5-33-14-48-42-70-20-15-34-23-32-18s20 50 39 99c29 75 36 85 38 61 2-17 1-49-3-72zm935 81c0-2-9-9-20-15-16-9-20-8-20 5 0 8 9 15 20 15s20-2 20-5zm44-4c3-5-1-12-10-15-20-8-29-1-19 13 8 13 22 14 29 2zm-99-21c-3-5-10-10-16-10-5 0-9 5-9 10 0 6 7 10 16 10 8 0 12-4 9-10zm-1635-15c-7-9-15-13-17-11-7 7 7 26 19 26 6 0 6-6-2-15zm615-14c-9-16-64-43-78-38-6 2 9 15 34 28 45 26 56 28 44 10zm1073 7c-3-7-11-13-19-13-9 0-23-8-33-18-10-9-22-15-27-12-14 9-11 25 6 25 8 0 15 7 15 15 0 10 10 15 31 15 20 0 29-4 27-12zm-1708-22c0-3-4-8-10-11-5-3-10-1-10 4 0 6 5 11 10 11 6 0 10-2 10-4zm1818-73c28-32 52-61 52-65 0-17-50 17-82 56-46 55-52 66-36 66 7 0 37-26 66-57zm48 22c21-50 17-62-11-35-25 23-35 70-14 70 5 0 17-16 25-35zm-1273 3c-12-13-31-33-43-45-11-13-30-23-42-23-25 1-25 0 29 38 16 12 16 12 1 8-34-10-18 11 20 27 52 21 60 20 35-5zm1725-6c2-7-5-12-15-13-17 0-17-1 0-8 16-6 17-9 4-19-16-14-50-5-41 10 4 6-2 8-15 3-34-11-25 14 12 30 35 16 49 15 55-3zm48-19c-10-10-19 5-10 18 6 11 8 11 12 0 2-7 1-15-2-18zm54 6c0-5-7-9-15-9-15 0-20 12-9 23 8 8 24-1 24-14zm50-25c0-8-7-14-15-14-15 0-21 21-9 33 10 9 24-2 24-19zm-242-2c2-7-3-12-12-12s-16 7-16 16c0 17 22 14 28-4zm-58-2c0-5-4-10-9-10-6 0-13 5-16 10-3 6 1 10 9 10 9 0 16-4 16-10zm-40-21c0-5-7-9-15-9-15 0-20 12-9 23 8 8 24-1 24-14zm305-16c31-47 34-75 5-48-11 10-20 24-20 30 0 7-7 18-15 25-17 14-20 30-5 30 5 0 21-17 35-37zm-1159 2c-23-17-163-65-190-65-35 0 2 28 47 35 23 4 67 18 97 30 57 24 79 24 46 0zm808-6c-10-16-24-9-24 12 0 18 2 19 15 9 8-7 12-16 9-21zm-1544 6c-7-8-19-15-26-15-8 0-14-4-14-10 0-11-53-40-75-40-27 0-16 18 16 25 21 5 27 10 19 15-15 9 0 20 44 31 47 11 49 10 36-6zm1795 5c-3-5-1-10 4-10 6 0 20-8 31-17 14-13 17-20 8-30-14-17-28-16-28 2 0 8-3 15-7 15-5 0-13 11-20 25-9 21-9 25 4 25 8 0 11-4 8-10zm173-17c-2-14-8-28-14-30-17-6-26 27-13 43 18 22 31 16 27-13zm-564-24c-9-15-31-10-38 7-10 26 4 37 25 18 10-9 16-21 13-25zm356 27c0-16-18-31-27-22-8 8 5 36 17 36 5 0 10-6 10-14zm-300-11c0-8-4-15-10-15-5 0-10 7-10 15s5 15 10 15c6 0 10-7 10-15zm40 5c0-5-4-10-10-10-5 0-10 5-10 10 0 6 5 10 10 10 6 0 10-4 10-10zm150-16c0-22-55-74-77-74-15 1-15 4 7 23 14 12 31 35 39 49 14 28 31 29 31 2zm110-23c0-6-4-13-10-16-5-3-10 1-10 9 0 9 5 16 10 16 6 0 10-4 10-9zm230-13c0-7-4-19-9-27-11-17-25 3-17 24 7 18 26 20 26 3zm-1510-13c0-17-39-59-47-51-3 3-1 12 5 19 7 8 9 17 6 20-9 9 5 27 22 27 8 0 14-7 14-15zm1386-24c-15-14-18-14-26-1-7 11-4 17 8 21 26 10 36-1 18-20zm-108-3c-6-18-28-21-28-4 0 9 7 16 16 16s14-5 12-12zm112-28c0-5-9-14-20-20-17-9-20-8-20 10 0 13 7 20 20 20 11 0 20-4 20-10zm-1420-16c0-10-100-104-111-104-18 0-8 16 21 33 17 10 30 24 30 31 0 8 10 21 23 29 24 17 37 21 37 11zm547-20c-9-9-28 6-21 18 4 6 10 6 17-1 6-6 8-13 4-17zm393 1c28-14 50-31 50-38 0-8 11-24 25-37 30-28 32-51 6-67-24-15-31-8-31 30 0 50-29 86-86 104l-51 16-66-38c-82-45-88-34-9 17 68 44 96 46 162 13zm360 15c0-5-4-10-10-10-5 0-10 5-10 10 0 6 5 10 10 10 6 0 10-4 10-10zm-705-47c28-32 32-53 10-53-8 0-15 9-15 20s-7 20-15 20-15 9-15 20c0 27 6 25 35-7zm265-8c11-13 8-15-14-15-16 0-26-5-26-15 0-9-10-15-26-15-19 0-25 4-22 18 3 11 12 16 26 15 13-2 25 4 28 12 8 19 18 19 34 0zm70-19c8-12 15-28 15-36 1-8 4-21 9-28 5-8 4-18-2-24-15-15-48 18-34 35 12 14-7 47-27 47-12 0-15 22-5 33 9 9 26-2 44-27zm-244-53c-8-9-46 18-40 28 4 6 13 4 25-7 11-9 17-19 15-21zm74 17c0-5-7-10-15-10s-15 5-15 10c0 6 7 10 15 10s15-4 15-10zm-119-37c12 3 23-1 28-12 8-15 5-16-25-13-39 5-49 15-38 40 6 16 7 15 11-1 3-13 11-17 24-14zm219-4c0-6-7-8-16-5s-18 6-20 6-4 7-4 15c0 13 4 14 20 5 11-6 20-16 20-21zm-60 1c0-5-4-10-10-10-5 0-10 5-10 10 0 6 5 10 10 10 6 0 10-4 10-10zm-36-21c-6-11-24-2-24 11 0 5 7 7 15 4 8-4 12-10 9-15zm-44 1c0-5-4-10-10-10-5 0-10 5-10 10 0 6 5 10 10 10 6 0 10-4 10-10z"/><path d="m3892 2279c-36-11-52-39-52-91 0-33 37-72 89-94 28-12 33-11 60 12 36 30 46 69 31 124-15 56-52 71-128 49zm85-41c25-24 29-48 11-66-20-20-28-13-17 15 7 20 6 28-3 35-22 13-40 9-45-12-7-26-33-26-33 0 0 11 12 26 28 34 35 19 32 20 59-6z"/><path d="m3992 2048c-25-29-18-37 12-15 10 7 17 20 15 29-3 11-10 8-27-14z"/><path d="m3885 2060c4-6 11-8 16-5 14 9 11 15-7 15-8 0-12-5-9-10z"/><path d="m3961 1643c-1-6-4-20-7-30-5-17-5-17 6 0 6 10 9 23 6 30-3 9-5 9-5 0z"/><path d="m3880 1535c-8-9-8-15-2-15 12 0 26 19 19 26-2 2-10-2-17-11z"/><path d="m4195 2130c3-5 8-10 11-10 2 0 4 5 4 10 0 6-5 10-11 10-5 0-7-4-4-10z"/><path d="m4237 2073c-11-11-8-33 5-33 6 0 8 3 5 7-4 3-2 12 4 20 11 13-2 19-14 6z"/><path d="m3223 1230c0-25 2-35 4-22 2 12 2 32 0 45-2 12-4 2-4-23z"/><path d="m3211 1134c0-11 3-14 6-6 3 7 2 16-1 19-3 4-6-2-5-13z"/><path d="m3181 974c-8-32-16-65-19-73-3-9-1-12 6-7 12 7 36 110 30 128-2 6-10-15-17-48z"/><path d="m3235 430c-3-5-1-10 4-10 6 0 11 5 11 10 0 6-2 10-4 10-3 0-8-4-11-10z"/><path d="m3227 393c-4-3-7-11-7-17s5-5 12 2c6 6 9 14 7 17-3 3-9 2-12-2z"/><path d="m4196 1400c8-31 24-50 24-29 0 8-7 24-16 35-14 18-15 18-8-6z"/><path d="m2580 930c-8-5-10-10-5-10 6 0 17 5 25 10s11 10 5 10c-5 0-17-5-25-10z"/><path d="m2460 810c-9-6-10-10-3-10 6 0 15 5 18 10 8 12 4 12-15 0z"/><path d="m3407 943c-4-3-7-11-7-17s5-5 12 2c6 6 9 14 7 17-3 3-9 2-12-2z"/><path d="m6098 2564c-14-29-28-31-35-4-5 18-12 21-62 18-49-3-56-6-59-25-4-30-18-29-38 2-13 20-24 25-60 25-41 0-44-2-44-26 0-32 17-63 45-86 12-9 30-35 40-58 17-37 17-45 5-73-19-46-15-89 14-146l25-51-15-92c-8-51-22-127-31-168s-17-85-16-97c1-29-13-29-97-2-56 18-79 20-175 14-77-4-115-11-127-22-11-10-26-13-46-8-32 7-92 59-92 80 0 8-7 20-15 28-14 15-21 40-69 262-49 227-91 307-168 320-31 5-40 2-50-15-15-23-31-26-46-7-7 8-26 11-53 9-35-4-43-9-52-32s-16-27-49-27c-39 0-68-16-68-37 0-7-15-12-32-13-48 0-88-19-88-41 0-10 14-59 31-108s42-127 56-174 31-92 38-100c14-17 31-112 27-149-4-31-23-67-87-166-67-102-80-134-89-215-4-36-21-126-37-200-17-76-29-151-26-171s21-76 41-125c39-96 63-124 153-175 28-17 68-45 88-64s47-38 60-41c24-6 24-6-17-57l-40-51 24-21c28-23 74-81 141-177 46-65 47-67 27-78-15-8-40-8-95 1-41 7-77 10-81 7-10-10 69-107 94-114 12-3 22-10 22-15 0-15 367-11 373 4 4 9 6 9 6 0 1-8 16-13 40-13 22 0 42 5 44 13 4 10 6 10 6 0 1-10 81-13 368-13h367l-32 33c-18 18-44 52-59 76-23 34-42 49-102 76-70 32-76 32-113 19-38-13-92-10-114 7-6 5-28 12-50 17-31 6-50 21-96 76-34 40-58 79-58 92s-4 26-10 29c-26 16-2 32 62 41 17 2 43 14 57 28 70 65 118 82 261 95 75 6 98 13 189 59 58 29 110 52 116 52 25 0 173 122 203 167 17 26 55 75 85 109 41 47 59 78 76 133 12 39 33 84 45 99 20 23 24 43 30 146 5 104 3 132-15 205-12 48-26 95-32 106s-10 35-8 53c2 42-5 54-90 154-39 46-77 97-84 113-7 17-22 41-33 55-24 32-33 66-23 94 29 78 30 85 8 113-12 15-34 39-50 53-33 31-29 70 9 70 12 0 25-4 29-10 3-5 11-7 18-5s24 6 38 9c20 4 28 14 33 38 5 26 1 37-21 60-24 25-33 28-93 28-55 0-70-4-86-21-18-20-19-20-34-1-11 13-34 21-69 25-48 5-53 4-63-19zm38-40c-4-9-9-15-11-12-3 3-3 13 1 22s9 15 11 12c3-3 3-13-1-22zm194 11c0-8 5-15 12-15 21 0-5-18-31-22-17-2-28-13-35-35-13-37-32-60-43-49-4 4-1 11 6 15 8 5 11 17 7 29-4 13-1 25 9 34 9 7 26 23 38 35 26 26 37 28 37 8zm40 5c0-5-4-10-10-10-5 0-10 5-10 10 0 6 5 10 10 10 6 0 10-4 10-10zm-448-50c29-27 57-50 62-50s14-7 20-16c10-13 19-14 48-6 20 6 39 7 42 4 10-9 7-24-3-17-6 3-14-3-20-12-6-10-11-12-11-5 0 22-18 13-24-13-4-14-11-23-15-20-5 3-7 15-4 28 5 18 3 20-8 10-10-10-16-9-31 4-10 9-18 22-18 30 0 7-5 12-12 11-7-2-12 2-13 9 0 12-13 28-23 28-4 0-21 15-39 33-52 53-9 37 49-18zm273 41c-2-5 2-28 9-52 45-143 45-152 3-131-41 20-75 22-117 7-50-18-50-18-50-5 0 12 82 50 108 50 10 0 27 9 37 20 11 12 13 20 6 20s-9 5-6 10c3 6-2 10-12 11-10 0-13 3-5 6 17 7 15 43-3 43-14 0-20 12-10 21 8 8 46 8 40 0zm-185-16c0-8-4-15-10-15-5 0-10 7-10 15s5 15 10 15c6 0 10-7 10-15zm41-12c18-48 16-66-8-68-19-1-21 2-17 29 4 23 3 27-5 16-16-23-22-6-8 23 15 34 25 34 38 0zm344 7c18-8 17-9-7-9-16-1-28 4-28 9 0 12 8 12 35 0zm-235-20c0-5-7-10-15-10s-15 5-15 10c0 6 7 10 15 10s15-4 15-10zm-40-20c0-5 8-6 18-3 15 6 16 5 2-12s-13-18 8-13c24 7 29-1 10-20-16-16-39-15-32 1 3 8-2 20-11 27-17 14-20 30-5 30 6 0 10-4 10-10zm-987-68c15-17 47-127 47-165 0-36-20-5-40 62-22 74-38 95-64 85-22-8-20-48 4-119 22-65 18-83-10-45-31 41-61 170-39 170 5 0 9 7 9 15 0 22 72 20 93-3zm-158-9c19-47 65-188 65-200 0-24-15-14-28 20-8 17-18 41-23 52-8 17-9 17-4-5 3-14 8-38 12-54 4-19 2-27-4-23-15 10-45 124-41 159 2 19-2 33-9 35-22 8-15-61 12-133 28-75 28-74 16-74-13 0-63 108-72 155-5 29-4 46 7 63 17 26 59 29 69 5zm144-86c6-35 11-75 11-88-1-23-1-23-13-4-14 23-35 126-29 143 9 27 21 8 31-51zm-270 15c25-27 78-168 68-179-3-3-15 12-27 34l-21 38 6-35c6-33 5-34-10-16-14 18-17 30-20 96-2 30-14 60-25 60-8 0 20-127 39-175 7-16 18-33 24-38 9-6 8-7-2-5-25 7-52 53-66 109-7 30-19 69-27 87-11 28-11 34 2 42 23 15 30 12 59-18zm1489-14c17-36 1-78-31-78-49 0-64 54-25 90 27 25 39 22 56-12zm-342-3c19-28-2-69-37-73-23-3-28 2-37 38-8 34-7 42 7 50 23 14 52 8 67-15zm-1238-47c36-98 54-159 49-165-11-11-62 112-80 195-10 42 12 22 31-30zm-38 4c0-16 11-62 25-102s25-78 25-84c0-22-23 15-42 66-37 104-41 116-35 132 10 26 27 18 27-12zm1375-34c29-61 30-65 9-47-19 16-44 63-44 84 0 26 9 17 35-37zm125 27c0-14-13-39-30-57-29-33-29-33-30-9 0 25 38 91 53 91 4 0 7-11 7-25zm-185-107c-1-35-7-73-13-85-17-30-15-38 4-22 15 12 16 11 9-11-4-14-14-37-21-51-7-15-11-29-8-32 9-9-16-47-31-47-17 0-20 27-4 32 14 5 31 74 29 124 0 22 4 53 9 67 15 39 5 33-18-10-11-21-20-31-21-22 0 21 48 119 59 119 4 0 7-28 6-62zm251 7c-2-7 2-21 10-32 14-17 15-17 8 6-11 42 17 19 50-42 17-31 39-62 48-69 20-16 102-118 117-146 6-11 7-23 2-26-4-3-14 7-20 21-13 28-47 72-115 146-32 35-38 38-31 17 4-14 17-35 28-47 11-13 18-26 14-29-8-8-46 36-47 52 0 7-8 14-18 16-19 5-76 133-66 149 8 13 26-1 20-16zm-90-30c-3-9 0-15 9-15 23 0 18-16-5-17-20-2-28 25-13 40 11 12 15 8 9-8zm-90-21c-5-17-3-23 4-19 5 3 10 2 10-4s6-8 13-5c9 3 13-6 14-31 1-43-5-45-18-5-6 17-14 30-17 30-4 0-13 4-21 9-10 7-11 13-2 30 16 29 25 26 17-5zm-866-64c17-57 45-229 39-234-2-2-15-7-29-11l-25-8 20 22 19 22-29-6-30-6 24 21c28 24 22 37-9 20-32-17-36-5-6 16 31 19 28 32-3 13-31-20-38-2-8 22 32 25 36 47 5 25-41-29-55-17-18 16 22 19 27 28 15 23-54-20-60-16-25 14 35 31 30 44-6 16-40-30-48-13-10 20 43 38 41 43-5 19-17-8-33-13-35-11-9 8 70 68 85 65 8-2 22-28 31-58zm-148-7c11-27 32-73 45-103 52-113 77-210 56-210-5 0-19-3-33-6l-25-6 25 23 25 22-27-5c-32-6-37 6-10 21 13 8 9 9-18 4-32-6-34-5-21 10 7 9 20 17 27 17 8 0 14 4 14 10s-10 5-25-2c-14-6-28-8-33-3-4 4-2 10 4 12s20 11 30 19c20 16 13 16-31-2-26-11-16 15 13 31l27 16-34-7c-26-5-32-3-29 7 3 8 14 15 26 17s20 7 17 12-16 5-30 0c-31-12-32-4-2 21l22 19-70-12 50 44-70-12 24 21 25 20-30-7c-29-7-29-7-11 14 19 20 18 21-5 16-22-5-22-5 5 20 15 14 33 26 38 26 6 0 19-21 31-47zm1138 37c0-5-5-10-11-10-5 0-7 5-4 10 3 6 8 10 11 10 2 0 4-4 4-10zm-249-31c-9-22-10-22-10-3-1 11 2 24 6 27 12 12 14 0 4-24zm223 15c9-24 7-34-8-34-8 0-13 10-13 25 0 28 12 33 21 9zm-96-16c-2-6-10-14-16-16-7-2-10 2-6 12 7 18 28 22 22 4zm-1119-35c10-21 38-96 62-166 36-108 40-130 28-138-15-9-59-12-59-4 0 3 10 10 23 15 20 8 19 9-11 9-39 1-34 21 5 21 15 0 23 3 19 7s-23 6-42 4c-39-3-44 5-11 19l22 9h-22c-27 1-31 21-5 21 9 0 24 5 32 10 10 6 3 8-22 3-43-6-53 11-13 21 14 4 25 10 25 15 0 6-13 6-32 0-40-11-38-11-38 1 0 5 15 17 33 25 22 10 24 13 7 9-14-4-32-9-40-12-11-4-11-1 3 15 17 20 17 20-10 15-25-5-27-4-14 11 7 10 22 17 32 17s21 5 24 10c4 7-8 8-36 4-32-5-40-4-35 5 5 7 18 16 30 21 18 7 16 9-14 10l-35 1 50 28-25 1c-24 1-24 1-6 15 32 25 54 18 75-22zm1259 14c0-15-7-23-19-24-21-2-25 17-7 35s26 15 26-11zm-101-20c11 4 14 3 9-5-10-17-43-15-49 2-8 20 5 30 15 12 5-9 15-13 25-9zm-1327-7c-27-20-36-19-27 5 4 8 17 15 29 15h23zm55-17c3-16 13-41 20-58 25-55 73-190 80-222 6-28 3-33-24-48-35-17-39-11-13 18 18 21 17 21-30 2-27-11-21 10 7 29 38 25 30 38-10 15-44-26-46-9-2 26 32 27 12 19-30-11-37-27-26 3 12 33 46 37 46 54 0 19-42-32-47-15-7 28l27 30-28-18c-38-24-44-15-12 19 29 32 25 47-5 20-28-26-34-13-9 18 11 15 16 27 10 27-5 0-13-4-16-10-3-5-12-10-19-10-18 0-14 50 7 64 9 7 17 17 17 21 0 5-9 0-20-10-32-29-36-8-5 25 32 33 40 32 50-7zm1096-16c-13-13-15 1-4 30 7 17 8 17 11-1 2-10-1-23-7-29zm229 39c0-2-8-10-17-17-16-13-17-12-4 4s21 21 21 13zm148-28c22-34 19-57-4-37-12 9-14 5-14-30 0-22-4-41-10-41-5 0-10 12-10 26s-4 23-8 20c-5-3-7-18-4-34 2-16-1-33-7-36-7-5-11 3-11 19 0 15-4 24-10 20-5-3-10-17-10-31 0-13-4-24-10-24-16 0-12 57 5 74 8 8 24 35 35 60 10 25 24 46 29 46s18-14 29-32zm-296-18c6 0 8-11 3-27-5-23-4-26 6-15 18 17 32 15 25-4-4-12-2-15 9-10 19 7 19-14 0-40-14-18-14-18-15 5 0 20-2 21-15 11-12-10-15-10-15 0 0 7-6 10-14 7-25-10-30 49-8 103 4 11 7 9 9-7 3-13 9-23 15-23zm111 8c4-10 7-10 18 0 7 6 24 12 37 12 15 0 22-5 19-12-2-7-10-12-17-10-7 1-18-2-25-8-14-11-65 6-65 22 0 13 28 9 33-4zm291-48c16-32 3-42-14-11-10 20-13 41-6 41 3 0 11-13 20-30zm-15-49c22-51 30-121 11-91-5 8-10 26-10 40s-9 39-20 55c-22 33-25 45-11 45 5 0 18-22 30-49zm-209 17c0-31-14-59-26-54-7 3-15 0-17-7s-8-9-12-5c-12 11 5 67 23 71 29 8 32 7 32-5zm-293-35c-3-10-5-4-5 12 0 17 2 24 5 18 2-7 2-21 0-30zm38-4c-5-21-10-27-15-19-5 7-3 24 3 37 14 31 21 22 12-18zm35 22c0-6-4-13-10-16-5-3-10 1-10 9 0 9 5 16 10 16 6 0 10-4 10-9zm155-6c-3-8-7-23-10-32-4-11-9-13-16-6s-7 17 3 32c15 24 30 28 23 6zm243 3c7-7 12-21 12-31 0-17-2-17-20 4-21 26-27 11-10-22 8-13 7-19 0-19-17 0-28 43-16 62 13 21 18 22 34 6zm-363-28c7-11-25-70-37-70-5 0-1 11 8 25s14 32 10 40c-6 17 9 21 19 5zm-44-43c-13-13-15 1-4 30 7 17 8 17 11-1 2-10-1-23-7-29zm599 22c0-5-4-9-10-9-5 0-10 7-10 16 0 8 5 12 10 9 6-3 10-10 10-16zm-515-29c0-20-3-25-11-19-6 5-9 21-6 34 6 33 17 22 17-15zm259 18c3-13 6-34 5-48 0-20-3-17-14 15-17 47-18 55-6 55 5 0 11-10 15-22zm-218-32c-3-14-11-26-17-26s-8 7-5 16 6 25 6 37c0 16 3 18 11 10 7-7 9-23 5-37zm384 25c5-11 10-28 10-38-1-15-4-13-16 7l-15 25 5-35c5-33 5-34-9-16-16 21-18 36-9 60 8 21 21 20 34-3zm-1210-10c0-5-11-11-25-13-24-5-32 2-18 15 9 10 43 8 43-2zm631-24c-8-8-11-7-11 4 0 20 13 34 18 19 3-7-1-17-7-23zm391-2c4-16 1-24-6-22-6 2-12 16-14 31-4 35 14 26 20-9zm-54-7c19-70-21-79-42-10-10 32 8 27 21-5 10-25 11-26 12-6 1 12-3 25-9 28-13 8-13 25 0 25 5 0 13-15 18-32zm190-40c2-14-4-31-13-38-30-25-71 39-58 91 5 19 7 19 37-4 17-14 32-35 34-49zm-268 30c0 13 4 20 10 17 13-8 13-52 0-60s-50 26-50 46c0 29 15 31 27 2 11-26 12-26 13-5zm-210 5c0-10-4-24-9-31-7-11-9-11-14 2-7 19 1 46 14 46 5 0 9-8 9-17zm-307-5c16-8 9-18-50-79-77-80-109-89-106-31 0 20 11 44 24 58 12 13 20 27 17 30-4 3-24-13-45-36-40-43-93-78-93-61 0 6 14 24 31 42 17 17 28 34 24 37-3 4-24-13-46-36s-42-42-45-42c-2 0-4 9-4 20 0 26 43 67 95 92 42 20 162 23 198 6zm364-43c-1-36-13-46-23-20-8 20 4 67 15 60 5-3 9-21 8-40zm-272 19 24-16-63-63c-49-49-68-62-85-58-33 9-25 41 25 99 49 58 61 63 99 38zm605-66c0-39-17-35-22 5-3 17-8 41-12 52-6 16-4 15 13-5 11-14 21-37 21-52zm-1031 53c26-16 2-28-96-46-91-17-115-32-37-23 35 4 48-7 17-15-10-3-5-5 12-6 36-2 62-16 47-25-10-6-187-45-205-46-5 0-5 5-2 10 9 15-8 12-33-6-33-23-39-10-12 29 32 46 73 72 155 97 39 12 81 25 95 30 34 11 43 11 59 1zm751-4c0-7-7-22-15-33-12-16-14-17-15-2 0 23 11 48 21 48 5 0 9-6 9-13zm460-10c0-13 4-27 9-32 5-6 16-34 26-63 13-42 16-77 13-155-5-99-6-104-43-159-46-67-69-64-36 4 29 62 26 74-5 15-23-45-48-67-60-54-4 3 4 35 16 71 21 65 40 82 57 51 7-13 13-10 32 15 20 28 22 38 15 111-3 44-11 82-15 85-5 3-9-3-9-13-1-15-2-16-9-3-17 28-24 90-11 90 8 0 9 10 5 30-4 19-3 30 4 30 6 0 11-10 11-23zm-686-3c23-9 20-21-6-30-29-8-98-62-98-76s43 1 62 23 38 25 38 6c0-16-37-51-63-61-10-3-30-3-44 0-22 6-24 10-18 43 4 23 19 48 40 69 34 31 57 38 89 26zm742-62c-10-9-15 2-21 39l-5 34 15-34c9-18 14-36 11-39zm-441 38c3-10 1-29-5-41-12-21-12-21-26 6-19 36-17 55 2 30 16-20 16-20 9 3-8 27 11 30 20 2zm103-25c0-19-7-40-16-47-14-12-15-9-9 27 4 22 7 46 7 53s4 11 9 8 9-22 9-41zm-39-35c0-11-3-10-14 4-8 11-15 31-14 45 1 26 1 26 14-4 8-16 14-37 14-45zm96 40c9-16 11-30 6-30-11 0-31 32-31 49 0 19 9 12 25-19zm-1495 13c-1-18-18-35-24-24-4 6-4 16-1 21 7 12 25 13 25 3zm474-9c26-10 18-24-14-24-29 0-38 9-23 23 8 9 17 9 37 1zm1207-32c4-51 8-64 23-81 11-12 16-36 16-74 0-58-16-80-22-30-3 29-28 45-28 18 0-28-31-85-46-85-16 0-18 31-4 80 16 55 25 66 44 51 14-12 16-10 16 11 0 13-9 31-20 41-15 12-20 29-20 62 0 43 1 45 20 35 11-6 21-18 21-28zm-531 13c10-13 9-19-6-38-19-21-19-21 1-7 11 8 23 19 27 25 4 5 14 3 25-7 10-8 28-19 41-22 18-6 22-4 22 16 1 23 1 23 16 3 10-13 13-31 9-52-7-37 11-48 38-25 16 14 17 12 18-29 1-36 2-40 9-19 14 46 23-5 17-91-6-78 1-101 22-75 9 11 9 15-1 19-10 3-10 10 2 33 17 31 37 39 60 24 11-7 12-12 3-21-7-7-10-24-7-38 4-19-3-35-21-56-15-16-33-42-41-56-7-15-20-29-29-32-8-4-15-18-15-31 0-26-37-69-51-61-4 3-17-8-29-25-12-16-17-30-11-30s11 5 11 10c0 6 14 10 30 10 17 0 30 4 30 9 0 6 14 25 30 43 17 18 30 44 30 57 0 14 13 39 31 57 27 28 34 31 45 19 12-11 11-18-3-44-10-16-28-35-41-41-13-5-20-15-17-20 4-6-15-32-41-58-38-37-44-48-30-50 20-4 131 105 141 139 4 10 10 19 14 19 16 0 33-29 25-42-5-7-9-35-11-62-1-28-8-56-17-65-15-14-16-13-16 4-1 19-2 18-20-4-25-30-25-41 0-41 13 0 32 17 52 45 18 25 38 45 45 45s13 2 13 4 3 11 6 19c4 11-1 13-20 10-30-6-35 12-11 43 8 10 15 29 15 41 0 24 55 69 65 53 3-5-3-30-15-54-24-54-25-62-5-70 30-11 14-47-49-111-60-61-73-70-103-66-7 1-17-8-23-19-13-25-1-26 40-5 17 9 30 11 30 5 0-14-38-35-97-55-29-9-55-21-58-26-4-5-14-9-23-9s7 15 36 33 49 36 46 40c-4 4 0 15 8 24 32 38 33 46 4 39-33-8-37 18-5 34 11 7 27 27 35 46s19 34 26 34c6 0 8 3 5 7-4 3-30-17-57-45-28-29-61-54-75-58-14-3-25-12-25-20 0-13-30-34-48-34-6 0-8 9-5 20s11 20 18 20c6 0 17 11 23 25 14 30 7 32-22 5-11-10-32-28-46-39-20-17-22-20-7-21 9 0 17-3 17-6 0-4-8-13-17-21-16-13-14-14 21-9 37 5 38 4 22-13-24-26-56-34-56-13 0 14-1 14-12-1-15-18-68-41-77-32-5 6 8 16 53 40 11 5 21 16 24 23 4 14-75-32-94-54-14-18-64-29-64-15 0 6 12 14 28 17 15 4 33 16 41 26 7 11 25 24 39 29 15 6 22 13 16 19-5 5-38-1-79-15-38-13-71-22-74-20-6 7 20 35 33 35 22 0 91 42 129 78 75 73 103 135 132 297 3 22 13 47 21 56 12 14 13 24 3 64l-12 47-44-5c-30-3-54-14-72-31-33-32-41-33-33-3 5 19 3 20-10 9-8-7-18-29-21-49-6-36-52-113-68-113-21 0-7 60 21 95 17 21 30 45 30 54 0 31 30 62 53 56 12-2 16-2 10 1-7 3-13 15-13 27 0 21-1 21-23-4-12-14-31-32-41-40-18-13-19-12-13 4 10 26 0 21-51-24-26-22-48-36-50-30-5 16 27 71 43 71s84 69 84 85c0 6-9-2-20-17-21-28-39-36-39-18 0 6 8 18 18 28 9 11 25 33 34 50 19 36 30 39 48 17zm-1180-22c-1-11-26-43-34-43-11 0-6 38 7 43 19 8 27 8 27 0zm36-30c-11-11-19 6-11 24 8 17 8 17 12 0 3-10 2-21-1-24zm163 18c11-7 7-13-15-27-16-10-39-29-51-43l-22-26-1 30c0 58 47 93 89 66zm1434-39c7-34 5-49-8-68-8-13-19-24-24-24-9 0-21 119-14 133 13 22 38-1 46-41zm-993 32c0-3-17-46-38-97-59-139-62-150-60-182 1-16-2-80-7-141-8-109-8-112-31-110-27 1-32 11-10 19 8 3 12 15 9 31-5 22-9 25-32 20-25-5-25-5-7 10 11 9 23 16 27 16s7 16 7 35c0 30-2 34-14 24-8-7-18-9-22-5s7 19 23 32c17 13 25 24 18 24-6 0-15-4-18-10-3-5-11-10-17-10s-1 12 13 26c24 26 24 26 2 15-14-7-23-8-23-2s9 15 20 21 20 15 20 21-7 6-20-1c-20-11-30 3-10 15 5 3 6 13 3 21-3 9 3 21 16 30 11 8 26 24 32 36 10 18 9 20-5 15-9-4-16-2-16 4 0 5 11 14 25 19s25 14 25 20c0 8-6 8-20 0s-20-8-20 0c0 6 12 15 27 21s23 13 17 17c-5 4-10 18-9 32 0 21 6 26 35 31 51 9 60 10 60 3zm760-20c0-8-4-14-10-14-5 0-10 9-10 21 0 11 5 17 10 14 6-3 10-13 10-21zm124 10c9-22-3-32-14-14-12 19-12 30-1 30 5 0 12-7 15-16zm-798-20c-16-11-16-13 1-17 15-3 13-6-9-15-29-12-40-29-13-18 26 10 16-10-11-22-14-7-22-17-19-23 4-6-1-17-11-25-15-12-16-16-5-21 11-4 8-10-10-25-16-14-18-18-6-14 22 7 22-10 0-18-14-6-15-9-4-15 10-7 8-12-10-25-21-14-21-16-4-16s16-2-6-26l-24-26 30 7c29 6 29 6 11-9-11-9-23-16-28-16-4 0-8-4-8-10 0-5 8-7 18-3 16 6 16 5 0-14-20-21-24-38-8-28 14 9 12-8-2-24-11-11-10-13 4-8 19 7 21-15 5-40-14-23-26-14-38 27-19 62 11 289 43 328 7 9 24 37 38 62 28 53 35 59 63 52 19-5 19-6 3-18zm-726-50c0-32-4-44-12-42-21 7-33 55-18 72 21 27 30 18 30-30zm464 38c9-15-63-42-112-42-31 0-61-8-89-25-45-25-55-17-28 22 16 23 63 35 143 36 28 0 52 4 52 9 0 11 27 10 34 0zm386-3c0-5-3-9-8-9-4 0-13-14-21-31-7-17-24-36-38-42-23-10-23-12-6-18 16-7 16-8-5-15-18-5-20-9-10-15s9-12-7-24c-11-8-15-15-10-14 25 3 27-2 7-20-12-10-18-21-14-25s-2-15-13-23c-16-13-17-15-2-10 21 8 23-11 1-20-12-4-13-7-3-14 11-6 10-9-3-14-9-4-15-12-12-20 5-12-24-30-34-20-9 9 37 198 59 240 36 70 66 103 94 103 14 0 25-4 25-9zm-765-99c5-21 3-26-14-27-26-2-54 37-45 63 4 10 14 27 23 38 15 17 16 17 23-15 4-19 10-45 13-59zm1345 78c0 8 9 12 22 10 44-6 42-118-2-118-19 0-21 4-14 32 6 28 5 31-8 20-13-10-16-9-20 10-2 13-2 32 0 42 3 15 6 16 13 5s9-11 9-1zm-1480-32c0-19-5-38-10-41-7-4-7-12 0-25 15-27 12-32-9-20-14 7-22 7-27-1-10-17-25 12-18 36 9 30 44 85 55 85 5 0 9-15 9-34zm996 25c-4-5-1-11 6-13 19-7-1-28-27-28-13 0-27-4-30-10-4-6 5-10 20-10s24-4 20-10c-3-5-15-10-26-10-10 0-19-4-19-9s-15-19-32-31c-18-12-25-19-15-16 9 3 17 1 17-4s-11-12-25-16c-19-5-23-9-15-19 8-9 6-14-6-19-42-16-44-6-13 57 35 69 71 116 103 134 25 15 50 17 42 4zm614-23c0-39-35-102-51-92-7 4-9 25-6 56 7 59 12 68 38 68 15 0 19-7 19-32zm-1392-23c-36-51-58-58-58-18 0 35 27 63 61 63h29zm302 30c-7-8-21-15-32-15-17 0-18 3-8 15 7 8 21 15 32 15 17 0 18-3 8-15zm-90-22c0-10-92-55-98-48-12 12 43 55 70 55 15 0 28-3 28-7zm40-34c0-12-37-12-45 0-3 5 3 11 12 13 21 5 33 0 33-13zm-170 4c0-5-19-16-42-25-23-10-39-21-36-24 4-3 21 2 38 11 44 23 36-3-9-29-25-14-35-16-44-7-16 16 1 42 44 63 37 20 49 22 49 11zm1367-5c19-31-12-98-45-98-11 0-13 9-7 48 4 26 9 50 12 55 7 11 31 8 40-5zm-1569-48c3-9-1-11-13-6-15 5-16 4-5-9 10-12 10-15-3-15-21 0-54 31-62 57l-6 23 42-18c24-10 45-24 47-32zm1082 44c0-12-42-64-51-64-17 0-10 58 9 63 27 7 42 8 42 1zm-731-48c-2-2-38-7-79-11l-75-7 19 21c15 16 27 20 48 16 15-4 35-2 45 4 13 7 22 6 32-4 8-8 13-16 10-19zm639-35c14-17 15-79 2-136-7-29-24-54-63-90-30-28-62-67-72-88-9-20-21-37-26-37-27 0 14 94 58 131 62 53 93 102 93 145 0 64-6 74-40 64-82-23-127-78-129-154-1-29-9-61-19-75l-17-26-3 24c-4 28 16 132 32 172 11 25 64 77 100 96 22 12 62 0 84-26zm192 4c-19-23 4-18 25 5 29 32 38 24 32-29-9-76-34-152-70-211-26-43-44-60-92-84-32-17-65-38-72-46-11-13-12-12-13 5 0 14 16 30 50 50 64 37 120 122 143 218 8 30-10 39-19 10-18-56-30-77-65-113-21-22-61-51-89-65-29-15-59-39-68-56-17-29-32-38-32-19 0 29 35 71 82 98 29 17 63 39 74 49 32 26 73 98 71 122-2 29-17 27-17-2 0-23-63-107-81-107-15 0-10 36 6 50 8 7 15 18 15 24s9 17 20 24c12 7 18 17 15 22s8 16 25 25c23 12 29 21 25 35s0 19 17 22c27 4 34-7 18-27zm-1266 12c18-13 18-14 2-20-20-8-96 2-96 13 0 23 65 28 94 7zm1584-27c1-15-8-37-22-55-22-27-25-28-32-12-11 29 14 99 34 95 10-2 18-14 20-28zm-1168 1c5-11 10-22 10-25 0-12-42-6-72 10-24 12-28 18-17 25 25 16 68 10 79-10zm-122-3c35-35-18-62-63-32-25 17-26 19-9 31 22 16 56 17 72 1zm1370-10c20-20 14-37-36-88-47-48-82-64-82-37 1 16 25 47 37 47 5 0 19 20 31 45 23 47 31 52 50 33zm-1609-7c16-10-89-44-111-36-9 4-14-2-14-15 0-17 5-20 28-15 15 4 28 3 28-2 0-15-23-33-41-33-10 0-21-5-24-10-4-7 2-9 19-4 14 3 26 3 26-1 0-14-24-51-42-63-10-7-18-20-18-29 0-13 3-13 15-3 9 7 31 13 50 14 29 1 35-3 35-19 1-20 1-20 16 0 13 17 16 18 24 5 5-8 10-18 11-22 1-5 2-11 3-15 0-5 11-22 24-40 12-17 22-36 22-41s12-17 26-27l26-17-26 45c-14 24-26 53-26 65 0 11-4 24-10 27-5 3-10 16-10 29 0 24 21 76 32 76 3 0 9-34 13-74 5-52 13-80 25-91 16-15 17-14 12 11-3 19-1 25 7 20 17-11 13 2-11 34-17 23-19 33-10 42s21 4 52-21c23-18 44-31 47-28s-4 26-16 50c-24 50-25 57-8 57 14 0 57-71 57-94 0-9 14-28 30-43 17-14 30-30 30-35 0-11-37-10-61 2-10 6-19 7-19 3 1-36 69-47 117-18 18 11 33 24 33 29s-7 3-15-4c-8-6-23-9-34-5-24 7-54 52-47 71 3 8 1 14-5 14-5 0-17 16-25 35-14 35-12 55 6 55 15 0 44-51 46-79 0-14 6-27 12-29 18-6 15 43-3 58-8 7-15 19-15 27s-13 28-30 45c-16 16-30 31-30 34 0 2 14 4 31 4 38 0 69-33 86-92 10-34 12-36 8-9-3 18-5 46-5 61 0 18-8 31-25 40-31 17-32 26-2 34 16 4 27-1 39-17 9-12 13-23 8-25s-3-20 6-40c8-20 13-41 11-46-3-6-1-49 3-96 5-59 4-87-3-92-6-4-9-10-5-13 3-3 12 0 19 8 9 8 28 12 51 9 37-4 44-22 9-22-10 0-31-10-46-21-15-13-40-22-57-21-40 1-23-14 24-21 28-4 40-1 55 15 34 38 54 43 206 53 70 5 88 3 85-7-3-9-26-13-69-13-35-1-73-6-85-12-15-9-24-9-32-1-7 7-14 3-23-13-7-13-12-26-11-29s-13-6-31-6c-17-1-45-7-60-13-16-6-40-11-55-12l-27-1 30-9c20-6 43-4 72 6 24 8 54 15 68 15 13 0 30 7 39 15 20 20 38 19 65-4s15-33-26-22c-31 9-68-3-58-19 8-12-35-24-47-12-11 11-58 4-58-9 0-5 12-9 26-9 31 0 60-25 42-36-6-4-14-2-16 4-2 7-20 12-40 11-20 0-31-3-24-6 39-15-24-38-97-33-29 1-41-2-37-9 4-6 20-8 36-4 19 3 30 1 30-6 0-12-67-15-95-5-13 5-14 9-3 15 11 7 10 11-2 19-13 8-12 10 3 10 9 0 17 5 17 10 0 6-10 10-22 10-13 0-36 11-52 25-26 23-46 32-46 21 0-18 15-36 29-36 10 0 26-7 37-15 18-14 18-14-9-15-25 0-26-2-15-20 7-11 18-20 23-20 6 0 20-6 30-14 18-13 12-14-53-11-41 2-80 9-90 16-16 13-16 12-2-5 8-10 35-27 59-38 24-10 42-21 39-24-10-9-191 77-238 114-114 90-157 213-136 387 11 94 24 134 52 152 22 14 27 14 35 2 7-12 12-11 36 3 31 19 51 22 72 9zm120-114c6-6 11-20 11-31 0-18-1-18-19-2-20 18-37 108-24 129 4 7 10-8 15-37 4-27 12-54 17-59zm69 12c-3-10-68 32-68 44 0 5 5 5 10 2 6-3 10 4 10 16 0 18 4 16 25-16 14-20 25-41 23-46zm-168 54c0-10-62-73-72-73-17 0-7 28 18 54 25 24 54 35 54 19zm27-37c-22-43-37-50-37-19 0 17 38 63 51 63 5 0-2-20-14-44zm913 37c0-15-75-114-78-104-6 18 32 100 48 105 25 6 30 6 30-1zm720-82c0-33-45-80-60-65-16 16 26 105 45 98 8-4 15-18 15-33zm-1680 2c0-16-16-30-48-42-44-18-49-9-12 23 30 25 60 34 60 19zm746-18c-26-19-42-19-26 0 7 8 20 15 29 15 13-1 13-3-3-15zm-289-12c-9-9-19-14-23-11-10 10 6 28 24 28 15 0 15-1-1-17zm313-2c0-15-51-51-72-51-26 0-18 24 10 28 11 2 26 10 32 18 14 16 30 19 30 5zm-20-59c0-5-3-12-7-16-12-12-31-76-22-76 5 0 9 5 9 10 0 6 7 10 15 10 22 0 18-17-7-35-21-14-23-14-29 2-4 12-8 13-13 5-4-7-18-12-30-12-19 0-22 4-19 24 5 26 28 42 38 26 3-5-3-13-12-19-17-10-16-10 3-11 17 0 44 33 44 54 0 5-43-1-64-10-14-5-17-3-14 12 2 12 12 19 28 20 14 0 34 5 45 12 24 14 35 15 35 4zm-285-12c-3-5-11-10-16-10-6 0-7 5-4 10 3 6 11 10 16 10 6 0 7-4 4-10zm159-79c3-5-15-16-41-25-56-19-54-19-47-1 4 8 17 15 29 15 13 0 27 5 30 10 8 12 22 13 29 1zm136-35c0-3-4-8-10-11-5-3-10-1-10 4 0 6 5 11 10 11 6 0 10-2 10-4zm599-57c1-5-44-29-54-29-13 0-2 27 18 46 19 18 23 19 29 5 4-9 7-19 7-22zm-417 7c7-12 4-18-13-24-20-8-21-9-4-16 12-4 22 0 32 14 17 23 43 27 43 5 0-8-4-15-10-15-5 0-10-5-10-11 0-8 16-10 50-5 29 4 50 3 50-3 0-15-25-20-69-14-29 4-41 2-41-7 0-8 8-10 25-6 18 5 25 2 25-9 0-8-7-15-16-15-19 0-74 31-74 42 0 19-28 6-38-17-16-34-15-40 3-25 19 16 21 14 29-33 6-33 3-41-23-67-16-17-36-30-44-30s-22-10-33-21c-24-27-107-64-112-50-2 6-17 8-35 5l-32-6 30 26 30 25-35-9c-48-14-55-13-39 7 12 15 12 16-3 10-35-13-18 22 23 50 23 15 49 42 58 59 22 40 78 94 98 94 9 0 14 3 10 6-20 20-112-52-122-96-4-19-19-36-42-50-50-30-61-20-24 22 17 20 31 46 31 59 1 28 24 58 60 77 14 7 40 21 58 31 42 24 150 22 164-3zm-282-11c-13-16-70-21-70-6 0 12 19 19 54 20 24 1 27-1 16-14zm690-28c0-8-11-19-25-25-31-14-33 1-3 22 27 19 28 19 28 3zm-75-36c-3-6-20-18-37-27-40-21-34 3 8 27 31 17 40 17 29 0zm-695-30c0-11-69-36-77-28-6 6 46 36 65 37 6 0 12-4 12-9zm614 0c3-5-5-12-18-15s-32-9-41-13c-13-4-16-2-13 8 2 7 15 16 29 20 35 10 37 10 43 0zm-94-21c-20-13-53-13-45 0 3 6 18 10 33 10 21 0 24-2 12-10zm174-9c-5-5-19-12-31-16-33-9-28 11 5 23 29 10 41 7 26-7zm-249-1c4-6-5-10-20-10s-24 4-20 10c3 6 12 10 20 10s17-4 20-10zm-485-10c0-5-5-10-11-10-5 0-7 5-4 10 3 6 8 10 11 10 2 0 4-4 4-10zm650 1c0-9-41-23-48-16-2 2-1 8 3 14 8 13 45 15 45 2zm-80-11c0-5-9-10-21-10-11 0-17 5-14 10 3 6 13 10 21 10s14-4 14-10zm-655-20c4-6 15-8 25-5s21 2 24-4c7-10-111-27-121-17-9 9 28 35 49 36 9 0 20-5 23-10zm-80-61c5-5-1-9-17-9-41 0-88 12-88 22 0 11 91 0 105-13zm75 6c17-20 8-27-24-19-26 6-32 15-19 27 11 12 30 8 43-8zm50 5c0-5-7-10-15-10s-15 5-15 10c0 6 7 10 15 10s15-4 15-10zm-250-20c11-7 7-10-17-10-17 0-35 5-38 10-8 13 35 13 55 0zm95-20c-3-5-15-10-26-10-10 0-19 5-19 10 0 6 12 10 26 10s23-4 19-10zm55 0c0-5-4-10-10-10-5 0-10 5-10 10 0 6 5 10 10 10 6 0 10-4 10-10zm200-76c-17-20-28-39-25-43 4-3 18 8 31 24 18 23 24 26 24 13 0-26-36-58-64-58-20 0-23 4-19 23 7 28 52 77 71 77 9 0 2-13-18-36zm-134 6c33 0 34-1 34-43 0-41 4-46 130-172 72-71 130-137 130-146 0-12-12-18-47-22-41-5-52-2-73 18-50 46-88 58-163 51-68-6-70-6-107 26-21 18-50 41-64 51s-38 41-52 69l-26 51 39 39c41 42 130 90 151 83 8-3 29-5 48-5zm-242-11c24 4 17-18-15-42-28-20-109-36-109-20 0 15 82 73 94 65 6-3 19-5 30-3zm427-59c29-16 24-33-8-25-34 8-37 11-28 24 8 14 11 14 36 1zm-1-61c0-12-27-11-35 1-11 17 5 32 21 19 8-6 14-15 14-20zm-477-13c6-16-2-28-14-20-12 7-11 34 0 34 5 0 11-6 14-14zm527-44c-27-4-32 0-24 22 6 16 8 16 26-1 20-18 20-18-2-21zm-490-17c0-8-4-15-10-15-5 0-10 7-10 15s5 15 10 15c6 0 10-7 10-15zm550-36c0-5-7-9-15-9-9 0-15 9-15 21 0 18 2 19 15 9 8-7 15-16 15-21zm-507-9c3-11 2-20-3-20-12 0-31 26-23 33 11 12 21 7 26-13zm557-41c0-5-4-9-10-9-5 0-10 7-10 16 0 8 5 12 10 9 6-3 10-10 10-16zm-517-20c3-13 1-19-6-16-15 5-22 37-9 37 5 0 12-9 15-21zm625-21c19-19 14-33-5-16-10 9-24 13-30 11-19-7-16-30 4-42 21-11 11-26-11-18-22 9-32 57-15 68 20 12 43 11 57-3zm177-8c3-5 1-10-4-10-6 0-11 5-11 10 0 6 2 10 4 10 3 0 8-4 11-10zm45 0c0-5-5-10-11-10-5 0-7 5-4 10 3 6 8 10 11 10 2 0 4-4 4-10zm-780-21c14-26 6-36-15-19-13 11-20 9-40-10-22-20-25-21-25-6 0 19 37 55 57 56 7 0 17-9 23-21zm680 11c0-5-2-10-4-10-3 0-8 5-11 10-3 6-1 10 4 10 6 0 11-4 11-10zm-560-15c0-8-4-15-10-15-5 0-10 7-10 15s5 15 10 15c6 0 10-7 10-15zm-42-13c2-7-3-12-12-12s-16 7-16 16c0 17 22 14 28-4zm92 8c0-5-4-10-10-10-5 0-10 5-10 10 0 6 5 10 10 10 6 0 10-4 10-10zm50-16c0-8-4-14-10-14-5 0-10 9-10 21 0 11 5 17 10 14 6-3 10-13 10-21zm500 6c0-5-4-10-10-10-5 0-10 5-10 10 0 6 5 10 10 10 6 0 10-4 10-10zm50 0c0-5-2-10-4-10-3 0-8 5-11 10-3 6-1 10 4 10 6 0 11-4 11-10zm85-25c24-24 32-45 18-45-5 0-21 16-36 35-32 40-19 47 18 10zm-1094-5c13-10 19-19 13-20-7 0-22 9-35 20-13 10-19 19-13 20 7 0 22-9 35-20zm704 10c3-5 2-10-4-10-5 0-13 5-16 10-3 6-2 10 4 10 5 0 13-4 16-10zm-36-13c6-8 8-17 4-20-7-8-33 11-33 24s16 11 29-4zm-438-7c5 0 9-5 9-11 0-15-43-7-48 10-3 10 0 12 12 8 10-4 22-7 27-7zm345-17c-7-7-26 7-26 19 0 6 6 6 15-2 9-7 13-15 11-17zm392 15c17-17 15-28-6-28-24 0-32 8-25 26 6 17 15 18 31 2zm83-9c16-11 29-28 29-36 0-14-3-13-21 3-11 10-28 19-37 19s-18 8-20 18c-5 23 13 22 49-4zm-973-5c18-8 32-20 32-25 0-14-16-11-29 5-7 8-21 12-31 9-14-4-20 0-20 11 0 20 9 20 48 0zm282 12c0-3-4-8-10-11-5-3-10-1-10 4 0 6 5 11 10 11 6 0 10-2 10-4zm145-5c3-5 1-12-5-16-5-3-10 1-10 9 0 18 6 21 15 7zm115-7c0-8-4-12-10-9-5 3-10 10-10 16 0 5 5 9 10 9 6 0 10-7 10-16zm228-2c2-7-3-12-12-12s-16 7-16 16c0 17 22 14 28-4zm62 8c12-8 11-10-7-10-13 0-23 5-23 10 0 13 11 13 30 0zm-766-16c4-9 4-19 2-21-8-8-26 8-26 23 0 19 16 18 24-2zm111-13c3-5 1-12-5-16-5-3-10 1-10 9 0 18 6 21 15 7zm30-11c3-5 1-10-4-10-6 0-11 5-11 10 0 6 2 10 4 10 3 0 8-4 11-10z"/><path d="m5980 2414c0-8 5-12 10-9 6 4 8 11 5 16-9 14-15 11-15-7z"/><path d="m6284 2295c-7-18 3-35 21-35s26 15 19 34c-8 20-33 21-40 1z"/><path d="m5952 2301c-18-11-11-45 9-49 19-3 31 21 23 43-7 17-13 18-32 6z"/><path d="m6310 2080c0-5 5-10 11-10 5 0 7 5 4 10-3 6-8 10-11 10-2 0-4-4-4-10z"/><path d="m4835 1920c-3-5-2-10 4-10 5 0 13 5 16 10 3 6 2 10-4 10-5 0-13-4-16-10z"/><path d="m6400 1742c0-18 22-62 32-62 16 0 8 37-12 55-11 10-20 13-20 7z"/><path d="m5577 1679c-35-29-49-59-27-59 6 0 10 4 10 8s16 24 36 45c44 45 33 49-19 6z"/><path d="m5672 1645c-23-22-31-35-22-35s30 16 49 35c42 45 22 46-27 0z"/><path d="m5105 1617c-13-10-15-16-6-21 6-4 9-12 6-17-9-14 9-11 31 6 18 13 18 14-5 8-21-5-22-4-12 16 14 25 11 26-14 8z"/><path d="m6065 1510c-3-5-1-10 4-10 6 0 11 5 11 10 0 6-2 10-4 10-3 0-8-4-11-10z"/><path d="m6153 1305c-3-9-3-18-1-21 3-3 8 4 11 16 6 23-1 27-10 5z"/><path d="m6130 1200c-1-8-3-29-4-47-1-29 0-31 17-16 9 9 17 28 17 42 0 19-3 22-9 12-7-11-10-10-14 5-3 13-5 14-7 4z"/><path d="m6000 975c-21-12-22-15-7-21 17-6 47 11 47 27 0 12-9 10-40-6z"/><path d="m5355 1550c-3-5-2-10 4-10 5 0 13 5 16 10 3 6 2 10-4 10-5 0-13-4-16-10z"/><path d="m5290 1365c-8-9-8-15-2-15 12 0 26 19 19 26-2 2-10-2-17-11z"/><path d="m4840 1461c0-5 7-15 17-22 15-13 15-12 4 9-12 23-21 28-21 13z"/><path d="m5010 1320c0-5 9-10 20-10s20 5 20 10c0 6-9 10-20 10s-20-4-20-10z"/><path d="m4660 1240c0-5 5-10 10-10 6 0 10 5 10 10 0 6-4 10-10 10-5 0-10-4-10-10z"/><path d="m4967 1050c3-11 9-23 14-26s6 3 2 12c-5 14-2 16 15 12 15-4 22-2 22 8 0 9-11 14-29 14-24 0-28-3-24-20z"/><path d="m4684 1045c-7-16 2-35 17-35 5 0 9 7 9 15 0 19 14 19 34-1 9-8 16-11 16-5 0 12-40 41-58 41-7 0-15-7-18-15z"/><path d="m4790 1050c0-17 41-88 53-93 7-2 1 20-13 49-23 49-40 68-40 44z"/><path d="m4770 969c0-16 7-30 16-33 24-9 24-5 3 29l-19 30z"/><path d="m4950 958c0-7 15-18 33-23 21-7 32-16 31-27s5-18 17-18c10 0 22-7 27-16s15-15 22-12c20 6-59 94-82 90-11-2-26 2-34 8-11 10-14 9-14-2z"/><path d="m5057 953c-7-6 45-33 64-33 5 0 4 9-3 20-12 19-48 27-61 13z"/><path d="m4746 925c-3-8-12-15-21-15-21 0-19-19 3-27 27-10 52-35 52-52 0-9 16-26 35-39 38-24 45-20 18 10-9 10-11 18-6 18 6 0 16-7 23-15s20-15 29-15c10 0 28-12 42-26l24-26-60 14 23-17c16-11 32-14 53-10 31 7 31 7 9 19-13 6-22 15-21 20s-12 15-30 23c-36 15-69 45-69 64 0 11-79 88-91 89-4 0-9-7-13-15zm66-52c37-33 10-46-29-14-13 11-23 22-23 25 0 12 34 5 52-11z"/><path d="m4880 902c0-5 12-14 27-21 28-13 28-13 9 8-20 22-36 27-36 13z"/><path d="m4959 889c14-5 32-15 40-22 9-6 8-2-3 11-11 12-29 22-40 21-19 0-19-1 3-10z"/><path d="m5060 836c0-3 11-13 25-22 19-12 36-14 75-9 65 9 64 20-2 21-29 0-63 4-75 8-13 5-23 6-23 2z"/><path d="m5670 855c-6-8-10-20-8-26s12 0 21 15c18 27 8 37-13 11z"/><path d="m5579 817c-33-39-69-97-69-113 0-14 29 19 36 39 7 26 33 57 46 57 5 0 6-9 3-20-11-34 5-22 21 15 15 38 18 65 7 65-5-1-24-20-44-43z"/><path d="m5631 778c-23-39-47-54-54-35-2 6-12-1-22-16-29-44-5-56 36-18 17 17 38 31 45 31s19 10 25 23c7 12 17 26 23 30 7 6 5 7-6 4-9-3-19-1-21 6s-14-4-26-25z"/><path d="m5623 697c-18-7-38-18-45-25-11-11-8-12 17-6 40 9 65 23 65 34 0 6-1 10-2 9-2 0-17-6-35-12z"/><path d="m4993 563c-18-7-16-23 2-23 8 0 15 7 15 15s-1 15-2 14c-2 0-9-3-15-6z"/><path d="m734 2549-29-30-8 26c-8 23-13 25-67 25-56 0-59-1-79-36l-22-36-32 36c-31 35-33 36-87 30-52-6-58-9-78-44-21-37-21-39-4-91l17-53 60-11c41-7 61-15 63-26 1-9-14-45-34-80-74-130-114-228-107-262 4-18 13-37 20-42 12-9 11-19-7-65-12-30-28-63-37-72-19-21-8-41 18-33 27 9 24-5-16-86-32-65-33-71-14-66 33 9 32-14-7-114-40-102-62-206-71-340-5-77-2-96 22-168 14-44 30-83 35-86s24-33 43-68c19-34 58-84 86-110 29-27 67-72 86-100 59-90 96-141 121-168 46-48 57-142 27-216-20-47-25-50-43-28-25 30-74 18-141-36-35-28-75-64-88-80l-23-30 43 3c35 2 44 7 43 20-2 25 12 23 19-2 5-19 14-20 126-20 117 0 121 1 111 19-17 34-13 41 20 30 34-12 38-23 13-38-13-7 21-10 119-11 99 0 138 3 142 13 5 9 7 9 12 0 10-22 33-15 27 8-4 16-2 20 8 17 8-3 13-12 11-22-3-14 17-16 202-16 201 0 204 0 199 21-3 11-16 27-29 36-13 8-24 24-24 34 0 11-2 19-4 19-23 0-112 23-123 31-25 21-13 239 13 239 8 0 14 11 14 25s5 25 10 25c6 0 10 5 10 11 0 12 40 48 53 49 16 0 93 39 126 64 37 28 135 172 152 226 7 19 21 52 32 73 16 32 20 58 20 155 0 178-55 380-117 432-9 7-16 19-16 26 0 8-13 33-30 56-34 46-37 78-15 134 25 61 29 70 108 231 41 83 85 184 98 223 21 68 21 73 6 106-10 19-24 37-33 41-15 6-29 2-86-22-15-6-18-2-18 28 0 72-79 120-126 76l-22-21-17 36c-22 46-55 48-87 6-26-35-34-37-43-10-9 29-56 26-94-6-24-20-39-25-64-21-39 5-102-31-110-65-7-27-17-198-22-348-3-138-11-167-42-175-44-11-110 5-121 28-22 46-23 60-6 53 9-4 23-1 31 5 7 7 16 9 20 5 12-11 43 27 54 66 9 36 8 44-20 87-17 26-31 53-31 59 0 5-5 12-11 14-11 4 59 56 95 71 18 7 17 10-10 38-16 17-48 42-71 57-51 32-56 64-18 119l24 37-21 35c-12 19-21 45-20 57 1 20-3 22-42 22-36 0-49-5-72-29zm-119-39c-10-11-20-18-23-15s3 14 13 25 20 18 23 15-3-14-13-25zm185 20c12-8 11-10-7-10-13 0-23 5-23 10 0 13 11 13 30 0zm-399-51c-17-17-31-27-31-22 0 12 51 65 57 59 3-2-9-19-26-37zm274 20c-7-11-35-12-35-1 0 4 9 8 20 9s18-2 15-8zm143-7c6-18-15-14-22 4-4 10-1 14 6 12 6-2 14-10 16-16zm-328 4c0-3-4-8-10-11-5-3-10-1-10 4 0 6 5 11 10 11 6 0 10-2 10-4zm140-16c0-5-4-10-10-10-5 0-10 5-10 10 0 6 5 10 10 10 6 0 10-4 10-10zm160 0c0-5-18-18-40-29-22-10-40-15-40-10s7 12 16 16c13 5 13 8 2 15-9 7-7 8 7 4 11-3 27-1 35 4 19 12 20 12 20 0zm-284-27c-10-10-19 5-10 18 6 11 8 11 12 0 2-7 1-15-2-18zm102-10c14-11 13-13-7-13-12 0-20 4-17 9 4 5 1 11-6 13-7 3-8 9-3 18 7 12 9 12 13 0 2-8 11-21 20-27zm-161 21c-3-3-12-4-19-1-8 3-5 6 6 6 11 1 17-2 13-5zm233-5c0-5-12-9-26-9s-23 4-20 8c7 11 46 12 46 1zm150 7c0-3-4-8-10-11-5-3-10-1-10 4 0 6 5 11 10 11 6 0 10-2 10-4zm-30-16c0-5-4-10-10-10-5 0-10 5-10 10 0 6 5 10 10 10 6 0 10-4 10-10zm-380-25c-7-8-17-15-23-15-5 0-2 9 8 20 21 23 35 19 15-5zm40 15c0-5-5-10-11-10-5 0-7 5-4 10 3 6 8 10 11 10 2 0 4-4 4-10zm17-12c-3-8-6-5-6 6-1 11 2 17 5 13 3-3 4-12 1-19zm49-5c-10-10-19 5-10 18 6 11 8 11 12 0 2-7 1-15-2-18zm274-5c7-2 10-7 5-10-15-9-57 10-50 22 4 7 11 7 18 2s19-11 27-14zm578-8c11-18 10-20-15-21-22-1-23-2-8-6 19-5 35-20 35-35 0-5-15-9-32-9l-33-2 35-6 35-7-35-8-35-9 70-14-38-2c-21 0-36-5-32-11 3-5 12-7 19-4 8 3 17 1 21-5 4-7-4-11-19-11-17 0-26-6-26-15 0-12 7-14 26-9s25 4 20-5c-4-6-15-11-24-12-11 0-12-3-4-6 17-7 15-23-3-23-8 0-15-4-15-10 0-5 9-10 21-10 27 0 14-20-14-21-21 0-21-1 3-11l25-10-25-10-25-11 25-7 25-8-22-7c-27-9-30-25-5-26 15-1 15-2-1-6-10-3-16-10-14-17 3-7 1-19-3-27-6-8-4-16 3-21 8-5 8-11 2-15-5-5-10-15-10-23s5-18 10-22c6-5 5-8-3-8-7 0-10-4-7-10 3-5 2-10-2-10-5 0-9-23-8-50 0-28-4-50-8-50-5 0-7-6-4-12 2-7 0-23-4-35-6-16-5-23 4-24 9 0 9-2 0-6-7-2-13-15-13-28s6-26 13-28c7-3 5-6-5-6-20-1-25-21-5-22 8 0 8-2-2-6s-11-7-1-13c9-6 6-15-14-36-18-20-26-24-27-14-2 19-3 4 15 215 9 99 18 212 20 250 16 244 31 337 61 369 29 31 36 32 53 6zm-818 0c0-5-2-10-4-10s-12-3-22-7c-16-6-17-5-4 10 17 19 30 22 30 7zm679-50c0-47-3-60-14-60-8 0-15-4-15-10 0-5 8-10 18-10 14 0 15-2 2-9-8-6-18-7-22-5-4 3-8 0-8-5 0-6 9-11 20-11 31 0 24-20-7-21-24-2-25-2-5-6 12-2 22-9 22-14s-10-10-22-10l-23-2 23-4c28-6 29-21 0-25-33-5-35-28-1-29 24 0 25-2 8-8-11-5-23-7-27-4-5 2-8-1-8-6 0-6 10-11 23-12 21-1 21-1-3-9-17-5-19-8-7-9 9-1 17-5 17-11 0-5-8-10-17-11-12-1-10-4 7-9l25-8-25-1-25-2 25-14c25-14 25-14 3-15-13 0-23-4-23-10 0-5 10-10 23-10 22-1 22-1-3-14l-24-14 24-4 25-5-25-11c-18-8-20-11-7-11 25-1 21-19-5-24l-23-4 24-8 25-8-25-10-24-10 25-7 25-8-50-16 50-14-50-4 25-8 25-7-25-11c-22-9-23-11-5-12 11-1 14-4 8-7-7-2-13-9-13-14 0-6 5-7 10-4 6 3 10 1 10-4 0-6-8-11-17-11-15 0-14-2 3-15 19-14 19-14-1-15-17 0-17-2-5-10 13-9 13-11 0-20-12-8-12-10 5-10 20-1 20-1 1-15-11-8-14-15-8-15 19 0 14-20-5-20-17-1-17-1 0-14s17-14 0-20c-14-6-15-9-4-15 9-6 10-11 2-15-6-4-15-4-21-1-12 7-2 645 11 700 17 68 58 155 74 155 2 0 3-27 4-60zm276 30c18-19 17-20-6-21h-24l23-11c24-12 31-34 7-24-8 3-15 1-15-4s9-12 20-15c29-9 25-28-5-21-14 4-25 2-25-3s11-12 25-15c36-9 31-27-5-19-19 3-30 1-30-6 0-6 11-11 25-11s25-5 25-11c0-8-12-10-35-6-44 7-45 1-2-17l32-14-35-2-35-1 30-14 30-13-35-2-35-1 30-14c31-14 27-19-14-15-14 1-21-2-17-9 4-6 14-11 22-11s14-7 14-16c0-12-6-15-25-10-34 9-32-7 3-21l27-11-33-1c-35-1-36-21-1-21 10 0 19-5 19-11 0-7-12-8-32-4l-33 6 33-15c40-19 41-30 2-24-36 5-40-7-5-16 14-4 23-11 20-16-4-6-15-6-30 0-29 11-32 3-7-17 16-14 16-14 0-9-22 7-24-10-3-18 23-8 18-26-7-27-17 0-19-2-8-7 8-4 16-15 16-25 2-14-3-16-20-11-21 6-21 6-1-10 19-15 19-15 1-16-19 0-19 0 0-22 17-19 17-21 2-15-10 4-18 4-18 0 0-3 8-12 18-20 16-13 15-14-5-10-23 5-31-7-13-18 6-4 5-12-4-21-9-8-20-42-27-75-6-32-16-62-20-65-28-17 6 269 68 581 19 94 37 184 40 200 6 33 30 65 48 65 7 0 20-9 30-20zm-769-11c41-25 48-61 22-105-25-42-32-43-24-3 16 82-75 132-130 72-50-54-9-154 59-145 17 2 38 9 45 15 24 19 23-1-3-38-22-33-24-45-19-86 7-54-1-103-16-94-6 3-10 21-11 38v32l-22-42c-21-43-41-54-50-30-3 6-6 0-6-14-1-37-31-72-54-64-22 9-23 68-1 86 24 20 66 89 61 102-2 6-13-5-25-24-44-68-52-76-62-59-17 27-11 79 11 101 12 12 15 19 8 17s-27-24-45-49c-17-24-35-44-40-44s-14-4-20-8c-33-20-14 64 19 92 10 7 17 22 17 33 0 49 78 164 138 204 55 36 104 40 148 13zm364-41c-24-20-24-20-2-14 30 10 28 0-5-19-23-13-24-15-5-10 12 4 22 3 22 0 0-4-10-15-22-25l-23-19 50 10-25-15c-14-8-19-15-11-16 11 0 11-3 0-17-12-15-12-16 4-10 9 3 17 2 17-3s-9-12-20-15-20-11-20-16c0-6 8-6 20 1 11 6 20 7 20 2s-10-14-22-20l-23-11 25-1c24-1 24-1 6-15-17-13-18-15-3-15 9 0 17-4 17-10 0-5-6-10-14-10s-18-4-21-10 1-7 9-4c21 8 20-5-1-23-16-13-16-14 7-8l25 6-25-21c-17-15-19-20-7-16 9 3 17 3 17-1 0-3-8-12-17-19-17-13-17-13 2-14 20-1 20-1 1-15-20-15-20-15 0-15 18-1 18-1 2-14-22-16-23-27-3-20 8 4 15 1 15-5s-8-12-17-12c-17-1-17-2 0-6 9-2 17-9 17-14s-8-9-17-10c-17 0-17-1-1-12 15-10 15-12 0-24-16-11-16-12 2-13 16 0 16-2 5-16-10-13-10-17 2-25 8-5 9-9 4-9-13 0-14-158-2-177 5-8 3-13-6-13-11 0-17 24-26 93-17 136-29 296-25 347 1 25 5 95 8 155 8 158 11 168 51 178 37 9 40 6 15-15zm-418-25c22-20 23-46 2-64-15-12-16-10-9 20 6 30 5 32-17 29-17-2-22-8-20-25 2-13-2-23-7-23-15 0-14 53 1 68 16 16 28 15 50-5zm969-13c29-16 23-30-13-31-22-1-26-3-13-6 36-9 41-23 7-23-18 0-32-5-32-11 0-7 10-9 25-5 34 9 32-10-2-20l-28-7 30-7 30-8-30-1c-29-2-29-2-11-16 19-14 18-15-12-15-18 0-32-4-32-10 0-5 9-10 19-10 35 0 34-20-1-21-24-1-27-3-10-6 28-5 24-27-6-31-12-2-22-7-22-11 0-5 11-6 25-3 15 2 25 0 25-7 0-6-12-12-27-12-17-1-21-3-10-6 26-7 21-23-8-23-14 0-25-5-25-11s9-9 20-6c24 6 25 3 3-33-9-16-26-31-37-34-18-5-19-8-6-16s12-10-2-10c-10 0-18-4-18-10 0-5 5-10 11-10s2-12-9-27c-10-16-29-59-42-98-31-96-59-159-67-152-5 6 23 103 92 317 19 58 41 134 50 170 21 83 56 191 68 208 11 15 32 15 58 2zm-854-162c-3-8-6-5-6 6-1 11 2 17 5 13 3-3 4-12 1-19zm-17-30c0-3-9-6-20-5s-20 5-20 9c0 3 9 6 20 5s20-5 20-9zm40 2c0-5-4-10-10-10-5 0-10 5-10 10 0 6 5 10 10 10 6 0 10-4 10-10zm-20-31c0-11-28-19-45-13-25 10-17 21 15 21 17 0 30-4 30-8zm40-3c0-7-7-19-15-26-16-13-20-3-9 24 8 20 24 21 24 2zm-391-73c-19-30-24-34-27-20-4 18 36 72 46 62 2-2-6-21-19-42zm321 21c0-8 5-14 10-14 6 0 10-8 10-17 0-15 2-14 14 3 14 18 15 17 14-13-1-28-3-31-20-22-11 6-22 18-25 27-4 9-13 22-21 28s-12 16-8 23c9 14 26 5 26-15zm30 10c0-8-5-12-10-9-6 4-8 11-5 16 9 14 15 11 15-7zm56 0c-3-9-6-30-6-46 0-17-2-29-4-27-9 8-17 70-11 80 10 15 28 10 21-7zm-363-100c7-37-34-107-57-98-8 3-17 1-21-5-11-18-22-12-35 19-11 26-9 33 10 61 25 35 81 72 91 61 3-4 9-21 12-38zm139-1c-2-21-6-45-8-53-4-13-6-13-14 0-15 23-12 51 7 72 9 10 17 18 18 18 0 0-1-17-3-37zm83-41c-3-12-10-20-15-17-11 7-13 68-3 79 11 11 25-36 18-62zm-52 37c7-25-2-51-14-43-12 7-12 64 0 64 5 0 11-9 14-21zm-103-89c-31-40-52-52-47-27 2 6-1 2-7-10-13-30-26-29-26 0 0 26 48 77 72 77 9 0 20 5 24 12 6 9 9 9 12 0 2-7-11-30-28-52zm-114-56c-5-17-3-23 4-19 21 13 8-11-29-54-38-44-61-48-61-12 0 22 35 69 45 59 4-3-1-19-11-35l-18-28 33 30c17 16 27 31 22 33-6 2-6 12 1 28 15 32 22 31 14-2zm304 18c0-4-15-13-32-20-66-24-103-66-149-171-24-55-47-101-50-101-14 0 14 99 45 163 19 37 28 63 19 56-23-20-58-98-73-164-10-43-15-53-18-36-6 37 18 139 39 166 11 13 19 28 19 34 0 14 62 52 110 67 42 14 90 17 90 6zm39-64c-27-26-62-76-88-125-23-46-46-83-52-83-5 0-9 2-9 4 0 11 55 125 72 151l21 30-31-29c-19-18-41-56-58-102-39-109-61-96-28 17 27 89 121 176 194 178 23 1 21-2-21-41zm43-21c-69-70-67-76 4-11 57 53 115 77 137 55 15-15 1-26-55-41-46-12-90-51-165-147-21-26-22-26-23-7-1 79 87 198 150 204 2 0-19-24-48-53zm71-69c-12-13-38-63-58-113-50-118-57-212-26-332 29-113 28-127-10-83-47 56-70 130-72 239-2 82 1 103 21 145 25 52 129 166 152 166 9 0 7-7-7-22zm-477-35c-8-16-26-38-39-50l-25-23-5 21c-4 15 0 23 14 26 10 3 19 13 19 23 0 16 12 24 43 29 4 0 1-11-7-26zm560-53c15-50 2-80-16-39-9 20-10 18-4-16 3-22 6-49 7-60 0-11 5-23 9-26 5-3 12-23 15-45 6-36 5-38-10-25-21 17-21 6-2-48 16-46 11-71-14-71-28 0-38 13-45 59-4 25-18 65-31 90-26 52-37 91-25 91 5 0 11-6 14-12 3-7 3 4 0 25-6 38 8 52 21 20 7-17 8-16 15 2 4 11 4 27 0 35s-4 24 0 35c6 17 8 16 18-10l10-30 1 38c1 51 20 44 37-13zm469 0c3-11 13-20 21-20 16 0 19-36 4-45-5-3-10-10-10-16 0-5 5-9 10-9 6 0 10 7 10 15 0 35 28 5 60-62 11-24 25-43 30-43 25 0 60-240 37-258-7-4-31-14-55-21-36-10-41-15-31-27 9-11 7-14-10-14-20 0-22 4-18 45 2 25 0 45-5 45-4 0-8-4-8-10 0-5-8-10-17-10-16-1-17-1-2-10 14-8 15-16 7-50-6-22-15-40-20-40s-7 4-3 9c3 6-4 15-15 21-19 10-19 9-8-17 6-15 27-49 45-75 18-27 30-54 27-63-4-11 0-15 17-15s20-3 11-12c-8-8-15-8-26 1-9 8-16 8-20 2s-13-8-21-4c-8 3-15 0-15-6s14-14 30-17c44-9 37-28-7-21-26 4-47 17-65 39l-28 32v-26c0-18 7-29 20-33 11-3 20-11 20-17 0-5 6-8 14-5s20-1 26-8c7-8 16-12 21-9s9-1 9-9c0-21-29-16-87 14-29 15-53 25-53 21 1-16 19-34 28-28 13 8 31-24 25-42-3-7 3-20 13-28 18-15 18-15-1-9-11 4-26 9-32 12-15 6-17-13-3-22 19-12 11-26-10-15-10 6-17 16-14 24s-4 16-16 19c-20 5-21 10-15 58 5 37 4 50-4 45-6-4-11-26-11-49 0-53-12-74-29-53-13 16-6 56 12 68 6 3 11 34 11 67 1 64 8 75 26 41 6-11 15-20 20-20 17 0 11 28-15 80-31 61-31 72-2 68 14-2 35-22 57-56 31-48 36-51 47-36 18 25 16 33-11 40-26 6-48 60-39 94 5 17 11 19 47 15 30-4 36-3 21 4-11 5-37 10-58 10-44 1-42 14 6 37 66 32 77 39 83 56 3 10 10 18 16 18s9 3 5 6c-3 3-22-6-42-21-43-34-54-27-32 20 23 47 21 53-5 28-13-12-34-21-48-20-14 0-34-2-45-6-49-17-16 133 35 165 11 7 20 23 20 35s5 25 10 28c6 3 10 12 10 18-1 17-40-32-40-49 0-8-4-14-9-14-17 0-4 61 18 84 11 12 18 25 14 29-8 9 26 47 43 47 7 0 16-9 19-20zm-435-6c0-8-4-12-10-9-5 3-10 10-10 16 0 5 5 9 10 9 6 0 10-7 10-16zm-319-84c-17-79-13-129 19-261 16-67 28-124 26-126-4-4-55 46-72 73-19 29-53 161-54 207 0 34 36 125 46 115 2-2-1-20-6-39-16-54-12-142 10-213 11-36 25-68 30-71 14-9 12 6-5 56-26 72-34 187-18 244 20 72 23 78 29 72 3-3 1-29-5-57zm424-36c-4-35-11-64-16-64s-16 12-25 26c-16 24-16 27 0 55 9 16 14 34 11 40-4 6 1 16 11 24 25 18 28 3 19-81zm63 45c-3-29-2-45 3-37 5 7 9 20 9 29 0 17 37 56 45 47 3-2 0-27-6-54s-13-66-16-87l-5-38-19 22c-18 21-23 34-20 52 0 4-3 7-9 7-5 0-12 16-16 35-5 27-2 41 11 55 10 11 20 20 23 20 2 0 2-23 0-51zm-748 27c0-7-7-19-15-26-12-10-15-9-15 7 0 11 3 23 7 26 11 12 23 8 23-7zm620-27c0-36-2-40-15-29s-15 7-15-24v-36l-21 21c-20 20-20 25-9 62 7 25 15 36 19 28 6-9 11-8 21 4 18 22 20 20 20-26zm245-11c-3-66 0-59-34-97-28-31-29-31-34-9-4 15 0 30 14 44 17 18 19 25 8 42-15 25-6 50 23 62 13 5 23 9 24 9 1 1 0-23-1-51zm-760-14c-20-65-20-214 0-261 20-46 12-55-13-14-40 66-37 243 5 308 23 34 25 23 8-33zm-165 29c-1-5-7-19-14-32l-13-24-5 26c-3 15-3 29 0 32 8 8 32 6 32-2zm204-55c-19-63-20-110-4-211 6-43 9-81 6-84-10-10-27 50-39 134-11 85-1 169 24 200 23 27 28 12 13-39zm-264-6c0-5-7-17-15-28-14-19-14-19-15 2 0 11 3 24 7 27 9 10 23 9 23-1zm71-29c-9-17-10-17-17 1-4 11-2 21 7 27 18 11 24-5 10-28zm47 2c-13-29-28-33-28-7 0 22 8 32 26 32 11 0 11-5 2-25zm456-48c10-35 11-47 3-45-18 6-48 73-41 92 9 24 21 9 38-47zm293-67c9-85-1-102-32-55-24 34-25 42-19 111l7 74 19-35c10-20 21-62 25-95zm-108 63c16-58 13-65-20-40-19 14-38 63-20 53 6-4 11 0 11 8 0 30 19 16 29-21zm243 15c-7-7-12-8-12-2s3 14 7 17c3 4 9 5 12 2 2-3-1-11-7-17zm-972 5c-1-5-7-19-14-32l-13-23-6 23c-3 12-4 26-1 31 6 10 34 11 34 1zm516-79c9-50 33-72 71-67 28 5 30 3 29-27-1-24-5-30-18-26-21 5-24-9-4-17 7-3 35-8 62-11 48-6 48-5 14 6-29 10-32 12-13 15 12 3 37-4 55-13l33-17-30-9c-16-4-41-5-55-1-14 3-29 5-33 4-4 0-19-2-32-3-30-3-30-2-3-28 17-15 18-20 6-20-9 0-20-6-26-13-8-10-2-12 31-9l42 3-24-21c-17-14-32-19-45-15-12 4-29 7-38 8-10 1-18 6-18 13 0 21 22 74 31 74 5 0 9 7 9 15s-4 15-10 15c-10 0-44 59-38 66 3 2 14-5 26-16 11-11 24-16 27-10 3 5-3 14-14 19-25 14-61 72-61 100 0 35 19 24 26-15zm404-44c-16-30-23-19-10 16l10 29-20-24c-11-13-20-36-20-52s-5-29-11-29c-19 0 0 72 29 110l27 35 3-32c2-18-2-42-8-53zm-850 58c0-7-7-22-15-32-14-19-15-19-15 5 0 14 3 29 7 32 10 11 23 8 23-5zm485-46c-8-8-25 10-25 26 0 13 2 13 14-4 8-10 13-21 11-22zm185-5c33-25 57-64 46-74-13-13-61 13-83 46-43 63-24 77 37 28zm-799-10c-8-8-11-7-11 4 0 20 13 34 18 19 3-7-1-17-7-23zm156 1c-3-8-6-5-6 6-1 11 2 17 5 13 3-3 4-12 1-19zm-107-16c0-5-7-17-15-28-14-18-14-18-15 9 0 17 5 27 15 27 8 0 15-4 15-8zm680-41c-1-13-3-13-15 3-19 26-19 42 0 26 8-7 15-20 15-29zm39 13c31-40 25-52-9-19-16 16-30 32-30 37 0 16 19 7 39-18zm301 16c0-5-6-10-14-10-7 0-19-7-26-15-10-13-9-15 9-15 11 0 26 9 33 20 16 26 28 26 21 0-7-25-10-27-61-39-50-11-55 2-17 43 24 26 55 35 55 16zm-990-14c0-22-11-46-21-46s-12 43-2 53c11 12 23 8 23-7zm55-3c-4-10-10-26-12-35-3-10-9-15-14-12-14 8-11 52 4 57 23 10 29 7 22-10zm835-13c-6-12-14-19-17-17-2 3 1 15 7 27s14 19 17 17c2-3-1-15-7-27zm-974-27c-11-11-19 6-11 24 8 17 8 17 12 0 3-10 2-21-1-24zm194 16c0-11-4-17-10-14-5 3-10 13-10 21s5 14 10 14c6 0 10-9 10-21zm-10-46c0-9 6-13 14-10 11 4 16-7 22-46 4-29 7-59 6-67-1-10 0-11 4-2 13 28 50 2 91-64 10-17 11-17 7 6-3 17 3 10 18-19 27-51 85-117 100-113 5 1 7-1 4-6s8-44 24-88c34-90 34-92 18-131l-12-28-6 45-7 45-2-55c-2-67-13-91-30-64-9 16-10 14-5-11 6-25 4-28-7-17-8 7-20 27-27 45l-12 32 5-37c4-23 2-38-5-38-11 0-12 3-15 40-2 14-6 38-10 54-6 21-5 27 4 22 6-4 11-15 12-24 0-14 2-13 9 3 13 29 12 35-5 35-11 0-15 11-14 43 2 28 3 33 6 15 2-14 11-32 19-38 8-7 14-30 14-51s4-40 8-43c14-8 1 97-13 114-7 8-18 31-25 52-8 22-18 34-26 31-7-2-20 9-28 26-11 21-22 29-36 26-13-3-25 6-40 29-23 38-27 61-5 32 8-11 15-18 15-15 0 9-26 75-37 94-6 11-9 42-8 69 2 28 0 57-6 65-15 25-2-173 16-228 3-11 4-21 0-21-7 0-25 46-30 75-2 11-7 38-11 60s-6 61-5 86c1 31-4 50-14 59-12 10-13 16-4 26 13 16 29 9 29-13zm255-87c30-20 55-41 55-47s7-3 16 5c22 23 23 21 20-29-3-54-20-78-31-44-5 14-3 25 4 27 16 5 14 22-4 22-8 0-24 9-35 20-23 23-31 25-24 6 12-30-16-25-30 6-12 27-15 29-15 11-1-12-5-24-10-27-14-9-23 25-10 40 7 9 7 18 0 31-10 17-10 17-11-1 0-14-3-17-10-10-6 6-7 30-3 59l6 50 14-41c11-33 26-50 68-78zm-377 59c-6-14-15-25-20-25-12 0-10 34 4 48 18 18 28 4 16-23zm72 6c0-25-10-51-20-51-13 0-20 43-8 57 15 19 28 16 28-6zm847 4c8-9 18-13 21-10 4 3 0 10-8 15-23 15-3 12 38-6 33-14 35-17 17-24-11-5-29-9-40-9-25-1-67 27-60 40 8 13 14 11 32-6zm-983-20c-4-8-8-15-10-15s-4 7-4 15 4 15 10 15c5 0 7-7 4-15zm829 4c-15-15-103-25-103-11 0 12 27 19 80 21 25 1 31-2 23-10zm517-24c0-13-41-35-65-35-20 0-19 30 1 45 20 14 64 8 64-10zm-1054-33c-4-3-11-1-18 6-8 8-8 15 3 28 13 16 14 16 17-5 2-13 1-25-2-29zm694 7c13-23 13-86 0-94-6-4-10 8-10 29 0 23-7 42-21 55-23 21-18 44 7 34 8-3 19-14 24-24zm-460 0c-7-11-14-18-17-15-8 8 5 36 17 36 7 0 7-6 0-21zm320-3c0-17-43-46-69-46-11 0-25 9-31 20-10 18-8 20 29 20 22 0 43 5 46 10 9 15 25 12 25-4zm400-7c0-5-11-9-25-9-17 0-23 4-19 14 6 15 44 10 44-5zm-1193-26c8-21 20-41 26-44 5-4 7-17 4-30-3-12 1-35 9-51 9-17 13-32 10-35-6-6-40 57-42 77-2 32-26 90-34 85-11-7-23 12-15 25 12 19 26 10 42-27zm93 7c0-32-14-40-24-14-5 14 8 44 20 44 2 0 4-13 4-30zm726-36c-11-24-22-34-38-34-19 0-23-6-25-31-2-30-15-46-55-70-14-8-18-6-18 8 0 10 10 23 22 28 11 6 28 21 37 34 15 23 15 23-9 16-28-8-23-2 33 39 20 15 37 35 37 45 0 26 12 34 23 15 6-11 4-28-7-50zm-776 42c0-7 11-25 25-40 22-24 25-56 4-56-16 0-10-16 17-46 15-15 23-29 17-31-10-4-9-48 2-75 4-10 3-18-2-18-14 0-62 164-50 171 15 10 0 57-23 69-11 6-17 16-14 25 8 19 24 20 24 1zm260 2c0-7-4-19-9-27-11-17-25 3-17 24 7 18 26 20 26 3zm584-24c8-32-9-80-31-88-12-5-14-1-9 16 3 13 9 42 12 65 7 46 18 49 28 7zm374-4 1-30-32 16c-18 9-34 18-37 21-8 7 24 23 46 23 16 0 21-6 22-30zm-734 5c-4-8-8-15-10-15s-4 7-4 15 4 15 10 15c5 0 7-7 4-15zm660-14c21-23 6-37-24-21-21 11-25 22-13 33 10 11 19 8 37-12zm-639-20c-7-22-45-25-45-3 0 9 6 12 15 8 9-3 18 1 22 10 8 22 16 9 8-15zm115 20c0-12-61-40-75-35-6 3-17-7-23-21s-16-25-22-25c-5 0-10-9-10-20 0-26-27-80-40-80-17 0-11 36 10 55 11 10 17 22 14 27s-12 2-18-8c-12-16-13-16-20 2-8 20 23 52 34 35 7-13 19-4 53 42 23 30 34 37 63 37 18 0 34-4 34-9zm-676-16c3-8 1-15-4-15-6 0-10 7-10 15s2 15 4 15 6-7 10-15zm129-26c1-18 10-59 19-89 22-74 37-144 33-148-8-8-35 71-35 100 0 16-4 27-9 24-4-3-9 7-9 22-1 15-4 52-8 82-3 30-3 53 0 49 3-3 7-21 9-40zm243 5c-3-9-6-20-6-25s-4-9-10-9c-11 0-14 33-3 43 12 13 25 7 19-9zm74 12c0-3-5-17-11-33-9-25-11-26-20-10-8 13-7 22 1 33 12 13 30 19 30 10zm270-11c0-14-87-61-96-52-2 1 3 14 9 27 8 17 24 27 47 31 19 4 36 7 38 8 1 0 2-6 2-14zm528-7c-5-16-48-24-48-10 0 11 17 20 38 21 8 1 12-5 10-11zm-662-65c-18-26-26-32-26-19 0 20 43 78 48 65 2-4-8-25-22-46zm-183 27c-3-11-9-20-14-20s-9 9-9 20 6 20 14 20c9 0 12-7 9-20zm397-45c-12-19-31-38-43-41s-37-29-56-59c-34-56-61-85-61-68 0 6 9 22 20 36s20 29 20 34c0 4 30 41 67 82 67 73 93 82 53 16zm160 5c0-26-15-40-41-40-9 0-3 64 8 83 9 16 33-16 33-43zm-256 32c-6-4-14-20-18-37-9-38-44-95-58-95-6 0-3 11 6 25s13 25 10 25c-13 0-66-65-81-100-15-34-15-34-26-13-9 20-4 29 42 74 29 29 51 61 51 73 0 28 11 43 35 49 32 8 51 8 39-1zm182-66c-10-25-21-36-35-36-13 0-26-12-36-30-20-40-19-44 7-20 12 11 23 18 25 17 5-6-58-127-66-127-4 0-14-12-21-27-18-37-41-63-53-63-6 0-3 8 6 18 10 10 17 30 17 45 0 14 5 29 10 32 6 4 8 14 5 24-3 9 3 26 13 37 10 10 21 26 24 35 12 30 79 129 88 129 5 0 12 10 16 23 8 22 8 22 12 1 2-12-4-38-12-58zm-426 57c-1-18-18-35-24-24-4 6-4 16-1 21 7 12 25 13 25 3zm140-63c-12-16-28-30-35-30-8 0-22-14-30-30-9-17-20-28-25-25-25 15 3 57 60 92 48 29 55 28 30-7zm196-35c-20-32-42-65-49-74-8-9-18-37-21-63-7-48-38-99-52-86-4 5 1 17 10 27 31 34 12 44-20 12-31-30-31-30-26-6 2 14 9 25 15 25 17 0 67 52 67 70 0 10 14 34 30 55 17 21 30 41 30 45 0 11 42 62 46 57 3-2-11-30-30-62zm-316 40c0-8-4-15-10-15-5 0-10 7-10 15s5 15 10 15c6 0 10-7 10-15zm-255-64c5-15 4-21-3-17-6 3-13-2-15-11-3-10-5 5-6 32 0 50 8 48 24-4zm440-3c-16-24-30-37-32-31-5 14 47 87 55 78 3-2-8-24-23-47zm74-9c-19-24-35-37-37-30-4 13 58 84 66 76 2-2-11-23-29-46zm201 15c0-14-4-23-10-19-5 3-10 15-10 26 0 10 5 19 10 19 6 0 10-12 10-26zm-30-50c0-30-5-44-16-48-23-9-28-1-15 22 21 39 11 45-14 8-14-20-25-42-25-48 0-16-70-107-92-119-27-15-35-4-9 13 12 7 21 20 21 28 0 16 39 71 40 55 0-13 90 134 90 148 0 7 5 5 10-3s10-34 10-56zm-641 8c5-18 6-32 2-32-5 0-5-19 0-42 11-55 10-79-1-52-4 12-11 48-14 80-4 32-9 68-12 79-5 15-3 17 5 9 6-6 15-25 20-42zm38-28c4-29 3-36-6-28-6 6-14 28-18 50-4 29-3 36 6 28 6-6 14-28 18-50zm289 8c-15-15-16-15-16 4 0 28 24 52 28 28 2-9-3-24-12-32zm425-3 22-32-26 18c-15 9-27 24-27 31 0 21 6 17 31-17zm-781-11c0-5-4-8-10-8-5 0-10 10-10 23 0 18 2 19 10 7 5-8 10-18 10-22zm720 19c0-19-27-53-36-44-8 8 15 57 28 57 4 0 8-6 8-13zm16-55c-12-11-17 7-9 34l8 29 3-28c2-16 1-31-2-35zm-366 13c-13-25-30-33-30-15 0 12 33 48 39 43 2-2-2-14-9-28zm65-4c-9-18-20-29-25-26-6 3 0 19 12 35 27 37 35 32 13-9zm-377-37c-3-14-5-12-10 9-3 19-2 25 4 19s8-18 6-28zm262 32c0-3-4-8-10-11-5-3-10-1-10 4 0 6 5 11 10 11 6 0 10-2 10-4zm70-13c0-14-19-38-25-32-8 8 5 39 16 39 5 0 9-3 9-7zm250-54c-7-16-16-29-21-29-12 0-12 4 8 45 20 42 31 28 13-16zm46-5c-3-9-10-13-15-10-5 4-4 19 2 37 11 28 12 29 15 10 2-13 1-29-2-37zm40 29c-10-10-19 5-10 18 6 11 8 11 12 0 2-7 1-15-2-18zm-406-9c0-8-4-14-9-14-11 0-22 26-14 34 9 9 23-3 23-20zm285-3c-10-32-14-61-9-61 3 0 14 5 26 11 11 6 22 8 25 6 3-3-10-13-28-23-21-11-34-13-37-6-2 6-11 9-20 6-15-5-15-4-2 8 8 7 15 18 16 23 1 6 5 20 9 33 9 27 29 30 20 3zm-525-54c0-16-4-26-10-22-5 3-10 23-10 43 0 28 3 33 10 22 5-8 10-28 10-43zm273 28c-5-13-23-22-23-11 0 15 14 35 21 31 4-3 6-12 2-20zm22-25c-4-12-9-19-12-17-3 3-2 15 2 27s9 19 12 17c3-3 2-15-2-27zm35-40c-18-33-25-15-9 22 9 23 15 28 17 16 2-9-2-27-8-38zm-78-45c23-25 48-45 54-45s17-6 23-14c11-13 19-12 58 5 55 23 63 24 63 2 0-9 7-44 15-78 10-40 13-69 7-85-8-22-14-24-64-21-47 2-61-2-102-29-25-17-46-36-46-41s-4-9-10-9c-5 0-10 6-10 14 0 16-59 26-90 14-31-11-35 12-21 116 17 121 48 216 71 216 6 0 29-20 52-45zm128 30c-7-8-16-15-21-15s-6 7-3 15c4 8 13 15 21 15 13 0 13-3 3-15zm60 6c0-5-7-11-15-15-15-5-20 5-8 17 9 10 23 9 23-2zm110-46c0-7-7-15-15-19-16-6-19 3-9 28 7 18 24 12 24-9zm-460-29c0-16-18-31-27-22-8 8 5 36 17 36 5 0 10-6 10-14zm461-23c5-49 3-79-6-85-19-14-23-8-20 35 3 56 4 57 15 57 6 0 10-3 11-7zm-471-58c0-13-29-29-37-21-3 2 0 14 7 25 11 22 30 20 30-4zm-11-76c-29-18-36-10-18 23 11 20 12 20 21 3 8-12 7-20-3-26zm486-26c7-36 1-41-22-18-10 10-13 24-8 42 7 31 20 21 30-24zm-33-74c-8-27-11-30-17-16-10 24 3 73 16 60 7-7 7-22 1-44zm-574 11c23-17 42-35 42-41s-17 3-37 20c-21 17-43 31-50 31s-13 5-13 10c0 17 15 11 58-20zm119 13c2-6-5-13-17-16s-20 0-20 7c0 26 29 33 37 9zm513-17c0-14-10-32-22-40-26-19-33-15-19 11 5 10 12 26 15 36 8 25 26 21 26-7zm-720 4c0-5-2-10-4-10-3 0-8 5-11 10-3 6-1 10 4 10 6 0 11-4 11-10zm620-20c0-15-13-18-31-7-30 19-25 39 6 25 14-6 25-14 25-18zm-640-4c0-11-19-15-25-6-3 5 1 10 9 10 9 0 16-2 16-4zm801-11c-1-15-24-12-29 3-3 9 2 13 12 10 10-1 17-7 17-13zm49 5c8-5 11-12 8-16-10-9-38 3-38 16 0 12 10 13 30 0zm-731-9c7-5 12-14 9-21-2-7-10-4-22 9-19 21-12 28 13 12zm251-1c0-5-9-10-21-10-11 0-17 5-14 10 3 6 13 10 21 10s14-4 14-10zm97-12c-3-8-6-5-6 6-1 11 2 17 5 13 3-3 4-12 1-19zm113 7c0-8-4-15-9-15s-11 7-15 15c-3 9 0 15 9 15 8 0 15-7 15-15zm-515-4c3-5 1-12-5-16-5-3-10 1-10 9 0 18 6 21 15 7zm248-11c8 0 8-3 0-11-13-13-43-5-43 12 0 6 7 8 16 5s21-6 27-6z"/><path d="m541 2255c-11-19-24-35-30-35-5 0-12-7-15-16-5-13-4-14 7-6 8 7 16 10 19 7 2-2 14 16 26 40 26 54 22 59-7 10z"/><path d="m560 2228c-12-22-12-22 6-6 10 10 15 20 12 24-4 3-12-5-18-18z"/><path d="m670 2170c0-5 5-10 10-10 6 0 10 5 10 10 0 6-4 10-10 10-5 0-10-4-10-10z"/><path d="m550 2143c0-10-7-27-15-37-8-11-15-27-15-35 0-25 39 19 49 57 8 25 7 32-5 32-8 0-14-8-14-17z"/><path d="m462 2120c-24-31-28-45-12-35 10 6 44 65 37 65-2 0-13-13-25-30z"/><path d="m555 1983c-8-20-13-38-10-41 4-4 11 11 30 66 10 28-6 9-20-25z"/><path d="m454 1931c-12-14-29-41-39-60l-17-34 29 21c43 31 55 48 51 75l-3 24z"/><path d="m806 1533c-39-61-49-108-43-192 6-71 33-188 42-179 2 2-3 31-12 63-17 68-21 218-6 237 13 16 53 108 48 108-3 0-16-17-29-37z"/><path d="m932 1485c-21-24-24-68-8-107 24-56 32-53 43 12 5 33 6 60 1 60-4 0-8 11-8 25 0 28-9 31-28 10zm21-78c-9-14-23 4-23 31l1 27 13-25c8-14 12-28 9-33z"/><path d="m1375 1365c-4-16-16-45-27-62-26-44-18-42 18 5 23 28 29 43 24 62l-7 25z"/><path d="m1460 1365c0-7-8-19-17-24-16-9-16-10 5-11 17 0 22 6 22 25 0 14-2 25-5 25s-5-7-5-15z"/><path d="m1390 1300c0-11 4-20 9-20s11 9 14 20c3 13 0 20-9 20-8 0-14-9-14-20z"/><path d="m1537 1144c6-17 17-18 31-1 8 9 4 12-13 13-16 1-22-2-18-12z"/><path d="m1456 935c-3-9 0-15 9-15s12-6 9-15c-4-8-2-15 4-15 8 0 22 22 22 35 0 3-9 9-19 14-14 8-20 7-25-4z"/><path d="m1400 930c0-5 5-10 10-10 6 0 10 5 10 10 0 6-4 10-10 10-5 0-10-4-10-10z"/><path d="m1296 1443c-6-14-5-15 5-6 7 7 10 15 7 18s-9-2-12-12z"/><path d="m1160 1275c0-15 18-40 24-34 3 3-1 14-9 25-8 10-14 15-15 9z"/><path d="m1060 1250c0-14 37-50 52-50 6 0-1 14-17 30-31 33-35 35-35 20z"/><path d="m535 950c10-11 20-20 22-20s-1 9-7 20-16 20-22 20-3-9 7-20z"/><path d="m550 892c0-10 90-98 90-88 0 12-61 84-76 90-8 3-14 2-14-2z"/><path d="m700 758c29-83 31-88 48-88 13 0 13 2-1 18-10 10-17 24-17 31 0 13-38 91-45 91-2 0 4-24 15-52z"/><path d="m730 612c0-28 3-53 8-55 9-6 8 90-1 100-4 3-7-17-7-45z"/><path d="m1112 685c-6-14-7-25-2-25 9 0 25 39 18 46-3 2-10-7-16-21z"/></g></svg>