<svg clip-rule="evenodd" fill-rule="evenodd" stroke-linejoin="round" stroke-miterlimit="2" viewBox="0 0 1799 889" xmlns="http://www.w3.org/2000/svg"><g fill-rule="nonzero"><g transform="translate(224.11 -899.2701)"><path d="m663.58 905.671c-16.4 0-37.6 1.6-46.8 1.6-4.4 0-10.8-.4-19.2-.8-8.4-.8-13.6-1.2-16-1.2h-4.4c8 6 12 13.2 12 21.2 0 7.2-4.4 17.6-13.2 30.8l-89.6 141.999c-10 16.4-20 31.2-29.2 44.8-10.8 15.6-21.2 29.6-31.2 42.8h4.8c7.6 0 19.2-1.2 25.2-1.2s22 1.2 29.6 1.2h4.4c-6.8-6.8-10.4-14-10.4-21.6 0-10 10.4-32.4 31.6-66.8l4.4-7.2h84.8v8c0 16.4-.4 31.6-1.2 44.8-1.2 19.6-6.4 34-14.8 42.8h4.8c4.4 0 19.2-2 27.6-2s22.8 2 27.2 2h4.8c-10-10.4-15.2-24.8-15.6-42.8-.4-17.6-.8-32.4-.8-44.8v-46c4.4 1.2 12 1.6 23.6 1.6 9.2 0 16.8-.4 22-1.6 19.6 42 40 77.6 61.2 106.4 15.6 22 32.4 33.2 50.4 33.2 9.2 0 16-2 20.4-5.6-10.8-6.8-23.2-18.4-36.8-34.8-21.2-26.8-43.6-62-67.6-106.4 30-13.2 45.2-36 45.2-69.199 0-20-7.6-36.8-23.2-50.4-15.6-14-36.8-20.8-64-20.8zm-7.6 15.6c39.6 0 60.8 22.4 60.8 59.6 0 36.399-22.8 57.999-66 57.999-10 0-16.4 0-18.4-.4v-55.999c0-19.2.4-32.8 1.2-41.2 1.2-16.4 4.4-20 22.4-20zm-55.6 152.799h-73.6l73.6-118.799z"/><path d="m831.98 1099.67c0 16.8-.4 31.6-1.2 44.8-1.2 19.6-6.4 34-14.8 42.8h3.2c4.8 0 18.4-2 23.6-2s18.8 2 23.6 2h3.2c-10-10.4-15.2-24.8-15.6-42.8-.4-17.6-.8-32.4-.8-44.8v-144.799l206.8 241.599c-1.2-18.4-1.6-41.2-1.6-68.4v-135.199c0-12.4.4-27.2.8-44.8.4-18 5.6-32.4 15.6-42.8h-3.2c-4.8 0-18.4 2-23.6 2s-18.8-2-23.6-2h-3.2c8.4 8.8 13.6 23.2 14.8 42.8.8 13.2 1.2 28.4 1.2 44.8v125.599l-181.6-211.999c-14 0-31.6-1.2-38-1.2h-4.8c10 10 16 25.2 18 45.2.8 8.8 1.2 22.8 1.2 42.4z"/><path d="m1128.38 1099.27c-7.6 19.6-13.6 34.8-18 44.8-7.2 17.2-14.8 31.2-22.4 42.8h4.4c4.4 0 16.8-1.2 23.2-1.2 4.4 0 16.4 1.2 23.2 1.2h4.4c-7.2-8.4-10.8-17.2-10.8-26 0-10.8 5.6-31.6 17.2-61.6l2.8-8h97.6l3.2 8c2 6 6.4 17.2 7.6 21.6l3.2 8.8c2.8 7.6 3.2 9.6 4.8 14.8 2.8 8.8 4 14.8 4 20.8 0 7.6-2.8 14.8-8 21.6h4c8 0 20.4-1.2 26.4-1.2s19.6 1.2 26.4 1.2h6c-5.6-6.8-13.2-21.2-22.4-42.8-4.4-10-10.4-25.2-18-44.8l-77.6-199.999zm115.2-25.2h-84l43.2-104.399z"/><path d="m1557.98 992.871c0-12.4.4-27.2.8-44.8.4-18 5.6-32.4 15.6-42.8h-3.2c-4.8 0-18.4 2-23.6 2s-18.8-2-23.6-2h-3.2c8.4 8.8 13.6 23.2 14.8 42.8.8 13.2 1.2 28.4 1.2 44.8v86.799c0 58-31.2 91.2-80.4 91.2-45.2 0-72.4-29.6-72.4-80.8v-97.199c0-12.4.4-27.2.8-44.8.4-18 5.6-32.4 15.6-42.8h-4.8c-4.4 0-18.8 2-27.2 2s-23.2-2-27.6-2h-4.8c8.4 8.8 13.6 23.2 14.8 42.8.8 13.2 1.2 28.4 1.2 44.8v97.999c0 64.4 38 102 102 102 30.8 0 56-10 75.2-30.4s28.8-46 28.8-77.6z"/></g><g transform="translate(-473.2452 -942.9081)"><path d="m555.645 1244.4c-19.2 0-41.6 1.6-50 1.6s-23.2-2-27.6-2h-4.8c8.4 8.8 13.6 23.2 14.8 42.8.8 13.2 1.2 28.4 1.2 44.8v106.4c0 16.8-.4 31.6-1.2 44.8-1.2 19.6-6.4 34-14.8 42.8h4.8c4.4 0 19.2-2 27.6-2s22.8 2 27.2 2h4.8c-10-10.4-15.2-24.8-15.6-42.8-.4-17.6-.8-32.4-.8-44.8v-116.8c0-19.2.4-32.8 1.2-41.2 1.2-16.4 4.4-20 22.4-20 42.8 0 69.2 20.4 69.2 60.4 0 43.6-24 65.6-72.4 65.6-3.6 0-7.6-.4-12.4-.8 10 7.6 22.4 11.6 37.2 11.6 23.2 0 42.4-6.8 58-20.4 15.6-14 23.2-32.4 23.2-56 0-46.4-36-76-92-76z"/><path d="m1089.64 1535.2c-1.2-18.4-1.59-41.2-1.59-68.4v-135.2c0-12.4.39-27.2.8-44.8.4-18 5.59-32.4 15.59-42.8h-3.19c-4.81 0-18.4 2-23.61 2-5.2 0-18.79-2-23.59-2h-3.2c8.4 8.8 13.59 23.2 14.79 42.8.8 13.2 1.21 28.4 1.21 44.8v125.6l-181.605-212c-14 0-31.6-1.2-38-1.2h-4.8c10 10 16 25.2 18 45.2.8 8.8 1.2 22.8 1.2 42.4v86.8c0 58-31.2 91.2-80.4 91.2-45.2 0-72.4-29.6-72.4-80.8v-97.2c0-12.4.4-27.2.8-44.8.4-18 5.6-32.4 15.6-42.8h-4.8c-4.4 0-18.8 2-27.2 2s-23.2-2-27.6-2h-4.8c8.4 8.8 13.6 23.2 14.8 42.8.8 13.2 1.2 28.4 1.2 44.8v98c0 64.4 38 102 102 102 30.8 0 56-10 75.2-30.4s28.8-46 28.8-77.6v-130z"/><path d="m1250.05 1321.2c0-19.2.39-32.8 1.2-41.2 1.19-16.4 3.6-19.2 22.39-19.2 10 0 19.21.8 27.61 2 22.39 3.6 34.8 18.4 46.39 43.6 1.21-9.2 2-22 2-37.6 0-11.6-.39-19.6-.79-24.8-10.41.8-25.6 1.2-45.21 1.2h-139.2c-19.59 0-34.8-.4-45.19-1.2-.4 5.2-.81 13.2-.81 24.8 0 15.6.81 28.4 2 37.6 11.61-25.2 24-40 46.41-43.6 8.4-1.2 17.59-2 27.59-2 18.81 0 21.2 2.8 22.41 19.2.79 8.4 1.2 22 1.2 41.2v116.8c0 16.4-.41 31.6-1.2 44.8-1.21 18.8-7.6 32.8-18.8 42.8h4.8c2 0 6.79-.4 14-.8 7.59-.8 13.2-1.2 17.59-1.2 4.41 0 10 .4 17.2 1.2 7.21.4 12 .8 14 .8h4.8c-13.19-11.6-19.19-21.6-19.59-42.8-.41-17.6-.8-32.4-.8-44.8z"/></g><g transform="translate(168.009 -864.6588)"><path d="m450.381 1607.06c0 43.2 14 78.4 41.6 105.6s63.2 40.8 106.8 40.8c39.6 0 73.2-14 100.8-41.6 27.6-28 41.6-62.8 41.6-104.8s-14-76.8-41.6-104.4c-27.6-28-62.4-42-104.4-42-40.4 0-74.8 14-102.8 41.6s-42 62.8-42 104.8zm138.8-126.4c32 0 59.2 12.4 81.2 37.2 22 24.4 33.2 56 33.2 94 0 36-9.2 65.2-28 88s-42.4 34-71.6 34c-32.4 0-59.6-12-82.4-36.4-22.4-24.4-33.6-56-33.6-95.6 0-37.6 9.6-67.2 28.8-88.8s43.2-32.4 72.4-32.4z"/><path d="m839.581 1481.86c39.6 0 60.8 22.4 60.8 59.6 0 36.4-22.8 58-66 58-10 0-16.4 0-18.4-.4v-56c0-19.2.4-32.8 1.2-41.2 1.2-16.4 4.4-20 22.4-20zm-39.2-14c-8.4 0-23.2-2-27.6-2h-4.8c8.4 8.8 13.6 23.2 14.8 42.8.8 13.2 1.2 28.4 1.2 44.8v106.4c0 16.8-.4 31.6-1.2 44.8-1.2 19.6-6.4 34-14.8 42.8h4.8c4.4 0 19.2-2 27.6-2s22.8 2 27.2 2h4.8c-10-10.4-15.2-24.8-15.6-42.8-.4-17.6-.8-32.4-.8-44.8v-46c4.4 1.2 12 1.6 23.6 1.6 9.2 0 16.8-.4 22-1.6 19.6 42 40 77.6 61.2 106.4 15.6 22 32.4 33.2 50.4 33.2 9.2 0 16-2 20.4-5.6-10.8-6.8-23.2-18.4-36.8-34.8-21.2-26.8-43.6-62-67.6-106.4 30-13.2 45.2-36 45.2-69.2 0-20-7.6-36.8-23.2-50.4-15.6-14-36.8-20.8-64-20.8-16.4 0-37.6 1.6-46.8 1.6z"/><path d="m1197.18 1699.46c0 25.2-14.8 35.6-50 35.6-34.4 0-64-11.6-88.8-35.2-24.4-23.6-36.8-55.2-36.8-94 0-37.6 10.8-68 32.4-91.6s50-35.2 85.2-35.2c23.2 0 40.4 4.8 52 14.4 11.6 9.2 22.8 26.4 33.6 51.2 2.8-14.4 4-29.2 4-44.4 0-7.2-.4-15.2-1.6-23.6-29.2-10.8-58.8-16-88.4-16-43.2 0-80 13.6-110 40.8-29.999 26.8-44.799 62-44.799 104.8 0 48.4 19.199 88.4 49.199 112 30 22.8 67.6 35.2 108 35.2 33.2 0 62.4-6.8 88-20.8-1.2-10.4-2-21.2-2-32 0-8 .4-20.8.8-38.4.4-21.2 4.8-30.8 15.6-42h-4.8c-4.4 0-18.8 2-27.2 2-4.4 0-9.6-.4-16.4-.8-6.8-.8-11.2-1.2-13.2-1.2h-4.8c11.6 10 18 24.4 19.2 42.8.4 8.8.8 20.8.8 36.4z"/></g></g></svg>