<?xml version="1.0" standalone="no"?>
<!DOCTYPE svg PUBLIC "-//W3C//DTD SVG 20010904//EN"
 "http://www.w3.org/TR/2001/REC-SVG-20010904/DTD/svg10.dtd">
<svg version="1.0" xmlns="http://www.w3.org/2000/svg"
 width="700.000000pt" height="700.000000pt" viewBox="0 0 700.000000 700.000000"
 preserveAspectRatio="xMidYMid meet">
<metadata>
Created by potrace 1.14, written by Peter Selinger 2001-2017
</metadata>
<g transform="translate(0.000000,700.000000) scale(0.100000,-0.100000)"
fill="#000000" stroke="none">
<path d="M3245 5564 c-487 -27 -956 -128 -1314 -283 -127 -55 -173 -83 -215
-133 -102 -119 -100 -355 5 -546 81 -147 158 -365 198 -562 59 -285 55 -603
-11 -848 -37 -140 -49 -121 109 -166 476 -135 842 -284 1068 -436 526 -353
1134 -669 1470 -764 319 -90 712 -86 1010 10 187 61 410 201 467 294 80 130
76 379 -7 504 -98 148 -254 230 -425 225 -220 -7 -275 -4 -325 22 -41 20 -54
34 -81 88 -126 250 -144 620 -53 1090 42 214 100 365 239 621 17 30 35 81 41
112 30 168 -81 358 -273 466 -80 45 -263 116 -282 109 -16 -6 -79 -181 -127
-350 -170 -601 -212 -1286 -118 -1952 21 -151 84 -473 93 -483 8 -8 160 27
260 59 49 16 90 28 92 26 10 -9 -53 -76 -101 -109 -68 -46 -143 -74 -265 -101
-134 -29 -450 -30 -670 -2 l-155 19 180 12 c259 18 462 44 494 64 11 6 8 37
-18 161 -114 562 -171 1187 -170 1879 0 324 4 462 25 786 l7 111 -59 11 c-203
38 -483 62 -774 66 -135 2 -276 2 -315 0z"/>
<path d="M1549 2766 c-230 -41 -391 -117 -520 -245 -56 -56 -86 -96 -114 -153
-36 -74 -38 -81 -37 -180 0 -240 93 -417 279 -527 90 -53 182 -75 293 -68 193
12 356 111 500 302 86 115 174 190 284 244 292 144 515 104 1118 -202 436
-221 950 -399 1348 -466 193 -33 422 -47 542 -33 373 44 651 227 813 535 49
93 71 155 35 97 -158 -252 -457 -429 -791 -470 -133 -16 -380 -13 -484 5 -421
74 -924 284 -1610 670 -429 242 -793 396 -1110 471 -92 22 -139 27 -290 30
-121 2 -205 -1 -256 -10z"/>
</g>
</svg>
