<svg clip-rule="evenodd" fill-rule="evenodd" stroke-linejoin="round" stroke-miterlimit="2" viewBox="0 0 1000 1000" xmlns="http://www.w3.org/2000/svg"><g fill-rule="nonzero"><g fill="#333"><g transform="matrix(.476735 0 0 .483163 -319.033 82.0573)"><path d="m1015.71 762.364c-6.2-12.6-15.7-36.5-28.502-71.7l-117-321h-5.4c-1.2 4.4-3.9 8.9-8.1 13.5s-8.3 7.3-12.3 8.1l10.2 28.8-116.4 292.2c-2.4 5.6-4 9.8-4.8 12.6-7.2 17.6-13 30.7-17.4 39.3s-10.3 15.4-17.7 20.4-17.1 7.5-29.1 7.5v10.2h122.4v-10.8c-20.4 0-34.7-1.9-42.9-5.7s-12.3-10.5-12.3-20.1 4.8-26 14.4-49.2l22.8-57.6h168l18.6 49.8c12 32.4 18 53.8 18 64.2 0 8.4-2.9 13.6-8.7 15.6s-16.7 3-32.7 3v10.8h132.002v-10.8c-15.6 0-26.8-1.7-33.6-5.1s-13.3-11.4-19.5-24zm-237.302-116.1 82.2-210 76.8 210z"/><path d="m1422.51 749.764c-13.4-14.2-35.7-40.1-66.9-77.7l-69.6-82.2c33.6-5.2 60.6-17.2 81-36s30.6-42.8 30.6-72c0-30.8-12.3-55.1-36.9-72.9s-59.3-26.7-104.1-26.7h-163.8v10.2c21.2 0 36.4 3.3 45.6 9.9s13.8 19.3 13.8 38.1v304.8c0 18-4.6 30.3-13.8 36.9s-24.4 9.9-45.6 9.9v10.2h150v-10.2c-16 0-28.1-1.3-36.3-3.9s-14-7.1-17.4-13.5-5.1-16.2-5.1-29.4v-153h64.2l174 210 84-.6v-9.6c-16.8 0-31.6-3.5-44.4-10.5s-25.9-17.6-39.3-31.8zm-238.5-171.9v-137.4c0-14 1.6-24.4 4.8-31.2s8.5-11.3 15.9-13.5 18.7-3.3 33.9-3.3c42.8 0 74.4 8.4 94.8 25.2s30.6 39.2 30.6 67.2-10.2 50.5-30.6 67.5-48.2 25.5-83.4 25.5z"/><path d="m1964.01 382.264h-147v10.2c21.2 0 36.9 5.1 47.1 15.3s15.3 29.9 15.3 59.1v276l-271.8-360.6h-77.4v10.2c21.6 0 37.3 3.2 47.1 9.6s14.7 18.8 14.7 37.2v306c0 18.4-4.9 30.8-14.7 37.2s-25.5 9.6-47.1 9.6v10.2h136.2v-10.2c-16.4 0-28.9-1.3-37.5-3.9s-14.7-7.2-18.3-13.8-5.4-16.3-5.4-29.1l-.6-313.2 278.4 370.2h10.8v-335.4c0-28 6.1-47.4 18.3-58.2s29.5-16.2 51.9-16.2z"/><path d="m2316.51 762.364c-6.2-12.6-15.7-36.5-28.5-71.7l-117-321h-5.4c-1.2 4.4-3.9 8.9-8.1 13.5s-8.3 7.3-12.3 8.1l10.2 28.8-116.4 292.2c-2.4 5.6-4 9.8-4.8 12.6-7.2 17.6-13 30.7-17.4 39.3s-10.3 15.4-17.7 20.4-17.1 7.5-29.1 7.5v10.2h122.4v-10.8c-20.4 0-34.7-1.9-42.9-5.7s-12.3-10.5-12.3-20.1 4.8-26 14.4-49.2l22.8-57.6h168l18.6 49.8c12 32.4 18 53.8 18 64.2 0 8.4-2.9 13.6-8.7 15.6s-16.7 3-32.7 3v10.8h132v-10.8c-15.6 0-26.8-1.7-33.6-5.1s-13.3-11.4-19.5-24zm-237.3-116.1 82.2-210 76.8 210z"/><path d="m2766.81 382.264h-139.2v10.2c21.2 0 37.4 5.4 48.6 16.2s16.8 28.4 16.8 52.8v170.4c0 53.6-8.8 93.9-26.4 120.9s-48 40.5-91.2 40.5c-42 0-74.3-10.5-96.9-31.5s-33.7-59.7-33.3-116.1l.6-201c0-14.4 1.7-25.3 5.1-32.7s9.2-12.5 17.4-15.3 20.3-4.2 36.3-4.2v-10.2h-153v10.2c22.4 0 38.2 3.5 47.4 10.5s13.8 20.9 13.8 41.7v199.2c0 58.8 11.9 101.4 35.7 127.8s61.9 39.6 114.3 39.6c48.4 0 84.6-14.7 108.6-44.1s36-74.5 36-135.3v-171c0-24.4 4.8-41.9 14.4-52.5s24.6-15.9 45-15.9z"/></g><g transform="matrix(.476735 0 0 .483163 -95.577 82.8216)"><path d="m916.885 941.481c-22.8-9.8-48.6-14.7-77.4-14.7h-162v10.2c20.8 0 35.9 3.2 45.3 9.6s14.1 18.6 14.1 36.6v307.199c0 18-4.6 30.2-13.8 36.6s-24.4 9.6-45.6 9.6v10.2h152.4v-10.2c-16.8 0-29.5-1.2-38.1-3.6s-14.6-6.9-18-13.5-5.1-16.3-5.1-29.1v-123.6c7.2.8 13 1.6 17.4 2.4 21.6 2.8 41.8 4.2 60.6 4.2 48.8 0 84.9-11.5 108.3-34.5s35.1-52.1 35.1-87.3c0-25.6-6.5-47.9-19.5-66.899-13-19-30.9-33.4-53.7-43.2zm13.8 190.799c-17.2 19.4-45.2 29.1-84 29.1-18.8 0-39-1.4-60.6-4.2-4.4-.8-10.2-1.6-17.4-2.4v-171.599c0-12.8 2.2-22.4 6.6-28.8s11.4-10.9 21-13.5 23.4-3.9 41.4-3.9c36 0 64.8 10.3 86.4 30.9s32.4 49.099 32.4 85.499c0 33.2-8.6 59.5-25.8 78.9z"/><path d="m1429.29 926.781h-139.2v10.2c21.2 0 37.4 5.4 48.59 16.2 11.2 10.8 16.81 28.4 16.81 52.799v170.4c0 53.6-8.81 93.9-26.4 120.9-17.6 27-48 40.5-91.21 40.5-42 0-74.29-10.5-96.89-31.5-22.61-21-33.7-59.7-33.31-116.1l.61-200.999c0-14.4 1.7-25.3 5.09-32.7 3.41-7.4 9.21-12.5 17.41-15.3s20.3-4.2 36.3-4.2v-10.2h-153v10.2c22.4 0 38.2 3.5 47.4 10.5 9.19 7 13.8 20.9 13.8 41.7v199.199c0 58.8 11.89 101.4 35.7 127.8 23.8 26.4 61.89 39.6 114.3 39.6 48.39 0 84.59-14.7 108.59-44.1s36-74.5 36-135.3v-171c0-24.399 4.8-41.899 14.41-52.499 9.59-10.6 24.59-15.9 45-15.9z"/><path d="m1887.09 926.781h-147v10.2c21.2 0 36.9 5.1 47.09 15.3 10.2 10.2 15.31 29.9 15.31 59.099v276l-271.81-360.599h-77.39v10.2c21.59 0 37.3 3.2 47.09 9.6 9.8 6.4 14.71 18.8 14.71 37.2v305.999c0 18.4-4.91 30.8-14.71 37.2-9.79 6.4-25.5 9.6-47.09 9.6v10.2h136.2v-10.2c-16.4 0-28.9-1.3-37.5-3.9-8.61-2.6-14.7-7.2-18.31-13.8-3.59-6.6-5.39-16.3-5.39-29.1l-.61-313.199 278.41 370.199h10.79v-335.4c0-27.999 6.11-47.399 18.3-58.199 12.2-10.8 29.5-16.2 51.91-16.2z"/><path d="m2298.09 1029.98-43.2-122.399-9.61 2.4c1.21 4.8-1.69 8.8-8.69 12s-17.31 4.8-30.91 4.8h-202.19c-14 0-24.4-1.4-31.2-4.2s-9.61-7-8.41-12.6l-9.59-2.4-43.2 122.399 10.2 3c12-28.4 21.7-48.499 29.09-60.299 7.41-11.8 16.91-20.2 28.5-25.2 11.61-5 28.61-7.5 51-7.5 20.8 0 35.71 2.9 44.71 8.7s13.5 17.1 13.5 33.9v307.799c0 18-4.6 30.2-13.81 36.6-9.19 6.4-24.39 9.6-45.6 9.6v10.2h150v-10.2c-16 0-28.09-1.2-36.29-3.6-8.21-2.4-14-6.9-17.4-13.5s-5.1-16.3-5.1-29.1v-307.799c0-17.2 4.6-28.6 13.79-34.2 9.21-5.6 24.41-8.4 45.6-8.4 22.4 0 39.4 2.5 51 7.5 11.61 5 21.21 13.5 28.81 25.5 7.59 12 17.19 31.999 28.8 59.999z"/></g><g transform="matrix(.476735 0 0 .483163 51.202 77.127)"><path d="m723.002 1577.97c-20.8 33.8-31.2 71.69-31.2 113.69 0 41.21 9.7 78.41 29.1 111.61s45.6 59.3 78.6 78.3 69.1 28.5 108.3 28.5c35.6 0 69.4-9.5 101.398-28.5 32-19 57.8-45.2 77.4-78.6s29.4-70.5 29.4-111.31c0-42.39-9.1-80.39-27.3-114-18.2-33.59-43.1-59.89-74.7-78.89-31.598-19-66.998-28.5-106.198-28.5-36 0-70.6 9.5-103.8 28.5s-60.2 45.39-81 79.2zm30.6 220.8c-16-31-24-66.7-24-107.11 0-41.59 7.9-78.09 23.7-109.5 15.8-31.39 37.3-55.59 64.5-72.59s57.2-25.5 90-25.5c32.4 0 61.5 8.39 87.3 25.2 25.798 16.8 46.098 40.89 60.898 72.3 14.8 31.4 22.2 68.09 22.2 110.09 0 40.81-7.4 76.71-22.2 107.71s-35.1 54.9-60.898 71.7c-25.8 16.8-54.9 25.2-87.3 25.2s-62.2-8.5-89.4-25.5-48.8-41-64.8-72z"/><path d="m1469.7 1848.57c-13.4-14.2-35.7-40.1-66.9-77.7l-69.6-82.21c33.6-5.19 60.6-17.19 81-36 20.4-18.79 30.6-42.79 30.6-72 0-30.79-12.3-55.09-36.9-72.89-24.6-17.81-59.3-26.7-104.1-26.7h-163.8v10.2c21.2 0 36.4 3.3 45.6 9.89 9.2 6.61 13.8 19.3 13.8 38.11v304.8c0 18-4.6 30.3-13.8 36.9s-24.4 9.9-45.6 9.9v10.2h150v-10.2c-16 0-28.1-1.3-36.3-3.9s-14-7.1-17.4-13.5-5.1-16.2-5.1-29.4v-153h64.2l174 210 84-.6v-9.6c-16.8 0-31.6-3.5-44.4-10.5s-25.9-17.6-39.3-31.8zm-238.5-171.91v-137.39c0-14 1.6-24.4 4.8-31.2s8.5-11.3 15.9-13.5 18.7-3.3 33.9-3.3c42.8 0 74.4 8.39 94.8 25.19 20.4 16.81 30.6 39.2 30.6 67.2s-10.2 50.5-30.6 67.5-48.2 25.5-83.4 25.5z"/><path d="m1666.2 1881.57c34 19 72.4 28.5 115.2 28.5 25.6 0 47.3-2.5 65.1-7.5s32.8-11.41 45-19.2c12.2-7.8 27.7-19.3 46.5-34.5l.6-67.8c0-14.41 1.5-24.91 4.5-31.5 3-6.6 7.9-10.91 14.7-12.91s17.6-3 32.4-3v-10.79h-146.4v10.79c16.4 0 28.9 1 37.5 3s15.1 6.41 19.5 13.21c4.4 6.79 6.6 17.2 6.6 31.2l-1.2 70.2c-22 30-62 45-120 45-34.4 0-66.5-8.9-96.3-26.7s-53.7-42.6-71.7-74.41c-18-31.79-27-67.5-27-107.09 0-37.6 7.8-72.1 23.4-103.5 15.6-31.41 37.1-56.2 64.5-74.41 27.4-18.2 57.7-27.29 90.9-27.29 37.2 0 65.8 5 85.8 15 17.2 8.79 31.4 20.5 42.6 35.1s20.8 32.69 28.8 54.3l10.8-4.8-32.4-117.01-9.6 2.41c0 5.2-8.6 7.79-25.8 7.79-8.4 0-23.4-.79-45-2.39-20-2-37.8-3-53.4-3-36.4 0-71.1 9.69-104.1 29.1-33 19.4-59.6 45.79-79.8 79.2-20.2 33.4-30.3 69.9-30.3 109.5 0 42.4 9.6 80.5 28.8 114.3 19.2 33.79 45.8 60.2 79.8 79.2z"/></g></g><g fill="#b59e72" transform="matrix(.0476735 0 0 -.0502408 808.153 213.976)"><path d="m1939 4167c-230-277-417-579-498-803-50-136-64-223-58-339 8-161 42-239 257-590 235-383 333-771 317-1250-11-321-53-480-182-684-87-137-63-297 60-410 96-87 200-102 306-45 57 32 108 84 141 146 19 36 23 58 23 138 0 100-12 137-70 215-65 86-115 237-141 422-23 168-15 548 15 718 55 309 135 507 332 826 154 248 202 360 214 499 21 226-107 540-366 905-80 112-180 240-240 307l-34 37z"/><path d="m490 2640c-237-63-412-236-464-460-33-139-15-304 47-425 55-110 187-265 300-356l49-39 86 81c104 97 264 206 368 249 221 92 425 51 594-119 153-153 191-315 119-506-25-68-95-146-156-176-67-32-158-32-207 1-40 28-71 78-81 133-7 38-8 39-44 32-50-9-130-46-168-79-96-81-98-240-4-336 63-65 133-90 249-90 158 0 272 49 376 162 92 99 150 225 192 420 26 115 26 432 0 567-38 207-118 396-229 543-138 184-353 324-598 388-123 32-327 37-429 10z"/><path d="m3220 2654c-436-85-745-349-880-753-69-206-94-531-56-741 59-328 210-537 431-595 76-19 207-19 273 0 134 40 208 163 180 300-15 73-91 146-183 174-88 27-95 27-95-6-1-40-33-106-65-131-65-52-160-51-247 2-93 56-156 174-166 313-13 201 147 419 364 493 220 76 457-8 751-268l92-81 78 67c143 124 249 269 301 414 23 64 27 88 26 188-1 97-5 128-27 196-65 196-213 339-422 406-44 15-96 21-195 23-74 2-146 1-160-1z"/></g></g></svg>