<svg clip-rule="evenodd" fill-rule="evenodd" stroke-linejoin="round" stroke-miterlimit="2" viewBox="0 0 500 88" xmlns="http://www.w3.org/2000/svg"><path d="m25.5 0h2.727v54.545h-2.727zm4.091 0h1.364v54.545h-1.364zm4.091 0h1.364v54.545h-1.364zm6.818 0h1.364v54.545h-1.364zm4.091 0h1.364v54.545h-1.364zm2.727 0h2.727v54.545h-2.727zm8.182 0h1.364v54.545h-1.364zm4.091 0h1.364v54.545h-1.364zm4.091 0h5.455v54.545h-5.455zm6.818 0h2.727v54.545h-2.727zm8.182 0h1.364v54.545h-1.364zm2.727 0h1.364v54.545h-1.364zm4.091 0h1.364v54.545h-1.364zm4.091 0h1.364v54.545h-1.364zm2.727 0h2.727v54.545h-2.727zm8.182 0h1.364v54.545h-1.364zm4.091 0h5.455v54.545h-5.455zm8.182 0h1.364v54.545h-1.364zm2.727 0h1.364v54.545h-1.364zm4.091 0h2.727v54.545h-2.727zm5.454 0h4.091v54.545h-4.091zm5.455 0h1.364v54.545h-1.364zm5.455 0h5.455v54.545h-5.455zm6.818 0h1.364v54.545h-1.364zm2.727 0h1.364v54.545h-1.364zm4.091 0h1.364v54.545h-1.364zm4.091 0h5.455v54.545h-5.455zm6.818 0h1.364v54.545h-1.364zm4.091 0h2.727v54.545h-2.727zm4.091 0h1.364v54.545h-1.364zm6.818 0h1.364v54.545h-1.364zm5.455 0h1.364v54.545h-1.364zm2.727 0h5.455v54.545h-5.455zm6.818 0h2.727v54.545h-2.727zm6.818 0h4.091v54.545h-4.091zm5.455 0h1.364v54.545h-1.364zm2.727 0h2.727v54.545h-2.727z" fill="#9b9b87" transform="matrix(2.73632 0 0 1.61168 -69.7762 0)"/></svg>