<?xml version="1.0" standalone="no"?>
<!DOCTYPE svg PUBLIC "-//W3C//DTD SVG 20010904//EN"
 "http://www.w3.org/TR/2001/REC-SVG-20010904/DTD/svg10.dtd">
<svg version="1.0" xmlns="http://www.w3.org/2000/svg"
 width="700.000000pt" height="700.000000pt" viewBox="0 0 700.000000 700.000000"
 preserveAspectRatio="xMidYMid meet">
<metadata>
Created by potrace 1.14, written by Peter Selinger 2001-2017
</metadata>
<g transform="translate(0.000000,700.000000) scale(0.100000,-0.100000)"
fill="#000000" stroke="none">
<path d="M3225 5564 c-519 -39 -897 -118 -1245 -261 -197 -82 -261 -127 -307
-221 -54 -110 -41 -314 29 -447 105 -200 166 -367 212 -575 66 -302 60 -643
-18 -910 -13 -44 -20 -82 -17 -84 3 -2 65 -20 136 -41 499 -141 823 -275 1085
-447 645 -422 1160 -682 1532 -773 200 -49 524 -58 728 -21 223 40 424 126
570 243 122 98 160 179 160 338 -1 172 -38 266 -146 364 -113 103 -253 147
-414 130 -111 -11 -198 -4 -258 22 -38 16 -47 27 -82 101 -80 168 -105 324
-97 623 7 308 52 551 142 776 43 105 58 137 143 289 62 113 65 228 8 347 -41
84 -100 151 -179 205 -113 77 -326 163 -348 141 -5 -5 -28 -61 -50 -124 -241
-682 -302 -1511 -169 -2305 42 -250 68 -354 88 -354 26 0 210 46 276 69 33 12
62 19 65 16 2 -3 -22 -31 -55 -63 -72 -70 -160 -110 -314 -143 -143 -30 -435
-32 -660 -4 l-155 20 135 7 c183 11 395 34 478 53 l69 16 -23 107 c-58 264
-119 693 -149 1047 -44 533 -47 1171 -7 1684 7 88 7 93 -13 101 -31 11 -225
39 -390 56 -142 14 -653 26 -760 18z"/>
<path d="M1537 2765 c-227 -38 -399 -124 -528 -263 -117 -126 -153 -240 -129
-412 27 -199 123 -344 290 -438 169 -95 397 -79 577 41 83 55 132 105 221 222
172 227 466 346 718 290 169 -37 431 -142 624 -250 275 -152 759 -336 1132
-430 327 -82 651 -113 855 -81 341 52 609 239 758 527 44 86 68 139 61 139 -2
0 -22 -29 -45 -64 -51 -77 -173 -201 -256 -257 -114 -79 -271 -143 -425 -174
-104 -22 -424 -31 -531 -16 -405 58 -994 300 -1669 686 -428 245 -879 428
-1184 480 -108 18 -359 18 -469 0z"/>
</g>
</svg>
