<svg clip-rule="evenodd" fill-rule="evenodd" stroke-linejoin="round" stroke-miterlimit="2" viewBox="0 0 12 12" xmlns="http://www.w3.org/2000/svg"><path d="m.026.036h9.925v9.927h-9.925z" fill="#1f2737" transform="matrix(1.20904 0 0 1.20878 -.03121 -.043646)"/><g fill="#191f2c"><path d="m.139 1.066h9.87v.98h-9.87z" transform="matrix(0 -1.21586 1.02072 0 1.91226 12.1689)"/><path d="m.139 1.066h9.87v.98h-9.87z" transform="matrix(1.21586 0 0 1.02072 -.168893 1.91226)"/><path d="m.139 1.066h9.87v.98h-9.87z" transform="matrix(-.00082705 -1.21586 1.02072 -.00069431 5.92054 12.1696)"/><path d="m.139 1.066h9.87v.98h-9.87z" transform="matrix(1.21586 0 0 1.02072 -.168893 5.91226)"/><path d="m.139 1.066h9.87v.98h-9.87z" transform="matrix(1.21586 0 0 1.02072 -.168893 9.91226)"/><path d="m.139 1.066h9.87v.98h-9.87z" transform="matrix(-.00082705 -1.21586 1.02072 -.00069431 9.92054 12.1696)"/></g></svg>