<svg clip-rule="evenodd" fill-rule="evenodd" stroke-linejoin="round" stroke-miterlimit="2" viewBox="0 0 100 100" xmlns="http://www.w3.org/2000/svg"><path d="m-1.164-1.018h103.478v102.735h-103.478z" fill="#212121" transform="matrix(.966392 0 0 .973374 1.12514 .990841)"/><path d="m25.393 53.862c-1.947 0-3.309.128-4.088.384-1.279.416-1.919 1.216-1.919 2.4l-.167.576c0 1.504.668 2.656 2.003 3.456 1.168.704 2.669 1.056 4.505 1.056 1.724 0 3.295-.344 4.714-1.032 1.418-.688 2.127-1.528 2.127-2.52v-3.84c0-.832-.501-1.248-1.502-1.248-.5.032-.778.064-.834.096-1.168.448-2.781.672-4.839.672zm-6.007-2.304h.501l4.338.096c2.225 0 3.977-.224 5.256-.672 1.724-.608 2.586-1.601 2.586-2.977 0-1.024-.667-1.872-2.002-2.544s-2.781-1.008-4.338-1.008c-1.78 0-3.115.448-4.005 1.344.278.096.57.32.876.672s.459.672.459.96v.192c0 .768-.389 1.44-1.168 2.016-1.001.705-2.336 1.057-4.005 1.057-1.334 0-2.475-.272-3.42-.817-.946-.544-1.418-1.264-1.418-2.16 0-1.024.778-1.952 2.336-2.784.166-.096.667-.32 1.501-.672 2.225-.832 5.117-1.248 8.677-1.248 1.613 0 3.184.08 4.714.24 1.529.16 3.073.4 4.63.72 3.004.64 5.284 1.616 6.841 2.928 1.558 1.312 2.336 2.768 2.336 4.369v9.6c0 .768.39 1.264 1.168 1.488.278.064 1.113.144 2.503.24.501 0 .932.12 1.293.36.362.24.543.504.543.792 0 .256-.167.512-.501.768s-.779.384-1.335.384h-11.513c-1.057 0-1.822-.12-2.294-.36-.473-.24-.876-.76-1.21-1.56 0-.096-.097-.16-.292-.192s-.32-.064-.376-.096c-.333 0-.834.128-1.501.384-1.502.8-3.115 1.4-4.839 1.8s-3.504.6-5.34.6c-3.392 0-6.312-.656-8.76-1.968-2.614-1.408-3.921-3.248-3.921-5.52v-.288c0-1.984 1.363-3.552 4.088-4.704 2.281-.96 4.811-1.44 7.592-1.44z" fill="#856624" fill-rule="nonzero" transform="matrix(1.85788 0 0 3.22905 -3.22269 -125.161)"/></svg>