<svg clip-rule="evenodd" fill-rule="evenodd" stroke-linejoin="round" stroke-miterlimit="2" viewBox="0 0 1000 1618" xmlns="http://www.w3.org/2000/svg"><path d="m1744.65 1696.38v-1618.001h-999.999v1618.001l499.999-192.79zm-515.53-1213.828c-45.84 55.201-83.1 115.384-99.24 160.024-9.97 27.102-12.76 44.44-11.56 67.557 1.59 32.084 8.37 47.628 51.21 117.576 46.84 76.326 66.36 153.647 63.18 249.101-2.2 63.97-10.57 95.66-36.27 136.31-17.34 27.3-12.56 59.19 11.95 81.71 19.14 17.34 39.86 20.32 60.98 8.97 11.36-6.38 21.53-16.74 28.1-29.1 3.79-7.17 4.59-11.56 4.59-27.5 0-19.93-2.4-27.3-13.95-42.85-12.96-17.14-22.92-47.23-28.1-84.09-4.59-33.48-2.99-109.21 2.99-143.089 10.96-61.578 26.9-101.036 66.16-164.607 30.69-49.422 40.25-71.742 42.65-99.442 4.18-45.038-21.33-107.613-72.94-180.351-15.95-22.32-35.87-47.828-47.83-61.18l-6.77-7.373zm-288.762 304.304c-47.23 12.555-82.104 47.031-92.467 91.67-6.576 27.701-2.989 60.582 9.367 84.696 10.96 21.921 37.265 52.808 59.784 70.948l9.765 7.77 17.139-16.14c20.725-19.33 52.61-41.056 73.334-49.625 44.04-18.334 84.7-10.163 118.37 23.715 30.5 30.49 38.07 62.77 23.72 100.84-4.98 13.55-18.93 29.09-31.09 35.07-13.35 6.38-31.48 6.38-41.25-.2-7.97-5.58-14.15-15.54-16.14-26.5-1.4-7.58-1.6-7.78-8.77-6.38-9.96 1.79-25.91 9.17-33.48 15.74-19.13 16.15-19.53 47.83-.8 66.96 12.56 12.96 26.51 17.94 49.62 17.94 31.49 0 54.21-9.77 74.93-32.29 18.34-19.73 29.9-44.83 38.27-83.69 5.18-22.92 5.18-86.1 0-112.999-7.57-41.251-23.52-78.916-45.64-108.21-27.5-36.668-70.35-64.568-119.17-77.322-24.51-6.377-65.165-7.373-85.492-1.993zm544.042-2.79c-86.89 16.94-148.47 69.55-175.37 150.06-13.75 41.053-18.73 105.814-11.16 147.674 11.76 65.36 41.85 107.01 85.89 118.57 15.15 3.78 41.25 3.78 54.41 0 26.7-7.97 41.45-32.49 35.87-59.79-2.99-14.54-18.14-29.09-36.47-34.67-17.54-5.38-18.93-5.38-18.93 1.19-.2 7.98-6.58 21.13-12.96 26.11-12.95 10.36-31.88 10.16-49.22-.4-18.53-11.16-31.09-34.67-33.08-62.37-2.59-40.06 29.29-83.504 72.54-98.251 43.84-15.145 91.07 1.595 149.66 53.411l18.33 16.14 15.55-13.35c28.49-24.71 49.62-53.61 59.98-82.506 4.59-12.754 5.38-17.537 5.18-37.465-.2-19.331-.99-25.508-5.38-39.06-12.95-39.059-42.44-67.556-84.09-80.908-8.77-2.99-19.14-4.185-38.86-4.584-14.75-.398-29.1-.199-31.89.199z" fill="#c13129" transform="matrix(1.00000209 0 0 1.00000209 -744.651637 -78.379016)"/></svg>