<svg clip-rule="evenodd" fill-rule="evenodd" stroke-linejoin="round" stroke-miterlimit="2" viewBox="0 0 500 500" xmlns="http://www.w3.org/2000/svg"><ellipse cx="1474.47" cy="1691.91" fill="#febe98" rx="252.646" ry="252.252" transform="matrix(.989527 0 0 .991072 -1209.03 -1426.81)"/><path d="m188.619 31.09s19.614 42.688 5.389 101.698c0 0-6.875-1.123-13.241-3.675 0 0 4.076 14.03 44.759 7.283 0 0-19.306-.419-26.063-2.747 0 0 11.459-44.061 6.232-106.726 0 0 50.831-10.724 92.714 8.871 4.685 2.192 7.85 5.682 7.495 13.588 0 0-.349 6.156-3.379 10.391 0 0-14.87 26.485-5.152 55.186 0 0-30.892 8.071-42.511 16.334 0 0-37.473 25.721-59.633 29.966 0 0-28.747 6.47-47.092-9.788 0 0-6.648-4.063-3.167-18.411 0 0 4.188-10.184 16.493-10.684 0 0 13.037 2.091 14.292-2.381 0 0 9.868-12.609 1.471-47.218 0 0-2.652-8.382-6.336-14.569 0 0-7.176-8.444 1.563-18.532 0 0 4.177-5.31 16.166-8.586zm-45.944 118.008s8.888 20.353 37.717 19.722c0 0 18.577 4.118 71.132-26.415 0 0 29.982-17.423 49.204-17.028 0 0 25.311-1.085 32.572 17.154 0 0 4.034 17.696-12.354 24.957 0 0-15.65 6.928-27.921-12.083 0 0-6.949-9.252-20.831-9.815 0 0-10.432.212-30.116 11.409 0 0-34.652 17.456-61.82 17.402 0 0-27.603 2.528-37.583-25.303z" fill="#1f1212" transform="matrix(-1.96207 0 0 1.96207 717.38 55.31)"/></svg>