<svg clip-rule="evenodd" fill-rule="evenodd" stroke-linejoin="round" stroke-miterlimit="2" viewBox="0 0 500 175" xmlns="http://www.w3.org/2000/svg"><path d="m826.706 1202.35c-2.393 1.53-5.43 3-9.111 4.41-10.517 4.01-21.256 6.02-32.217 6.02s-20.219-1.79-27.773-5.36c-7.554-3.56-12.739-7.25-15.553-11.04s-4.888-7.47-6.221-11.04-2.74-5.35-4.222-5.35c-2.37 0-7.035 2.34-13.997 7.03-6.962 4.68-14.813 9.4-23.552 14.16s-16.515 7.14-23.329 7.14c-7.11-.45-12.739-2.2-16.886-5.24-4.148-3.05-6.814-6.21-7.999-9.48-2.666-8.93-8.295-13.39-16.886-13.39 0-2.38 4.592-6.28 13.776-11.71 9.183-5.42 16.663-8.14 22.44-8.14s10.073 1.12 12.887 3.35 4.518 4.68 5.11 7.36c.593 2.68 2.296 5.13 5.11 7.36 2.815 2.23 6.962 3.34 12.443 3.34 5.48 0 10.368-1.22 14.664-3.68 4.295-2.45 7.776-5.2 10.443-8.25 2.666-3.05 6.221-5.8 10.664-8.25 4.444-2.46 8.814-3.68 13.109-3.68 4.296 0 7.332.89 9.11 2.68 18.367 19.77 37.031 29.66 55.99 29.66 2.791 0 5.319-.2 7.584-.59 1.244-5.71 4.937-11.2 11.08-16.47 7.702-6.62 16.886-11.94 27.551-15.95 23.699-8.77 42.067-13.16 55.101-13.16 19.553.3 29.329 3.79 29.329 10.48 0 2.38-2.074 4.72-6.221 7.03-4.148 2.3-7.999 3.46-11.554 3.46s-8.443-1.56-14.664-4.69c-6.221-3.12-13.035-4.68-20.441-4.68s-13.479 1.52-18.219 4.57-7.11 6.95-7.11 11.71c0 7.73 8.147 11.6 24.44 11.6 6.518 0 11.924-.82 16.22-2.45 4.295-1.64 7.332-3.43 9.109-5.36 5.036-5.05 9.628-7.58 13.776-7.58 3.555 0 5.332.89 5.332 2.68l-1.777 6.24c0 2.68 2.296 5.47 6.887 8.36 4.592 2.9 9.999 4.35 16.22 4.35 4.74 0 8.591-.52 11.553-1.56 6.518-2.23 10.591-3.75 12.221-4.57 1.052-.53 2.538-.89 4.457-1.07 1.226-4.52 4.11-9.92 8.651-16.22 6.219-8.62 12.299-12.93 18.219-12.93 2.96.15 5.41.89 7.33 2.23 1.93 1.34 2.97 2.82 3.11 4.46.15 1.64.82 3.64 2 6.02 1.19 2.38 4.45 5.02 9.78 7.92s12.29 4.35 20.88 4.35c14.82 0 26.96-6.39 36.44-19.18 0-.15.3-.56.89-1.23s1.04-1.19 1.33-1.56c.3-.37.74-.89 1.34-1.56.59-.67 1.18-1.15 1.78-1.45 4.14-1.64 7.55-1.64 10.22 0 1.77 1.19 2.81 3.34 3.11 6.47 0 4.75 4.07 9.4 12.22 13.94 8.14 4.53 18.73 6.8 31.77 6.8 13.03 0 23.4-1.93 31.1-5.8 2.97-1.78 5.93-2.68 8.89-2.68 2.08 0 3.11.6 3.11 1.79s-.74 2.45-2.22 3.79c-5.92 5.35-17.11 11.49-33.55 18.4-16.44 6.92-30.88 10.37-43.33 10.37-23.4 0-35.69-7.21-36.88-21.63 0-1.34-.59-2.01-1.77-2.01-.6 0-3.63 1.78-9.12 5.35-5.48 3.57-13.03 7.18-22.66 10.82s-19.55 5.46-29.77 5.46-18.37-1.56-24.441-4.68c-4.326-2.22-7.111-5-8.356-8.31-3.136 1.95-7.091 4.27-11.863 6.97-4.443 2.53-10.961 5.21-19.552 8.03-8.591 2.83-16.219 4.24-22.885 4.24-6.665 0-11.701-.56-15.108-1.67-3.407-1.12-5.851-2.87-7.332-5.24-1.778-3.28-2.667-7.29-2.667-12.05 0-.59-.74-.89-2.221-.89-1.482 0-4.889 1.49-10.221 4.46-16.59 8.62-29.995 12.94-40.215 12.94-10.221 0-18.071-1.34-23.552-4.02-1.254-.61-2.364-1.26-3.331-1.95zm576.104-32.17c-6.36 3.42-11.76 5.13-16.2 5.13-6.22 8.47-16.52 16.31-30.88 23.53-14.37 7.21-29.11 10.81-44.22 10.81-10.66 0-19.55-1.74-26.66-5.24-7.11-3.49-10.67-8.62-10.67-15.39 0-6.76 5.63-14.12 16.89-22.08 11.26-7.95 22.81-11.93 34.66-11.93v-.89c0-3.27 2.22-5.91 6.67-7.92 4.44-2.01 9.92-3.01 16.44-3.01 20.14 0 33.92 5.95 41.32 17.84.14.2.28.39.42.56 2.25-1.46 5-3.09 8.25-4.91 10.52-5.87 19.92-8.81 28.22-8.81 3.55 0 6.74.52 9.55 1.56s4.37 2.31 4.67 3.8l2.22 10.03c.89.6 1.78.89 2.66.89.89 0 3.26-1.19 7.12-3.56 12.44-7.29 23.55-10.93 33.32-10.93 3.85 0 6.96.29 9.33.89 2.37.59 5.11 1.75 8.22 3.46 3.12 1.7 4.82 2.63 5.12 2.78 2.07-.44 4.14-.67 6.22-.67 3.26 0 4.88 1.01 4.88 3.01 0 2.01-5.77 5.73-17.33 11.16-11.55 5.42-20.14 8.14-25.77 8.14s-10.37-1.27-14.22-3.79c-3.85-2.53-6.66-3.79-8.44-3.79-6.82 0-10.22 1.78-10.22 5.35 0 2.68 2.44 7.21 7.33 13.6 4.89 6.4 7.33 10.19 7.33 11.38 0 2.97-3.03 5.32-9.11 7.02-6.07 1.71-12.74 2.57-20 2.57-7.25 0-13.1-.6-17.55-1.78-4.44-1.19-6.66-2.83-6.66-4.91l12.44-26.99c0-4.61-5.04-6.91-15.11-6.91zm-29.98 5.8c-13.92 0-24.88-1.79-32.88-5.36s-12.59-8.1-13.78-13.6c-4.74 1.78-7.1 5.09-7.1 9.92s2.74 9.07 8.22 12.71c5.48 3.65 12.29 5.47 20.44 5.47 8.14 0 14.37-1.04 18.66-3.12 4.3-2.09 6.44-4.09 6.44-6.02zm-889.178-5.13-1.778 6.24c0 2.68 2.296 5.47 6.888 8.36 4.592 2.9 9.998 4.35 16.219 4.35 4.74 0 8.591-.52 11.554-1.56 6.517-2.23 10.591-3.75 12.22-4.57s4.296-1.23 7.999-1.23 5.554.67 5.554 2.01c0 1.49-6.962 6.17-20.885 14.05-4.444 2.53-10.961 5.21-19.552 8.03-8.591 2.83-16.22 4.24-22.885 4.24-6.666 0-11.702-.56-15.109-1.67-3.407-1.12-5.851-2.87-7.332-5.24-1.777-3.28-2.666-7.29-2.666-12.05 0-.59-.741-.89-2.222-.89s-4.888 1.49-10.221 4.46c-16.589 8.62-29.994 12.94-40.215 12.94-10.22 0-18.071-1.34-23.551-4.02-5.481-2.68-8.221-6.1-8.221-10.26 0-7.28 3.851-14.24 11.553-20.85 7.703-6.62 16.886-11.94 27.551-15.95 23.7-8.77 42.067-13.16 55.102-13.16 19.552.3 29.328 3.79 29.328 10.48 0 2.38-2.073 4.72-6.221 7.03-4.147 2.3-7.999 3.46-11.553 3.46-3.555 0-8.443-1.56-14.665-4.69-6.221-3.12-13.034-4.68-20.441-4.68-7.406 0-13.479 1.52-18.219 4.57s-7.11 6.95-7.11 11.71c0 7.73 8.147 11.6 24.441 11.6 6.517 0 11.924-.82 16.219-2.45 4.296-1.64 7.332-3.43 9.11-5.36 5.036-5.05 9.628-7.58 13.775-7.58 3.555 0 5.333.89 5.333 2.68zm49.769-.67-11.998.44c-5.333 0-7.999-.67-7.999-2 0-2.09 5.259-6.06 15.775-11.94 10.517-5.87 19.923-8.81 28.218-8.81 3.555 0 6.739.52 9.554 1.56 2.814 1.04 4.369 2.31 4.666 3.8l2.221 10.03c.889.6 1.778.89 2.667.89.888 0 3.258-1.19 7.11-3.56 12.442-7.29 23.551-10.93 33.327-10.93 3.851 0 6.962.29 9.332.89 2.37.59 5.11 1.75 8.221 3.46 3.11 1.7 4.814 2.63 5.11 2.78 2.074-.44 4.147-.67 6.221-.67 3.259 0 4.888 1.01 4.888 3.01 0 2.01-5.777 5.73-17.33 11.16-11.554 5.42-20.145 8.14-25.774 8.14-5.628 0-10.368-1.27-14.219-3.79-3.852-2.53-6.666-3.79-8.443-3.79-6.814 0-10.221 1.78-10.221 5.35 0 2.68 2.444 7.21 7.332 13.6 4.888 6.4 7.332 10.19 7.332 11.38 0 2.97-3.036 5.32-9.109 7.02-6.073 1.71-12.739 2.57-19.997 2.57s-13.109-.6-17.552-1.78c-4.444-1.19-6.666-2.83-6.666-4.91l12.442-26.99c0-4.61-5.036-6.91-15.108-6.91zm678.109 30.33c-4.45-2.53-6.67-5.65-6.67-9.37s2.3-6.84 6.89-9.37c4.59-2.52 10.3-3.79 17.11-3.79s12.52 1.27 17.11 3.79c4.59 2.53 6.88 5.65 6.88 9.37s-2.29 6.84-6.88 9.37-10.3 3.79-17.11 3.79-12.59-1.26-17.33-3.79zm379.49 12.71c-.59-4.76-.89-12.04-.89-21.85-.59 0-2.74.92-6.44 2.78-3.71 1.86-7.85 3.87-12.45 6.02-4.59 2.16-10.36 4.17-17.33 6.03-6.96 1.86-15.03 2.79-24.21 2.79-9.19 0-16.67-1.42-22.44-4.24-5.78-2.83-8.67-6.62-8.67-11.38 0-10.26 10-20.85 30-31.78 19.99-10.93 41.84-16.4 65.54-16.4 7.41 0 13.41.86 18 2.57s6.88 3.9 6.88 6.58c0 2.38-1.77 4.61-5.33 6.69-6.22 3.57-14.07 5.35-23.55 5.35-3.55 0-5.33-.52-5.33-1.56 0-.59.37-1.26 1.11-2 .74-.75 1.11-1.71 1.11-2.9 0-2.98-2.82-4.47-8.44-4.47-9.19 0-16.89 2.01-23.11 6.03-6.22 4.01-9.33 7.95-9.33 11.82 0 3.86 1.85 6.73 5.55 8.59 3.7 1.85 7.93 2.78 12.67 2.78s10.22-1.11 16.44-3.34 10.22-4.76 12-7.58c2.07-3.87 6.66-5.81 13.77-5.81 2.67 0 4 1.01 4 3.02 0 2-.96 4.75-2.89 8.25-1.92 3.49-3.26 6.62-4 9.37s-1.11 8.58-1.11 17.51c18.07-10.71 34.52-19.48 49.33-26.32 3.26-1.64 6.51-2.46 9.77-2.46s4.89.56 4.89 1.68c0 1.11-1.63 2.41-4.89 3.9-25.77 11.75-45.32 21.78-58.65 30.11.59 10.71.89 19.4.89 26.1 0 18.28-2.75 32.97-8.23 44.05-5.48 11.07-15.92 16.61-31.32 16.61-9.78 0-17.33-2.34-22.67-7.02-5.33-4.69-8-11.04-8-19.07 0-16.21 19.11-36.36 57.33-60.45zm0 7.81c-9.18 6.84-15.11 12.94-17.78 18.29-2.66 5.35-3.99 11.75-3.99 19.18s3.99 11.38 11.99 11.82c6.82 0 10.22-10.56 10.22-31.67 0-7.29-.14-13.16-.44-17.62zm-1116.385-147.93c11.057.26 15.717 2.17 15.717 2.17 9.553 3.55 4.954 7.93 4.954 7.93-2.002 3.06-2.681 6.98-2.681 6.98-.585 15.91 10.438 20.45 10.438 20.45 1.958 1.83 12.885-.35 12.885-.35 10.793-.98 16.409 3.06 16.409 3.06 5.809 5.92.818 8.34.818 8.34-12.792 8.88-39.034 8.85-39.034 8.85-20.085.31-57.647-7.26-57.647-7.26-11.703-2.48-40.12-2.99-40.12-2.99 2.879-13.47-15.184-23.58-15.184-23.58-3.455-1.55-4.953-4.2-4.953-4.2-1.842-3.42.232-5.25 3.879-6.66 32.604-12.63 78.868-12.9 78.868-12.9 7.612 27.85 26.12 45.96 26.12 45.96-5.421 1.67-22.121 3.73-22.121 3.73 36.671-1.01 37.493-7.53 37.493-7.53-5.039 1.73-10.797 2.89-10.797 2.89-23.811-24.36-15.044-44.89-15.044-44.89zm62.827 47.01c-3.275 13.11-27.759 14.7-27.759 14.7-23.604 2.67-57.11-1.57-57.11-1.57-19.282-2.97-28.392-2.05-28.392-2.05-11.956 1.6-16.202 6.31-16.202 6.31-6.979 9.49-21.926 7.99-21.926 7.99-15.653-1.57-15.579-9.68-15.579-9.68 2.773-8.67 24.984-10.66 24.984-10.66 16.632-2.04 46.072 2.64 46.072 2.64 51.606 8.2 66.954 4.6 66.954 4.6 25.181-2.53 28.958-12.28 28.958-12.28z" fill="#814a49" transform="matrix(.385471 0 0 .767979 -142.411875 -823.995388)"/></svg>