<?xml version="1.0" encoding="UTF-8" standalone="no"?>
<!DOCTYPE svg PUBLIC "-//W3C//DTD SVG 1.1//EN" "http://www.w3.org/Graphics/SVG/1.1/DTD/svg11.dtd">
<svg width="100%" height="100%" viewBox="0 0 100 162" version="1.1" xmlns="http://www.w3.org/2000/svg" xmlns:xlink="http://www.w3.org/1999/xlink" xml:space="preserve" xmlns:serif="http://www.serif.com/" style="fill-rule:evenodd;clip-rule:evenodd;stroke-linejoin:round;stroke-miterlimit:2;">
    <g transform="matrix(1,0,0,1,-1881.21,-686.761)">
        <g transform="matrix(1,0,0,1.00051,0,-0.347331)">
            <path d="M1981.21,848.479L1981.21,686.761L1881.21,686.761L1881.21,848.479L1931.21,821.157L1981.21,848.479ZM1928.68,740.521C1927.78,740.521 1926.48,740.493 1924.76,740.437C1923.05,740.381 1921.24,740.297 1919.33,740.184C1917.41,740.072 1915.55,739.931 1913.72,739.763C1911.89,739.594 1910.42,739.398 1909.3,739.173C1909.07,739.06 1908.86,738.765 1908.66,738.288C1908.47,737.81 1908.37,737.347 1908.37,736.897C1908.37,736.391 1908.59,735.998 1909.04,735.717C1911.29,736.335 1913.73,736.827 1916.38,737.192C1919.02,737.557 1921.55,737.852 1923.96,738.077C1926.38,738.302 1928.56,738.442 1930.49,738.499C1932.43,738.555 1933.85,738.583 1934.75,738.583C1936.94,738.583 1939.19,738.527 1941.49,738.414C1943.8,738.302 1945.93,738.161 1947.9,737.993C1949.87,737.824 1951.51,737.656 1952.83,737.487C1954.15,737.319 1954.92,737.15 1955.15,736.981C1955.26,736.981 1955.43,737.094 1955.65,737.319C1955.88,737.543 1955.99,737.796 1955.99,738.077C1955.99,738.695 1955.71,739.159 1955.15,739.468C1954.59,739.777 1953.8,740.002 1952.79,740.142C1951.78,740.283 1950.54,740.381 1949.08,740.437C1947.62,740.493 1945.99,740.578 1944.19,740.69C1943.91,740.746 1943.77,741.055 1943.77,741.617C1943.77,742.91 1943.98,745.045 1944.4,748.023C1944.82,751.001 1945.36,754.373 1946,758.137C1946.65,761.902 1947.38,765.864 1948.19,770.022C1949.01,774.18 1949.82,778.1 1950.64,781.78C1951.45,785.461 1952.21,788.692 1952.91,791.473C1953.62,794.255 1954.22,796.151 1954.73,797.163C1955.01,797.275 1955.25,797.345 1955.44,797.373C1955.64,797.401 1955.99,797.415 1956.5,797.415C1957.23,797.415 1957.86,797.387 1958.39,797.331C1958.93,797.275 1959.33,797.247 1959.61,797.247C1959.84,797.247 1960.01,797.472 1960.12,797.921C1960.23,798.371 1960.29,798.68 1960.29,798.848C1960.29,799.242 1960.09,799.438 1959.7,799.438C1959.42,799.438 1959.02,799.41 1958.52,799.354C1958.01,799.298 1957.31,799.256 1956.41,799.228C1955.51,799.2 1954.35,799.157 1952.91,799.101C1951.48,799.045 1949.67,799.017 1947.48,799.017C1946.75,799.017 1945.95,799.045 1945.08,799.101C1944.2,799.157 1943.38,799.214 1942.59,799.27C1941.8,799.326 1941.1,799.382 1940.48,799.438C1939.86,799.495 1939.44,799.523 1939.22,799.523C1939.05,799.523 1938.91,799.41 1938.8,799.185C1938.68,798.961 1938.63,798.708 1938.63,798.427C1938.63,798.146 1938.67,797.907 1938.75,797.71C1938.84,797.514 1938.99,797.415 1939.22,797.415C1939.72,797.359 1940.4,797.317 1941.24,797.289C1942.08,797.261 1942.5,797.05 1942.5,796.657C1942.5,796.32 1942.36,795.308 1942.08,793.623C1941.8,791.937 1941.45,789.914 1941.03,787.554C1940.61,785.194 1940.16,782.679 1939.68,780.01C1939.2,777.341 1938.74,774.855 1938.29,772.551C1937.28,772.382 1936,772.242 1934.45,772.129C1932.91,772.017 1931.29,771.961 1929.61,771.961C1927.64,771.961 1925.77,772.045 1924,772.214C1922.23,772.382 1920.84,772.691 1919.83,773.141C1919.55,774.377 1919.24,775.683 1918.9,777.06C1918.57,778.437 1918.24,779.827 1917.93,781.232C1917.62,782.637 1917.36,784.028 1917.13,785.404C1916.91,786.781 1916.8,788.06 1916.8,789.24C1916.8,791.543 1917.29,793.201 1918.27,794.213C1919.26,795.224 1920.48,795.73 1921.94,795.73C1923.4,795.73 1924.31,795.688 1924.68,795.603C1925.04,795.519 1925.37,795.477 1925.65,795.477C1926.1,795.477 1926.32,795.589 1926.32,795.814C1926.32,795.926 1926.19,796.109 1925.94,796.362C1925.69,796.615 1925.37,796.882 1924.97,797.163C1924.47,797.556 1923.81,798.048 1922.99,798.638C1922.18,799.228 1921.12,799.523 1919.83,799.523C1919.66,799.523 1919.23,799.495 1918.52,799.438C1917.82,799.382 1916.97,799.312 1915.95,799.228C1914.94,799.143 1913.87,799.073 1912.75,799.017C1911.63,798.961 1910.56,798.933 1909.55,798.933C1908.14,798.933 1907.01,798.961 1906.13,799.017C1905.26,799.073 1904.58,799.129 1904.07,799.185C1903.56,799.242 1903.21,799.298 1903.02,799.354C1902.82,799.41 1902.66,799.438 1902.55,799.438C1902.44,799.438 1902.34,799.34 1902.26,799.143C1902.17,798.947 1902.13,798.736 1902.13,798.511C1902.13,798.174 1902.27,797.977 1902.55,797.921C1903.11,797.696 1903.93,797.275 1905,796.657C1906.12,795.983 1907.12,794.845 1907.99,793.243C1908.86,791.642 1909.86,789.464 1910.98,786.711C1911.77,784.857 1912.64,782.328 1913.59,779.125C1914.55,775.922 1915.5,772.41 1916.46,768.589C1917.41,764.768 1918.31,760.764 1919.16,756.578C1920,752.392 1920.7,748.36 1921.26,744.483L1928.68,740.521ZM1937.28,766.735C1937,765.33 1936.67,763.588 1936.31,761.509C1935.94,759.43 1935.56,757.309 1935.17,755.145C1934.78,752.982 1934.4,750.945 1934.03,749.034C1933.67,747.124 1933.37,745.663 1933.15,744.652C1932.81,743.134 1932.52,742.179 1932.26,741.786C1932.01,741.392 1931.74,741.196 1931.46,741.196C1930.9,741.196 1930.31,741.659 1929.69,742.586C1929.07,743.514 1928.41,744.75 1927.71,746.295C1927.01,747.84 1926.32,749.61 1925.65,751.605C1924.97,753.6 1924.31,755.651 1923.67,757.758C1923.02,759.865 1922.43,761.959 1921.9,764.038C1921.36,766.117 1920.93,767.999 1920.59,769.685C1921.49,769.46 1922.63,769.221 1924,768.968C1925.38,768.716 1926.84,768.449 1928.39,768.168C1929.93,767.887 1931.48,767.62 1933.02,767.367C1934.57,767.114 1935.99,766.903 1937.28,766.735Z" style="fill:rgb(193,49,41);"/>
        </g>
    </g>
</svg>
