<svg viewBox="0 0 48 48" xmlns="http://www.w3.org/2000/svg">
	<path d="m48 9.45v29.1c0 5.217-4.233 9.45-9.45 9.45h-29.1c-5.217 0-9.45-4.233-9.45-9.45v-29.1c0-5.217 4.233-9.45 9.45-9.45h29.1c5.217 0 9.45 4.233 9.45 9.45z" fill="#e1cd6d" />
	<path d="m25.033 10.358c0-1.308-.421-2.471-1.271-3.475-.854-1.004-2.012-1.508-3.487-1.508-.317 0-.663.071-1.033.2-.371.129-.721.304-1.067.521-.346.221-.633.475-.863.758-.233.283-.345.6-.345.95 0 .392.17.688.516.883.346.196.734.43 1.171.688.442.267.829.625 1.175 1.087.346.459.517 1.142.517 2.063 0 1.004-.379 1.85-1.138 2.525-.758.675-1.666 1.017-2.725 1.017-1.287 0-2.25-.417-2.896-1.25-.641-.825-.966-1.813-.966-2.946 0-1.271.346-2.396 1.037-3.379.688-.984 1.563-1.805 2.617-2.463 1.058-.654 2.221-1.154 3.483-1.504 1.263-.346 2.496-.525 3.688-.525 1.475 0 2.9.217 4.279.658 1.379.434 2.646 1.134 3.792 2.096.966.788 1.775 1.65 2.416 2.592.646.937 1.192 1.929 1.655 2.983.458 1.046.837 2.133 1.133 3.246.304 1.112.633 2.217 1.004 3.308.183.609.4 1.204.658 1.775.25.563.559 1.059.93 1.475.366.413.825.738 1.379.984.554.237 1.216.358 2 .358h1.308v19.671c-.504.092-1.021.179-1.554.267-.525.079-1.067.129-1.617.129-2.666 0-5.079-.746-7.241-2.229-2.159-1.492-3.771-3.371-4.83-5.642-.504 1.183-1.183 2.283-2.033 3.312-.85 1.03-1.804 1.913-2.862 2.659-1.059.741-2.221 1.316-3.48 1.737-1.266.417-2.591.621-3.97.621-1.842 0-3.517-.35-5.034-1.05-1.516-.7-2.825-1.629-3.929-2.788-1.104-1.154-1.954-2.5-2.55-4.033-.6-1.529-.9-3.146-.9-4.854 0-2.358.388-4.292 1.171-5.8.783-1.513 1.829-2.767 3.137-3.771 1.313-1.008 2.855-1.846 4.625-2.525 1.767-.675 3.642-1.337 5.621-1.996.734-.266 1.492-.6 2.275-1.021.784-.416 1.479-.908 2.1-1.475.625-.566 1.129-1.212 1.517-1.937.396-.713.587-1.513.587-2.392zm-.412 4.267c-.779.917-1.621 1.725-2.517 2.425s-1.875 1.354-2.929 1.967c-.508.308-.921.641-1.246 1.02-.321.367-.479.859-.479 1.475 0 .609.217 1.134.654 1.571.438.438.975.654 1.621.654.875 0 1.6-.358 2.175-1.083.575-.721 1.054-1.575 1.446-2.558.387-.979.675-1.988.862-3.017.179-1.025.321-1.842.413-2.454z" fill="#3e4e57" />
</svg>