<svg clip-rule="evenodd" fill-rule="evenodd" stroke-linejoin="round" stroke-miterlimit="2" viewBox="0 0 48 48" xmlns="http://www.w3.org/2000/svg"><path d="m48 9.45v29.1c0 5.217-4.233 9.45-9.45 9.45h-29.1c-5.217 0-9.45-4.233-9.45-9.45v-29.1c0-5.217 4.233-9.45 9.45-9.45h29.1c5.217 0 9.45 4.233 9.45 9.45z" fill="#f5f1eb"/><path d="m25.059 10.017c0-1.341-.432-2.533-1.303-3.562-.875-1.029-2.062-1.546-3.574-1.546-.325 0-.68.073-1.059.205-.38.133-.739.312-1.094.534-.354.227-.648.487-.884.777-.239.29-.354.615-.354.974 0 .402.174.705.529.905.355.201.752.441 1.2.705.453.274.85.641 1.205 1.115.354.47.53 1.17.53 2.114 0 1.029-.389 1.896-1.167 2.588-.777.692-1.707 1.043-2.793 1.043-1.319 0-2.306-.428-2.968-1.282-.657-.845-.99-1.858-.99-3.019 0-1.303.354-2.456 1.062-3.464.706-1.008 1.603-1.85 2.683-2.524 1.084-.671 2.276-1.183 3.57-1.542 1.295-.355 2.558-.538 3.78-.538 1.512 0 2.973.222 4.386.674 1.414.445 2.712 1.163 3.887 2.149.99.808 1.819 1.691 2.476 2.657.662.96 1.222 1.977 1.697 3.057.469 1.072.858 2.187 1.161 3.327.312 1.14.649 2.273 1.029 3.391.188.624.41 1.234.675 1.819.256.578.573 1.086.953 1.512.375.424.845.757 1.413 1.009.568.243 1.247.367 2.05.367h1.341v20.163c-.517.094-1.047.183-1.593.273-.538.081-1.094.133-1.657.133-2.733 0-5.206-.765-7.422-2.285-2.213-1.529-3.866-3.455-4.951-5.783-.517 1.212-1.213 2.34-2.084 3.395s-1.849 1.96-2.933 2.725c-1.086.76-2.277 1.349-3.567 1.78-1.298.428-2.656.637-4.07.637-1.888 0-3.605-.359-5.16-1.076-1.553-.718-2.895-1.67-4.027-2.858-1.131-1.183-2.003-2.562-2.614-4.134-.615-1.567-.922-3.224-.922-4.975 0-2.417.398-4.399 1.2-5.945.803-1.551 1.875-2.836 3.216-3.865 1.346-1.034 2.926-1.893 4.74-2.589 1.811-.691 3.733-1.37 5.762-2.045.752-.273 1.529-.615 2.332-1.047.803-.426 1.516-.931 2.152-1.512.641-.58 1.157-1.242 1.555-1.985.406-.731.602-1.551.602-2.452zm-.422 4.374c-.799.94-1.662 1.768-2.58 2.485-.919.718-1.922 1.388-3.003 2.016-.52.316-.944.657-1.277 1.046-.329.376-.491.88-.491 1.512 0 .624.223 1.162.671 1.61.449.449.999.67 1.661.67.897 0 1.64-.367 2.23-1.11.589-.739 1.08-1.614 1.482-2.622.396-1.003.692-2.037.883-3.092.184-1.051.329-1.888.424-2.515z" fill="#c43c20" fill-rule="nonzero"/></svg>