<svg viewBox="0 0 48 48" xmlns="http://www.w3.org/2000/svg">
	<path d="m48 8.577v30.846c0 4.734-3.843 8.577-8.577 8.577h-30.846c-4.734 0-8.577-3.843-8.577-8.577v-30.846c0-4.734 3.843-8.577 8.577-8.577h30.846c4.734 0 8.577 3.843 8.577 8.577z" fill="#e4dcc8" />
	<path d="m22.327 16.219h-5.697c-6.043 0-10.013 2.129-10.013 7.366 0 5.697 4.143 7.711 8.632 7.711 3.28 0 5.409-1.094 7.251-3.913l-.173 3.395h7.711v-13.926c0-7.712-4.776-11.107-11.049-11.107-5.754 0-8.344 1.784-10.646 4.028l4.316 4.604c1.093-.978 2.647-2.244 5.582-2.244 2.59 0 3.971 1.266 4.086 4.086zm0 4.604v.978c0 2.072-1.611 3.453-4.776 3.453-2.187 0-3.338-.806-3.338-2.187s.863-2.244 2.82-2.244z" fill="#222122" />
	<path d="m33.442 30.779-1.266-25.839h8.689l-1.266 25.839zm3.107 12.281c-2.647 0-4.891-2.015-4.891-4.892 0-2.82 2.244-4.834 4.891-4.834 2.59 0 4.834 2.014 4.834 4.834 0 2.877-2.244 4.892-4.834 4.892z" fill="#e84a07" />
</svg>