<svg viewBox="0 0 48 48" xmlns="http://www.w3.org/2000/svg"><path d="m48 9.45v29.1c0 5.217-4.233 9.45-9.45 9.45h-29.1c-5.217 0-9.45-4.233-9.45-9.45v-29.1c0-5.217 4.233-9.45 9.45-9.45h29.1c5.217 0 9.45 4.233 9.45 9.45z" fill="#f5f1eb"/><path d="m24.136 8.994c0-1.439-.463-2.718-1.398-3.823-.939-1.104-2.213-1.659-3.835-1.659-.349 0-.73.079-1.137.22-.408.142-.793.335-1.173.574-.381.243-.697.522-.95.833-.256.312-.379.66-.379 1.045 0 .432.187.757.567.972.381.215.808.473 1.288.756.487.294.912.688 1.293 1.196.381.505.569 1.256.569 2.269 0 1.105-.417 2.035-1.252 2.778-.834.742-1.833 1.119-2.998 1.119-1.415 0-2.475-.459-3.185-1.375-.705-.908-1.063-1.995-1.063-3.241 0-1.398.381-2.636 1.141-3.717.757-1.082 1.719-1.985 2.879-2.709 1.163-.72 2.443-1.27 3.831-1.655 1.389-.38 2.745-.577 4.057-.577 1.622 0 3.19.239 4.707.724 1.516.477 2.91 1.247 4.171 2.305 1.062.867 1.952 1.815 2.657 2.852.711 1.03 1.312 2.121 1.821 3.281.504 1.15.921 2.346 1.246 3.57.335 1.224.696 2.439 1.105 3.639.201.67.44 1.325.723 1.953.275.619.615 1.165 1.023 1.622.403.455.908.812 1.517 1.083.61.26 1.338.393 2.2.393h1.439v21.639c-.554.101-1.123.197-1.709.293-.578.087-1.174.142-1.779.142-2.933 0-5.587-.82-7.965-2.452-2.375-1.641-4.148-3.708-5.313-6.206-.555 1.301-1.301 2.511-2.236 3.643-.935 1.133-1.985 2.105-3.149 2.925-1.165.815-2.443 1.448-3.828 1.911-1.392.459-2.85.683-4.367.683-2.026 0-3.868-.385-5.537-1.155-1.668-.77-3.108-1.792-4.322-3.067-1.214-1.269-2.149-2.75-2.805-4.436-.66-1.682-.99-3.461-.99-5.339 0-2.594.427-4.722 1.288-6.38.861-1.665 2.012-3.044 3.451-4.149 1.444-1.108 3.14-2.03 5.087-2.777 1.944-.743 4.007-1.471 6.183-2.196.808-.292 1.642-.66 2.503-1.123.862-.457 1.627-.999 2.31-1.622.687-.623 1.242-1.333 1.669-2.131.435-.784.645-1.664.645-2.631zm-.453 4.693c-.857 1.009-1.783 1.898-2.769 2.668-.985.77-2.062 1.489-3.221 2.164-.559.338-1.014.705-1.371 1.122-.353.403-.527.945-.527 1.622 0 .67.239 1.248.719 1.728.482.482 1.073.72 1.784.72.962 0 1.76-.394 2.392-1.192.633-.793 1.159-1.732 1.591-2.813.425-1.077.742-2.187.948-3.319.197-1.128.353-2.026.454-2.7z" fill="#303031"/></svg>