<svg viewBox="517.118 287.025 994.658 1343.97" xmlns="http://www.w3.org/2000/svg"><path d="m536 1625.5v-5.5h486 486v5.5 5.5h-486-486zm388.714-30.12c-.393-.39-.714-74.8-.714-165.35 0-126.71.276-164.91 1.2-165.83.66-.66 2.122-1.19 3.25-1.18 1.127.02 24.55 14.77 52.05 32.8l50 32.77.5-32.54.5-32.55h3.5 3.5l.25 166.25.26 166.25h-4-4l-.26-129.1-.25-129.09-48.5-31.75-48.5-31.74-.5 160.59-.5 160.59-3.536.3c-1.944.16-3.857-.03-4.25-.42zm390.786-.99c-1.65-.24-6.58-1.14-10.95-1.99-39.25-7.62-71.32-37.13-83.94-77.23-5.71-18.11-5.61-15.66-5.61-138.86v-113.43l3.75.31 3.75.31.53 116 .53 116 2.74 10.39c14.05 53.32 58.45 85.03 112 79.99 15.4-1.45 29.21-5.82 41.34-13.08 26.01-15.57 42.12-38.37 49.65-70.29 2.09-8.87 2.13-10.85 2.45-124.26l.32-115.25h3.97 3.97v112.25c-.01 124.3.11 121.69-6.49 141.42-13.44 40.18-43.36 67.51-83.01 75.83-7.8 1.64-28.99 2.78-35 1.89zm-504-33.5-40-33-.5 31.3-.5 31.31h-3.5-3.5l-.263-33.25c-.257-32.42-.314-33.25-2.25-33.25-1.651 0-1.987-.68-1.987-4 0-3.33.333-4 2-4 1.99 0 2-.67 2-127.37v-127.37l4.25-.57c2.337-.32 8.975-.13 14.75.41 30.049 2.83 57.412 15.35 80.012 36.63 20.667 19.45 33.859 43.48 38.577 70.27 1.975 11.21 2.235 32.6.511 42-3.188 17.38-11.405 36.92-21.641 51.45-6.919 9.83-22.349 25.58-32.409 33.1-15.896 11.87-39.233 22.44-57.896 26.21-4.76.96-8.805 2.13-8.989 2.6-.184.46 15.791 14.13 35.5 30.37s37.107 30.6 38.661 31.9l2.827 2.37-2.327 2.94c-1.279 1.62-2.551 2.95-2.826 2.95-.275-.01-18.5-14.86-40.5-33zm-27.881-47.44c53.571-9.32 99.347-52.5 108.869-102.7 3.244-17.1 1.302-41.67-4.673-59.12-9.465-27.65-31.52-53.55-57.268-67.25-16.488-8.77-33.707-13.92-50.297-15.05l-9.25-.63v123.15c0 119.61.054 123.15 1.869 123.15 1.028 0 5.865-.7 10.75-1.55zm-195.759 78.34c-1.498-1.18-1.05-3.99 5.22-32.79 3.772-17.33 6.872-31.61 6.889-31.75s-1.769-.25-3.969-.25h-4v-4-4h5c2.75 0 5-.3 5-.67 0-.63 53.493-249.24 54.67-254.08.446-1.84 1.237-2.25 4.298-2.25h3.752l3.733 17.25c64.694 298.97 67.274 311.24 65.711 312.5-1.698 1.37-5.781 1.69-6.5.5-.25-.41-3.516-15.26-7.258-33l-6.804-32.25h-52.67-52.671l-2.156 10.25c-1.185 5.64-4.284 20.37-6.886 32.75-4.579 21.78-4.811 22.51-7.226 22.79-1.372.16-3.232-.29-4.133-1zm123.743-74.54c-.293-.96-11.583-52.83-25.09-115.25s-24.892-114.53-25.298-115.79c-.505-1.56-8.618 34.49-25.545 113.5-13.643 63.69-25.03 116.58-25.305 117.54-.471 1.65 2.412 1.75 50.635 1.75 48.236 0 51.105-.1 50.603-1.75zm346.647 75.09c-.69-.28-1.25-1.34-1.25-2.35s2.92-15.37 6.5-31.91 6.5-30.3 6.5-30.58c0-.27-1.8-.5-4-.5h-4v-4-4h4.89c4.24 0 4.97-.3 5.45-2.25.31-1.24 12.72-58.63 27.58-127.54 14.85-68.9 27.28-125.72 27.6-126.25.33-.53 2.11-.96 3.96-.96h3.36l2.07 9.25c1.15 5.09 17.16 79.2 35.59 164.69 25.68 119.17 33.21 155.63 32.25 156.26-.69.45-2.57.7-4.18.56l-2.92-.26-5.72-27c-3.14-14.85-6.24-29.59-6.89-32.75l-1.18-5.75h-52.71-52.71l-6.39 30.75c-3.52 16.91-6.76 31.76-7.2 33-.77 2.18-3.51 2.84-6.6 1.59zm123.41-75.59c-.31-1.24-11.66-53.55-25.23-116.25s-24.96-114.33-25.33-114.73c-.53-.59-15.9 69.79-48.14 220.48l-2.73 12.75h50.99 51zm-295.16-282.67-350-.58-.312-4.34c-.517-7.2-.173-7.29 25.423-6.54l22.111.65 5.958-5.38c15.119-13.67 31.679-28.24 40.82-35.92 5.5-4.61 9.844-8.86 9.654-9.43-.773-2.32-7.387-30.8-9.646-41.54-1.33-6.33-3.824-18.03-5.541-26s-4.409-20.6-5.981-28.06c-1.573-7.46-3.291-14.66-3.819-16s-1.721-7.61-2.651-13.94c-.931-6.33-2.072-12.4-2.536-13.5-.752-1.78-1.351-4.53-2.399-11-.178-1.1-.579-2.67-.892-3.5-.803-2.12-5.909-25.986-6.204-29-.135-1.375-.511-3.175-.836-4-.512-1.299-3.33-13.659-4.104-18-.147-.825-.498-2.175-.781-3-.783-2.286-4.617-19.102-5.131-22.5-.249-1.65-2.719-12-5.488-23-2.77-11-5.497-22.025-6.061-24.5-3.143-13.788-12.229-50.963-13.119-53.677-.573-1.747-1.209-4.447-1.415-6-.205-1.553-.896-4.173-1.535-5.823-.64-1.65-1.548-4.8-2.018-7-.471-2.2-2.261-9.4-3.979-16-3.263-12.533-8.055-31.742-10.48-42-7.743-32.77-14.98-59.5-16.109-59.5-2.074 0-.53-6.899 2.573-11.5 4.103-6.082 19.31-30.34 20.906-33.347 2.705-5.098 10.861-16.694 15.23-21.653 8.862-10.06 13.302-16.86 18.943-29.009 6.607-14.229 13.077-23.119 29.169-40.081 5.913-6.233 10.75-11.803 10.75-12.378 0-.576 1.098-11.731 2.439-24.79 2.352-22.885 4.512-46.064 6.547-70.242.532-6.325 1.196-20.725 1.475-32 1.008-40.718 2.505-87.66 3.036-95.205l.542-7.705-21.918.205c-12.056.113-21.696.57-21.423 1.017.273.446 1.579 1.223 2.903 1.726 4.353 1.655 19.817 12.674 24.015 17.111 2.263 2.393 5.413 6.794 7 9.779 2.398 4.514 2.871 6.57 2.809 12.2-.043 3.885-.789 8.497-1.75 10.821-.921 2.228-2.433 5.884-3.36 8.125-1.205 2.913-4.753 6.76-12.437 13.488-10.04 8.791-10.797 9.714-11.432 13.949-.782 5.214 1.874 17.409 4.699 21.571 4.546 6.699 6.172 13.064 6.112 23.918-.063 11.312-.943 14.484-6.151 22.171-5.03 7.425-22.379 20.829-26.96 20.829-2.144 0-2.146-.03-2.129-27.75.034-56.185-.534-115.101-1.115-115.682-.33-.329-8.43-1.71-18-3.068-9.571-1.358-18.415-2.753-19.652-3.101-3.415-.96-2.833-4.052 1-5.314 6.913-2.275 14.993-4.085 18.24-4.085 1.865 0 3.633-.391 3.929-.868.295-.478 3.134-1.165 6.309-1.528 6.881-.786 9.002-1.778 7.069-3.307-.713-.564-9.397-2.954-19.297-5.311s-18.787-4.963-19.75-5.791c-3.858-3.318-2.178-3.854 16.5-5.269 14.095-1.069 46.024-1.388 140.25-1.405 128.639-.022 131.734.077 140.5 4.479 1.925.967 7.057 3.177 11.404 4.91 9.147 3.649 28.737 13.699 29.682 15.23.354.572 1.59 1.563 2.747 2.2 11.709 6.455 32.446 26.445 40.624 39.16 5.766 8.964 10.543 17.279 10.543 18.351 0 .577.6 1.409 1.334 1.849 1.868 1.12 11.934 23.457 14.105 31.3.989 3.575 2.594 9.2 3.566 12.5.973 3.3 2.277 8.475 2.898 11.5.622 3.025 1.832 8.875 2.691 13 .858 4.125 2.343 13.35 3.3 20.5 1.634 12.199 1.783 12.692 2.425 8 .377-2.75 1.147-11.975 1.713-20.5s1.465-19.775 1.997-25c4.399-43.202 24.781-107.534 38.701-122.143 1.91-2.003 4.43-5.225 5.62-7.158 1.18-1.934 4.44-5.244 7.23-7.357 8.38-6.334 10.42-8.087 10.46-8.986.05-1.127 12.33-6.914 17.58-8.287 2.27-.593 7.41-2.434 11.43-4.091 14.83-6.113 21.24-6.741 76.45-7.49 27.5-.372 50.43-1.085 50.95-1.583.52-.5 15.07-.914 32.5-.925 17.35-.011 55.4-.456 84.55-.99 29.15-.533 85.3-1.037 124.78-1.118 39.47-.082 72.01-.536 72.31-1.01.7-1.148 4.14-1.103 4.86.063 1.1 1.781-1.67 5.868-4.34 6.403-1.46.292-4.26 1.801-6.22 3.352s-4.81 3.72-6.33 4.82-4.63 3.391-6.91 5.092c-2.28 1.7-5.27 3.684-6.65 4.408s-5.88 3.868-10 6.985c-4.12 3.118-10.65 7.759-14.5 10.313s-10.83 7.334-15.5 10.622c-4.67 3.289-12.78 8.913-18 12.498-5.22 3.586-12.65 8.772-16.5 11.526-3.85 2.753-9.47 6.726-12.5 8.827-3.03 2.102-8.42 5.86-12 8.352-3.58 2.493-10.33 7.161-15 10.373-4.67 3.213-10.37 7.228-12.66 8.923-10.62 7.86-22.8 16.263-26.2 18.081-2.06 1.1-6.43 4.025-9.7 6.5-3.26 2.475-8.75 6.3-12.18 8.5-3.42 2.2-11.3 7.636-17.5 12.081-14.13 10.14-18.46 13.207-27.44 19.418-3.95 2.733-7.51 5.497-7.91 6.143-.55.897 7.42.984 33.68.369 18.93-.443 56.76-.879 84.08-.97 39.3-.13 50-.438 51.25-1.475 1.06-.877 1.58-.939 1.58-.188 0 1.532 10.26 1.464 11.8-.078.93-.933 1.47-.933 2.4 0 1.53 1.534 10.03 1.565 11.56.042.87-.876 1.52-.856 2.65.085 1.74 1.439 14.21.495 15.23-1.152.39-.64.84-.62 1.26.058.35.576 2.88 1.06 5.62 1.076s8.2.071 12.13.123c4.48.058 7.43-.344 7.88-1.076.55-.887.9-.879 1.46.033.5.807 4.52 1.252 12.27 1.356l11.52.155-1.88 3.5c-10.2 18.973-37.89 60.834-54.9 83-2.74 3.575-4.99 7.02-4.99 7.655-.01.635 1.96 2.307 4.36 3.714 5.95 3.486 14.1 12.641 17.84 20.026 4.58 9.07 10.62 27.853 12.24 38.091 3.78 24.002 5.5 63.003 6.54 148.514.48 39.325 1.2 88.883 1.6 110.129l.73 38.629-2.12 1.138c-2.11 1.128-21.52-.254-41.2-2.935-4.12-.562-9.92-1.279-12.87-1.594l-5.36-.572.64 12.853c.35 7.068 1.09 29.727 1.64 50.352.55 20.62 1.18 42.22 1.4 48 .23 5.78.72 39.78 1.1 75.56.64 59.34.55 65.34-.95 68.25l-1.65 3.19h-19.98c-21.47 0-21.81.09-17.97 5 1.08 1.38 1.97 2.86 1.98 3.31.01.44 2.53 6.29 5.61 13 5.88 12.83 8.36 18.4 10.23 22.94l1.14 2.75h47.04 47.04l1.19 2.61c1 2.2.92 2.81-.52 3.86-.94.69-1.71 1.76-1.71 2.39 0 .83-10.31 1.14-38.33 1.14-21.09 0-82.18.15-135.75.33-53.58.19-254.92.07-447.42-.25zm-233.188-32.49c.346-12.33.755-23.02.909-23.75.185-.89-.967-1.44-3.406-1.65-3.397-.28-4.453.39-13.5 8.59-5.398 4.89-10.544 9.3-11.434 9.8-.891.51-7.988 7-15.771 14.42l-14.151 13.5 7.27.57c3.999.31 16.762.65 28.362.75l21.091.18zm102.903 2.66c11.667-10.86 23.479-21.92 26.249-24.56l5.036-4.81-51.5.54c-28.325.29-57.013.55-63.75.56l-12.25.02v24 24h37.501 37.501zm37.634-1.67c-.192-11.78-.667-21.73-1.055-22.12s-8.038 6.27-17 14.8c-8.962 8.54-19.557 18.31-23.544 21.72s-7.25 6.38-7.25 6.61c0 .22 11.07.41 24.599.41h24.6zm52.236 16.17c6.215-9.91 16.158-25.26 22.034-34.02 3.235-4.82 5.881-9.27 5.881-9.9 0-.82-3.137-.95-11.25-.49-6.188.36-22.388.65-36 .66h-24.75v7.84c0 4.31.296 15.34.657 24.5l.657 16.66h19.739 19.739zm15.45-1c4.315-7.06 14.352-22.62 21.682-33.61 4.95-7.43 5.462-10.14 1.913-10.14-1.3 0-4.01 2.96-8.281 9.05-3.492 4.98-11.328 15.69-17.413 23.8-6.086 8.11-11.4 15.28-11.809 15.95-.546.88.701 1.2 4.672 1.2h5.417zm25.465-16.88c8.525-12.71 15.934-23.7 16.465-24.44 1.351-1.87.556-2.27-3.327-1.68-2.571.39-4.101 1.57-6.5 4.99-1.726 2.47-9.377 12.88-17.002 23.12-7.626 10.25-14.087 19.2-14.357 19.89-.354.9.878 1.25 4.364 1.23l4.857-.01zm1.488 19.38c5.885-8.43 19.512-29.56 19.512-30.26 0-.41.722-1.34 1.604-2.08.882-.73 2.019-2.25 2.526-3.37.506-1.12 2.038-3.57 3.403-5.45 1.365-1.87 2.238-3.65 1.939-3.95-.298-.3-2.157-.44-4.129-.3-3.504.23-7.235 3.21-7.31 5.83-.018.64-.374 1.31-.79 1.5-.745.32-5.784 6.8-7.743 9.94-2.509 4.03-5.243 7.77-9.06 12.39-3.493 4.23-10.189 13.76-12.825 18.25-.55.94.641 1.25 4.761 1.25 5.217 0 5.626-.19 8.112-3.75zm19.327-8.5c4.488-6.74 10.843-16.3 14.123-21.25 3.279-4.95 6.885-10.2 8.012-11.66 2.764-3.58 2.645-3.84-1.784-3.84-3.542 0-4.131.43-7.75 5.73-2.154 3.14-4.591 6.42-5.416 7.28s-2.844 3.57-4.487 6.02c-1.643 2.46-4.228 6.05-5.746 7.97-4.431 5.62-15.767 21.14-15.767 21.59 0 .23 2.397.41 5.328.41h5.327zm21.04-11.84c8.882-13.25 15.897-24.5 15.588-25-.308-.5-1.608-.91-2.888-.91-1.696 0-3.511 1.63-6.691 6.03-2.4 3.31-7.186 9.72-10.634 14.25-3.449 4.52-7.033 9.34-7.966 10.72-.932 1.38-4.298 5.96-7.479 10.19-3.182 4.23-5.785 7.94-5.785 8.25s2.184.56 4.853.56h4.853zm27.263 14.37c3.51-5.34 11.186-16.59 17.057-25l10.675-15.28h-3.388c-3.024 0-3.828.65-7.5 6.06-2.261 3.33-8.916 12.38-14.787 20.12s-11.628 15.48-12.792 17.21c-1.165 1.73-2.926 3.81-3.914 4.63-1.689 1.39-1.718 1.33-.487-1.02.72-1.38 2.538-4.3 4.042-6.5 3.983-5.83 16.977-25.99 21.437-33.27 2.113-3.44 3.57-6.53 3.237-6.87-1.337-1.33-5.355.89-7.974 4.41-1.527 2.05-5.577 7.34-9 11.76s-10.217 13.31-15.097 19.75c-4.88 6.45-9.32 11.72-9.865 11.72-.978 0 .998-3.53 3.814-6.82 4.009-4.68 26.367-39.46 25.875-40.26-.313-.51-1.423-.92-2.467-.92-1.921 0-3.098 1.3-11.768 13-2.649 3.58-9.857 13.14-16.016 21.26-6.16 8.13-11.2 14.99-11.2 15.25 0 .27 7.591.49 16.868.49h16.868zm10.012 6.01c1.262-2.04 8.723-12.87 16.582-24.07 7.858-11.2 14.288-20.78 14.288-21.29s-1.538-.93-3.419-.93c-3.302 0-3.88.65-17.009 19.25-7.474 10.59-15.61 21.84-18.079 25l-4.49 5.75h4.917c4.594 0 5.068-.24 7.21-3.71zm84.17 2.46c-1.73-2.29-13.68-17.12-21.29-26.44-4.13-5.05-9.9-12.36-12.82-16.25-2.92-3.88-5.92-7.06-6.66-7.06-1.47 0-5.76 5.76-18.584 25-4.584 6.88-8.605 12.72-8.935 13s-1.534 2.11-2.675 4.09c-1.142 1.97-2.861 4.78-3.821 6.25l-1.745 2.66h38.74c30.82 0 38.54-.26 37.79-1.25zm278.13-12.5c.92-7.56 1.91-14.87 2.2-16.25.28-1.38.91-5.42 1.4-9 .48-3.58 1.33-9.42 1.88-13s1.7-12.35 2.56-19.5c.85-7.15 1.8-13.9 2.1-15 .61-2.21 2.02-12.01 3.38-23.5.49-4.12 1.35-9.53 1.91-12 .55-2.47 1.5-11.7 2.12-20.5.61-8.8 1.52-19.6 2.02-24s1.41-15.2 2.01-24 1.56-20.05 2.13-25 1.69-16.2 2.49-25 1.85-20.05 2.34-25c2.59-26.256 3.06-31.804 2.71-32.151-.21-.209-2.54 1.99-5.19 4.886s-23.08 23.91-45.4 46.698c-22.33 22.787-41.38 42.247-42.34 43.247s-2.2 1.82-2.75 1.82-1 .53-1 1.18-4.5 5.61-10 11.01c-5.5 5.41-10 9.95-10 10.09 0 .75-19.35 19.72-20.1 19.72-.5 0-.9.54-.9 1.2 0 1.64-5.07 6.8-6.69 6.8-.72 0-1.31.51-1.31 1.14s-8.1 9.29-17.99 19.25-18.69 19.12-19.56 20.36c-.86 1.24-2.18 2.25-2.93 2.25-.76 0-1.52.63-1.7 1.4-.6 2.62-71.34 73.43-97.77 97.86l-9.45 8.74h131.08 131.08zm9.55 8c10.98-15.21 34.02-53.01 34.02-55.81 0-.33-2.14.95-4.75 2.86s-10.14 7.14-16.72 11.61c-6.59 4.47-12.28 8.69-12.66 9.36-.38.68-1.43 7.54-2.33 15.23-.91 7.7-2.27 15.91-3.03 18.25-2.05 6.27.33 5.62 5.47-1.5zm68.58 1c-5.56-10.8-12.86-26.22-15.75-33.25-1.7-4.12-3.59-8.02-4.2-8.67-.61-.64-3.76-1.31-6.99-1.5l-5.88-.33-5.49 9c-9.45 15.49-12.68 20.76-14.98 24.44-2.06 3.3-7.32 12.59-8.1 14.31-.18.41 14.1.75 31.75.75h32.09zm-335.19-10.95c24.84-23.97 62.63-61.66 62.63-62.47 0-.46-1.24-.83-2.76-.83-7.07 0-49.79-2.18-56.25-2.87l-7.27-.78-2.11 3.52c-1.16 1.93-4.59 8.04-7.62 13.56-3.68 6.72-6.38 10.47-8.14 11.31-1.45.7-6.85 1.51-11.99 1.81-12.88.75-17.86 1.42-17.86 2.42 0 .47 2.84 4.38 6.32 8.69 3.47 4.31 10.04 12.56 14.59 18.34 12.83 16.27 15.26 19 16.85 19 .82 0 6.94-5.27 13.61-11.7zm278.13-35.45c5.5-4.46 14.34-10.99 19.64-14.5 9.17-6.08 12.76-10.16 11.71-13.31-.2-.59-9.08 4.77-19.73 11.91-10.66 7.13-19.78 13.1-20.27 13.27-1 .33-2.9 10.79-1.95 10.76.33-.01 5.1-3.67 10.6-8.13zm-659.332-4.12c.385-.63.539-1.39.342-1.71-.66-1.07-6.547-43.17-11.539-82.52-6.527-51.45-7.242-56.56-7.829-55.98-.273.28-1.056 5.78-1.739 12.24-1.235 11.68-2.716 24.38-4.4 37.74-.485 3.85-1.553 12.4-2.372 19-4.115 33.14-9.206 68.23-10.321 71.13-.656 1.71 2.003 1.91 20.674 1.55 10.87-.21 16.723-.71 17.184-1.45zm36.613.61 11.281-.65-.575-11.01c-.316-6.06-.772-11.33-1.012-11.72-.541-.88-2.894-22.54-5.046-46.46-.891-9.9-1.772-19.58-1.959-21.5-.186-1.92-1.028-10.92-1.871-20s-1.988-19.88-2.545-24c-1.004-7.45-2.123-18.39-4.04-39.5-.549-6.05-1.434-15.275-1.965-20.5-.532-5.225-1.207-12.65-1.501-16.5s-1.232-13.75-2.084-22-1.983-20.175-2.513-26.5-1.396-15.1-1.925-19.5c-.528-4.4-2.111-20.37-3.518-35.489-1.61-17.295-3.012-27.92-3.783-28.65-.674-.638-2.644-1.456-4.377-1.819-3.086-.644-3.166-.566-3.801 3.65-.357 2.369-1.302 7.908-2.1 12.308-1.975 10.889-5.88 38.405-8.374 59-1.132 9.35-2.74 22.625-3.573 29.5s-2.201 19.475-3.04 28c-.838 8.525-2.035 20.45-2.658 26.5s-1.126 12.8-1.117 15c.03 7.44 6.096 51.55 18.292 133 1.964 13.12 5.023 36.04 5.023 37.64 0 1.73 11.378 2.2 28.781 1.2zm208.317-1.16c74.022-.76 67.692-.05 73.162-8.12 4.69-6.93 25.48-34.47 40.68-53.9 7.46-9.54 14.23-18.37 15.06-19.62s5.72-7.81 10.87-14.57c14.18-18.62 19.17-26.36 27.87-43.2 17.43-33.765 21.91-52.731 21.07-89.223-.35-15.267-.76-19.915-1.88-20.978-1.14-1.093-17.36-1.8-80.93-3.53-43.725-1.191-81.525-2.313-84-2.494s-25.425-.601-51-.934c-96.321-1.254-111.916-1.552-114.424-2.181-2.472-.621-2.576-.471-2.583 3.712-.004 2.397.43 11.108.964 19.358 1.106 17.088 2.618 43.892 4.112 72.91.89 17.28 1.425 21.3 4.058 30.5 2.832 9.89 5.52 19.39 9.924 35.09 1.003 3.58 3.929 13.92 6.502 23s4.906 17.4 5.185 18.5c.278 1.1 2.751 9.42 5.495 18.5s5.204 17.4 5.467 18.5.739 2.67 1.058 3.5c.32.83 1.517 4.65 2.662 8.5l2.08 7 13 .58c7.15.32 14.35.4 16 .19 1.65-.22 32.969-.71 69.598-1.09zm493.902-70.74c-.05-39.57-.52-82.52-1.04-95.44-.52-12.925-1.24-37-1.59-53.5-.35-16.765-1.06-30.54-1.6-31.224-.54-.672-2.51-1.511-4.38-1.863-1.88-.352-3.64-1.004-3.91-1.45-.28-.446-2.75-1.558-5.51-2.471-2.75-.914-5.59-2.25-6.3-2.969-.72-.719-3.53-2.5-6.24-3.956-7.97-4.28-16.85-11.716-24.25-20.29-9.94-11.522-13.87-21.224-14.3-35.277-.22-7.06 3.64-23.912 7.1-31 1.48-3.025 3.69-8.2 4.92-11.5 3.64-9.752 4.98-12.163 16.96-30.5 20.14-30.814 24.69-39.5 30.98-59.166 7.5-23.445 6.61-41.743-3.54-72.831-9.4-28.803-25.41-52.192-47.3-69.103-4.12-3.187-8.71-6.728-10.18-7.868-2.88-2.223-17.8-10.363-26.82-14.629-10.88-5.149-36.88-11.005-54.77-12.341-34.17-2.549-68.13 7.45-98.26 28.926-12.74 9.084-18.33 14.087-24 21.512-2.11 2.75-5.66 7.374-7.9 10.277-8.07 10.438-17.42 33.922-22.29 55.952-1.9 8.615-2.15 12.788-2.14 35.271.02 20.323.37 27.124 1.75 33.5.95 4.4 2.1 10.525 2.57 13.612 1.07 7.079 9.91 29.648 14.67 37.463 9.72 15.953 11.52 18.373 18.59 24.925 9.07 8.407 11.5 10.317 16.11 12.67 2.23 1.134 4.71 2.73 5.53 3.546 4.65 4.651 68.52 32.725 100.64 44.235 6.6 2.365 16.95 6.682 23 9.594 12.9 6.208 20.18 9.451 21.24 9.465.42.005 2.65 1.468 4.96 3.25s6.51 4.815 9.34 6.74 7.94 5.818 11.36 8.65c3.42 2.833 7.77 6.218 9.66 7.524 5.47 3.77 10.51 9.524 25.72 29.356 4.04 5.266 12.22 17.701 12.22 18.572 0 .465 1.57 4.065 3.48 7.999 6.58 13.525 12.34 38.379 13.17 56.899 1.72 38.36-9.79 90.71-27.71 125.97-1.62 3.18-2.94 6.2-2.94 6.72 0 .51-1.8 3.92-4 7.57s-4 7.22-4 7.94c0 1.04 5.17 1.29 25.54 1.24l25.54-.06zm-667.13 63.29c12.11-8.62 16.318-11.54 19.004-13.23 9.881-6.2 10.126-6.46 10.126-10.58v-3.98l-2.75 1.94c-1.513 1.07-4.734 3.22-7.16 4.78-2.425 1.56-5.422 3.51-6.66 4.34-1.239.83-8.367 5.49-15.841 10.36-12.27 8-13.589 9.14-13.589 11.75 0 5.07 3.958 3.8 16.87-5.38zm16.014 1.9c5.289-3.51 10.629-6.9 11.866-7.54 1.76-.91 2.25-2.02 2.25-5.13 0-2.18-.212-3.96-.471-3.96-.789 0-10.006 6.45-10.362 7.25-.184.41-.721.75-1.194.75-1.177 0-22.843 12.98-23.536 14.1-.305.5 2.23.9 5.638.9 5.936 0 6.59-.26 15.809-6.37zm15.046 1.62c-.124-8.37-.68-8.77-6.628-4.86-2.842 1.87-6.998 4.44-9.235 5.69-2.237 1.26-4.067 2.66-4.067 3.1 0 .45 4.5.82 10 .82h10zm35.484 1c-.373-2.06-1.057-4.49-1.52-5.39-.464-.9-2.606-7.87-4.761-15.5-3.999-14.14-13.728-47.76-21.064-72.78-2.245-7.66-4.287-14.13-4.537-14.38-.539-.54.129 19.94 1.495 45.8.537 10.17 1.451 28.82 2.032 41.44s1.282 23.3 1.558 23.75c.275.45 6.57.81 13.987.81h13.487zm-183.414 1.76c0-.54 1.323-10.32 2.94-21.75 1.617-11.42 3.644-26.16 4.505-32.76 1.618-12.41 3.031-22.64 4.558-33 .487-3.3 1.372-10.28 1.968-15.5s1.51-13.1 2.031-17.5c6.219-52.491 6.201-50.036.312-42.31-1.548 2.03-8.214 9.86-14.814 17.39-20.3 23.17-25.5 29.73-25.5 32.17 0 1.26 2.01 11.4 4.468 22.52 12.109 54.83 17.532 82.11 17.532 88.2 0 1.94.45 3.53 1 3.53s1-.44 1-.99zm404.33-9.01c2.71-4.67 5.66-9.69 6.55-11.15s3.37-5.73 5.51-9.5 5.97-9.77 8.5-13.35 6.63-9.45 9.11-13.04c2.47-3.6 5.32-7.65 6.33-9 1.01-1.36 5.28-7.24 9.5-13.07 4.22-5.84 11.72-15.93 16.67-22.42s11.64-15.44 14.88-19.88c3.23-4.45 7.05-9.51 8.5-11.25 1.44-1.74 6.22-7.97 10.62-13.84 13.2-17.62 33.3-43.477 40.42-52 12.34-14.759 13.22-16.105 12.47-19.082-.63-2.508-.49-2.661 1.86-2.071 1.98.499 2.88.109 4.13-1.803 1.86-2.847 2.46-2.336-9.34-8.077-4.7-2.287-9.18-4.932-9.97-5.878-.78-.947-2.71-2.387-4.29-3.202-1.57-.815-5.32-3.71-8.33-6.434l-5.47-4.953h-19.1-19.11l.64 3.25c.35 1.788.92 10.665 1.25 19.728 1.06 28.52-1.86 44.739-12.69 70.522-2.31 5.5-5.33 12.7-6.7 16s-3.03 6.67-3.69 7.5-1.7 2.69-2.32 4.14c-2.17 5.13-14.01 22.99-23.76 35.87-3.3 4.36-7.12 9.54-8.5 11.52-1.38 1.97-6.13 8.17-10.56 13.78-4.43 5.6-10.05 12.85-12.5 16.1-9.44 12.55-20.69 27.76-26.44 35.71-3.3 4.57-7 9.39-8.23 10.72s-1.98 2.82-1.68 3.31c.31.5 7.37.78 15.68.63l15.13-.28zm294.87 6.75c1.66-1.24 4.2-3.4 5.66-4.81 2.53-2.45 12.87-10.35 16.27-12.44.89-.55 4.81-3.14 8.7-5.75 3.88-2.61 7.73-4.75 8.54-4.75 1.74 0 5.63-4.63 5.63-6.68 0-.78.69-2.75 1.53-4.37 1.9-3.68.77-3.74-3.82-.2-5.11 3.95-15.78 11.58-17.82 12.75-.96.55-6.46 4.49-12.23 8.75s-10.94 7.75-11.5 7.75c-1.99 0-5.16 5.31-5.16 8.63 0 3.99.26 4.06 4.2 1.12zm-589.979-11.07c5.104-3.47 15.467-10.49 23.029-15.6l13.75-9.29v-4.4c0-5.3-1.45-5.66-6.215-1.56-1.807 1.55-5.471 4.36-8.143 6.25-2.673 1.88-8.523 6.02-13 9.2-4.478 3.17-10.842 7.59-14.142 9.81s-5.962 4.68-5.917 5.47c.303 5.23.47 6.44.888 6.44.259 0 4.647-2.84 9.75-6.32zm596.409-5.94c14.91-13.27 35.92-29.62 40.94-31.86 3.2-1.43 4.32-2.62 5.22-5.55.63-2.05.99-3.88.8-4.07-.3-.31-10.68 6.87-27.73 19.17-3.11 2.24-10.42 7.37-16.24 11.4-5.83 4.03-10.78 7.63-11.01 8-.94 1.53-1.77 10.17-.97 10.16.47-.01 4.52-3.28 8.99-7.25zm-596.87-7.62c9.535-7.71 24.775-18.3 30.742-21.37 5.13-2.64 6.715-5.08 5.951-9.15-.372-1.98-.981-3.6-1.355-3.6s-6.347 4.61-13.273 10.25c-6.927 5.64-17.388 14.04-23.246 18.68-6.912 5.47-10.464 8.93-10.116 9.83.295.77.537 1.82.537 2.32 0 1.61.826 1.08 10.76-6.96zm387.05-.24c1.75-1.71 3.19-3.49 3.19-3.94 0-1.08-5.74-1.73-21.5-2.42-7.15-.32-20.88-1.22-30.5-2l-17.5-1.43-1.7 2.2c-.93 1.22-1.38 2.51-1 2.88.39.36 13.3 2.07 28.7 3.79s28.45 3.3 29 3.5c3.72 1.41 8.3.36 11.31-2.58zm232.54-23.15c4.48-3.73 9.27-7.52 10.65-8.44 1.38-.91 3.54-2.59 4.82-3.72 1.27-1.14 4.18-2.54 6.46-3.11 3.77-.94 4.27-1.45 5.45-5.5 2.06-7.06 1.37-7.51-4.73-3.05-11.04 8.08-16.81 12.25-32.5 23.47-8.8 6.3-16.82 12.05-17.82 12.79-1.03.75-2.05 3.15-2.37 5.53-1.1 8.27-.17 8.11 11.27-1.91 5.84-5.11 14.29-12.34 18.77-16.06zm-609.845 4.8c10.292-8.79 20.464-17.27 22.604-18.84 3.605-2.65 3.891-3.22 3.891-7.78 0-2.7-.371-4.91-.824-4.91-.454 0-5.781 4.61-11.838 10.25-6.058 5.64-16.461 15.2-23.119 21.25-10.707 9.73-12.111 11.38-12.162 14.3-.044 2.55.261 3.12 1.339 2.5.768-.44 9.817-7.99 20.109-16.77zm387.545 8.26c2.08-2.28 2.57-3.41 1.69-3.88-.68-.37-7.32-.98-14.74-1.35-15.05-.75-53.85-4.35-55.06-5.1-1.09-.67-5.18 4.72-4.22 5.57.8.7 5.96 1.34 40.28 4.99 10.72 1.13 19.95 2.23 20.5 2.44s2.71.42 4.81.46c3.06.06 4.37-.55 6.74-3.13zm-385.444-23.54c12.895-12.51 23.665-23.65 23.933-24.75s.128-3.29-.311-4.86c-.783-2.81-1.216-2.43-24.513 21.39-21.426 21.92-23.715 24.58-23.715 27.61 0 1.85.261 3.36.58 3.36s11.131-10.24 24.026-22.75zm589.974 11.82c2.24-1.96 7.19-6.13 11-9.27 32.07-26.4 31.18-25.79 37.17-25.8 2.34 0 4.25-.4 4.25-.89s-.79-.83-1.75-.75c-1.46.12-1.69-.56-1.41-4.11.18-2.34.04-4.25-.32-4.25s-4.79 3.05-9.84 6.77c-5.05 3.73-12.33 9-16.18 11.71s-7.55 5.4-8.22 5.98c-.67.57-3.51 2.62-6.31 4.54s-7.39 5.19-10.21 7.25-5.58 3.75-6.14 3.75c-1.2 0-1.69.45 9.38-8.53 4.67-3.79 11.88-9.85 16-13.47 8.15-7.16 23.41-19.24 29-22.97 4.73-3.16 6-4.9 6-8.22 0-3.36-.38-3.43-3.84-.74-3.84 3-25.28 19.16-27.77 20.93-1.15.83-6.33 4.67-11.5 8.54-5.16 3.88-11.41 8.39-13.87 10.03l-4.48 2.98-1.2 10.47c-.67 5.77-1.24 11.55-1.27 12.85l-.07 2.37 3.75-2.8c2.06-1.54 5.59-4.4 7.83-6.37zm-195.65 2.81c1.68-2.27 1.98-3.32 1.1-3.86-.66-.41-6.23-1.05-12.37-1.42s-21.86-2.07-34.93-3.77c-22.88-2.98-23.85-3.03-25.75-1.31-3.96 3.58-4.4 3.45 23.02 7.02 11.28 1.46 25 3.47 30.5 4.47 14.55 2.62 15.71 2.55 18.43-1.13zm-401.86-21.63c9.014-9.76 19.661-21.04 23.66-25.06 7.061-7.09 7.27-7.44 7.27-12.25 0-2.72-.337-4.93-.75-4.92s-1.65 1.3-2.75 2.88c-1.825 2.62-12.884 14.74-36.586 40.1-7.88 8.43-8.88 9.92-8.896 13.25-.01 2.06.36 3.75.822 3.75s8.216-7.99 17.23-17.75zm410.62 13.58c1.27-1.2 2.31-2.7 2.31-3.33 0-.7-3.8-1.63-9.75-2.39-16.1-2.05-46.24-7.2-54.25-9.25l-7.5-1.93-2.91 3.23c-2.72 3.02-2.78 3.27-1 3.99 1.05.42 7.76 1.7 14.91 2.84 25.52 4.07 37.1 6.02 44 7.41 9.78 1.97 11.55 1.9 14.19-.57zm8.78-8.93c1.94-1.71 3.53-3.65 3.53-4.31 0-.77-3.39-1.66-9.25-2.45-9.25-1.25-25.05-3.99-51.13-8.86l-13.87-2.6-1.85 2.41c-2.29 2.98-2.33 3.53-.27 4.32 1.33.51 23.27 5.31 33.37 7.29 11.64 2.3 22.4 4.58 27 5.74 7.86 1.99 8.54 1.9 12.47-1.54zm-430.384-6.69c3.528-4.01 7.911-9.19 9.741-11.5 1.83-2.32 9.818-11.28 17.75-19.93 15.423-16.8 15.377-16.72 13.547-25.27-.633-2.95-.73-2.88-9.132 7.39-4.671 5.71-10.742 13.21-13.492 16.66-9.652 12.13-16.934 20.99-21.695 26.39-4.181 4.74-4.805 6.02-4.805 9.83 0 2.41.376 4.24.836 4.05.459-.18 3.722-3.61 7.25-7.62zm614.474-9.83c18.09-16.25 40.35-34.43 44.06-35.99 3.18-1.33 4.34-3.63 4.37-8.64.01-3.51-.83-3.46-5.6.37-4.07 3.26-10.14 7.88-29.63 22.55-17.23 12.97-21.1 15.79-22.24 16.21-1.23.45.41-1.09 11.49-10.84 4.67-4.11 9.39-8.44 10.49-9.62 5.39-5.8 29.4-26.14 32.25-27.32 2.88-1.19 3.25-1.79 3.25-5.22 0-4.4-.51-4.69-3.44-1.95-1.13 1.07-3.49 2.98-5.24 4.25-5.32 3.87-14.31 10.78-24.32 18.69-18.17 14.35-20.51 16.19-22.76 17.91-3.63 2.76-5.43 6.99-5.15 12.08.14 2.55-.21 5.76-.78 7.14s-1.35 4.64-1.73 7.25c-.55 3.7-.4 4.75.67 4.75.76 0 7.2-5.23 14.31-11.62zm-173.61 6.17c3.5-3.73 2.14-5.19-6.13-6.56-14.38-2.4-39.24-7.94-49.32-11-16.39-4.99-14.35-4.85-17.6-1.21-3.49 3.91-3.62 5.03-.65 5.65 1.24.26 5.85 1.22 10.25 2.13s15.2 3.38 24 5.48c39.02 9.31 36.25 8.92 39.45 5.51zm-443.211-7.55c5.06-6.74 15.451-20.33 26.767-35 3.606-4.67 8.792-11.06 11.525-14.18 4.879-5.58 5.629-7.76 4.339-12.57-1.221-4.56-.593-5.25-32.78 36.09-4.351 5.59-10.088 12.85-12.75 16.15-2.662 3.29-4.84 6.94-4.84 8.12 0 3.63 1.224 8.48 2.064 8.18.439-.16 2.993-3.21 5.675-6.79zm450.951-.17c2.54-2.39 3.1-5.83.94-5.83-.75 0-10.31-2.49-21.25-5.53-10.93-3.05-23.93-6.62-28.88-7.94s-11.58-3.3-14.74-4.41l-5.74-2.01-2.51 3.29c-2.97 3.9-3.09 4.6-.76 4.6.96 0 4.45.88 7.75 1.96 11.11 3.62 26.13 8.04 27.33 8.04 1.64 0 21 5.75 26.87 7.98 6.42 2.45 8.25 2.42 10.99-.15zm8.79-9.4c1.53-1.42 2.38-2.93 1.9-3.37s-6.05-2.04-12.38-3.56c-24.81-5.98-49.51-13.16-55-16-4.19-2.17-6.57-1.86-8.94 1.15-1.15 1.46-1.94 2.8-1.76 2.99.19.18 8.18 2.62 17.77 5.41 34.69 10.12 40.53 11.86 46.43 13.79 7.99 2.61 8.75 2.58 11.98-.41zm-460.801-7.23c7.182-10.22 32.768-44.14 36.958-49 3.193-3.71 3.582-4.67 2.787-6.92-.508-1.44-1.374-2.74-1.924-2.9s-3.475 3.08-6.5 7.18c-7.487 10.18-9.277 12.56-18.437 24.55-4.366 5.71-10.778 14.12-14.25 18.67-4.808 6.3-6.313 9.06-6.313 11.58 0 6.47 1.278 5.95 7.679-3.16zm468.781-.79c.94-1.42 1.53-2.75 1.32-2.96s-6.21-1.95-13.33-3.86c-24.36-6.55-44.95-12.45-52.45-15.01-9.28-3.18-11.25-3.27-10.82-.53.34 2.17-1.56 1.48 50.32 18.28 11 3.57 20.74 6.53 21.63 6.58.9.05 2.4-1.07 3.33-2.5zm151.54-11.92c3.84-4.05 24.56-22.63 32.53-29.17 2.76-2.27 6.92-4.96 9.25-5.96 3.7-1.61 4.22-2.22 4.22-5.04 0-1.76-.34-3.41-.75-3.65-.41-.25-4.16 2.31-8.33 5.69-54.13 43.85-49.38 39.54-49.73 45.08l-.31 4.85 4.81-4.06c2.65-2.23 6.39-5.71 8.31-7.74zm-621.271-1.74c9.284-13.69 11.799-17.33 14.372-20.77 1.43-1.91 5.883-7.98 9.895-13.48s8.648-11.44 10.302-13.21c2.94-3.13 2.975-3.29 1.563-7-.794-2.082-1.806-3.71-2.249-3.611-.778.172-11.658 14.681-26.112 34.831-3.85 5.36-9.11 12.34-11.69 15.51-4.623 5.67-4.681 5.83-4.109 11.37.695 6.74 1.128 6.54 8.028-3.64zm476.621 6.8c5.07-4.69 8.05-3.4-40.35-17.49-5.22-1.52-14.05-4.41-19.62-6.41-5.56-2.01-11.06-3.65-12.22-3.65-1.91 0-6.01 4.48-5.02 5.47.23.23 8.27 2.95 17.89 6.04 9.61 3.1 26.02 8.47 36.47 11.94s19.27 6.36 19.6 6.43c.34.07 1.8-.98 3.25-2.33zm7.16-7.56c.99-1.1 1.56-2.25 1.26-2.55s-5.89-2.13-12.41-4.06c-18.24-5.39-44.89-14.2-54.72-18.08-8.07-3.19-9.01-3.36-10.44-1.92-.87.86-1.38 1.72-1.14 1.9s11.69 4.05 25.44 8.59 30.17 10.43 36.5 13.08 11.99 4.87 12.6 4.93c.6.07 1.91-.78 2.91-1.89zm149.06-20.08c11.51-11.05 23.63-22.12 26.93-24.61s5.95-4.93 5.9-5.41c-.05-.49-.17-1.79-.25-2.89-.14-1.926-2.63-2.833-3.32-1.21-.97 2.32-46.06 42.21-47.71 42.21-.59 0-1.76 1.33-2.59 2.95-1.63 3.14-2.08 9.05-.71 9.05.46 0 10.24-9.04 21.75-20.09zm-141.88 12.66c1.82-1.58 2.46-2.76 1.81-3.35-.55-.51-13.6-5.08-29-10.16-15.4-5.07-32.17-11.19-37.26-13.59l-9.27-4.36-2.47 2.67c-3.77 4.07-4.96 3.44 31.5 16.74 14.82 5.41 25.84 9.51 34.5 12.84 5.52 2.12 6.96 2.01 10.19-.79zm-495.659-2.82c1.702-2.34 4.754-6.79 6.782-9.9 8.909-13.67 26.587-39.53 28.305-41.414 2.16-2.369 2.272-3.279.864-6.983l-1.018-2.677-1.839 2.362c-1.012 1.299-4.162 5.737-7.001 9.862-11.031 16.03-19.186 27.67-22.07 31.5-1.656 2.2-3.419 4.9-3.918 6-.498 1.1-1.858 2.86-3.021 3.9-1.6 1.45-2.115 3.09-2.115 6.75 0 2.67.436 4.85.968 4.85.533 0 2.361-1.91 4.063-4.25zm-109.467-7.72c9.63-13.37 15.347-20.29 27.111-32.81 11.118-11.832 11.513-12.404 10.886-15.749-.783-4.172-1.669-4.34-4.171-.789-1.039 1.476-3.727 4.738-5.973 7.25-3.634 4.066-20.581 24.298-33.667 40.188-4.593 5.58-5.442 7.91-4.126 11.34.567 1.48.798 1.47 2.569-.13 1.07-.97 4.387-5.15 7.371-9.3zm612.446 3.46c1.52-1.61 2.02-2.86 1.4-3.48-.53-.53-7.25-3.19-14.94-5.91-23.75-8.41-52.54-19.11-60.57-22.52-1.08-.46-2.13.12-3.21 1.78l-1.61 2.45 12.21 4.71c6.71 2.59 17.25 6.68 23.41 9.09 6.16 2.42 11.5 4.39 11.87 4.39 1.01 0 22.58 8.94 25.43 10.54 3.29 1.85 3.28 1.86 6.01-1.05zm138.2-21.99c14.03-14.34 23.73-23.5 24.89-23.5 2.02 0 2.52-2.471.99-4.893-.68-1.068-4.11 1.414-14.74 10.672-33.88 29.501-33.74 29.371-35.06 34.671-1.12 4.49-1 6.55.38 6.55.3 0 10.89-10.58 23.54-23.5zm-754.293 7.75c12.587-17.51 19.067-25.573 29.86-37.139 9.215-9.876 10.596-11.8 10.391-14.484-.129-1.702-.592-3.451-1.028-3.887-.435-.435-4.659 4.057-9.386 9.984s-14.494 17.976-21.705 26.776c-19.781 24.14-18.315 22.01-17.558 25.46.367 1.67 1.062 3.04 1.543 3.04.482 0 4.029-4.39 7.883-9.75zm110.599 7c1.332-1.51 2.435-3.08 2.452-3.49.018-.41 3.632-6.2 8.032-12.88s8.006-12.42 8.014-12.76 3.763-6.399 8.344-13.461c6.164-9.503 8.21-13.468 7.869-15.25-.253-1.325-.778-2.409-1.167-2.409s-2.913 3.263-5.609 7.25-7.838 11.458-11.426 16.601c-3.589 5.139-7.2 10.419-8.025 11.719-3.238 5.13-9.475 14.04-11.197 16-1.443 1.65-1.683 3.03-1.173 6.75.353 2.57.827 4.68 1.054 4.68s1.501-1.24 2.832-2.75zm513.804-3.26c-.45-.4-12.74-4.68-27.32-9.5-27.12-8.96-30.15-10.1-42.81-16.08-4.02-1.9-7.76-3.18-8.31-2.84-2.82 1.75.56 4.01 13.62 9.12 25.28 9.89 36.83 14.6 49 19.96l12 5.29 2.32-2.6c1.27-1.43 1.95-2.94 1.5-3.35zm5.46-3.55c1.22-.85 2.22-1.92 2.22-2.36 0-.45-3.94-2.27-8.75-4.04-33.46-12.33-53.79-20.37-62.6-24.756-6.52-3.247-6.94-3.328-8.75-1.693-1.05.946-1.9 2.285-1.9 2.976 0 .71 9.67 5.043 22.25 9.973 33.18 12.99 40.7 16.01 46.75 18.78 6.59 3.02 7.88 3.15 10.78 1.12zm118.41-16.75c19.24-19.241 24.49-24.001 27.26-24.731 2.48-.653 3.2-4.172 1.2-5.831-1.17-.978-2.69-.028-8.29 5.197-3.77 3.517-13.16 12.166-20.86 19.215-7.7 7.06-14.28 13.31-14.61 13.89-.74 1.29-1.92 8.57-1.39 8.57.21 0 7.72-7.34 16.69-16.31zm-753.152 9.06c7.198-10.4 31.589-42.079 37.459-48.658 4.621-5.179 5.503-6.776 5.503-9.963 0-6.974 1.871-8.775-27 25.973-4.675 5.626-9.4 11.476-10.5 12.998-1.1 1.523-4.638 5.95-7.861 9.83l-5.861 7.06 1.329 4.51c.731 2.47 1.616 4.5 1.966 4.5.351 0 2.585-2.81 4.965-6.25zm642.082.02c.64-1.19.7-2.35.15-2.9-.5-.5-9.65-4.21-20.34-8.25-20.19-7.634-35.15-13.62-38.49-15.4-8.44-4.503-16.49-8.22-17.8-8.22-2.3 0-4.25 3.998-2.49 5.112.74.471 1.68.864 2.07.873.4.008 3.1 1.097 6 2.42 2.91 1.322 17.66 7.671 32.78 14.105 15.12 6.44 29.06 12.51 30.97 13.48 3.89 1.99 5.59 1.7 7.15-1.22zm-524.5-7.31c2.971-4.93 5.828-9.63 6.347-10.46.52-.825 3.068-4.875 5.663-9s7.568-11.682 11.052-16.794c4.992-7.325 6.203-9.817 5.715-11.76-.34-1.356-.981-2.689-1.424-2.963-.916-.566-5.379 5.675-15.473 21.639-3.85 6.089-9.812 15.392-13.25 20.668-5.257 8.08-6.25 10.3-6.25 13.99 0 2.77.409 4.25 1.109 4.02.61-.21 3.54-4.41 6.511-9.34zm530.48 1.11c1.32-1.33 4.18-4.24 6.37-6.45l3.96-4.01-7.96-3.657c-4.39-2.01-8.87-4.002-9.97-4.427-7.59-2.937-36.65-15.892-54-24.079-7.98-3.764-8.01-3.769-9.75-1.75-2.94 3.406-3.82 2.673 11.75 9.833 23.66 10.882 54.14 25.36 54.95 26.1 2.24 2.05-2.32.45-19.14-6.728-9.8-4.179-19.16-8.166-20.81-8.859-1.65-.694-9.28-4.075-16.96-7.514-10.26-4.593-14.37-5.995-15.5-5.283-2.26 1.422-2.46 4.163-.36 4.905 1 .355 9.12 3.954 18.05 7.997 8.93 4.044 16.47 7.352 16.77 7.352.73 0 28.92 13.36 34.5 16.35 5.74 3.08 5.3 3.06 8.1.22zm130.74-40.426c.19-.746-.1-1.8-.64-2.343-.65-.648-6.42 4.066-16.84 13.762-23.66 21.997-23.36 21.667-23.36 26.057v3.77l20.25-19.945c11.14-10.97 20.4-20.555 20.59-21.301zm-778.012 26.912c7.14-10.253 21.936-28.461 33.94-41.767 6.703-7.43 7.344-8.501 6.74-11.25-.367-1.672-.969-3.018-1.337-2.993-.369.025-2.921 3.042-5.671 6.704-6.058 8.068-37.569 46.536-41.61 50.798-2.826 2.982-3.513 5.662-2.273 8.892.898 2.34 2.437.78 10.211-10.384zm122.192-14.556c6.209-11 13.049-22.605 15.199-25.79 3.794-5.618 4.721-10.21 2.062-10.21-.977 0-10.281 12.812-10.281 14.157 0 .199-2.475 4.198-5.5 8.887s-5.5 8.687-5.5 8.885c0 .197-2.475 4.015-5.5 8.483-5.412 7.992-6.242 10.716-4.849 15.918.894 3.34 1.469 2.52 14.369-20.33zm43.405 10.25c-2.484-42.904-3.499-61.42-4.399-80.25-1.636-34.238-3.15-57.256-4.168-63.389-.512-3.086-1.19-9.455-1.507-14.152l-.576-8.541 10.863-1.119c22.294-2.294 75.376-7.159 89.862-8.235 8.25-.612 29.85-2.22 48-3.573 18.15-1.352 35.452-2.623 38.45-2.824 2.997-.2 5.622-.883 5.833-1.516.458-1.375 3.431-1.523 4.767-.236.892.858 49.14-2.291 74.45-4.861 13.54-1.374 54.1-3.292 54.8-2.591.29.295.28.789-.03 1.098-.58.579-10.6 2.321-16.77 2.913-16.49 1.585-32.08 2.81-34.85 2.739-4.13-.105-4.3-.256 5.04 4.687 4.23 2.239 10.07 6.215 12.98 8.836 12.03 10.81 19.22 18.042 22.65 22.764 2 2.75 4.15 5.45 4.77 6s2.66 3.213 4.52 5.918 5.59 8.105 8.27 12c5.4 7.836 16.27 31.512 17.23 37.53.76 4.786 1.8 5.052 19.6 5.052h12.97l-4.45-6.25c-6.88-9.669-10.31-16.343-14.25-27.75-3.59-10.385-3.62-10.67-3.53-26 .11-17.758 2.4-31.718 7.15-43.581 3.42-8.541 3.63-11.818.9-14.151-1.1-.942-2-2.112-2-2.601 0-.488-2.16-3.875-4.79-7.527-4.58-6.348-12.31-23.015-15.61-33.64-5.06-16.275-9.86-60.763-7.66-70.902.49-2.254 1.42-9.488 2.06-16.075.65-6.587 1.76-13.112 2.46-14.5s1.82-4.998 2.49-8.023c1.9-8.578 5.09-17.974 8.2-24.124 2.88-5.68 3.47-7.9 2.1-7.848-.41.016-3.13 3.954-6.03 8.75-2.9 4.797-7.3 11.872-9.76 15.722-2.47 3.85-5.34 8.8-6.37 11-2.61 5.529-4.64 8.041-5.44 6.744-.8-1.302 18.73-40.255 21.06-41.994 1.87-1.395 1.02-1.545-3.57-.629-2.85.57-3.91 2.149-12.97 19.25-5.43 10.246-10.31 19.951-10.83 21.567-.53 1.615-1.5 3.115-2.15 3.333-2.31.767-1.19-5.499 2.2-12.387 1.86-3.786 4.09-8.459 4.94-10.384.86-1.925 3.35-7.438 5.55-12.25l3.99-8.75-2.68.015c-1.48.009-3.17.346-3.76.75-1.03.711-11.14 19.4-18.24 33.735-7.84 15.827-2.31-2.931 7.15-24.25l4.55-10.25h-2.82c-1.56 0-3.35.63-3.99 1.401-1.87 2.26-18.08 34.42-18.08 35.882 0 2.321-2.76 5.322-3.88 4.217-.68-.673.15-3.614 2.53-9 1.95-4.4 5.55-12.95 8.01-19 2.45-6.05 4.72-11.602 5.04-12.338.41-.949-.11-1.24-1.81-1-1.98.28-4.05 3.499-12.12 18.838-5.36 10.175-9.74 19.288-9.75 20.25s-.47 1.75-1.02 1.75c-1.58 0-1.19-2.336 1.37-8.129 4.97-11.294 12.82-32.014 12.31-32.522-1.74-1.747-4.76 1.735-9.43 10.892-2.87 5.642-6.29 12.284-7.59 14.759s-3.32 6.638-4.5 9.25c-2.07 4.618-4.16 6.26-4.16 3.277 0-.811.89-3.398 1.98-5.75 3.5-7.553 13.02-30.896 13.02-31.923 0-.546-1.01-.849-2.25-.674-2.64.375-10.59 14.592-16.4 29.32-1.95 4.95-4.01 9.562-4.57 10.25-1.35 1.646-2.78 1.593-2.78-.103 0-1.389 8.17-22.726 12.55-32.772 3.02-6.923 3.02-6.875-.07-6.875-2.26 0-3.35 1.666-10.5 16.105-4.39 8.857-7.98 16.711-7.98 17.453 0 2.415-2.29 6.442-3.66 6.442-.74 0-1.34-.194-1.34-.431 0-.552 8.48-23.563 10.98-29.819 1.05-2.613 1.67-4.75 1.37-4.75-.29 0-2.18 1.189-4.19 2.642-2.82 2.039-4.78 5.066-8.56 13.25-2.69 5.835-5.31 12.095-5.81 13.913-.8 2.888-3.17 5.164-4.24 4.069-.2-.206 1.16-5.071 3.02-10.813 1.86-5.741 3.24-10.58 3.07-10.754-.17-.173-7.83 4.975-17.01 11.439-28.033 19.735-41.478 27.739-43.387 25.831-.977-.978 4.271-5.548 16.167-14.077 5.369-3.85 13.835-10.054 18.813-13.787 4.977-3.733 11.347-8.375 14.167-10.316 2.81-1.94 6.74-4.736 8.72-6.213 1.99-1.476 8.52-6.174 14.5-10.439 5.99-4.265 21.24-15.131 33.89-24.146 12.65-9.014 28.85-20.324 36-25.132 7.15-4.809 14.12-9.579 15.5-10.602 1.38-1.022 10.94-7.515 21.25-14.428 10.31-6.914 18.75-12.815 18.75-13.115 0-.609-29.09.296-53.5 1.664-8.8.494-31.42 1.459-50.28 2.146l-34.27 1.248-2.45 3.215c-1.35 1.769-4.06 4.208-6.03 5.421-4.27 2.641-4.08 3.897.83 5.599 8.99 3.113 15.49 11.93 16.43 22.303.93 10.347-5.91 21.569-16.43 26.928-7.17 3.648-14.73 5.169-31.368 6.303-17.493 1.193-21.317.896-22.325-1.731-1.1-2.867.383-3.418 9.202-3.419 11.116-.001 29.661-1.738 34.191-3.202 7.47-2.417 12-5.07 15.95-9.354 4.86-5.28 6.05-8.035 6.05-14.048 0-9.094-6.47-16.739-17.16-20.262-8.51-2.807-14.893-3.312-30.34-2.4l-13 .767-1 11.107c-1.078 11.974-2.273 14.782-5.743 13.499-1.153-.427-5.057-.217-8.677.465-3.619.682-9.955 1.766-14.08 2.41-4.125.643-14.813 2.575-23.752 4.292-19.209 3.691-21.503 3.17-13.095-2.974 2.941-2.148 8.722-5.95 12.847-8.448 16.771-10.155 29.556-18.125 30.5-19.013 1.109-1.042-3.489-.539-15.5 1.699-21.026 3.918-41.012 6.658-40.979 5.618.026-.835 9.055-6.567 19.979-12.683 7.973-4.465 11.427-6.443 20-11.455l3.5-2.046-7 .605c-3.85.332-11.275 1.241-16.5 2.018-22.284 3.318-24.28 3.526-25.172 2.634-.551-.551 2.174-2.896 6.879-5.919 12.178-7.822 42.937-26.079 50.793-30.149 5.123-2.653 3.092-2.772-2.971-.172-4.241 1.817-12.004 4.5-29.529 10.203-3.575 1.163-6.95 2.436-7.5 2.83-1.875 1.34-11.505 4.144-12.754 3.714-3.069-1.058 21.164-11.453 52.004-22.31 7.288-2.565 13.253-5.173 13.257-5.795.022-3.834-2.498-17.337-3.428-18.363-.868-.959-2.267-.403-6.293 2.5-2.847 2.053-8.914 6.423-13.481 9.711-4.568 3.288-11.68 8.502-15.805 11.587s-13.064 9.562-19.865 14.392c-8.98 6.379-11.991 9.02-11 9.648 1.003.635.768.868-.885.88-1.237.008-2.25.397-2.25.863 0 1.196-7.874 4.612-8.708 3.778-1.087-1.088 7.319-8.141 40.078-33.626 13.187-10.259 16.909-13.855 10.38-10.027-2.835 1.661-20.571 9.832-29.25 13.475-16.436 6.898-28.433 11.552-29.778 11.552-2.735 0 16.599-16.857 51.524-44.921 3.71-2.982 6.594-5.572 6.41-5.756-.364-.364-35.949 16.539-46.91 22.283-3.715 1.947-7.54 3.387-8.5 3.202-1.7-.329 23.316-14.248 58.004-32.276 10.422-5.416 16.75-9.275 16.75-10.214 0-.83-.602-2.704-1.338-4.164s-2.4-4.904-3.698-7.654-2.473-5.164-2.611-5.365c-.137-.201-1.768.924-3.623 2.5-14.258 12.114-34.492 29.036-41.638 34.824-14.612 11.834-25.606 21.761-25.289 22.833.166.564-.284 1.397-1 1.851-1.762 1.118-4.803 1.075-4.803-.067 0-1.267 19.395-20.015 37.25-36.006 8.112-7.266 14.75-13.422 14.75-13.679 0-.429-6.555 2.91-43.184 21.999-6.977 3.635-13.164 6.61-13.75 6.61-2.33 0-.774-1.618 3.711-3.861 2.598-1.299 10.115-5.552 16.704-9.451 6.59-3.898 14.502-8.461 17.583-10.138 26.081-14.2 39.936-22.173 39.936-22.982 0-.527-2.989-5.378-6.643-10.779l-6.643-9.821-17.607 17.298c-9.684 9.514-25.043 24.565-34.131 33.445-9.088 8.881-16.383 16.567-16.212 17.081.332.996-5.51 3.795-6.291 3.014-.917-.916 13.029-16.711 33.16-37.556 11.287-11.688 20.237-21.25 19.889-21.25-.347 0-3.195 1.721-6.327 3.825-7.723 5.187-27.797 17.175-28.76 17.175-.428 0-1.488.639-2.356 1.42-1.909 1.716-12.696 7.96-19.579 11.332-2.75 1.347-6.432 3.529-8.183 4.849-1.751 1.319-3.453 2.399-3.783 2.399-1.046 0 21.253-26.642 39.967-47.75 2.56-2.887 4.412-5.25 4.116-5.25-.435 0-10.84 6.908-31.985 21.234-1.028.696-3.728 2.59-6 4.208-5.858 4.17-15.569 9.558-17.228 9.558-2.846 0-3.117.393 19.596-28.461 23.206-29.481 23.288-29.619 11.477-19.443-16.85 14.517-50.968 39.746-52.151 38.563-.287-.286.423-1.11 1.577-1.83 1.153-.721 2.097-1.882 2.097-2.58 0-1.765 6.156-11.544 25.494-40.494 5.417-8.11 9.619-14.975 9.339-15.255-.281-.281-8.57 7.177-18.421 16.573-22.756 21.703-41.382 38.29-42.143 37.53-.324-.325.108-1.381.962-2.347.853-.966 3.846-6.256 6.651-11.756 5.921-11.61 10.244-19.652 23.024-42.825 5.103-9.253 9.105-16.998 8.892-17.21-.212-.212-5.316 5.537-11.342 12.776-6.026 7.238-13.89 16.558-17.476 20.71-3.585 4.152-8.141 9.574-10.123 12.049s-5.123 6.213-6.981 8.307c-1.857 2.093-5.401 6.216-7.876 9.162s-4.583 5.275-4.684 5.176c-.408-.399 3.971-15.527 6.12-21.145 7.177-18.762 10.974-28.315 12.249-30.817.79-1.55 1.275-3.575 1.079-4.5-.256-1.203-1.342-.29-3.811 3.199-14.958 21.148-39.21 51.606-41.098 51.615-1.422.007 2.518-12.275 14.261-44.445 3.202-8.771 5.655-16.114 5.451-16.318s-4.353 6.22-9.219 14.277c-14.759 24.434-29.535 47.635-30.026 47.145-.485-.486 5.706-31.344 8.106-40.406.765-2.887 1.03-5.25.589-5.25s-4.169 6.188-8.285 13.75-9.227 16.588-11.358 20.056-4.549 7.621-5.374 9.228c-.825 1.608-1.809 2.932-2.187 2.944-1.193.038 1.218-13.993 6.524-37.978 3.871-17.493 5.055-24 4.367-24-.26 0-2.815 5.512-5.678 12.25-8.116 19.096-16.039 37.005-17.586 39.75-.775 1.375-2.376 4.637-3.558 7.25-2.9 6.41-4.162 6.042-3.421-1 .333-3.163 1.071-10.25 1.64-15.75s1.455-12.737 1.967-16.082c.513-3.345.906-7.845.874-10-.044-3.019-1.944 1.592-8.277 20.082-4.52 13.2-8.575 24.57-9.011 25.266-2.23 3.566-2.654-2.235-2.654-36.325v-36.441h-2.383-2.383l-.604 38.75c-.541 34.699-2.365 77.85-4.596 108.75-2.479 34.324-4.15 54.919-5.035 62.052-.549 4.428-.999 9.277-.999 10.776v2.723l3.25-1.639c1.788-.902 4.375-2.688 5.75-3.97 3.587-3.342 24.306-12.915 36.815-17.01 10.456-3.422 14.35-4.03 41.09-6.415 11.11-.99 36.902.818 42.609 2.988 1.594.606 7.193 2.236 12.442 3.621 24.92 6.575 48.21 22.595 67.544 46.459 7.407 9.143 10.126 14.455 8.44 16.487-2.003 2.413-4.341 1.586-6.586-2.33-5.615-9.79-21.325-26.852-32.103-34.865-16-11.896-30.767-18.877-50.751-23.992-10.279-2.631-12.311-2.814-31-2.799-15.599.013-21.65.406-27.5 1.787-4.125.973-10.644 2.453-14.487 3.289-12.167 2.645-30.568 11.869-46.372 23.246-9.48 6.824-24.864 20.42-31.482 27.824-3.6 4.028-13.659 17.901-13.659 18.838 0 .31-1.05 1.996-2.334 3.747-3.214 4.384-9.997 17.842-12.949 25.696-7.247 19.275-7.702 38.942-1.597 68.987 1.209 5.95 10.282 29.174 14.056 35.98 7.552 13.62 9.148 16.003 16.739 24.99 6.338 7.503 11.38 12.324 21.996 21.03 2.347 1.925 4.79 3.961 5.428 4.524.639.563 5.211 3.667 10.161 6.898 4.95 3.23 10.159 6.663 11.576 7.627 12.354 8.41 36.092 16.984 51.249 18.512 8.494.856 10.614 2.849 13.641 12.825 1.188 3.913 3.031 9.312 4.097 11.997 1.065 2.686 1.94 5.836 1.944 7 .004 1.165 2.287 8.417 5.073 16.117 2.787 7.7 6.361 17.825 7.943 22.5 1.583 4.675 6.084 17.725 10.002 29 8.579 24.682 14.917 43.248 21.849 64 2.847 8.525 5.376 16.06 5.62 16.75 1.066 3.01 1.375.68.931-7zm495.775 3.563c1.54-1.478 2.8-2.998 2.8-3.379 0-.38-1.46-1.248-3.25-1.929-19.53-7.438-67.68-30.528-73.52-35.254-1.47-1.194-5.23 1.653-5.23 3.964 0 .826 6.28 4.411 15.25 8.7 30.5 14.593 52.69 25.683 53.27 26.623.33.529 1.42.962 2.42.962s2.38.675 3.06 1.5c1.66 2 1.94 1.94 5.2-1.187zm-664.886-7.75c3.747-5.169 8.922-11.874 11.5-14.901 2.577-3.027 8.06-9.862 12.183-15.19s10.084-12.676 13.246-16.329c3.924-4.533 5.751-7.498 5.754-9.334.004-3.488-1.788-4.553-3.513-2.089-.747 1.065-4.198 5.558-7.671 9.984-3.472 4.426-8.113 10.389-10.313 13.25-8.617 11.207-23.412 29.864-28.75 36.256-2.02 2.42-2.367 7.8-.5 7.77.688-.012 4.316-4.249 8.064-9.417zm748.446 2.187c3.13-3.438 11.01-11.593 17.52-18.123 7.2-7.218 11.63-12.413 11.31-13.25-.29-.757-.92-1.377-1.41-1.377s-8.12 7.087-16.97 15.75c-13.82 13.522-16.18 16.28-16.7 19.5-.33 2.062-.34 3.75-.02 3.75.33 0 3.15-2.812 6.27-6.25zm-74.76-3.252c2.08-2.139 3.03-3.843 2.45-4.379-.52-.483-7.03-3.23-14.45-6.104-7.42-2.875-15.53-6.139-18-7.255-2.47-1.115-8.1-3.563-12.5-5.439-4.4-1.877-14.23-6.416-21.85-10.087-13.31-6.411-13.91-6.599-15.25-4.764-1.32 1.802-.22 2.52 19.35 12.603 41.29 21.274 55.76 28.678 56.3 28.802.31.069 2.09-1.451 3.95-3.377zm-677.395-6.248c3.216-4.263 11.422-15.4 18.236-24.75s15.757-20.715 19.873-25.255c7.24-7.987 7.455-8.37 6.634-11.812l-.848-3.558-3.998 5.312c-5.405 7.183-38.781 48.109-44.177 54.171-2.379 2.672-4.325 5.68-4.325 6.685 0 1.964 1.689 6.957 2.354 6.957.222 0 3.035-3.487 6.251-7.75zm117.893 3.754c1.387-2.198 3.916-6.585 5.619-9.75s3.436-6.204 3.852-6.754 2.906-5.05 5.533-10 6.289-11.371 8.137-14.269c3.658-5.736 3.876-6.747 2.328-10.817l-1.032-2.716-3.408 5.401c-1.874 2.971-4.394 7.201-5.601 9.401s-6.184 10.36-11.06 18.134c-8.424 13.43-8.866 14.415-8.866 19.75 0 3.089.444 5.616.987 5.616.544 0 2.123-1.798 3.511-3.996zm648.192-21.75c8.21-8.84 10.31-11.674 9.81-13.25-.35-1.102-.96-2.004-1.37-2.004-.4 0-6.67 6-13.93 13.333-12.96 13.09-13.2 13.413-13.17 17.75l.02 4.417 4.09-4.5c2.26-2.475 8.8-9.561 14.55-15.746zm-80.64 15.488c1.9-1.792 11.1-11.573 20.45-21.735s20.94-22.646 25.75-27.742c4.81-5.097 8.75-9.603 8.75-10.016 0-.412-39.43-.907-87.62-1.1-57.5-.23-87.49-.01-87.25.639.91 2.433 30.17 20.212 33.27 20.212.79 0 1.58.413 1.77.918.28.79 20.22 13.082 21.21 13.082.2 0 9.53 4.419 20.74 9.819s21.96 10.446 23.88 11.213 5.97 2.834 9 4.592 5.75 3.237 6.05 3.287c.31.049 2.11-1.377 4-3.169zm-680.906-19.637c6.796-9.018 13.228-17.568 14.294-19 3.378-4.542 12.797-15.371 19.34-22.236 5.431-5.698 6.227-7 5.66-9.259-.363-1.446-.977-2.825-1.365-3.065-.388-.239-4.702 4.602-9.587 10.76-4.885 6.157-16.668 20.954-26.184 32.881-16.408 20.566-18.993 24.79-16.619 27.164.88.88.107 1.801 14.461-17.245zm110.156 10.145c4.23-8.04 14.835-26.631 16.631-29.153 1.138-1.598 2.069-3.134 2.069-3.414s1.575-2.9 3.5-5.823c3.818-5.797 4.186-7.54 2.172-10.293-1.231-1.684-1.5-1.534-3.689 2.058-1.299 2.131-3.456 5.9-4.792 8.375s-3.421 5.85-4.634 7.5c-1.212 1.65-2.478 3.745-2.813 4.655-.334.91-3.114 5.499-6.176 10.197-4.896 7.511-5.568 9.153-5.568 13.595 0 5.638 1.131 6.427 3.3 2.303zm-114.714-16.363c16.31-23.689 27.215-37.965 35.494-46.465 5.309-5.451 5.92-6.509 5.92-10.25 0-3.042-.406-4.172-1.5-4.172-.825 0-1.5.376-1.5.836 0 .936-10.303 14.217-21.683 27.949-3.477 4.196-23.156 29.241-26.413 33.615-2.825 3.794-3.978 10.192-2.165 12.006.942.942 5.368-4.108 11.847-13.519zm763.164-1.207c3.99-4.729 7.25-9.019 7.25-9.532 0-.514-.62-1.174-1.39-1.467-.85-.325-4.94 3.089-10.5 8.758-8.71 8.882-9.11 9.485-9.08 13.676l.02 4.385 3.23-3.611c1.77-1.986 6.48-7.48 10.47-12.209zm-705.406 1.07c.348-3.438 1.778-15.025 3.177-25.75 1.4-10.725 3.186-24.45 3.969-30.5 1.775-13.71 5.076-35.463 6.974-45.951.792-4.373 1.736-13.148 2.099-19.5l.66-11.549-3.362-1.63c-1.848-.897-6.961-3.294-11.361-5.327-7.376-3.408-17.313-9.108-18.5-10.61-.275-.349-1.57-1.197-2.877-1.887-2.999-1.58-4.298.029-3.104 3.848.448 1.433 1.064 6.334 1.369 10.89.637 9.513 3.234 27.265 4.65 31.787.529 1.689.962 5.611.962 8.715 0 4.679.353 5.832 2.065 6.749 1.663.89 1.831 1.386.862 2.553-1.202 1.448-1.031 4.673 1.001 18.912.973 6.814 4.241 33.429 6.57 53.5 2.473 21.309 2.58 22 3.419 22 .436 0 1.079-2.812 1.427-6.25zm-66.478-4.235c1.426-2.208 3.052-4.77 3.614-5.692 8.242-13.549 32.346-44.554 41.438-53.302 3.963-3.814 4.109-4.168 3.481-8.5-.359-2.487-.85-4.861-1.089-5.277-.354-.615-7.391 8.229-15.719 19.756-.795 1.1-9.803 13.197-20.018 26.882-15.047 20.159-18.573 25.49-18.573 28.084 0 5.917 2.184 5.296 6.866-1.951zm127.082-5.242c1.896-3.725 4.414-8.348 5.595-10.273s4.488-7.644 7.349-12.71c5.195-9.199 5.199-9.213 3.551-12.4l-1.65-3.191-1.74 2.901c-.956 1.595-4.353 7.625-7.549 13.4-3.195 5.775-7.766 13.711-10.157 17.636-3.19 5.237-4.347 8.187-4.347 11.083 0 2.171.332 4.28.738 4.685 1.04 1.041 4.183-3.221 8.21-11.131zm640.382-.201c6.15-6.856 6.54-7.56 5.09-9.158-1.46-1.62-1.91-1.4-6.95 3.427-4.39 4.201-5.52 5.973-6.08 9.542-.43 2.744-.32 4.24.3 4 .54-.211 3.98-3.725 7.64-7.811zm-771.988-3.822c1.499-2.062 5.924-8.7 9.834-14.75 14.099-21.816 32.095-45.947 38.709-51.905 1.445-1.302 2.093-3.044 2.045-5.5-.158-8.082-1.012-7.716-9.692 4.15-4.527 6.19-13.412 18.005-19.744 26.255s-12.29 16.125-13.239 17.5c-.95 1.375-4.321 6.026-7.491 10.337-5.687 7.731-6.521 10.236-5.134 15.413.826 3.081 1.55 2.85 4.712-1.5zm133.078-20.24c7.11-14.169 8.545-16.829 10.258-19.01.929-1.183.591-3.19-1.602-9.5-3.409-9.813-10.833-29.922-12.552-34-.696-1.65-3.176-8.4-5.513-15-2.336-6.6-4.66-12.515-5.165-13.145-.937-1.171-7.712-2.823-8.469-2.065-.23.23.038 2.621.595 5.314.558 2.693 1.437 10.071 1.954 16.396.516 6.325 1.843 20.5 2.947 31.5s2.74 28.1 3.635 38c2.218 24.514 2.046 23.885 5.074 18.553 1.348-2.374 5.325-10.043 8.838-17.043zm635.65 15.24c4.18-4.498 4.28-5.099 1.46-8.793-1.45-1.901-3.02-3.457-3.5-3.457s-1.02 3.376-1.2 7.502c-.18 4.127-.1 7.502.17 7.5.28-.001 1.66-1.239 3.07-2.752zm-772.168-8.007c1.322-2.059 3.177-4.886 4.124-6.282s5.356-7.921 9.799-14.5c4.442-6.579 9.786-14.301 11.876-17.161 2.089-2.859 6.783-9.389 10.431-14.51 3.647-5.121 8.811-11.734 11.474-14.696 3.949-4.393 4.783-5.958 4.521-8.49-.666-6.448-1.629-6.227-7.247 1.668-6.78 9.525-41.064 56.546-46.102 63.228-3.671 4.87-4.383 7.64-3.148 12.25.824 3.074 1.481 2.842 4.272-1.507zm888.678-11.898c1.01-6.758-.16-22.262-2.59-34.345-1.16-5.775-3.87-19.95-6.02-31.5-6.25-33.518-16.07-75.566-22.09-94.5l-2.38-7.5-.27 28.406c-.23 25.339-.05 29.279 1.69 36.5 4.39 18.147 4.67 19.796 9.5 55.094 1.44 10.533 3.38 32.875 3.85 44.5l.23 5.5 7 1.131c10.88 1.759 10.29 1.934 11.08-3.286zm-888.901-5.08c6.593-10.578 40.889-59.539 44.321-63.271 5.745-6.248 6.876-9.559 4.975-14.558l-1.024-2.695-2.493 3.379c-1.371 1.859-5.404 7.43-8.962 12.38-5.814 8.088-11.39 15.642-37.943 51.396-8.137 10.957-8.271 11.393-5.932 19.354.884 3.009 2.089 1.987 7.058-5.985zm863.891.985c-.29-3.163-.78-10.025-1.1-15.25-.83-13.481-2.73-28.906-7.05-57-1.3-8.512-2.11-7.163-2.77 4.656-.37 6.514-1.1 19.044-1.63 27.844-.54 8.8-1.28 22.113-1.64 29.585l-.68 13.584 5.4 1.034c10.34 1.981 10.07 2.107 9.47-4.453zm-101.57 3.038c0-1.257-12.32-11.084-25.03-19.968-11.91-8.318-31.98-18.28-47.97-23.802-6.21-2.146-23.75-8.799-47.57-18.051-25.92-10.07-68.05-32.958-80.32-43.644-2.42-2.103-4.68-3.823-5.02-3.823-1.1 0-6.98 19.153-8.68 28.286-2.42 12.972-1.56 32.746 1.83 42.214 4.93 13.753 10.46 23.113 18.64 31.537l4.62 4.754 40.5.711c22.28.391 63 1.038 90.5 1.438 27.5.401 51.91.803 54.25.894s4.25-.155 4.25-.546zm79.5-1.285c1.23-1.989 5.18-72.025 6.47-114.638.98-32.4.62-46.063-1.99-76.779-.89-10.47-1.51-13.075-5.1-21.5-6.82-15.973-6.98-16.102-6.33-5.086.95 16.472.98 63.374.07 127-.49 33.825-.56 68.112-.15 76.194.7 13.952.84 14.715 2.88 15.114 1.18.231 2.46.481 2.84.556s.97-.312 1.31-.861zm-318.11-1.832c1.06-1.711-8.59-26.98-11.9-31.171-.65-.825-2.68-4.2-4.51-7.5s-4.4-7.35-5.71-9c-1.3-1.65-3.81-4.871-5.57-7.159-8.52-11.073-12.49-15.814-15.65-18.698-1.89-1.729-6.26-5.725-9.71-8.881-12.42-11.373-21.38-15.596-34.93-16.458-8.42-.536-32.41 1.279-32.41 2.452 0 1.239 39.55 45.59 81.11 90.968l4.79 5.225 15.8.303c8.69.166 16.34.403 16.99.525.66.123 1.42-.15 1.7-.606zm-67.51-29.958c-16.16-16.383-32.07-32.921-35.36-36.75-3.29-3.83-8.82-10.026-12.29-13.77-3.47-3.745-6.548-8.034-6.848-9.533-.3-1.498-1.316-3.747-2.258-4.996-1.498-1.985-2.073-2.134-4.573-1.183l-2.86 1.087 2.485 2.716c3.116 3.407 31.294 36.259 35.274 41.115 1.61 1.981 6.13 7.201 10.03 11.601 13.22 14.929 29.02 33.638 29.83 35.323.44.922-1.14-.416-3.5-2.975-2.37-2.558-10.16-10.842-17.31-18.407s-17.72-18.758-23.5-24.873c-10.56-11.186-18.27-19.858-31.869-35.886-4.054-4.775-7.991-8.682-8.75-8.682-2.224 0-1.661 1.205 3.369 7.22 2.612 3.123 6.535 7.84 8.716 10.48s6.006 7.086 8.504 9.88c2.49 2.795 8.44 9.77 13.22 15.5 8.78 10.53 20.89 24.926 35.05 41.679l7.73 9.153 7.27.345c3.99.19 9.46.435 12.14.544l4.88.199zm372.68 28.037c.95-2.154 1.91-179.918 1-184.799-.88-4.67-1.94-3.738-3.96 3.492-2.17 7.736-7.39 18.72-13.1 27.557-2.48 3.85-5.46 8.763-6.61 10.917-1.16 2.155-5.81 9.58-10.33 16.5-10.02 15.303-15.62 25.4-20.16 36.317-3.85 9.263-7.4 23.004-7.4 28.661 0 9.258 4.61 25.357 7.59 26.5.77.298 1.41 1.155 1.41 1.905 0 1.64 12.77 13.815 19.6 18.694 4.42 3.153 28.93 16.006 30.53 16.006.36 0 1-.788 1.43-1.75zm-388.56-.312c0-.584-4.16-5.427-9.25-10.762-11.51-12.068-37.126-39.855-45.608-49.469-3.497-3.964-9.572-10.734-13.5-15.044s-7.925-9.343-8.883-11.185c-.957-1.842-2.22-3.645-2.806-4.007-1.471-.909-6.17.378-5.77 1.579.444 1.331 15.405 18.862 38.817 45.484 30.57 34.765 31.34 35.658 34.21 39.599 2.59 3.573 4.2 4.295 10.54 4.717 1.24.083 2.25-.328 2.25-.912zm16 .097c0-1.262-3.74-5.584-19.51-22.535-18.56-19.946-44.187-48.739-57.295-64.367-3.824-4.558-4.741-5.133-8.191-5.133-7.406 0-9.904-3.428 34.996 48.019 6.88 7.878 15.42 17.513 19 21.411s9.65 10.796 13.49 15.329l6.99 8.241h5.26c2.89 0 5.26-.434 5.26-.965zm-140.807-1.655c-.499-.892-14.161-14.954-30.359-31.25-16.198-16.297-32.5-33.568-36.226-38.38-5.248-6.779-7.326-8.75-9.226-8.75-3.254 0-2.663 1.014 7.781 13.336 4.585 5.41 11.262 13.345 14.837 17.633 6.17 7.402 21.93 25.895 32.25 37.843 5.891 6.82 6.319 9.425.496 3.013-2.335-2.571-13.511-14.496-24.834-26.5-22.23-23.564-34.452-37.219-37.214-41.575-1.136-1.79-2.608-2.75-4.221-2.75-1.362 0-2.477.348-2.477.774 0 .939 10.846 14.304 29.022 35.762 7.438 8.78 15.517 18.439 17.955 21.464s7.269 8.722 10.737 12.66l6.305 7.16 11.087.02c6.098.011 11.344.277 11.658.59.313.314 1.192.57 1.952.57.982 0 1.12-.47.477-1.62zm12.578.182c.288-.288-8.205-9.198-18.874-19.8-28.188-28.012-45.246-46.123-53.186-56.471-1.178-1.535-2.567-3.087-3.086-3.448-1.042-.727-3.63-.001-3.617 1.014.009.742 6.628 8.289 29.876 34.068 9.139 10.133 20.371 22.733 24.96 28 17.637 20.238 15.621 18.424 19.725 17.758 2.023-.329 3.914-.833 4.202-1.121zm16.101-.101c.528-.527-2.898-4.204-26.984-28.961-7.491-7.7-21.443-22.325-31.004-32.5s-18.165-18.643-19.12-18.818-2.956-.175-4.446 0c-3.052.358-4.344-1.21 34.182 41.497 17.884 19.826 26.814 29.902 31.913 36.01 1.695 2.031 3.83 3.348 5.875 3.624 3.446.466 8.737-.004 9.584-.852zm24.1.789c-.016-.413-6.373-7.275-14.127-15.25-21.1-21.699-55.641-61.013-58.812-66.939-1.135-2.121-4.725-2.632-8.38-1.194-1.756.691-1.761.799-.092 2.18 1.656 1.371 11.77 12.673 29.939 33.454 9.358 10.705 34.171 38.059 40.118 44.227 3.364 3.489 4.784 4.272 7.75 4.272 1.998 0 3.619-.337 3.604-.75zm13.329-.236c1.158-.009-6.921-9.211-22.619-25.764-29.045-30.626-44.648-48.015-48.902-54.5-2.243-3.417-3.771-4.75-5.448-4.75-4.459 0-4.287.255 18.195 27 19.058 22.671 36.301 43.061 39.892 47.173 2.245 2.571 5.103 6.028 6.352 7.684 2.31 3.062 5.133 4.207 8.729 3.541 1.1-.204 2.811-.377 3.801-.384zm13.699-.196c0-.65-3.487-4.822-7.75-9.272-28.705-29.965-62.219-68.435-62.282-71.491-.065-3.19-2.585-5.055-6.828-5.055-2.662 0-4.129.446-4.108 1.25.032 1.248 19.975 25.07 35.873 42.85 4.623 5.17 10.248 11.583 12.5 14.251s7.511 8.566 11.685 13.107c4.175 4.541 8.841 9.896 10.369 11.899 2.355 3.088 3.37 3.643 6.66 3.643 2.318 0 3.881-.476 3.881-1.182zm17-.245c0-.786-1.01-2.248-2.25-3.25-7.822-6.325-44.522-47.007-71.336-79.073-2.925-3.499-4.166-4.25-7.019-4.25-2.997 0-3.336.236-2.511 1.75 1.162 2.129 17.6 22.013 41.116 49.736 9.625 11.347 20.405 24.204 23.955 28.572l6.456 7.942h5.799c4.35 0 5.79-.355 5.79-1.427zm16 .853c0-.316-2.42-3.129-5.37-6.25-2.96-3.122-8.92-9.808-13.25-14.859-4.33-5.05-12.38-14.071-17.88-20.045-5.5-5.975-11.803-12.868-14.006-15.318-2.204-2.45-9.991-10.753-17.305-18.453-11.523-12.129-13.659-13.952-15.994-13.653-1.482.191-2.857.502-3.054.692-.198.19 1.911 2.959 4.686 6.153s10.547 12.332 17.271 20.307 14.597 17.2 17.496 20.5c16.582 18.876 29.936 34.272 32.646 37.648 2.95 3.675 3.36 3.852 8.93 3.852 3.21 0 5.83-.258 5.83-.574zm-143-1.645c0-.671-1.526-2.808-3.392-4.75-4.907-5.108-16.944-18.272-25.608-28.006-4.125-4.635-9.75-10.952-12.5-14.04-5.091-5.715-15.698-18.176-20.848-24.492-1.819-2.23-3.717-3.493-5.25-3.493-1.321 0-2.402.219-2.402.486 0 .483 3.084 4.313 22.864 28.396 26.904 32.757 37.853 45.442 39.961 46.298 2.812 1.141 7.175.898 7.175-.399zm52.371-19.031c-31.214-31.43-53.061-54.695-55.912-59.538-1.331-2.262-2.564-3.199-3.947-3-1.107.158-2.012.831-2.012 1.495 0 1.005 35.012 40.774 60.804 69.065 3.742 4.105 7.507 8.535 8.365 9.846 1.338 2.042 2.364 2.382 7.187 2.382h5.626zm-65.371 18.241c0-.554-3.712-5.079-8.25-10.056-23.15-25.388-27.744-30.579-39.326-44.435-6.895-8.25-13.182-15.788-13.971-16.75-1.756-2.144-5.309-2.29-6.091-.251-.771 2.01 12.24 18.505 47.989 60.836l9.851 11.665h4.899c2.695 0 4.899-.454 4.899-1.009zm-31-.625c0-.575-6.38-7.78-23.455-26.49-3.325-3.643-8.745-9.87-12.045-13.838-15.027-18.07-15.454-18.31-15.485-8.706-.015 4.691.227 5.087 8.235 13.523 4.538 4.78 14.029 14.868 21.091 22.418 12.74 13.619 12.876 13.727 17.25 13.727 2.425 0 4.409-.285 4.409-.634zm6.92-9.116c-21.722-22.193-45.57-49.606-50.459-58-1.882-3.233-4.726-4.248-6.023-2.15-.374.605.162 2.13 1.191 3.389 1.029 1.26 8.324 10.327 16.21 20.151 7.887 9.823 19.495 24.273 25.796 32.11l11.456 14.25h5.686 5.685zm-42.92 7.938c0-.792-12.338-11.408-13.916-11.974-.752-.269-.388 8.84.46 11.536.441 1.403 13.456 1.827 13.456.438zm17-2.279c-1.925-1.667-9.912-9.417-17.749-17.22l-14.249-14.189-.001 5.226c-.001 5.225 0 5.228 10.683 17.25l10.684 12.024 7.066-.029 7.066-.03zm-223.128-10.452c20.663-30.712 44.22-64.597 47.306-68.047 1.657-1.852 1.744-2.675.765-7.241-.608-2.833-1.422-5.347-1.81-5.587-.602-.372-14.462 19.223-26.133 36.95-1.925 2.923-8.45 12.209-14.5 20.634-18.053 25.141-17.395 23.98-16.426 28.993.461 2.387.858 4.716.882 5.174.128 2.434 3.307-1.054 9.916-10.876zm-7.802-9.881c.039-.592 1.727-3.594 3.75-6.671 2.024-3.077 5.237-8.027 7.141-11 10.176-15.892 31.67-47.301 36.496-53.333 5.162-6.452 5.543-7.295 5.543-12.25 0-3.774-.389-5.322-1.336-5.322-.735 0-5.683 6.413-10.995 14.25-5.313 7.837-12.788 18.75-16.612 24.25-7.723 11.107-14.109 20.718-20.267 30.5-2.251 3.575-5.599 8.754-7.441 11.509-3.603 5.388-3.914 6.875-2.318 11.071l1.03 2.711 2.47-2.32c1.358-1.276 2.501-2.804 2.539-3.395zm-4.396-10.326c1.517-2.612 5.986-9.74 9.931-15.839 8.079-12.489 17.139-26.906 18.797-29.911 2.161-3.915 13.861-22.113 18.644-28.996 2.926-4.211 4.499-7.359 3.95-7.908-1.387-1.387-3.378.74-8.642 9.23-2.617 4.221-14.342 21.936-26.056 39.367-20.62 30.684-23.242 35.53-20.631 38.14 1.023 1.024 1.068.978 4.007-4.083zm-2.016-11c1.647-2.612 7.433-11.95 12.857-20.75s15.653-24.663 22.731-35.251c7.079-10.588 12.593-19.701 12.253-20.25-1.338-2.165-3.189-.642-7.637 6.281-15.151 23.588-32.249 49.267-32.994 49.553-.478.184-.868.745-.868 1.247s-2.19 3.982-4.867 7.734c-2.677 3.751-5.335 7.695-5.907 8.764-1.073 2.005-.546 7.422.722 7.422.393 0 2.063-2.138 3.71-4.75zm903.212-15.402c-.64-14.635-3-49.351-4.89-71.848-2.22-26.53-8.03-57.956-13.56-73.375-2.41-6.712-11.57-26.138-15.15-32.125-.99-1.65-3.3-5.622-5.15-8.827-5.33-9.252-17.81-25.405-27.06-35.006-8.73-9.067-11.22-10.056-6.51-2.581 3.45 5.455 13.45 32.612 13.45 36.507 0 .842 1.15 3.971 2.57 6.954 1.41 2.982 2.95 6.667 3.42 8.188s1.83 5.24 3.02 8.265 3.5 9.1 5.14 13.5 4.33 10.883 5.99 14.406c6.08 12.957 12.22 33.403 21.33 71.094 7.87 32.5 8.8 36.75 13.18 59.656 2.11 11.086 4.07 20.017 4.35 19.848.27-.17.22-6.765-.13-14.656zm-904.446 2.893c1.972-3.433 4.596-7.886 5.831-9.898 1.235-2.011 3.561-5.836 5.169-8.5 7.123-11.798 26.195-40.987 29.721-45.487 3.208-4.095 3.444-4.856 1.506-4.856-1.307 0-17.651 23.223-17.651 25.079 0 .507-.425.921-.945.921s-1.533 1.102-2.25 2.449c-.718 1.348-4.905 7.682-9.305 14.076s-8.5 12.509-9.111 13.588-1.969 2.958-3.018 4.174c-4.226 4.903-6.371 8.777-6.371 11.506 0 3.06.784 4.459 2.058 3.671.429-.265 2.393-3.29 4.366-6.723zm9.97-29.635c8.471-13.56 18.185-28.859 21.587-33.997 4.767-7.198 5.909-9.602 4.978-10.475-.899-.844-1.316-.844-1.628-.002-.23.622-2.424 3.714-4.875 6.87s-4.456 6.133-4.456 6.615c0 .483-1.48 2.566-3.289 4.63-1.808 2.064-5.071 6.449-7.25 9.745-5.439 8.226-20.368 29.408-23.062 32.72-1.946 2.392-2.084 3.19-1.176 6.768.83 3.271 1.295 3.835 2.4 2.918.754-.626 8.301-12.232 16.771-25.792zm-12.275 1.853c3.778-6.303 7.335-12.134 7.903-12.959s2.258-3.43 3.755-5.79c1.498-2.359 4.787-7.084 7.31-10.5 2.523-3.415 5.18-7.335 5.905-8.71s3.344-4.882 5.821-7.792c3.154-3.708 4.187-5.608 3.449-6.346s-2.058.323-4.408 3.545c-1.845 2.529-5.316 7.185-7.714 10.346-2.399 3.161-8.443 11.597-13.433 18.747-4.989 7.15-11.239 15.8-13.889 19.221-2.65 3.422-4.818 6.873-4.818 7.669 0 2.413 1.186 4.715 2.247 4.361.551-.184 4.093-5.49 7.872-11.792zm-6.072-5.709c5.064-9.281 16.702-26.821 22.37-33.716 2.246-2.731 4.425-5.431 4.842-6s2.555-3.348 4.75-6.177c4.454-5.74 4.681-6.539 2.397-8.435-1.849-1.534-1.635-1.762-12.252 13.078-3.738 5.225-10.556 14.675-15.152 21-15.308 21.067-14.299 19.284-13.522 23.88.383 2.266 1.066 4.12 1.518 4.12.451 0 2.724-3.487 5.049-7.75zm-5.394-8.507c1.184-1.784 6.392-9.768 11.574-17.743 5.181-7.975 12.424-18.473 16.096-23.328 6.77-8.951 8.003-12.226 5.033-13.366-1.1-.422-2.341.301-3.75 2.186-2.521 3.371-15.646 22.217-22.292 32.008-2.613 3.85-6.228 8.846-8.033 11.103-3.29 4.114-3.773 5.961-2.651 10.147.805 3.003 1.472 2.836 4.023-1.007zm-2.015-13.493c4.945-8.626 21.13-32.64 26.291-39.005 5.467-6.744 5.967-8.256 3.426-10.366-1.416-1.174-1.8-1.103-2.75.512-.608 1.032-2.052 3.054-3.21 4.493s-4.107 5.541-6.552 9.116-8.602 12.481-13.682 19.791c-8.47 12.188-9.182 13.578-8.587 16.75.357 1.902 1.03 3.459 1.495 3.459.466 0 2.072-2.138 3.569-4.75zm.44-16.281c2.707-4.552 4.922-8.657 4.922-9.123 0-.465.464-.846 1.031-.846.568 0 1.328-.788 1.69-1.75 1.047-2.786 7.135-12.122 13.116-20.113 4.261-5.694 5.285-7.721 4.515-8.94-1.717-2.722-2.783-2.329-5.565 2.051-1.485 2.339-5.376 8.077-8.646 12.752s-7.646 11.2-9.724 14.5-5.291 7.87-7.14 10.155c-2.733 3.377-3.235 4.689-2.682 7 1.432 5.979 1.619 5.854 8.483-5.686zm-6.426-6.719c1.644-2.612 6.044-9.605 9.778-15.539 3.735-5.934 9.216-13.928 12.18-17.765 5.599-7.247 6.288-9.335 4.079-12.356-1.185-1.622-2.046-.779-9 8.81-4.229 5.831-7.689 10.805-7.689 11.053s-2.138 3.434-4.75 7.08c-8.802 12.285-10.416 15.427-9.682 18.852.651 3.041 1.273 4.615 1.823 4.615.15 0 1.617-2.138 3.261-4.75zm-.589-17.005c3.831-6.998 15.227-24.601 21.393-33.042 2.044-2.799 2.252-3.741 1.378-6.25-.566-1.624-1.352-2.953-1.746-2.953s-6.088 8.184-12.652 18.186c-6.565 10.003-12.997 19.463-14.293 21.022-1.942 2.336-2.234 3.491-1.659 6.556 1.335 7.117 1.903 6.853 7.579-3.519zm-6.084-8.495c4.103-7.428 16.924-28.016 21.555-34.612 4.878-6.949 4.883-6.962 3.443-9.138-1.165-1.763-2.41-.455-9.517 10-2.43 3.575-6.685 9.65-9.455 13.5-11.181 15.543-11.811 16.892-10.375 22.25.859 3.204 1.685 2.824 4.349-2zm930.401-38.877-1.7-40.373-5.38-11.5c-2.95-6.325-5.8-12.175-6.33-13-.52-.825-1.86-3.075-2.96-5-3.49-6.059-10.55-15.628-16.64-22.547-6.59-7.486-22.72-21.453-24.78-21.453-.74 0-1.93-.703-2.64-1.562-1.79-2.156-28.91-15.438-31.52-15.438-1.78 0-12.84-5.053-13.54-6.185-.81-1.3-5.12-.646-5.62.851-.21.641.27 1.316 1.07 1.5s10.79 9.334 22.2 20.334c18.23 17.583 25.58 25.299 36.8 38.627 3.31 3.932 17.22 24.837 24.17 36.321 10.89 17.981 22.18 46.019 24.41 60.598 2.12 13.848 3.3 20.065 3.74 19.631.23-.237-.34-18.599-1.28-40.804zm-927.38 19.888c4.125-6.181 9.413-13.6 11.75-16.485 2.337-2.886 4.25-5.626 4.25-6.088 0-.461 1.125-1.896 2.5-3.188 2.497-2.346 3.079-5.671 1.635-9.339-.592-1.505-1.622-.527-5.679 5.399-2.726 3.981-5.62 8.184-6.43 9.339-14.31 20.39-18.026 26.329-18.026 28.811 0 1.565.549 2.79 1.25 2.79.688-.001 4.625-5.058 8.75-11.239zm-5.492-7.511c5.018-9.025 10.015-16.593 19.011-28.797 4.327-5.87 5.116-7.581 4.724-10.25-.258-1.761-.799-3.203-1.201-3.203-.77 0-8.907 11.327-21.024 29.27-4.001 5.924-7.666 11.013-8.146 11.309-1.587.981-.622 10.421 1.066 10.421.387 0 2.894-3.938 5.57-8.75zm-.64-16.32c3.922-6.089 7.132-11.419 7.132-11.845s.9-1.59 2-2.585 2-2.222 2-2.725c0-.502 2.925-4.66 6.5-9.238 5.593-7.163 6.5-8.897 6.5-12.431 0-2.258-.337-4.102-.75-4.097-.636.007-6.364 8.099-9.764 13.793-1.05 1.76-21.299 31.57-22.883 33.688-1.021 1.365-.006 6.51 1.284 6.51.466 0 4.058-4.982 7.981-11.07zm3.723-20.68c7.499-11.413 15.36-23.01 17.468-25.773 2.81-3.681 4.203-6.819 5.217-11.75.761-3.7 1.123-6.723.804-6.718s-4.095 5.292-8.391 11.75-8.626 12.866-9.623 14.241c-2.992 4.126-19.826 29.682-21.012 31.9-1.163 2.172-.446 7.1 1.033 7.1.479 0 7.006-9.337 14.504-20.75zm926.529-46.422c-2.49-20.723-6.01-33.824-12.07-44.898-4.57-8.364-12.7-16.006-22.13-20.796-14.4-7.322-20.08-8.878-33.53-9.193-6.54-.153-12.56-.015-13.39.307s-4.12.855-7.32 1.186c-9.09.937-18.36 6.566-10.82 6.566 4.64 0 24.12 5.971 31.14 9.548 6 3.057 12.27 6.844 20.94 12.648 6.06 4.052 27.07 25.034 33.26 33.201 3.29 4.344 7.85 11.652 10.14 16.239 4.78 9.591 5.41 8.792 3.78-4.808zm-363.62-32.861 24-.039 7.5-10.173c7.33-9.941 16.53-18.354 33.83-30.924 7.58-5.505 35.54-18.436 43.78-20.246 2.18-.479 8.03-6.266 22.91-22.673 28.14-31.031 32.48-36.059 32.48-37.655 0-1.178-3.85-1.361-23.58-1.124-21.12.253-23.67.461-24.49 2.007-.51.948-1.94 2.031-3.18 2.405s-3.37 1.687-4.75 2.919c-2.05 1.835-13.47 9.973-24.62 17.536-1.21.825-8.59 5.936-16.4 11.358s-18.53 12.739-23.84 16.259c-12.47 8.275-10.73 7.103-25.14 17.038-11.38 7.853-19.97 13.723-46.58 31.847-5 3.402-11.52 8.059-14.5 10.35-6.99 5.371-6.7 5.159-11.67 8.534-2.34 1.587-4.25 3.121-4.25 3.407 0 .287 7.76.227 17.25-.133 9.49-.359 28.05-.672 41.25-.693zm-195.5-30.033c7.425-1.653 18.992-4.187 25.705-5.632 7.473-1.608 12.411-3.163 12.736-4.009.292-.761.245-5.413-.105-10.338-.733-10.328-1.098-10.591-8.065-5.797-2.524 1.736-9.13 5.702-14.68 8.813-12.111 6.787-11.632 6.515-23.841 13.538-5.362 3.084-9.75 5.806-9.75 6.049 0 .986 5.174.231 18-2.624zm453.66-8.731c4.4-2.299 6.22-4.272 12.23-13.203 7.12-10.58 27.9-40.91 40.31-58.824 8.07-11.648 8.55-12.746 5.96-13.425-3.54-.924-7.27.4-8.22 2.916-.51 1.324-2.87 5.427-5.24 9.12-2.38 3.692-5.2 8.157-6.27 9.922-2.85 4.74-14.12 20.975-18.94 27.291-4.79 6.283-10.11 13.792-18.43 26.021-3.19 4.687-6.54 9.13-7.43 9.873-1.94 1.607-2.13 3.125-.38 3.059.69-.026 3.57-1.264 6.41-2.75zm.25-17.203c6.06-9.075 13.92-20.55 17.46-25.5s9.74-13.622 13.78-19.271 9.26-12.791 11.6-15.871c2.34-3.079 4.25-5.942 4.25-6.362 0-1.192-4.01-1.944-7.08-1.33-2.88.576-4.87 3.258-15.21 20.469-2.53 4.2-9.75 15-16.06 24-23.6 33.667-25.65 36.683-25.65 37.712 0 1.305 3.08 3.201 4.69 2.886.65-.128 6.15-7.658 12.22-16.733zm73.38 11.75c1.88-2.337 6.18-8.3 9.55-13.25 8.3-12.197 20.26-29.098 34.66-48.997 6.6-9.12 12.62-17.464 13.37-18.542 1.29-1.841 1.15-1.961-2.3-1.961-4.12 0-7.42 2.846-10.69 9.238-1.72 3.379-14.41 22.826-19.38 29.721-1.1 1.525-5.58 8.121-9.96 14.657-4.37 6.536-11.23 16-15.25 21.03-7.47 9.369-8.21 10.814-6.04 11.692 2.25.906 2.58.71 6.04-3.588zm-4.28-11.5c4.57-6.462 9.47-13.318 10.9-15.234 1.42-1.916 3.81-5.291 5.3-7.5 1.48-2.209 5.08-7.246 8-11.193 2.91-3.948 7.32-9.942 9.79-13.32 2.47-3.379 6.43-8.47 8.79-11.314 2.37-2.844 5.16-6.638 6.22-8.43l1.92-3.259h-4.42c-3.54 0-4.94.549-6.97 2.74-1.4 1.507-2.54 3.088-2.54 3.513 0 .762-21.66 33.08-30.66 45.747-5.9 8.306-14.74 19.447-19.2 24.216-2.53 2.705-3.09 3.84-2.06 4.171.78.25 2.09.68 2.92.955s2 .536 2.61.579c.6.043 4.84-5.209 9.4-11.671zm-85.8 3c3.04-4.263 7.84-11.275 10.66-15.583 2.83-4.308 7.54-11.058 10.46-15 2.93-3.942 8.18-11.217 11.67-16.167s7.75-10.8 9.48-13c1.72-2.2 4.16-5.688 5.41-7.75l2.27-3.75h-4.92c-4.32 0-5.06.314-6.1 2.59-1.94 4.251-7.17 12.192-29.18 44.306-3.92 5.717-10.24 14.424-14.04 19.348-3.81 4.924-6.92 9.336-6.92 9.805 0 .98 2.98 2.876 4.59 2.921.6.016 3.58-3.457 6.62-7.72zm36.89 5.945c3.95-.674 4.76-1.369 9.58-8.215 7.22-10.276 7.95-11.336 20.25-29.48 10.35-15.267 12.39-18.146 22.62-32 2.43-3.3 4.43-6.292 4.44-6.649.01-.794-8.98-1.669-10.78-1.049-.71.244-2.18 2.077-3.26 4.071-1.09 1.995-3.82 6.552-6.07 10.127-2.26 3.575-4.85 7.85-5.77 9.5-5.75 10.387-35 51.075-38.07 52.976-1.79 1.106-1.13 2.688.86 2.057 1.04-.331 3.83-.933 6.2-1.338zm22.63-7.706c4.78-6.352 20.61-28.45 24.27-33.883 3.33-4.946 11.74-16.627 18.24-25.348 3.79-5.083 6.61-9.695 6.27-10.25-.35-.554-2.41-1.008-4.59-1.008-3.65 0-4.19.368-6.69 4.578-6.25 10.49-31.43 47.203-40.55 59.1-9.3 12.142-9.7 12.852-7.5 13.481 4.07 1.164 5.18.462 10.55-6.67zm11.01 1.011c2.37-3.3 6.53-9.15 9.23-13 7.85-11.167 22.79-31.463 32.4-44.02 4.88-6.372 8.93-12.345 9-13.273.1-1.338-.6-1.628-3.37-1.395-4.15.348-3.55-.367-16.21 19.188-5.52 8.525-11.71 17.75-13.74 20.5-2.04 2.75-7.04 9.703-11.11 15.452-4.08 5.749-9.78 12.997-12.66 16.108-2.88 3.11-4.92 5.965-4.54 6.345.38.379 2.04.556 3.69.392 2.37-.235 3.9-1.552 7.31-6.297zm-69.52-20.427c9.21-13.632 23.63-33.537 33.13-45.74 2.82-3.619 1.48-5.71-3.11-4.853-2.06.384-3.77.771-3.8.859-.04.089-1.66 2.411-3.6 5.161-1.95 2.75-6.42 9.209-9.94 14.353-3.52 5.143-7.75 11.285-9.4 13.647s-6.5 9.403-10.78 15.647c-4.27 6.244-9.31 13.378-11.18 15.853-4.06 5.356-4.28 6.765-1.29 7.972 3.04 1.224 5.82-1.97 19.97-22.899zm-440.68 17.397c9.878-1.942 22.408-4.156 27.844-4.92 5.437-.765 10.456-1.989 11.154-2.72.93-.974 1.125-3.941.73-11.08-.514-9.264-1.427-12.074-2.54-7.816-.342 1.307-1.757 2.163-4.367 2.642-5.446.999-11.33 3.743-31.749 14.809-19.814 10.739-22.87 12.615-20.545 12.615.832 0 9.595-1.589 19.473-3.53zm417.67-2.975c1.55-2.197 4.23-6.02 5.97-8.495s4.52-6.525 6.19-9c1.66-2.475 3.32-4.725 3.68-5s3.42-4.325 6.81-9c3.38-4.675 7.16-9.839 8.39-11.476 11.26-14.92 14.75-19.788 14.75-20.589 0-1.388-7.38-1.133-9.14.315-.83.688-2.95 3.547-4.7 6.355s-4.08 5.916-5.17 6.905c-1.1.99-1.99 2.264-1.99 2.831 0 .566-1.79 3.151-3.97 5.743-2.19 2.592-4.97 6.446-6.18 8.564-1.21 2.119-3.61 5.652-5.33 7.852s-5.76 7.825-8.98 12.5-6.34 8.959-6.94 9.52c-.61.561-1.67 2.034-2.37 3.274-1.14 2.008-1.03 2.354 1 3.178 3.54 1.443 4.97.822 7.98-3.477zm-10.19-4.745c16.84-21.51 43.86-58.141 43.41-58.865-.3-.487-2.47-.885-4.81-.885-5 0-5.69.645-13.96 13-3.13 4.675-6.7 9.847-7.92 11.493-1.23 1.646-4.92 6.596-8.19 11-5.13 6.891-12.64 16.049-19.89 24.239l-1.97 2.232 3.4 1.479c1.88.813 3.95 1.496 4.61 1.518.66.021 3.06-2.323 5.32-5.211zm-12.52-7.494c3.85-4.756 11.92-14.747 17.93-22.202s13.75-16.992 17.19-21.195c3.45-4.202 5.99-7.915 5.66-8.25-1.06-1.058-10.13-.658-10.83.478-.49.783-.98.783-1.76 0-1.19-1.184-6.56-1.458-9.14-.466-.89.341-3.73 3.603-6.31 7.25-2.57 3.646-7.17 9.606-10.21 13.244s-8.29 10.163-11.67 14.5c-3.37 4.337-8.89 10.879-12.25 14.538-3.36 3.66-6.11 6.922-6.11 7.25s1.99.597 4.43.597h4.42l17.28-21.25c21.41-26.336 26.91-32.75 28.1-32.75 1.09 0-2.45 6.107-6.16 10.63-1.42 1.721-4.15 5.423-6.07 8.225s-6.88 9.67-11 15.262c-15.87 21.51-16 21.725-14.18 22.207.92.244 2.13.475 2.68.513.55.037 4.15-3.824 8-8.581zm-306.34 4.776c5.94-2.258 10.84-6.508 10.84-9.405 0-1.099.92-2.972 2.03-4.163 4.12-4.378 2.08-15.785-3.73-20.973-6.23-5.551-8.65-6.473-18.421-7.014-5.158-.285-12.617-.727-16.575-.981-9.376-.601-10.304.255-10.304 9.503 0 3.771-.417 10.151-.927 14.179-.51 4.027-1.195 10.333-1.522 14.013l-.595 6.692 4.272.454c9.619 1.023 29.652-.299 34.932-2.305zm236.36 1.979c1.31-.007 5.2-3.634 11-10.245 4.94-5.629 11.28-12.716 14.1-15.75 16.71-18.006 28.24-31.557 27.48-32.312-1.32-1.32-10.16.345-11.98 2.257-.89.932-3.42 3.858-5.62 6.503-9.62 11.569-40.03 46.246-42.4 48.355l-2.6 2.319 4-.558c2.2-.307 4.91-.563 6.02-.569zm23.59-6.761c2.5-2.612 8.32-9.25 12.93-14.75 4.62-5.5 13.48-15.932 19.68-23.181 6.2-7.25 11.28-13.438 11.28-13.75 0-.313-1.97-.569-4.38-.569-3.85 0-4.78.464-7.52 3.75-1.73 2.062-9.05 10.95-16.27 19.75-7.23 8.8-16.71 19.938-21.07 24.75l-7.93 8.75h4.37c3.92 0 4.85-.499 8.91-4.75zm15.27 1c1.86-2.062 7.87-9.15 13.36-15.75s14.77-17.4 20.61-24c5.85-6.6 10.63-12.392 10.64-12.87.01-.479-2.74-.671-6.1-.428-4.43.32-6.38.917-7.08 2.17-3.4 6.073-28.01 37.205-38.05 48.144-2.61 2.84-4.45 5.461-4.09 5.824.37.363 2.16.66 4 .66 2.59 0 4.09-.84 6.71-3.75zm-358.441-8.829c13.968-2.294 22.438-4.206 26.75-6.039l6.311-2.682v-5.274c0-6.578-1.977-15.426-3.448-15.426-.607 0-4.242 1.946-8.078 4.325-9.516 5.901-18.507 10.892-38.974 21.634-6.6 3.463-12.45 6.736-13 7.271-1.24 1.208 3.554.608 30.439-3.809zm141.511-10.427c7.59-7.547 9.92-11.434 4.14-6.89-5.07 3.996-12.63 6.049-27.52 7.48-9.2.884-14.73 1.846-15.24 2.652-1.01 1.601-1.05 4.195-.08 5.216.41.432 7.5.488 15.75.123l15-.662zm12.04 2.436c5.87-5.05 33.51-32.963 33.51-33.835 0-.327-1.36-.595-3.03-.595-2.54 0-6.37 3.088-23.89 19.25-11.48 10.587-20.65 19.619-20.37 20.071 1.23 2.02 8.93-.714 13.78-4.891zm27.18-13.926c10.15-10.173 18.17-18.948 17.83-19.5-1.47-2.382-4.81-.465-13.62 7.809-5.16 4.847-14.07 13.066-19.8 18.265-5.73 5.198-10.61 10.007-10.83 10.687-.29.849.89 1.235 3.77 1.235 4.11 0 4.57-.379 22.65-18.496zm13.15-.658c10.08-9.957 17.94-18.483 17.48-18.948-2.09-2.084-7.35 1.717-24.04 17.354-9.84 9.214-18.76 17.412-19.82 18.218-1.79 1.352-1.55 1.467 3.06 1.472l5 .007zm-3.76 16.872c.86-.67 4.73-4.818 8.61-9.218s10.94-11.802 15.69-16.448 8.64-8.809 8.64-9.25c0-2.213-4.31-.308-8.16 3.607-2.39 2.425-10.87 10.347-18.84 17.605s-14.65 13.599-14.83 14.091c-.5 1.345 7.1 1.014 8.89-.387zm31.02-18.218c16.44-17.036 17.22-18.017 14.54-18.326-2.94-.339-8.07 3.29-7.03 4.971.29.47-.06.874-.78.898-.72.023-3.16 1.711-5.43 3.75-2.26 2.039-9.83 8.836-16.82 15.106-7.01 6.294-12.23 11.689-11.65 12.047s3.02.403 5.42.102c4.13-.518 5.33-1.541 21.75-18.548zm-3.91 17.68c3.1-1.259 35.98-34.427 35.05-35.355-1.8-1.808-6.48 1.344-18.98 12.805-7.01 6.418-15.55 13.932-18.99 16.699-3.44 2.766-6.25 5.399-6.25 5.85 0 .974 6.78.974 9.17.001zm23.47-6.43c3.79-3.438 10.48-9.66 14.87-13.828 4.4-4.167 9.79-9.218 11.99-11.223l4-3.645-5.29-.027-5.28-.027-14.22 12.75c-7.81 7.013-16.35 14.492-18.96 16.621-2.61 2.128-4.75 4.266-4.75 4.749 0 .484 2.42.88 5.38.88 5.19 0 5.61-.213 12.26-6.25zm11.53 3.495c1.47-.96 5.65-3.882 9.3-6.495 3.64-2.613 6.81-4.75 7.03-4.75.83 0 9.27-6.012 10.48-7.473.69-.84 1.64-1.527 2.1-1.527s4.48-2.587 8.94-5.75l8.09-5.75-8.12-.292-8.12-.291-9.19 7.121c-21.44 16.629-31.68 25.184-31.68 26.483 0 1.268 8.82.261 11.17-1.276zm-131-6.192c13.91-1.276 23.98-6.197 30.3-14.815 4.18-5.69 4.52-10.494 1.22-17.178-4.27-8.666-15.97-13.997-30.81-14.043-5.47-.017-5.65.067-6.24 3.017-1.19 5.964-5.95 16.332-8.52 18.559-1.44 1.246-5.65 3.461-9.36 4.923-3.71 1.461-7.02 3.103-7.36 3.65s.44 1.726 1.74 2.621c4.79 3.301 7.73 7.006 8.84 11.14l1.14 4.244 4.69-.616c2.58-.339 9.04-1.015 14.36-1.502zm42.56-17.281c4.55-4.525 8.27-8.598 8.27-9.05s-2.57-.687-5.71-.522l-5.71.3-1.77 6.896c-.97 3.793-2.52 7.731-3.44 8.75-.93 1.02-1.28 1.854-.8 1.854.49 0 4.61-3.703 9.16-8.228zm-486.839-3.772c3.113-3.025 7.214-8.425 9.113-12 2.89-5.442 3.437-7.476 3.36-12.5-.103-6.68-3.054-15.154-6.846-19.661-1.309-1.555-2.6-3.618-2.868-4.584-.269-.965-1.481-4.995-2.693-8.954-2.189-7.152-2.191-7.24-.354-13.374 1.641-5.476 2.633-6.867 8.785-12.301 15.662-13.833 19.637-19.666 21.036-30.865.586-4.686.341-6.304-1.502-9.93-2.259-4.446-13.707-16.29-17.371-17.974-4.584-2.107-19.28-12.255-21.291-14.702-.681-.83-1.552-1.196-1.935-.814-.382.383-.173 20.15.464 43.927.666 24.867.889 60.182.526 83.132l-.633 39.901 3.274-1.901c1.801-1.045 5.822-4.375 8.935-7.4zm313.109-13.051c.825-.52 8.602-4.411 17.281-8.646l15.782-7.701-.68-4.534c-.733-4.888-3.002-11.068-4.064-11.068-.91 0-67.103 49.842-67.895 51.123-.55.89 35.302-16.481 39.576-19.174zm102.89 11.286c11.93-5.054 16.42-11.066 17.72-23.706 1.11-10.878-3.27-16.798-16.36-22.083-5.56-2.246-23.242-4.446-35.734-4.446h-4.194l-1.243 8.75c-.684 4.812-1.636 10.775-2.116 13.25s-1.133 8.325-1.452 13c-.318 4.675-.827 10.611-1.131 13.192l-.552 4.691 4.836.423c2.66.232 11.136.341 18.836.242 13.24-.171 14.4-.35 21.39-3.313zm123.94-10.262 4.67-.027-3.68-3.223c-2.02-1.773-5.17-4.44-7-5.927s-6.19-5.087-9.7-8c-3.5-2.913-7.85-6.421-9.65-7.796s-5.09-3.976-7.31-5.78l-4.02-3.28-3.05 4.429c-4.91 7.134-11.73 11.476-21.75 13.838l-8.67 2.044 4.55 4.247c2.51 2.335 4.87 5.204 5.24 6.374.64 2.015 1.35 2.134 13.36 2.246 6.97.065 18.76.435 26.18.822s14.1.559 14.83.382 3.43-.334 6-.349zm14.53-.251c1.58-1.149 1.07-1.78-5.05-6.306-3.75-2.766-8.61-6.11-10.81-7.432-7.48-4.494-27.99-19.402-30.56-22.218-2.27-2.48-3.94-2.793-3.94-.738 0 .381 7.54 6.682 16.75 14.001 9.21 7.318 18.78 15.233 21.25 17.588 3.8 3.617 7.67 6.049 10.06 6.32.31.034 1.34-.512 2.3-1.215zm68.64.387c0-.49-4.16-3.726-9.25-7.191-7.55-5.14-19.58-14.239-38.15-28.853-1.09-.861-4.53-3.928-7.63-6.815-5-4.649-9.97-6.853-9.97-4.424 0 .454 5.23 5.067 11.62 10.25s17.52 14.343 24.73 20.355c19.69 16.424 21.34 17.569 25.23 17.569 1.88 0 3.42-.401 3.42-.891zm8.4.049c.61-.982-4.16-5.675-9.95-9.783-2.22-1.581-6.05-4.55-8.5-6.597-2.45-2.048-10.42-8.662-17.72-14.699s-14.43-12.35-15.84-14.028c-1.96-2.329-3.39-3.051-6.06-3.051-5.58 0-7.97-2.262 31.17 29.428 7.7 6.234 16.03 13.169 18.5 15.412 4.33 3.922 7.3 5.097 8.4 3.318zm-63.4-1.035c0-.823-6.46-5.893-20.31-15.937-8.59-6.227-29.77-23.48-32.61-26.56-1.69-1.822-3.45-2.626-5.75-2.626-1.83 0-3.33.379-3.33.842 0 .464 6.83 6.426 15.17 13.25 8.34 6.825 18.13 14.893 21.75 17.93 14.9 12.506 17.13 13.978 21.21 13.978 2.13 0 3.87-.395 3.87-.877zm14 .105c0-.425-4.84-4.671-10.75-9.435-5.91-4.765-18.59-14.993-28.17-22.728-12.41-10.017-18.16-14.061-20-14.05-6.01.036-5.21 1.533 5.66 10.616 11.48 9.601 22.42 18.431 30.68 24.775 2.79 2.148 7.06 5.635 9.47 7.75 3.66 3.199 5.12 3.844 8.75 3.844 2.4 0 4.36-.348 4.36-.772zm26-.064c0-.958-7.89-8.411-9.7-9.164-1.32-.546-26.09-20.651-38.08-30.906-6.84-5.846-7.88-6.401-11.93-6.339-4.64.07-6.46.866-4.69 2.049 2.02 1.348 22.1 17.249 39.32 31.142 15.61 12.592 17.82 14.054 21.25 14.054 2.11 0 3.83-.376 3.83-.836zm-23.66-8.414c-17.54-13.342-28.09-21.747-37.65-30-5.71-4.93-9.84-7.75-11.34-7.75-3.48 0-2.9 1.289 2.52 5.615 13.85 11.06 47.15 38.611 47.66 39.436.32.522 2.63.949 5.12.949h4.54zm54.32 4.5c2.18-1.512 6.86-4.923 10.4-7.58 8.83-6.623 33.18-24.135 46.19-33.224 5.91-4.129 10.75-7.771 10.75-8.094s-3.26-.306-7.25.037c-13.93 1.199-63.46 3.522-89.25 4.186-14.3.368-26.61.998-27.36 1.401-1 .531-.06 1.801 3.39 4.628 11.5 9.414 46.29 39.301 46.91 40.298 1 1.613 1.84 1.39 6.22-1.652zm-166.54-15.182c9.59-1.571 13.43-2.947 18.01-6.444 7.04-5.375 10.22-10.741 10.66-17.98.53-8.749-2.1-14.24-9.15-19.091-6.78-4.668-10.43-5.499-24.3-5.529l-11.15-.024-3.04 6.25c-1.67 3.438-3.62 6.966-4.34 7.84-2.78 3.374-15.14 10.95-20.33 12.459-2.99.87-5.68 1.968-5.97 2.439-.29.472 1.29 1.662 3.52 2.646 4.41 1.947 10.97 10.505 10.97 14.318 0 1.256.91 2.479 2.25 3.017 2.98 1.197 25.75 1.265 32.87.099zm-222.772-29.715c5.034-3.106 11.638-7.269 14.676-9.25 3.038-1.982 6.266-4.053 7.174-4.603s7.422-4.865 14.476-9.589c17.562-11.76 22.528-14.911 23.497-14.911.456 0 .829-.61.829-1.355 0-1.621-11.736-14.645-13.196-14.645-.56 0-5.113 4.387-10.118 9.75-5.006 5.363-15.42 16.276-23.143 24.252-21.74 22.451-25.036 25.998-24.161 25.998.448 0 4.932-2.541 9.966-5.647zm177.252 2.428c11.05-3.854 17.77-8.835 21.91-16.23 1.92-3.434 3.49-7.196 3.49-8.36 0-4.528-4.12-13.069-8-16.57-8.37-7.56-16.29-9.703-36.8-9.954l-13.682-.167-1.43 4.5c-.786 2.475-2.472 7.262-3.746 10.639-3.057 8.101-9.889 36.148-9.017 37.019 1.29 1.29 14.193 2.19 27.175 1.896 10.75-.244 14.23-.724 20.1-2.773zm101.01-7.41c2.14-1.445 5.69-3.862 7.89-5.37s7.31-4.938 11.35-7.622c12.48-8.286 42.42-30.867 42.97-32.409.47-1.296-4.89-2.429-6.45-1.367-.73.493-4.38 2.96-8.1 5.48-6.23 4.215-37.1 24.43-42.63 27.917-1.31.825-5.61 3.637-9.54 6.25-3.94 2.613-7.4 4.75-7.68 4.75-.95 0 4.39-4.416 12.79-10.574 4.56-3.34 16.95-12.565 27.54-20.5 17.68-13.254 19.02-14.472 16.5-14.998-2.1-.438-3.92.256-7.75 2.958-16.61 11.727-47.62 32.473-53.38 35.713-6.69 3.764-7.4 4.238-8.16 5.47-.82 1.321-.29 3.605 1.32 5.681.65.84 4 1.25 10.2 1.25 8.32 0 9.63-.261 13.13-2.629zm14.39.92c1.38-.321 5.88-.483 10-.361 6.47.192 7.98-.104 11-2.162 1.92-1.312 9.17-6.247 16.1-10.968s15.32-10.545 18.63-12.942c3.32-2.397 9.92-7.046 14.65-10.332 4.74-3.286 8.62-6.323 8.62-6.75s.65-.776 1.44-.776 1.72-.444 2.05-.987c1.19-1.922-7.62-.489-9.83 1.599-1.19 1.118-2.95 2.323-3.91 2.678-.96.354-5.01 2.823-9 5.485-3.99 2.663-9.5 6.159-12.25 7.77s-5.74 3.385-6.63 3.942c-.9.557-6.02 3.713-11.37 7.013s-13.1 8.162-17.23 10.804c-4.12 2.642-7.75 4.554-8.05 4.25-.66-.664-1.29-.154 7.28-5.96 24.43-16.561 51.62-36.732 51.2-37.99-.68-2.044-3.64-1.759-5.97.577-1.28 1.276-3.43 2.879-4.78 3.563s-4.55 2.709-7.12 4.5-11.57 7.706-20 13.145-17.76 11.514-20.73 13.5-6.12 4.048-7 4.581c-7.77 4.709-9.1 5.728-8.58 6.57.57.907 5.86.561 11.48-.749zm41.13-4.575c2.95-1.807 6.44-3.944 7.74-4.75s10.6-6.866 20.67-13.466c10.06-6.6 21.53-14.003 25.48-16.45 5.85-3.623 6.84-4.586 5.33-5.18-3.89-1.53-7.17-.766-12.43 2.898-2.98 2.072-10.82 7.048-17.42 11.057s-19.42 11.797-28.5 17.307-16.93 10.434-17.45 10.943c-.58.569 1.39.925 5.13.925 5.11 0 6.93-.521 11.45-3.284zm21.31-.861c3.88-2.279 8.93-5.429 11.22-7 2.29-1.57 4.42-2.855 4.72-2.855s4.5-2.535 9.34-5.633c12.4-7.956 14.63-9.361 25.03-15.811 5.09-3.154 9.25-6.145 9.25-6.645 0-1.162-9.7-1.202-10.42-.043-.29.477-4.48 3.202-9.31 6.055-4.82 2.853-9.44 5.598-10.27 6.099-1.27.771-9.29 5.34-24.81 14.135-1.82 1.032-6.54 3.738-10.5 6.015-3.95 2.277-8.87 5.082-10.93 6.234s-3.75 2.431-3.75 2.844c-.01.413 3 .75 6.68.75 6.04 0 7.37-.402 13.75-4.145zm26.72-3.748c27.78-19.01 45.54-30.856 47.09-31.415.96-.346 1.75-1.093 1.75-1.661 0-1.688-4.99-1.171-7.85.813-2.44 1.699-18.32 10.796-53.4 30.59-7.56 4.268-13.75 7.987-13.75 8.265 0 .279 3.78.348 8.41.154l8.4-.353zm-401.16.377c53.22-37.589 62-44.178 62-46.532 0-1.091-15.515-12.952-16.941-12.952-.582 0-1.059.369-1.059.82s-1.39 2.363-3.089 4.25c-1.699 1.886-4.511 5.183-6.25 7.325-3.544 4.368-13.712 16.231-27.161 31.69-10.639 12.229-16.5 19.455-16.5 20.343 0 .861 3.518-1.072 9-4.944zm435.28 3.5c9.78-.541 24.77-.984 33.3-.984 16.11 0 18.85-.568 23.92-4.97 2.56-2.222 12.85-9.37 27.75-19.278 6.46-4.298 11.75-8.181 11.75-8.631 0-.846-13.61-1.609-49.21-2.757-17.04-.549-21.01-.419-22.37.734-.91.771-4.74 3.202-8.52 5.402-8.26 4.815-35.77 21.188-45.12 26.852-4.26 2.58-6.28 4.34-5.52 4.81.66.407 4.58.53 8.72.273 4.14-.256 15.52-.909 25.3-1.451zm-147.3-13.234c8.84-6.738 17.3-13.155 18.79-14.261 1.5-1.107 7.2-5.382 12.67-9.5l9.93-7.489-3.8-.317c-2.69-.225-4.42.25-5.93 1.629-4.24 3.862-48.1 32.188-49.84 32.188-.59 0-.45-.725.33-1.666 1.23-1.5 1.1-1.599-1.34-.992-1.48.371-3.96 1.152-5.5 1.736-2.52.961-2.62 1.159-.98 2.076 1 .557 2.46.765 3.25.461.83-.317 1.44.039 1.44.835 0 1.721 3.24 7.535 4.21 7.544.39.003 7.94-5.506 16.77-12.244zm-294.48-14.289c13.585-11.931 29.266-25.121 43.617-36.687 3.93-3.168 4.54-2.476-8.34-9.454-9.218-4.993-8.488-5.331-17.696 8.18-3.373 4.95-8.259 11.952-10.857 15.56-5.894 8.185-28.175 38.928-29.64 40.897-2.098 2.821 7.085-4.591 22.916-18.496zm268.26 9.955c9.41-1.945 12.52-3.46 18.03-8.775 10.66-10.273 12.4-27.014 3.76-36.15-4-4.226-14.99-6.929-26.82-6.597-3.11.087-3.98.587-4.96 2.856-2.44 5.669-6.98 11.295-12.54 15.536-4.67 3.565-7.68 4.892-16.23 7.153-15.95 4.217-15.33 3.658-8.87 7.948 4.36 2.896 6.27 5.04 8.73 9.8 1.73 3.352 3.14 6.931 3.14 7.953 0 1.725 1.02 1.86 14.04 1.86 8.92 0 16.84-.578 21.72-1.584zm-289.69-23.489c10.137-10.49 23.274-23.409 29.194-28.708 5.92-5.3 10.611-10.105 10.424-10.677-.447-1.372-14.216-5.405-18.688-5.474-3.297-.051-3.72.337-7.29 6.689-2.085 3.709-4.901 8.543-6.259 10.743-1.357 2.2-3.828 6.475-5.49 9.5-1.663 3.025-4.345 7.525-5.96 10s-4.097 6.663-5.515 9.308c-1.418 2.644-4.352 7.706-6.521 11.25-2.169 3.543-3.579 6.442-3.134 6.442s9.103-8.583 19.239-19.073zm-39.07 11.411c9.266-12.135 11.817-15.427 15.832-20.435 13.83-17.251 28.168-36.102 28.168-37.034 0-1-15.992-1.193-18.518-.224-1.457.56-4.224 5.874-12.418 23.855-1.002 2.2-5.45 11.762-9.883 21.25-4.434 9.488-7.751 17.232-7.371 17.211.379-.021 2.265-2.102 4.19-4.623zm-105.522-1.077c.855-4.567 9.589-33.552 13.611-45.171 1.601-4.626 2.911-8.788 2.911-9.25s-3.333-.84-7.407-.84h-7.406l-.584 9.25c-.322 5.087-1.053 17.125-1.625 26.75-.573 9.625-1.314 19.028-1.648 20.895-.394 2.201-.247 3.171.418 2.761.564-.349 1.342-2.326 1.73-4.395zm16.98.989c1.131-4.607 11.13-29.587 17.513-43.75 3.947-8.757 5.354-12.509 4.871-12.991-.235-.235-3.596-.162-7.469.163l-7.043.59-4.59 27.619c-2.525 15.191-4.897 28.407-5.272 29.369s-.233 1.75.317 1.75c.549 0 1.302-1.238 1.673-2.75zm72.425-16.5c7.192-10.587 14.323-20.911 15.846-22.942 11.709-15.603 12.581-16.998 11.176-17.888-1.634-1.035-6.83-1.158-12.096-.288-3.656.605-3.738.724-8.701 12.739-2.756 6.671-8.408 19.949-12.56 29.507-4.151 9.558-7.548 17.545-7.548 17.75 0 1.314 2.18-1.651 13.883-18.878zm384.797 9.208 10.78-8.043-8.89.293-8.89.292-1.73 6c-.96 3.3-2.06 6.788-2.45 7.75s-.46 1.75-.16 1.75c.31 0 5.41-3.619 11.34-8.042zm-418.723-30.458c2.96-5.5 6.205-11.35 7.209-13 3.463-5.689 2.752-6.5-5.697-6.5-5.16 0-7.649.394-7.904 1.25-1.371 4.607-12.558 51.878-12.527 52.935.021.723 3.075-4.535 6.787-11.685s9.171-17.5 12.132-23zm15.193 9c2.459-4.4 7.031-12.403 10.161-17.785 3.129-5.382 5.689-9.995 5.689-10.25 0-.256-3.338-.465-7.417-.465h-7.418l-1.516 4.25c-1.457 4.08-4.873 15.83-8.693 29.893-.992 3.654-2.513 8.732-3.38 11.285-3.12 9.189-1.593 9.222 3.295.072 2.644-4.95 6.82-12.6 9.279-17zm639.85 18.072c0-.235-2.59-2.043-5.75-4.019-3.16-1.975-8.45-5.599-11.75-8.054-3.3-2.454-7.58-5.387-9.5-6.516-1.92-1.13-5.13-3.276-7.12-4.769-2-1.493-8.52-6.144-14.5-10.337-5.99-4.192-11.74-8.58-12.78-9.75-1.86-2.075-8.36-3.034-9.93-1.464-.36.364 2.67 2.952 6.75 5.75 14.57 9.996 26.71 18.789 36.32 26.302 17.07 13.345 16.96 13.285 22.91 13.285 2.94 0 5.35-.192 5.35-.428zm-175.5-1.572c.34-.55.14-1-.44-1s-1.06.45-1.06 1 .2 1 .44 1 .72-.45 1.06-1zm140.71-.143c.29-.85.96-.838 2.61.047 1.23.66 4.9 1.058 8.22.893l6-.297-5.95-4.5c-3.27-2.475-12.54-9-20.61-14.5-8.06-5.5-19-13.262-24.3-17.25-8.83-6.639-10.05-7.25-14.41-7.25-2.62 0-4.75.337-4.73.75s5.91 5.025 13.08 10.25c7.16 5.225 14.01 10.333 15.2 11.352 1.2 1.019 4.09 3.232 6.43 4.918 2.33 1.687 4.05 3.267 3.8 3.512-.24.246-3.42-1.63-7.05-4.168s-6.99-4.614-7.46-4.614c-.48 0-1.02-.372-1.21-.826-.18-.455-5.05-4.116-10.83-8.135-5.78-4.02-11.98-8.598-13.78-10.174-2.43-2.119-4.32-2.865-7.25-2.865-2.19 0-3.97.337-3.96.75 0 .413 4.62 4.018 10.25 8.013s13 9.395 16.36 12c3.37 2.605 7.63 5.862 9.46 7.237s6.78 5.279 10.99 8.677c7.33 5.91 8.92 6.596 16.6 7.163 1.19.088 2.33-.355 2.54-.983zm44.01-1.355c2.45-1.373 5.28-3.398 6.28-4.5.99-1.101 2.13-2.002 2.52-2.002s3.87-2.137 7.74-4.75c3.86-2.613 15.62-10.554 26.13-17.647 10.51-7.094 19.11-13.213 19.11-13.598 0-.582-119.59-.287-123.87.305-.76.105 4.42 4.551 11.5 9.881s20.29 15.334 29.37 22.23c9.08 6.897 16.56 12.549 16.62 12.559.07.011 2.14-1.104 4.6-2.478zm-60.22.511c0-.544-1.69-2.104-3.75-3.469-9.15-6.053-29.21-20.742-47.58-34.84-3.65-2.8-5.77-3.704-8.69-3.704-2.12 0-4.08.345-4.34.767-.26.421 2.43 2.784 5.97 5.25 3.54 2.465 11.49 8.225 17.66 12.799 6.18 4.573 13.48 9.963 16.23 11.977s7.03 5.322 9.5 7.35c2.47 2.029 5.62 3.89 7 4.136 4.66.836 8 .725 8-.266zm-17.86-2.965c-1.84-1.578-7.79-5.854-13.22-9.501-5.42-3.646-10.52-7.286-11.32-8.089-.8-.802-1.76-1.458-2.12-1.458-.37 0-6.99-4.5-14.73-10-11.07-7.878-14.76-10-17.4-10-1.84 0-3.35.254-3.35.565 0 .833 4.3 4.315 18.64 15.091 7.07 5.317 15.11 11.427 17.86 13.578 16.5 12.903 16.26 12.769 22.87 12.725l6.13-.04zm-26.17 1.202c-.01-.413-5.97-4.682-13.25-9.488-7.27-4.805-18.84-12.455-25.72-17-6.88-4.544-14.12-9.5-16.09-11.012-3.6-2.755-6.34-3.475-7.3-1.92-.55.89 1.75 2.7 21.89 17.163 7.15 5.136 16.56 12.046 20.9 15.355 7.33 5.579 11.1 7.218 17.35 7.537 1.24.063 2.24-.222 2.22-.635zm10.39-1.033c-5.9-4.74-27.7-20.97-30.49-22.704-5.36-3.326-14.82-10.216-17.53-12.764-2.28-2.142-4.49-3.125-7.9-3.509-3.06-.344-4.52-.176-4.12.474.35.555 4.35 3.532 8.9 6.616 12.8 8.673 38.84 27.13 43.14 30.575 2.52 2.019 4.95 3.083 7 3.062 3.13-.033 3.13-.038 1-1.75zm-238.36-1.215c6.64-1.162 7.56-1.446 14.46-4.449 5.28-2.293 13.16-8.994 16.14-13.708 2.64-4.18 3.23-11.506 1.34-16.53-1.53-4.062-7.73-10.091-12.94-12.583-3.85-1.843-6.19-2.141-16.25-2.076-11.1.071-11.98.229-16 2.858-2.34 1.53-8.57 7.103-13.86 12.384-8.74 8.744-10.15 10.705-15.75 21.938-3.384 6.785-5.859 12.809-5.501 13.388.834 1.351 39.201.381 48.361-1.222zm209.55-1.252c-2.16-1.788-13.67-9.804-25.59-17.815-11.92-8.01-22.92-15.548-24.45-16.75-2.84-2.229-7.93-2.938-8.97-1.249-.32.515 4.04 4.129 9.69 8.031 18.62 12.865 23.25 16.171 25.33 18.113 1.14 1.056 2.57 1.92 3.18 1.92.62 0 1.89.77 2.83 1.712s4.01 3.397 6.82 5.456c4.25 3.11 5.95 3.751 10.09 3.788l4.98.044zm-12.55 1.5c0-.704-13.26-9.82-43.36-29.814-7.07-4.697-13.58-8.402-14.46-8.233-1.05.203.28 1.657 3.86 4.223 5.71 4.091 23.18 18.457 33.46 27.507 3.3 2.906 6.9 5.656 8 6.112 2.53 1.046 12.5 1.209 12.5.205zm-20.03-1c-.01-.413-3.94-3.675-8.72-7.25-9.35-6.995-32.51-25.312-35.69-28.223-1.18-1.085-3.5-1.777-5.95-1.777-2.21 0-3.58.371-3.06.826 1.35 1.171 18.38 15.499 27.26 22.924 4.11 3.438 7.74 6.252 8.08 6.255.34.002 2.27 1.532 4.3 3.398 2.04 1.866 4.29 3.629 5 3.916 2.05.819 8.81.766 8.78-.069zm-29.02-1c-.02-.413-1.71-2.013-3.75-3.557-7.88-5.97-17.87-13.312-21.7-15.936-2.2-1.509-7.72-5.847-12.26-9.64-7.74-6.463-14.2-9.51-16.09-7.588-.7.706 3.74 4.771 13.35 12.226 3.3 2.56 11.38 8.933 17.96 14.161 9.1 7.226 12.93 9.665 16 10.17 5.93.974 6.54.99 6.49.164zm12.05-1.336c-1.38-1.111-5.2-4.236-8.5-6.944-3.3-2.709-9.8-7.7-14.45-11.092-4.65-3.391-11.29-8.577-14.76-11.522-5.43-4.607-6.9-5.356-10.48-5.356h-4.17l3.99 3.416c3.83 3.279 12.92 10.275 27.87 21.448 3.85 2.878 8.97 6.786 11.39 8.684 3.2 2.52 5.36 3.443 8 3.419l3.61-.034zm-33-2.885c-7.48-6.127-38.53-30.022-39-30.019-.28.002-1.5 1.463-2.72 3.247-1.94 2.832-9.06 7.282-14.59 9.126-1.6.531-1.34 1.176 2.13 5.361 2.18 2.616 4.25 5.709 4.59 6.874 1.58 5.252 3 5.596 26.71 6.497 12.2.463 22.41 1.077 22.69 1.364.29.286 1.24.497 2.11.468 1.03-.034.36-1.053-1.92-2.918zm-592-11.029c0-3.514.01-3.513-10.5-1.103-6.172 1.415-7.429 1.973-5.5 2.439 3.995.965 7.199 1.382 11.75 1.528 4.086.131 4.25.02 4.25-2.864zm536-12.089c6.64-2.52 7.29-3.03 12.05-9.48 3.37-4.556 3.67-5.47 3.02-9.001-.99-5.337-3.47-9.836-6.8-12.331-1.52-1.142-3.22-2.42-3.77-2.838-4.41-3.357-8.96-4.26-21.28-4.228-14.48.038-25.69 1.997-39.72 6.935-4.95 1.743-9.79 3.416-10.75 3.717-3.31 1.035-1.74 1.815 4.08 2.031 11.9.44 26.84 10.404 29.16 19.45 1.68 6.579 1.72 6.648 4.2 7.12 1.27.243 7.26.503 13.31.577 8.96.111 12.02-.251 16.5-1.952zm133.91-14.911c3.41 0 4.22-.593 9.17-6.696 2.98-3.683 6.32-7.685 7.42-8.892s3.72-4.269 5.82-6.804l3.82-4.608h-3.76c-3.49 0-4.73.96-17.02 13.177-11.9 11.827-15.05 16.068-10.68 14.391.82-.312 3.17-.568 5.23-.568zm-75.91-3.338c4.27-6.054 11.65-15.556 14.39-18.531l3.11-3.369-33.5.707c-18.42.388-33.64.846-33.82 1.017-.17.171 1.91 2.391 4.63 4.933 3.72 3.478 5.24 5.794 6.15 9.352.66 2.601 1.62 5.768 2.13 7.039l.92 2.31 17.25-.665c16.05-.619 17.34-.811 18.74-2.793zm22.88 2.713c2.38-.476 4.21-2.151 7.67-6.998 2.5-3.505 6.82-8.961 9.59-12.125l5.05-5.752-2.81-.337c-2.35-.282-3.78.703-8.77 6-3.28 3.485-8.4 8.898-11.38 12.029-6.52 6.848-6.36 8.585.65 7.183zm16.15-.39c1.04-.558 3.34-3.146 5.11-5.75 1.76-2.604 5.83-7.72 9.03-11.369 6.99-7.953 7.31-9.359 1.97-8.504-3.23.515-5.35 2.152-12.75 9.835-4.89 5.07-10.13 10.43-11.64 11.911-1.51 1.482-2.75 3.189-2.75 3.793 0 1.393 8.46 1.457 11.03.084zm22.3-11.542c5.87-6.906 10.67-12.981 10.67-13.5s-1.06-.943-2.37-.943c-1.73 0-5.57 3.416-14.46 12.864-6.66 7.076-11.82 13.151-11.47 13.5.35.35 2.06.636 3.8.636 2.82 0 4.33-1.373 13.83-12.557zm8.32 6.367c2.67-3.404 7.66-9.178 11.1-12.83s6.25-6.942 6.25-7.31c0-.908-6.25-.825-7.5.099-4.11 3.034-23.59 24.283-23.05 25.146.37.597 2.4 1.085 4.51 1.085 3.53 0 4.25-.517 8.69-6.19zm27.48 2.94c18.88-21.514 21.4-25.847 14.04-24.123-2.47.579-28.13 24.839-28.16 26.623 0 .413 2.53.75 5.63.75 5.11 0 5.91-.304 8.49-3.25zm-79.44-4.365c2.65-3.639 6.94-9.151 9.55-12.25l4.73-5.635-3.23-.336c-3.42-.355-4.87.97-20.86 19.086l-5.08 5.75h5.04 5.04zm93.66 3.331c4.62-4.822 19.1-21.768 19.48-22.816.19-.495-.94-.887-2.5-.871-2.26.024-5.5 2.629-16.08 12.932-7.29 7.096-13.25 13.158-13.25 13.471 0 .312 2.07.568 4.6.568 3.89 0 5.08-.504 7.75-3.284zm9.06 2.68c1.82-.696 23.59-24.28 23.59-25.55 0-.465-.97-.846-2.16-.846-2.41 0-28.14 24.71-27.24 26.161.61.98 3.56 1.1 5.81.235zm16.76-1.216c.93-.374 6.93-6.192 13.34-12.93l11.67-12.25h-4.41c-4.26 0-4.84.413-17.47 12.25-7.18 6.738-12.86 12.587-12.62 13 .54.916 7.19.867 9.49-.07zm45.06-12.073c11.8-11.925 12.58-12.938 10.34-13.499-4.47-1.123-9.44 1.835-22.47 13.392-7.13 6.325-13 11.837-13.04 12.25-.03.413 2.75.75 6.18.75h6.23zm13.72 2.95c4.43-5.468 8.48-10.207 9.01-10.53.52-.323 1.9-1.924 3.06-3.557l2.12-2.97h-3.47c-3.04 0-5.24 1.589-17.57 12.658-7.76 6.961-14.1 13.036-14.1 13.5 0 .463 2.9.842 6.45.842h6.45zm20.98-3.547 13.57-13.491-5.49-.009-5.48-.01-12.77 12.736c-7.02 7.004-12.76 13.079-12.76 13.5 0 .42 2.1.764 4.68.764 4.66 0 4.7-.027 18.25-13.49zm27.78 3.24c6.31-5.637 13.01-11.531 14.88-13.097 4.07-3.396 4.3-4.653.86-4.653-1.76 0-6.89 3.555-16.75 11.611-7.81 6.386-15.04 12.2-16.06 12.92-2.49 1.752-1.23 3.469 2.53 3.469 2.47 0 5.29-1.99 14.54-10.25zm4.21 7c4.74-4.111 19.5-17.073 23.99-21.061 3.4-3.018 3.4-3.03 1.1-3.88-1.26-.468-2.35-.73-2.41-.58-1.08 2.799-4.8 6.173-17.38 15.771-8.3 6.325-15.11 11.837-15.15 12.25s1.32.75 3.02.75c2.05 0 4.35-1.091 6.83-3.25zm21.32-5c5.18-4.538 11.95-10.275 15.04-12.75 3.1-2.475 5.65-4.785 5.67-5.133.03-.349-1.19-.877-2.7-1.175-2.11-.415-3.45.127-5.75 2.314-2.64 2.515-24.52 19.643-29.96 23.461-1.88 1.318-1.64 1.432 3.12 1.481 5.07.051 5.35-.106 14.58-8.198zm17.26.746c5.5-3.778 13.71-9.364 18.25-12.413s8.25-5.891 8.25-6.314c0-1.152-13.78-.928-14.5.236-.34.553-3.35 2.915-6.69 5.25s-7.29 5.145-8.79 6.245-6.4 4.514-10.87 7.586c-4.48 3.073-7.81 5.929-7.4 6.346.41.418 3.22.574 6.25.346 4.85-.364 6.68-1.224 15.5-7.282zm-122.5-5.996 12.47-12.5h-3.82c-3.47 0-5.03 1.095-17.23 12.074-7.38 6.64-13.42 12.265-13.42 12.5 0 .234 2.14.426 4.77.426h4.76zm67.82-.25 13.81-12.75-4.23-.301c-3.91-.279-4.56.058-8.75 4.5-2.49 2.64-8.58 8.176-13.54 12.301-4.95 4.125-9.02 7.837-9.05 8.25-.04.413 1.74.75 3.95.75 3.74 0 4.91-.837 17.81-12.75zm-800.82 68.044c-3.568-1.305-6-4.674-6-8.313 0-6.226 6.642-10.241 11.925-7.209 5.952 3.416 6.764 9.838 1.731 13.677-3.327 2.538-4.794 2.891-7.656 1.845zm714.5-13.294c-.34-.55-.17-1 .38-1s1.28.45 1.62 1 .17 1-.38 1-1.28-.45-1.62-1zm-790.958 326.75c-1.16-3.667-4.891-21.807-5.194-25.25-.629-7.153 2.051 1.191 5.622 17.5.422 1.925 1.1 4.737 1.507 6.25.74 2.75-1.091 4.169-1.935 1.5zm-8.755-39.75c-1.448-5.775-2.961-11.573-3.362-12.884-.544-1.782-.384-2.269.635-1.929.75.25 1.906 3.122 2.568 6.384.662 3.261 1.712 7.923 2.334 10.36.621 2.438.978 5.363.793 6.5-.185 1.138-1.521-2.656-2.968-8.431zm1.213-319c0-.559 2.536-.969 5.75-.93 4.137.051 5.189.312 3.75.93-2.804 1.205-9.5 1.205-9.5 0zm13.812-.683c.722-.289 1.585-.253 1.917.079s-.258.568-1.312.525c-1.165-.048-1.402-.285-.605-.604z" fill="#b59e72"/></svg>